<svg width="41" height="40" viewBox="0 0 41 40" fill="none" xmlns="http://www.w3.org/2000/svg">
<rect x="0.5" width="40" height="40" rx="20" fill="url(#paint0_linear_2529_4768)"/>
<path d="M20.5091 15.5731C22.9026 15.5684 24.8488 13.6194 24.8488 11.2241C24.8488 8.82594 22.8979 6.875 20.4998 6.875C18.1016 6.875 16.1507 8.82594 16.1507 11.2241C16.1507 13.6194 18.097 15.5684 20.4909 15.5731H20.5091ZM11.2949 24.5094V26.9858H14.474C14.4721 26.9202 14.4637 26.8555 14.4637 26.7889V22.5031C14.4637 22.3691 14.5209 22.2411 14.6216 22.1525C14.6711 22.1083 14.7294 22.0752 14.7927 22.0554C14.856 22.0355 14.9228 22.0295 14.9887 22.0377C18.4813 22.4595 20.1927 21.1508 20.2096 21.1372C20.2931 21.0715 20.3964 21.0359 20.5027 21.0363C20.6089 21.0366 20.712 21.0728 20.7951 21.1391C20.8101 21.1508 22.5234 22.46 26.0109 22.0377C26.0767 22.0298 26.1434 22.0359 26.2067 22.0557C26.27 22.0755 26.3283 22.1085 26.3779 22.1524C26.4275 22.1964 26.4673 22.2504 26.4945 22.3109C26.5217 22.3713 26.5358 22.4368 26.5359 22.5031V26.7894C26.5359 26.8555 26.5274 26.9197 26.5255 26.9858H29.7046V24.5094C29.7046 20.0984 26.1187 16.5106 21.711 16.5106H20.5087L20.4998 16.5111H19.2885C14.8809 16.5111 11.2949 20.0989 11.2949 24.5094Z" fill="white"/>
<path d="M20.5014 22.0684C19.8615 22.4546 18.182 23.243 15.4014 23.0218V26.7901C15.4014 28.6712 16.187 30.4107 17.5571 31.562C18.369 32.2416 19.359 32.761 20.5009 33.106C21.6418 32.7605 22.6309 32.2416 23.4437 31.5615C24.8129 30.4107 25.5986 28.6712 25.5986 26.7896V23.0218C22.8179 23.2435 21.1398 22.4546 20.5014 22.0684ZM22.705 26.5271L20.35 28.8821C20.3065 28.9258 20.2549 28.9605 20.198 28.9841C20.1411 29.0078 20.0802 29.0199 20.0186 29.0199C19.957 29.0199 19.896 29.0078 19.8391 28.9841C19.7822 28.9605 19.7306 28.9258 19.6871 28.8821L18.295 27.4899C18.2502 27.4467 18.2145 27.395 18.1899 27.3378C18.1653 27.2806 18.1524 27.2191 18.1519 27.1568C18.1513 27.0946 18.1632 27.0329 18.1868 26.9753C18.2103 26.9176 18.2451 26.8653 18.2892 26.8213C18.3332 26.7773 18.3855 26.7425 18.4431 26.7189C18.5007 26.6953 18.5624 26.6835 18.6247 26.684C18.6869 26.6846 18.7484 26.6975 18.8056 26.7221C18.8628 26.7466 18.9145 26.7823 18.9578 26.8271L20.0186 27.8879L22.0422 25.8643C22.0854 25.8195 22.1371 25.7838 22.1943 25.7592C22.2515 25.7347 22.313 25.7218 22.3752 25.7212C22.4375 25.7207 22.4992 25.7325 22.5568 25.7561C22.6144 25.7797 22.6668 25.8145 22.7108 25.8585C22.7548 25.9025 22.7896 25.9548 22.8132 26.0124C22.8367 26.0701 22.8486 26.1318 22.848 26.194C22.8475 26.2563 22.8346 26.3178 22.81 26.375C22.7854 26.4321 22.7497 26.4839 22.705 26.5271Z" fill="white"/>
<defs>
<linearGradient id="paint0_linear_2529_4768" x1="0.5" y1="20" x2="40.5" y2="20" gradientUnits="userSpaceOnUse">
<stop stop-color="#FF6E00"/>
<stop offset="1" stop-color="#FC4B00"/>
</linearGradient>
</defs>
</svg>
