<svg width="41" height="40" viewBox="0 0 41 40" fill="none" xmlns="http://www.w3.org/2000/svg">
<rect x="0.5" width="40" height="40" rx="20" fill="url(#paint0_linear_2529_4778)"/>
<path d="M24.175 19.9662C23.6744 2.48885 17.2905 2.53526 16.7979 19.9615C17.9011 19.2617 19.1809 18.8905 20.4874 18.8913C21.7939 18.8921 23.0727 19.265 24.175 19.9662Z" fill="white"/>
<path d="M33.4445 19.6438C33.3805 16.5955 32.2485 13.6664 30.2458 11.3675C28.243 9.06852 25.4968 7.54562 22.486 7.06445C22.7117 7.40416 22.9105 7.76103 23.0804 8.1318C24.3282 10.7582 25.0618 15.7424 25.112 19.9705C26.2442 19.2469 27.5638 18.871 28.9074 18.8893C30.251 18.9076 31.5598 19.3194 32.672 20.0737C32.7457 20.1342 32.836 20.1711 32.9311 20.1796C33.0261 20.1881 33.1215 20.1678 33.2049 20.1213C33.2882 20.0748 33.3556 20.0043 33.3984 19.919C33.4411 19.8337 33.4572 19.7375 33.4445 19.6429V19.6438ZM15.8621 19.9757C16.0149 15.1007 16.5526 10.2285 18.488 7.06492C15.441 7.54784 12.6659 9.10114 10.6609 11.4459C8.65602 13.7907 7.55261 16.7734 7.54883 19.8585C7.57329 19.9317 7.61522 19.9979 7.67099 20.0513C7.72676 20.1046 7.79469 20.1436 7.86891 20.1649C7.94313 20.1861 8.0214 20.1889 8.09696 20.1731C8.17252 20.1573 8.24309 20.1233 8.30258 20.0741C9.41701 19.3253 10.7254 18.9172 12.0679 18.8998C13.4105 18.8823 14.7286 19.2561 15.8621 19.9757ZM17.3129 28.0602C17.1885 27.8444 17.0852 27.6171 17.0045 27.3815C16.8685 27.4748 16.7237 27.6243 16.569 27.7185C15.7552 28.2742 14.7794 28.5427 13.7958 28.4815C12.8123 28.4204 11.8773 28.0332 11.1385 27.381C9.70273 28.1573 7.4293 30.6098 8.60633 32.3432C8.78101 32.5847 9.01036 32.7814 9.27562 32.9173C9.54088 33.0532 9.83453 33.1244 10.1326 33.1251H15.6048C14.2398 31.4113 15.8115 29.1088 17.3129 28.0602Z" fill="white"/>
<path d="M14.0687 20.5879C10.6515 20.5823 9.31463 25.0738 12.1074 26.9498C14.3401 28.5609 17.6584 26.782 17.5515 24.0098C17.5334 23.0974 17.1587 22.2283 16.5077 21.5888C15.8568 20.9492 14.9813 20.5899 14.0687 20.5879ZM24.9385 26.9498C25.4561 27.3038 26.0596 27.5116 26.6854 27.5512C27.3112 27.5907 27.9361 27.4606 28.4941 27.1745C29.0521 26.8885 29.5225 26.457 29.8557 25.9258C30.1888 25.3946 30.3724 24.7833 30.387 24.1564C30.4016 23.5295 30.2467 22.9103 29.9386 22.3642C29.6305 21.818 29.1807 21.3652 28.6366 21.0534C28.0925 20.7417 27.4744 20.5826 26.8474 20.593C26.2205 20.6034 25.6079 20.7828 25.0745 21.1124C24.5848 21.4202 24.1791 21.8446 23.8935 22.3475C23.6079 22.8505 23.4514 23.4164 23.4379 23.9946C23.4244 24.5728 23.5545 25.1453 23.8163 25.661C24.0782 26.1767 24.4637 26.6195 24.9385 26.9498Z" fill="white"/>
<path d="M29.8351 27.3809C29.0232 28.0931 27.9801 28.4858 26.9001 28.4858C25.82 28.4858 24.7769 28.0931 23.965 27.3809C23.8853 27.8098 23.4343 28.008 23.9415 28.2701C25.2962 29.3445 26.6706 31.5255 25.3693 33.1245H30.842C31.14 33.1237 31.4335 33.0525 31.6987 32.9166C31.9639 32.7807 32.1931 32.584 32.3678 32.3426C33.5434 30.6077 31.2775 28.1609 29.8351 27.3809Z" fill="white"/>
<path d="M23.3569 29.0005C23.0686 28.7164 23.04 28.8477 22.7859 29.0661C22.1326 29.5905 21.3197 29.8759 20.4819 29.875C19.6441 29.8742 18.8318 29.5871 18.1795 29.0614C17.9311 28.8406 17.8945 28.7319 17.618 29.0005C16.7714 29.7073 15.6881 30.9828 16.1292 32.188C16.2434 32.4653 16.4374 32.7024 16.6866 32.8691C16.9358 33.0359 17.229 33.1248 17.5289 33.1245H23.4459C23.7457 33.1248 24.0389 33.0359 24.2881 32.8692C24.5373 32.7026 24.7313 32.4656 24.8456 32.1884C25.2872 30.9828 24.1969 29.7144 23.3569 29.0005Z" fill="white"/>
<path d="M17.7534 26.2113C17.8682 29.823 23.1046 29.8244 23.2209 26.2113C23.1061 22.5991 17.8682 22.5986 17.7534 26.2113Z" fill="white"/>
<defs>
<linearGradient id="paint0_linear_2529_4778" x1="0.5" y1="20" x2="40.5" y2="20" gradientUnits="userSpaceOnUse">
<stop stop-color="#FF6E00"/>
<stop offset="1" stop-color="#FC4B00"/>
</linearGradient>
</defs>
</svg>
