<svg width="41" height="40" viewBox="0 0 41 40" fill="none" xmlns="http://www.w3.org/2000/svg">
<rect x="0.5" width="40" height="40" rx="20" fill="url(#paint0_linear_2529_4792)"/>
<path d="M31.4124 23.3961C29.3106 23.3961 27.4656 22.6872 26.4426 21.627C25.4196 22.6872 23.5746 23.3961 21.4728 23.3961C21.0087 23.3961 20.5548 23.3616 20.124 23.2938V26.0127C20.124 29.8026 22.464 33.0138 25.7019 34.1286C26.1824 34.2919 26.7034 34.2919 27.1839 34.1286C30.4212 33.0138 32.7612 29.8026 32.7612 26.0127V23.2938C32.3149 23.3628 31.8641 23.397 31.4124 23.3961ZM31.4976 26.0127C31.4976 29.1789 29.5995 31.9602 26.7726 32.934C26.6663 32.9696 26.5548 32.9876 26.4426 32.9874V23.2644C27.7464 24.1518 29.5224 24.66 31.4124 24.66H31.4976V26.0127Z" fill="white"/>
<path fill-rule="evenodd" clip-rule="evenodd" d="M24.7003 21.446C23.8393 21.92 22.6873 22.196 21.4723 22.196C21.0733 22.196 20.6803 22.166 20.3113 22.106C20.2483 22.097 20.1853 22.094 20.1253 22.094C19.8403 22.094 19.5643 22.193 19.3453 22.379C19.0783 22.607 18.9253 22.943 18.9253 23.294V26.012C18.9253 27.056 19.0813 28.067 19.3783 29.018C19.0423 29.027 18.6943 29.03 18.3343 29.03C10.9333 29.03 8.85126 27.266 8.36226 26.678C8.26326 26.555 8.23926 26.432 8.23926 26.285C8.36226 25.181 9.34026 20.207 18.3103 20.207C21.1783 20.207 23.2303 20.717 24.7003 21.446ZM24.0199 12.146C24.0199 16.1891 21.5938 19.6442 18.3349 19.6442C15.1 19.6442 12.6496 16.1891 12.6496 12.1457C12.6493 8.1269 14.7325 5.75 18.3343 5.75C21.9361 5.75 24.0193 8.1026 24.0193 12.146H24.0199Z" fill="white"/>
<defs>
<linearGradient id="paint0_linear_2529_4792" x1="0.5" y1="20" x2="40.5" y2="20" gradientUnits="userSpaceOnUse">
<stop stop-color="#FF6E00"/>
<stop offset="1" stop-color="#FC4B00"/>
</linearGradient>
</defs>
</svg>
