<svg width="41" height="40" viewBox="0 0 41 40" fill="none" xmlns="http://www.w3.org/2000/svg">
<rect x="0.5" width="40" height="40" rx="20" fill="url(#paint0_linear_2529_4803)"/>
<path fill-rule="evenodd" clip-rule="evenodd" d="M31.4594 13.8123H24.7311C24.6704 13.8123 24.6101 13.8033 24.552 13.7857L23.9205 13.5948C23.2521 13.3923 22.6006 13.138 21.9718 12.8342C21.4683 12.5913 20.9804 12.3174 20.5109 12.0139C20.0415 12.3174 19.5536 12.5913 19.0501 12.8342C18.4213 13.138 17.7697 13.3923 17.1014 13.5948L16.4895 13.7798C16.4255 13.8015 16.3584 13.8126 16.2908 13.8126H9.5625V22.795C10.2032 25.4784 11.5598 27.9377 13.4878 29.9109C15.4159 31.8842 17.8431 33.2974 20.5109 34C23.1788 33.2974 25.606 31.8842 27.5341 29.911C29.4621 27.9377 30.8187 25.4784 31.4594 22.795V13.8123ZM9.5625 12.5728V9.35027H15.6312C15.6992 9.35033 15.7669 9.33915 15.8313 9.31718C16.9053 8.98838 17.9089 8.46278 18.7908 7.76717C19.4393 7.25621 20.0177 6.66204 20.5109 6C21.0042 6.66206 21.5826 7.25623 22.2312 7.76717C23.1189 8.46737 24.1298 8.99527 25.2117 9.32363C25.2698 9.34119 25.3301 9.35016 25.3908 9.35027H31.4594V12.5728H24.8222L24.2788 12.4088C23.6719 12.2258 23.0803 11.9958 22.5092 11.7209C21.9398 11.4463 21.3924 11.1282 20.8719 10.7695C20.7684 10.6952 20.6445 10.6546 20.5171 10.6535C20.3897 10.6523 20.265 10.6905 20.1602 10.7629C19.6367 11.1243 19.086 11.4445 18.513 11.7207C17.9417 11.9956 17.35 12.2256 16.743 12.4086L16.1996 12.5727L9.5625 12.5728Z" fill="white"/>
<path d="M16.3714 27.1095L23.0018 15.6211H24.5937L17.9633 27.1095H16.3714ZM17.7335 20.2411C17.3451 20.2411 16.9923 20.1481 16.675 19.9621C16.3631 19.7761 16.1115 19.5244 15.92 19.2071C15.7285 18.8898 15.6328 18.537 15.6328 18.1485C15.6328 17.7492 15.7285 17.3936 15.92 17.0818C16.1115 16.7645 16.3659 16.5128 16.6832 16.3268C17.0005 16.1408 17.3506 16.0478 17.7335 16.0478C18.1165 16.0478 18.4666 16.1435 18.7839 16.335C19.1012 16.521 19.3529 16.7727 19.5389 17.09C19.7303 17.4018 19.8261 17.7546 19.8261 18.1485C19.8261 18.5424 19.7303 18.898 19.5389 19.2153C19.3474 19.5271 19.093 19.7761 18.7757 19.9621C18.4584 20.1481 18.111 20.2411 17.7335 20.2411ZM17.7335 19.2317C18.0344 19.2317 18.2888 19.1278 18.4967 18.9199C18.7101 18.7065 18.8167 18.4494 18.8167 18.1485C18.8167 17.8422 18.7101 17.5851 18.4967 17.3772C18.2888 17.1638 18.0344 17.0571 17.7335 17.0571C17.4327 17.0571 17.1755 17.1638 16.9622 17.3772C16.7488 17.5851 16.6421 17.8422 16.6421 18.1485C16.6421 18.4494 16.7488 18.7065 16.9622 18.9199C17.1755 19.1278 17.4327 19.2317 17.7335 19.2317ZM23.2398 26.691C22.8568 26.691 22.5039 26.5952 22.1812 26.4037C21.8639 26.2068 21.6095 25.9497 21.418 25.6324C21.232 25.3096 21.139 24.9622 21.139 24.5902C21.139 24.1963 21.2348 23.8407 21.4262 23.5234C21.6232 23.2061 21.8803 22.9545 22.1976 22.7685C22.5149 22.5825 22.8623 22.4895 23.2398 22.4895C23.6336 22.4895 23.9892 22.588 24.3065 22.7849C24.6238 22.9764 24.8755 23.2308 25.0615 23.5481C25.2475 23.8654 25.3405 24.2127 25.3405 24.5902C25.3405 24.9786 25.2447 25.3315 25.0533 25.6488C24.8673 25.9661 24.6156 26.2205 24.2983 26.4119C23.981 26.598 23.6282 26.691 23.2398 26.691ZM23.2398 25.6816C23.5406 25.6816 23.7978 25.5749 24.0111 25.3616C24.2245 25.1482 24.3311 24.8911 24.3311 24.5902C24.3311 24.2893 24.2245 24.0322 24.0111 23.8189C23.7978 23.6055 23.5406 23.4988 23.2398 23.4988C22.9389 23.4988 22.6817 23.6055 22.4684 23.8189C22.255 24.0322 22.1484 24.2893 22.1484 24.5902C22.1484 24.8911 22.255 25.1482 22.4684 25.3616C22.6817 25.5749 22.9389 25.6816 23.2398 25.6816Z" fill="url(#paint1_linear_2529_4803)"/>
<defs>
<linearGradient id="paint0_linear_2529_4803" x1="0.5" y1="20" x2="40.5" y2="20" gradientUnits="userSpaceOnUse">
<stop stop-color="#FF6E00"/>
<stop offset="1" stop-color="#FC4B00"/>
</linearGradient>
<linearGradient id="paint1_linear_2529_4803" x1="15.6328" y1="21.3653" x2="25.3405" y2="21.3653" gradientUnits="userSpaceOnUse">
<stop stop-color="#FF6E00"/>
<stop offset="1" stop-color="#FC4B00"/>
</linearGradient>
</defs>
</svg>
