<svg width="41" height="40" viewBox="0 0 41 40" fill="none" xmlns="http://www.w3.org/2000/svg">
<rect x="0.5" width="40" height="40" rx="20" fill="url(#paint0_linear_2529_4817)"/>
<g clip-path="url(#clip0_2529_4817)">
<path d="M10.6172 17.8472V30.7061H13.6718C12.7495 29.1254 12.2637 27.328 12.2642 25.4979V20.8689H13.0672C13.9768 20.8689 14.7142 20.1315 14.7142 19.2219V18.4189H26.2848V19.2219C26.2848 20.1315 27.0223 20.8689 27.9319 20.8689H28.7348V25.4979C28.7348 27.3576 28.2358 29.1485 27.3273 30.7061H30.3819V17.827L20.5003 12.5977L10.6172 17.8472Z" fill="white"/>
<path d="M20.5 6.05859L6.5 14.058V18.1695L20.4992 10.7336L20.4996 10.7338L20.5 10.734L34.5 18.1427V14.058L20.5 6.05859ZM24.6382 20.8896V20.0661H16.3618V20.8896C16.3618 21.7865 15.6322 22.5161 14.7353 22.5161H13.9118V25.498C13.9118 28.5246 15.4485 31.1467 17.7239 32.6907C19.0991 33.6237 20.3579 33.8904 20.5 33.942C20.6415 33.8906 21.9005 33.624 23.2761 32.6907C25.5252 31.1645 27.0882 28.5548 27.0882 25.4981V22.5161H26.2647C25.3679 22.5161 24.6382 21.7865 24.6382 20.8896ZM19.6265 29.4454L17.2972 27.1161L18.4618 25.9515L19.6265 27.1161L22.5381 24.2045L23.7028 25.3692L19.6265 29.4454Z" fill="white"/>
</g>
<defs>
<linearGradient id="paint0_linear_2529_4817" x1="0.5" y1="20" x2="40.5" y2="20" gradientUnits="userSpaceOnUse">
<stop stop-color="#FF6E00"/>
<stop offset="1" stop-color="#FC4B00"/>
</linearGradient>
<clipPath id="clip0_2529_4817">
<rect width="28" height="28" fill="white" transform="translate(6.5 6)"/>
</clipPath>
</defs>
</svg>
