<svg width="41" height="40" viewBox="0 0 41 40" fill="none" xmlns="http://www.w3.org/2000/svg">
<rect x="0.5" width="40" height="40" rx="20" fill="url(#paint0_linear_2529_4732)"/>
<path d="M30.975 11.1249C29.8687 10.0167 28.4185 9.31772 26.8624 9.1428C25.3064 8.96789 23.7371 9.32744 22.4125 10.1624L25.1875 12.9874C25.2983 13.11 25.3838 13.2535 25.4388 13.4094C25.4938 13.5654 25.5174 13.7307 25.5081 13.8957C25.4988 14.0608 25.4568 14.2224 25.3846 14.3712C25.3124 14.52 25.2114 14.6529 25.0875 14.7624C24.8564 14.9662 24.5581 15.0775 24.25 15.0749C24.0735 15.0762 23.8986 15.0401 23.737 14.969C23.5755 14.8979 23.4308 14.7934 23.3125 14.6624L19.7875 11.1249C19.282 10.6198 18.6998 10.198 18.0625 9.87486C16.7622 9.20872 15.2845 8.9709 13.8409 9.19542C12.3972 9.41994 11.0616 10.0953 10.025 11.1249C8.72786 12.6347 8.01465 14.5593 8.01465 16.5499C8.01465 18.5404 8.72786 20.465 10.025 21.9749C12.35 24.4749 18 30.2624 20.5375 30.2624C22.5125 30.2624 26.3875 26.7499 29.075 24.0124C29.75 23.3374 30.325 22.7624 30.825 22.1999L31.0125 21.9999C32.3111 20.4838 33.0217 18.5516 33.0148 16.5554C33.008 14.5592 32.284 12.6319 30.975 11.1249ZM23 21.8749H21.75V23.1249C21.75 23.4564 21.6183 23.7743 21.3839 24.0087C21.1494 24.2432 20.8315 24.3749 20.5 24.3749C20.1685 24.3749 19.8505 24.2432 19.6161 24.0087C19.3817 23.7743 19.25 23.4564 19.25 23.1249V21.8749H18C17.6685 21.8749 17.3505 21.7432 17.1161 21.5087C16.8817 21.2743 16.75 20.9564 16.75 20.6249C16.75 20.2933 16.8817 19.9754 17.1161 19.741C17.3505 19.5066 17.6685 19.3749 18 19.3749H19.25V18.1249C19.25 17.7933 19.3817 17.4754 19.6161 17.241C19.8505 17.0066 20.1685 16.8749 20.5 16.8749C20.8315 16.8749 21.1494 17.0066 21.3839 17.241C21.6183 17.4754 21.75 17.7933 21.75 18.1249V19.3749H23C23.3315 19.3749 23.6494 19.5066 23.8839 19.741C24.1183 19.9754 24.25 20.2933 24.25 20.6249C24.25 20.9564 24.1183 21.2743 23.8839 21.5087C23.6494 21.7432 23.3315 21.8749 23 21.8749Z" fill="white"/>
<defs>
<linearGradient id="paint0_linear_2529_4732" x1="0.5" y1="20" x2="40.5" y2="20" gradientUnits="userSpaceOnUse">
<stop stop-color="#FF6E00"/>
<stop offset="1" stop-color="#FC4B00"/>
</linearGradient>
</defs>
</svg>
