<svg width="41" height="40" viewBox="0 0 41 40" fill="none" xmlns="http://www.w3.org/2000/svg">
<rect x="0.5" width="40" height="40" rx="20" fill="url(#paint0_linear_2529_4741)"/>
<path d="M16.5762 18.9032V21.097H18.9345C19.0588 21.097 19.178 21.1463 19.2659 21.2342C19.3538 21.3222 19.4032 21.4414 19.4032 21.5657V23.924H21.597V21.5657C21.597 21.4414 21.6463 21.3222 21.7342 21.2342C21.8222 21.1463 21.9414 21.097 22.0657 21.097H24.424V18.9032H22.0657C21.9414 18.9032 21.8222 18.8538 21.7342 18.7659C21.6463 18.678 21.597 18.5588 21.597 18.4345V16.0762H19.4032V18.4345C19.4032 18.5588 19.3538 18.678 19.2659 18.7659C19.178 18.8538 19.0588 18.9032 18.9345 18.9032H16.5762Z" fill="white"/>
<path d="M9.85352 10.3812V22.9263C9.85168 24.0984 10.1863 25.2464 10.8177 26.2338C13.048 29.6787 16.5124 32.1391 20.4998 33.1099C24.4871 32.1391 27.9515 29.6787 30.1818 26.2338C30.8133 25.2462 31.148 24.0981 31.146 22.9259V10.3812C29.2385 10.556 27.3152 10.3505 25.4876 9.77645C23.6601 9.20241 21.9647 8.27131 20.4998 7.03711C19.0345 8.27077 17.339 9.20154 15.5116 9.77555C13.6842 10.3496 11.761 10.5554 9.85352 10.3812ZM28.8304 12.2984C28.9498 12.3055 29.0619 12.3581 29.1438 12.4452C29.2257 12.5324 29.2712 12.6475 29.271 12.7671V22.9263C29.2727 23.7402 29.0407 24.5374 28.6026 25.2232C26.7595 28.1016 23.9239 30.2033 20.6338 31.1295C20.5476 31.1551 20.4557 31.1551 20.3695 31.1295C17.0787 30.2034 14.2424 28.1018 12.3984 25.2232C11.9606 24.5372 11.7288 23.7401 11.7304 22.9263V12.7662C11.7302 12.6466 11.7757 12.5314 11.8576 12.4443C11.9395 12.3571 12.0516 12.3046 12.171 12.2974C15.054 12.0997 17.8358 11.1541 20.242 9.55383C20.3185 9.50342 20.4081 9.47656 20.4998 9.47656C20.5914 9.47656 20.681 9.50342 20.7576 9.55383C23.1641 11.1551 25.9466 12.1011 28.8304 12.2984Z" fill="white"/>
<path d="M12.666 13.203V22.9267C12.6642 23.5614 12.8448 24.1833 13.1863 24.7183C14.8827 27.3667 17.4806 29.3112 20.4998 30.1923C23.5184 29.311 26.116 27.3667 27.8123 24.7187C28.1536 24.1835 28.3341 23.5615 28.3326 22.9267V13.203C25.5439 12.9402 22.8584 12.0148 20.4998 10.5039C18.1408 12.0147 15.455 12.9401 12.666 13.203ZM22.5342 15.6072V17.9655H24.8924C25.0168 17.9655 25.136 18.0149 25.2239 18.1028C25.3118 18.1907 25.3612 18.3099 25.3612 18.4342V21.5655C25.3612 21.6898 25.3118 21.809 25.2239 21.8969C25.136 21.9848 25.0168 22.0342 24.8924 22.0342H22.5342V24.3925C22.5342 24.5168 22.4848 24.636 22.3969 24.724C22.309 24.8119 22.1897 24.8612 22.0654 24.8612H18.9342C18.8098 24.8612 18.6906 24.8119 18.6027 24.724C18.5148 24.636 18.4654 24.5168 18.4654 24.3925V22.0342H16.1071C15.9828 22.0342 15.8636 21.9848 15.7757 21.8969C15.6878 21.809 15.6384 21.6898 15.6384 21.5655V18.4342C15.6384 18.3099 15.6878 18.1907 15.7757 18.1028C15.8636 18.0149 15.9828 17.9655 16.1071 17.9655H18.4654V15.6072C18.4654 15.4829 18.5148 15.3636 18.6027 15.2757C18.6906 15.1878 18.8098 15.1384 18.9342 15.1384H22.0654C22.1897 15.1384 22.309 15.1878 22.3969 15.2757C22.4848 15.3636 22.5342 15.4829 22.5342 15.6072Z" fill="white"/>
<defs>
<linearGradient id="paint0_linear_2529_4741" x1="0.5" y1="20" x2="40.5" y2="20" gradientUnits="userSpaceOnUse">
<stop stop-color="#FF6E00"/>
<stop offset="1" stop-color="#FC4B00"/>
</linearGradient>
</defs>
</svg>
