<svg width="41" height="40" viewBox="0 0 41 40" fill="none" xmlns="http://www.w3.org/2000/svg">
<rect x="0.5" width="40" height="40" rx="20" fill="url(#paint0_linear_2529_4752)"/>
<path d="M19.4531 24.4679C19.4531 24.6989 19.5296 24.9784 19.9891 25.2469V23.5664C19.8274 23.6551 19.6923 23.7854 19.5981 23.944C19.5038 24.1025 19.4537 24.2835 19.4531 24.4679Z" fill="white"/>
<path d="M10.5511 19.4035C10.7311 19.4835 10.9461 19.4435 11.0911 19.3085C11.1561 19.2435 12.7161 17.8285 15.3711 19.3585C15.3811 19.3635 15.3911 19.3735 15.4011 19.3785C15.4111 19.3835 15.4211 19.3885 15.4361 19.3935C15.4961 19.4235 15.5711 19.4435 15.6461 19.4435H15.6511C15.6861 19.4435 15.7211 19.4385 15.7511 19.4335C15.7861 19.4285 15.8161 19.4185 15.8461 19.4035C15.8764 19.3925 15.905 19.3774 15.9311 19.3585C17.2996 18.552 18.6466 18.107 19.9891 18.0195V19.514C16.6291 19.772 13.9761 22.583 13.9761 26.0035C13.9761 29.5985 16.8961 32.5185 20.4911 32.5185C24.0811 32.5185 27.0061 29.5985 27.0061 26.0035C27.0061 22.5815 24.3471 19.77 20.9891 19.514V18.0205C22.3236 18.111 23.6576 18.556 25.0061 19.359C25.0211 19.369 25.0361 19.374 25.0461 19.379C25.0811 19.399 25.1211 19.414 25.1561 19.424C25.2011 19.439 25.2461 19.444 25.2861 19.444H25.2911C25.4061 19.444 25.5111 19.404 25.5911 19.339C27.8111 17.629 29.8261 19.259 29.9111 19.329C29.9839 19.3894 30.0723 19.428 30.166 19.4404C30.2598 19.4527 30.3551 19.4384 30.4411 19.399C30.5279 19.3589 30.6013 19.2947 30.6527 19.214C30.7041 19.1334 30.7313 19.0397 30.7311 18.944C30.7311 13.467 26.4021 8.99153 20.9891 8.72903V8.01953C20.9891 7.88692 20.9364 7.75975 20.8426 7.66598C20.7489 7.57221 20.6217 7.51953 20.4891 7.51953C20.3565 7.51953 20.2293 7.57221 20.1355 7.66598C20.0418 7.75975 19.9891 7.88692 19.9891 8.01953V8.72903C14.5711 8.99503 10.2461 13.466 10.2461 18.9435C10.2461 19.1435 10.3661 19.3235 10.5511 19.4035Z" fill="white"/>
<path d="M21.003 23.5036C21.1275 23.5032 21.2509 23.5277 21.3659 23.5755C21.481 23.6233 21.5855 23.6935 21.6734 23.7821L22.2125 24.3234C22.2593 24.3704 22.3229 24.3969 22.3892 24.3969C22.4554 24.3969 22.519 24.3704 22.5659 24.3234L22.9464 23.9413C22.9932 23.8942 23.0195 23.8304 23.0195 23.7639C23.0195 23.6974 22.9932 23.6336 22.9464 23.5865L22.4073 23.0453C21.6323 22.2666 20.3754 22.2661 19.5998 23.0442C19.4152 23.2294 19.2687 23.4494 19.1689 23.6915C19.069 23.9336 19.0177 24.1931 19.0178 24.4552V25.5865H18.2397C18.2056 25.5865 18.1719 25.5932 18.1405 25.6063C18.109 25.6194 18.0804 25.6385 18.0564 25.6627C18.0323 25.6869 18.0132 25.7156 18.0002 25.7471C17.9872 25.7787 17.9805 25.8126 17.9805 25.8467V26.3678C17.9805 26.402 17.9872 26.4358 18.0002 26.4674C18.0132 26.499 18.0323 26.5277 18.0564 26.5518C18.0804 26.576 18.109 26.5952 18.1405 26.6082C18.1719 26.6213 18.2056 26.628 18.2397 26.628H19.0178V27.4092C19.0178 27.9128 18.6618 28.333 18.1885 28.4297C18.0691 28.4542 17.9805 28.5547 17.9805 28.677V29.2413C17.9805 29.2742 17.9869 29.3069 17.9995 29.3373C18.012 29.3677 18.0305 29.3954 18.0537 29.4187C18.0769 29.442 18.1044 29.4605 18.1347 29.4731C18.1651 29.4857 18.1976 29.4922 18.2304 29.4922H22.6579C22.7242 29.4922 22.7878 29.4658 22.8346 29.4187C22.8815 29.3716 22.9078 29.3078 22.9078 29.2413V28.7016C22.9078 28.635 22.8815 28.5712 22.8346 28.5242C22.7878 28.4771 22.7242 28.4507 22.6579 28.4507H19.7751C19.9586 28.1345 20.0553 27.7751 20.0552 27.4092V26.628H21.3613C21.4275 26.628 21.4911 26.6016 21.538 26.5545C21.5848 26.5075 21.6112 26.4437 21.6112 26.3771V25.8374C21.6112 25.8045 21.6047 25.7718 21.5921 25.7414C21.5796 25.711 21.5612 25.6833 21.538 25.66C21.5148 25.6367 21.4872 25.6182 21.4569 25.6056C21.4266 25.593 21.3941 25.5865 21.3613 25.5865H20.0551V24.4552C20.0559 23.9299 20.4798 23.5042 21.003 23.5036Z" fill="url(#paint1_linear_2529_4752)"/>
<defs>
<linearGradient id="paint0_linear_2529_4752" x1="0.5" y1="20" x2="40.5" y2="20" gradientUnits="userSpaceOnUse">
<stop stop-color="#FF6E00"/>
<stop offset="1" stop-color="#FC4B00"/>
</linearGradient>
<linearGradient id="paint1_linear_2529_4752" x1="17.9805" y1="25.9766" x2="23.0195" y2="25.9766" gradientUnits="userSpaceOnUse">
<stop stop-color="#FF6E00"/>
<stop offset="1" stop-color="#FC4B00"/>
</linearGradient>
</defs>
</svg>
