<svg width="62" height="62" viewBox="0 0 62 62" fill="none" xmlns="http://www.w3.org/2000/svg">
<rect width="62" height="62" rx="31" fill="url(#paint0_linear_7310_35843)"/>
<g clip-path="url(#clip0_7310_35843)">
<path d="M16.8828 27.9212V46.2911H21.2465C19.929 44.0329 19.235 41.4652 19.2358 38.8508V32.238H20.3828C21.6823 32.238 22.7358 31.1845 22.7358 29.885V28.738H39.2652V29.885C39.2652 31.1845 40.3187 32.238 41.6181 32.238H42.7652V38.8508C42.7652 41.5075 42.0522 44.066 40.7543 46.2911H45.1181V27.8923L31.0015 20.4219L16.8828 27.9212Z" fill="white"/>
<path d="M31 11.082L11 22.5098V28.3833L30.9989 17.7606L30.9995 17.7609L31 17.7612L51 28.3451V22.5098L31 11.082ZM36.9118 32.2692V31.0927H25.0882V32.2692C25.0882 33.5504 24.046 34.5927 22.7647 34.5927H21.5882V38.8526C21.5882 43.1764 23.7835 46.9222 27.0342 49.1278C28.9987 50.4608 30.797 50.8417 31 50.9155C31.2022 50.8421 33.0007 50.4612 34.9658 49.1278C38.1789 46.9477 40.4118 43.2194 40.4118 38.8527V34.5928H39.2353C37.9542 34.5927 36.9118 33.5504 36.9118 32.2692ZM29.7522 44.4918L26.4246 41.1642L28.0883 39.5005L29.7522 41.1642L33.9116 37.0048L35.5754 38.6685L29.7522 44.4918Z" fill="white"/>
</g>
<defs>
<linearGradient id="paint0_linear_7310_35843" x1="31" y1="0" x2="31" y2="62" gradientUnits="userSpaceOnUse">
<stop stop-color="#FF6E00"/>
<stop offset="1" stop-color="#FE4B00"/>
</linearGradient>
<clipPath id="clip0_7310_35843">
<rect width="40" height="40" fill="white" transform="translate(11 11)"/>
</clipPath>
</defs>
</svg>
