<svg width="62" height="62" viewBox="0 0 62 62" fill="none" xmlns="http://www.w3.org/2000/svg">
<rect width="62" height="62" rx="31" fill="url(#paint0_linear_7310_35709)"/>
<path d="M25.7695 29.5389V32.4639H28.9139C29.0797 32.4639 29.2386 32.5298 29.3558 32.647C29.4731 32.7642 29.5389 32.9231 29.5389 33.0889V36.2333H32.4639V33.0889C32.4639 32.9231 32.5298 32.7642 32.647 32.647C32.7642 32.5298 32.9231 32.4639 33.0889 32.4639H36.2333V29.5389H33.0889C32.9231 29.5389 32.7642 29.4731 32.647 29.3558C32.5298 29.2386 32.4639 29.0797 32.4639 28.9139V25.7695H29.5389V28.9139C29.5389 29.0797 29.4731 29.2386 29.3558 29.3558C29.2386 29.4731 29.0797 29.5389 28.9139 29.5389H25.7695Z" fill="white"/>
<path d="M16.8047 18.1775V34.9044C16.8022 36.4671 17.2485 37.9978 18.0903 39.3144C21.064 43.9076 25.6832 47.1881 30.9997 48.4825C36.3161 47.1881 40.9354 43.9076 43.9091 39.3144C44.7511 37.9976 45.1973 36.4667 45.1947 34.9037V18.1775C42.6513 18.4107 40.0869 18.1366 37.6502 17.3712C35.2135 16.6058 32.953 15.3643 30.9997 13.7188C29.046 15.3636 26.7854 16.6047 24.3488 17.37C21.9122 18.1354 19.3481 18.4098 16.8047 18.1775ZM42.1072 20.7337C42.2664 20.7433 42.4159 20.8134 42.5251 20.9296C42.6343 21.0457 42.695 21.1993 42.6947 21.3587V34.9044C42.6969 35.9895 42.3876 37.0524 41.8034 37.9669C39.346 41.8047 35.5652 44.607 31.1784 45.8419C31.0634 45.876 30.941 45.876 30.8259 45.8419C26.4383 44.6071 22.6565 41.805 20.1978 37.9669C19.6142 37.0522 19.3051 35.9894 19.3072 34.9044V21.3575C19.3069 21.198 19.3676 21.0445 19.4768 20.9283C19.586 20.8121 19.7355 20.7421 19.8947 20.7325C23.7387 20.4689 27.4477 19.2081 30.6559 17.0744C30.758 17.0072 30.8775 16.9714 30.9997 16.9714C31.1219 16.9714 31.2414 17.0072 31.3434 17.0744C34.5521 19.2094 38.2621 20.4707 42.1072 20.7337Z" fill="white"/>
<path d="M20.5547 21.9386V34.9036C20.5522 35.7499 20.793 36.579 21.2485 37.2923C23.5103 40.8235 26.9742 43.4163 30.9997 44.5911C35.0246 43.416 38.488 40.8235 40.7497 37.293C41.2048 36.5793 41.4455 35.75 41.4435 34.9036V21.9386C37.7252 21.5882 34.1445 20.3544 30.9997 18.3398C27.8544 20.3543 24.2733 21.5881 20.5547 21.9386ZM33.7122 25.1442V28.2886H36.8566C37.0223 28.2886 37.1813 28.3544 37.2985 28.4716C37.4157 28.5889 37.4816 28.7478 37.4816 28.9136V33.0886C37.4816 33.2544 37.4157 33.4133 37.2985 33.5305C37.1813 33.6477 37.0223 33.7136 36.8566 33.7136H33.7122V36.858C33.7122 37.0237 33.6464 37.1827 33.5292 37.2999C33.4119 37.4171 33.253 37.483 33.0872 37.483H28.9122C28.7464 37.483 28.5875 37.4171 28.4703 37.2999C28.3531 37.1827 28.2872 37.0237 28.2872 36.858V33.7136H25.1428C24.9771 33.7136 24.8181 33.6477 24.7009 33.5305C24.5837 33.4133 24.5178 33.2544 24.5178 33.0886V28.9136C24.5178 28.7478 24.5837 28.5889 24.7009 28.4716C24.8181 28.3544 24.9771 28.2886 25.1428 28.2886H28.2872V25.1442C28.2872 24.9785 28.3531 24.8195 28.4703 24.7023C28.5875 24.5851 28.7464 24.5192 28.9122 24.5192H33.0872C33.253 24.5192 33.4119 24.5851 33.5292 24.7023C33.6464 24.8195 33.7122 24.9785 33.7122 25.1442Z" fill="white"/>
<defs>
<linearGradient id="paint0_linear_7310_35709" x1="31" y1="0" x2="31" y2="62" gradientUnits="userSpaceOnUse">
<stop stop-color="#FF6E00"/>
<stop offset="1" stop-color="#FE4B00"/>
</linearGradient>
</defs>
</svg>
