<svg width="62" height="62" viewBox="0 0 62 62" fill="none" xmlns="http://www.w3.org/2000/svg">
<rect width="62" height="62" rx="31" fill="url(#paint0_linear_7310_35711)"/>
<path d="M29.6055 36.9559C29.6055 37.2639 29.7075 37.6366 30.3201 37.9946V35.7539C30.1045 35.8721 29.9244 36.046 29.7987 36.2573C29.673 36.4687 29.6063 36.71 29.6055 36.9559Z" fill="white"/>
<path d="M17.7348 30.2047C17.9748 30.3114 18.2615 30.258 18.4548 30.078C18.5415 29.9914 20.6215 28.1047 24.1615 30.1447C24.1748 30.1514 24.1881 30.1647 24.2015 30.1714C24.2148 30.178 24.2281 30.1847 24.2481 30.1914C24.3281 30.2314 24.4281 30.258 24.5281 30.258H24.5348C24.5815 30.258 24.6281 30.2514 24.6681 30.2447C24.7148 30.238 24.7548 30.2247 24.7948 30.2047C24.8351 30.19 24.8733 30.1698 24.9081 30.1447C26.7328 29.0694 28.5288 28.476 30.3188 28.3594V30.352C25.8388 30.696 22.3015 34.444 22.3015 39.0047C22.3015 43.798 26.1948 47.6914 30.9881 47.6914C35.7748 47.6914 39.6748 43.798 39.6748 39.0047C39.6748 34.442 36.1295 30.6934 31.6521 30.352V28.3607C33.4315 28.4814 35.2101 29.0747 37.0081 30.1454C37.0281 30.1587 37.0481 30.1654 37.0615 30.172C37.1081 30.1987 37.1615 30.2187 37.2081 30.232C37.2681 30.252 37.3281 30.2587 37.3815 30.2587H37.3881C37.5415 30.2587 37.6815 30.2054 37.7881 30.1187C40.7481 27.8387 43.4348 30.012 43.5481 30.1054C43.6452 30.1859 43.763 30.2373 43.888 30.2538C44.013 30.2703 44.1402 30.2512 44.2548 30.1987C44.3705 30.1452 44.4684 30.0595 44.537 29.952C44.6055 29.8445 44.6418 29.7196 44.6415 29.592C44.6415 22.2894 38.8695 16.322 31.6521 15.972V15.026C31.6521 14.8492 31.5819 14.6797 31.4569 14.5546C31.3318 14.4296 31.1623 14.3594 30.9855 14.3594C30.8086 14.3594 30.6391 14.4296 30.5141 14.5546C30.389 14.6797 30.3188 14.8492 30.3188 15.026V15.972C23.0948 16.3267 17.3281 22.288 17.3281 29.5914C17.3281 29.858 17.4881 30.098 17.7348 30.2047Z" fill="white"/>
<path d="M31.6707 35.6714C31.8367 35.671 32.0012 35.7036 32.1546 35.7673C32.308 35.8311 32.4473 35.9247 32.5645 36.0429L33.2833 36.7645C33.3458 36.8273 33.4305 36.8625 33.5189 36.8625C33.6072 36.8625 33.692 36.8273 33.7545 36.7645L34.2618 36.255C34.3243 36.1923 34.3594 36.1072 34.3594 36.0185C34.3594 35.9298 34.3243 35.8448 34.2618 35.782L33.5431 35.0604C32.5097 34.0222 30.8339 34.0214 29.7997 35.0589C29.5535 35.3059 29.3583 35.5992 29.2251 35.922C29.092 36.2448 29.0235 36.5909 29.0237 36.9403V38.4487H27.9862C27.9408 38.4487 27.8959 38.4576 27.8539 38.4751C27.812 38.4925 27.7739 38.5181 27.7418 38.5503C27.7097 38.5825 27.6843 38.6208 27.6669 38.6629C27.6495 38.705 27.6406 38.7501 27.6406 38.7957V39.4904C27.6406 39.536 27.6495 39.5811 27.6669 39.6232C27.6843 39.6653 27.7097 39.7035 27.7418 39.7358C27.7739 39.768 27.812 39.7935 27.8539 39.811C27.8959 39.8284 27.9408 39.8374 27.9862 39.8374H29.0237V40.8789C29.0237 41.5504 28.549 42.1107 27.918 42.2396C27.7588 42.2722 27.6406 42.4062 27.6406 42.5693V43.3217C27.6406 43.3656 27.6492 43.4091 27.666 43.4497C27.6827 43.4903 27.7073 43.5272 27.7382 43.5583C27.7692 43.5893 27.8059 43.614 27.8463 43.6308C27.8867 43.6476 27.9301 43.6563 27.9738 43.6563H33.8772C33.9656 43.6563 34.0504 43.621 34.1128 43.5583C34.1753 43.4955 34.2104 43.4104 34.2104 43.3217V42.6021C34.2104 42.5134 34.1753 42.4283 34.1128 42.3655C34.0504 42.3028 33.9656 42.2676 33.8772 42.2676H30.0335C30.2782 41.846 30.4071 41.3668 30.407 40.8789V39.8374H32.1483C32.2367 39.8374 32.3215 39.8021 32.3839 39.7394C32.4464 39.6766 32.4815 39.5915 32.4815 39.5028V38.7832C32.4815 38.7393 32.4729 38.6958 32.4562 38.6552C32.4394 38.6146 32.4149 38.5777 32.3839 38.5467C32.353 38.5156 32.3163 38.491 32.2759 38.4741C32.2354 38.4573 32.1921 38.4487 32.1483 38.4487H30.4069V36.9403C30.4078 36.2398 30.973 35.6723 31.6707 35.6714Z" fill="#EB7124"/>
<defs>
<linearGradient id="paint0_linear_7310_35711" x1="31" y1="0" x2="31" y2="62" gradientUnits="userSpaceOnUse">
<stop stop-color="#FF6E00"/>
<stop offset="1" stop-color="#FE4B00"/>
</linearGradient>
</defs>
</svg>
