<svg width="63" height="62" viewBox="0 0 63 62" fill="none" xmlns="http://www.w3.org/2000/svg">
<rect x="0.332031" width="62" height="62" rx="31" fill="url(#paint0_linear_7310_35707)"/>
<path d="M45.2974 19.1652C43.8224 17.6876 41.8887 16.7557 39.814 16.5224C37.7393 16.2892 35.6469 16.7686 33.8807 17.8818L37.5807 21.6485C37.7285 21.8121 37.8424 22.0034 37.9158 22.2113C37.9892 22.4192 38.0206 22.6396 38.0081 22.8597C37.9957 23.0798 37.9398 23.2953 37.8435 23.4936C37.7473 23.692 37.6126 23.8692 37.4474 24.0152C37.1392 24.287 36.7416 24.4353 36.3307 24.4318C36.0953 24.4336 35.8622 24.3856 35.6468 24.2908C35.4313 24.196 35.2384 24.0566 35.0807 23.8818L30.3807 19.1652C29.7067 18.4918 28.9305 17.9293 28.0807 17.4985C26.347 16.6103 24.3767 16.2932 22.4519 16.5926C20.527 16.8919 18.7461 17.7924 17.364 19.1652C15.6345 21.1783 14.6836 23.7445 14.6836 26.3985C14.6836 29.0525 15.6345 31.6187 17.364 33.6318C20.464 36.9652 27.9974 44.6818 31.3807 44.6818C34.014 44.6818 39.1807 39.9985 42.764 36.3485C43.664 35.4485 44.4307 34.6818 45.0974 33.9318L45.3474 33.6652C47.0789 31.6438 48.0264 29.0675 48.0172 26.4059C48.008 23.7443 47.0428 21.1746 45.2974 19.1652ZM34.664 33.4985H32.9974V35.1652C32.9974 35.6072 32.8218 36.0311 32.5092 36.3437C32.1967 36.6563 31.7727 36.8318 31.3307 36.8318C30.8887 36.8318 30.4648 36.6563 30.1522 36.3437C29.8396 36.0311 29.664 35.6072 29.664 35.1652V33.4985H27.9974C27.5553 33.4985 27.1314 33.3229 26.8189 33.0104C26.5063 32.6978 26.3307 32.2739 26.3307 31.8318C26.3307 31.3898 26.5063 30.9659 26.8189 30.6533C27.1314 30.3408 27.5553 30.1652 27.9974 30.1652H29.664V28.4985C29.664 28.0565 29.8396 27.6326 30.1522 27.32C30.4648 27.0074 30.8887 26.8318 31.3307 26.8318C31.7727 26.8318 32.1967 27.0074 32.5092 27.32C32.8218 27.6326 32.9974 28.0565 32.9974 28.4985V30.1652H34.664C35.1061 30.1652 35.53 30.3408 35.8426 30.6533C36.1551 30.9659 36.3307 31.3898 36.3307 31.8318C36.3307 32.2739 36.1551 32.6978 35.8426 33.0104C35.53 33.3229 35.1061 33.4985 34.664 33.4985Z" fill="white"/>
<defs>
<linearGradient id="paint0_linear_7310_35707" x1="31.332" y1="0" x2="31.332" y2="62" gradientUnits="userSpaceOnUse">
<stop stop-color="#FF6E00"/>
<stop offset="1" stop-color="#FE4B00"/>
</linearGradient>
</defs>
</svg>
