<svg width="300" height="77" viewBox="0 0 300 77" fill="none" xmlns="http://www.w3.org/2000/svg">
<g clip-path="url(#clip0_7099_35477)">
<rect y="0.5" width="300" height="80" rx="8" fill="url(#paint0_linear_7099_35477)"/>
<path d="M30.948 34.786C29.9067 34.786 28.9277 34.5807 28.011 34.17C27.0943 33.752 26.2877 33.1763 25.591 32.443C24.9017 31.7097 24.359 30.8627 23.963 29.902C23.5743 28.934 23.38 27.9 23.38 26.8C23.38 25.6927 23.5743 24.6587 23.963 23.698C24.359 22.73 24.9017 21.883 25.591 21.157C26.2877 20.4237 27.0943 19.8517 28.011 19.441C28.9277 19.023 29.9067 18.814 30.948 18.814C32.1947 18.814 33.3423 19.1037 34.391 19.683C35.4397 20.255 36.3087 21.0213 36.998 21.982L34.6 23.269C34.1673 22.7337 33.6283 22.3047 32.983 21.982C32.345 21.6593 31.6667 21.498 30.948 21.498C30.2733 21.498 29.639 21.6373 29.045 21.916C28.451 22.1873 27.9303 22.5687 27.483 23.06C27.0357 23.544 26.6873 24.1087 26.438 24.754C26.1887 25.392 26.064 26.074 26.064 26.8C26.064 27.5333 26.1887 28.219 26.438 28.857C26.6947 29.495 27.0467 30.0597 27.494 30.551C27.9413 31.035 28.4583 31.4163 29.045 31.695C29.639 31.9663 30.2733 32.102 30.948 32.102C31.6813 32.102 32.3633 31.9407 32.994 31.618C33.632 31.288 34.1673 30.8553 34.6 30.32L36.998 31.618C36.3087 32.5713 35.4397 33.3377 34.391 33.917C33.3423 34.4963 32.1947 34.786 30.948 34.786ZM43.3338 34.786C42.3218 34.786 41.3978 34.5257 40.5618 34.005C39.7332 33.4843 39.0695 32.7877 38.5708 31.915C38.0795 31.035 37.8338 30.0633 37.8338 29C37.8338 28.1933 37.9768 27.4417 38.2628 26.745C38.5488 26.041 38.9412 25.425 39.4398 24.897C39.9458 24.3617 40.5325 23.9437 41.1998 23.643C41.8672 23.3423 42.5785 23.192 43.3338 23.192C44.3458 23.192 45.2662 23.4523 46.0948 23.973C46.9308 24.4937 47.5945 25.194 48.0858 26.074C48.5845 26.954 48.8338 27.9293 48.8338 29C48.8338 29.7993 48.6908 30.5473 48.4048 31.244C48.1188 31.9407 47.7228 32.5567 47.2168 33.092C46.7182 33.62 46.1352 34.0343 45.4678 34.335C44.8078 34.6357 44.0965 34.786 43.3338 34.786ZM43.3338 32.102C43.8692 32.102 44.3495 31.959 44.7748 31.673C45.2002 31.387 45.5338 31.0093 45.7758 30.54C46.0252 30.0707 46.1498 29.5573 46.1498 29C46.1498 28.428 46.0215 27.9073 45.7648 27.438C45.5155 26.9613 45.1745 26.5837 44.7418 26.305C44.3165 26.019 43.8472 25.876 43.3338 25.876C42.8058 25.876 42.3292 26.019 41.9038 26.305C41.4785 26.591 41.1412 26.9723 40.8918 27.449C40.6425 27.9257 40.5178 28.4427 40.5178 29C40.5178 29.5793 40.6462 30.1037 40.9028 30.573C41.1595 31.0423 41.5005 31.4163 41.9258 31.695C42.3585 31.9663 42.8278 32.102 43.3338 32.102ZM56.8399 34.5H53.3749L49.3709 23.489H52.2309L55.1129 31.409L57.9839 23.489H60.8439L56.8399 34.5ZM66.8807 34.786C65.8687 34.786 64.9447 34.5257 64.1087 34.005C63.28 33.4843 62.6164 32.784 62.1177 31.904C61.6264 31.024 61.3807 30.0523 61.3807 28.989C61.3807 28.1897 61.5237 27.4417 61.8097 26.745C62.0957 26.041 62.488 25.425 62.9867 24.897C63.4927 24.3617 64.0794 23.9437 64.7467 23.643C65.414 23.3423 66.1254 23.192 66.8807 23.192C67.7387 23.192 68.5234 23.3753 69.2347 23.742C69.9534 24.1013 70.562 24.5963 71.0607 25.227C71.5594 25.8577 71.9224 26.5763 72.1497 27.383C72.377 28.1897 72.4284 29.033 72.3037 29.913H64.2627C64.3654 30.3237 64.534 30.694 64.7687 31.024C65.0034 31.3467 65.3004 31.607 65.6597 31.805C66.019 31.9957 66.426 32.0947 66.8807 32.102C67.35 32.1093 67.7754 31.9993 68.1567 31.772C68.5454 31.5373 68.868 31.222 69.1247 30.826L71.8637 31.464C71.4164 32.4393 70.749 33.2387 69.8617 33.862C68.9744 34.478 67.9807 34.786 66.8807 34.786ZM64.1747 27.9H69.5867C69.506 27.46 69.3337 27.064 69.0697 26.712C68.813 26.3527 68.494 26.0667 68.1127 25.854C67.7314 25.6413 67.3207 25.535 66.8807 25.535C66.4407 25.535 66.0337 25.6413 65.6597 25.854C65.2857 26.0593 64.9667 26.3417 64.7027 26.701C64.446 27.053 64.27 27.4527 64.1747 27.9ZM74.1044 34.5L74.0934 23.5H76.7774L76.7884 24.479C77.1624 24.083 77.6098 23.7713 78.1304 23.544C78.6511 23.3093 79.2121 23.192 79.8134 23.192C80.2168 23.192 80.6201 23.2507 81.0234 23.368L79.9674 26.074C79.6888 25.964 79.4101 25.909 79.1314 25.909C78.6988 25.909 78.3028 26.0153 77.9434 26.228C77.5914 26.4333 77.3091 26.7157 77.0964 27.075C76.8911 27.427 76.7884 27.8193 76.7884 28.252V34.5H74.1044ZM82.2145 23.5H84.8985V34.5H82.2145V23.5ZM83.5785 22.081C83.1825 22.081 82.8489 21.9527 82.5775 21.696C82.3062 21.432 82.1705 21.102 82.1705 20.706C82.1705 20.3173 82.3062 19.991 82.5775 19.727C82.8489 19.463 83.1789 19.331 83.5675 19.331C83.9562 19.331 84.2825 19.463 84.5465 19.727C84.8179 19.991 84.9535 20.3173 84.9535 20.706C84.9535 21.102 84.8215 21.432 84.5575 21.696C84.2935 21.9527 83.9672 22.081 83.5785 22.081ZM97.5327 27.548V34.5H94.8487V28.252C94.8487 27.8193 94.7424 27.427 94.5297 27.075C94.3171 26.7157 94.0311 26.4333 93.6717 26.228C93.3197 26.0153 92.9274 25.909 92.4947 25.909C92.0621 25.909 91.6661 26.0153 91.3067 26.228C90.9547 26.4333 90.6724 26.7157 90.4597 27.075C90.2544 27.427 90.1517 27.8193 90.1517 28.252V34.5H87.4677L87.4567 23.5H90.1407L90.1517 24.479C90.5257 24.083 90.9731 23.7713 91.4937 23.544C92.0144 23.3093 92.5754 23.192 93.1767 23.192C93.9761 23.192 94.7057 23.39 95.3657 23.786C96.0257 24.1747 96.5501 24.699 96.9387 25.359C97.3347 26.0117 97.5327 26.7413 97.5327 27.548ZM107.671 23.5H110.355V34.709C110.355 35.501 110.194 36.2197 109.871 36.865C109.549 37.5177 109.109 38.075 108.551 38.537C107.994 39.0063 107.356 39.3657 106.637 39.615C105.919 39.8717 105.163 40 104.371 40C103.601 40 102.861 39.8423 102.149 39.527C101.438 39.2117 100.807 38.779 100.257 38.229C99.7148 37.6863 99.3005 37.0667 99.0145 36.37L101.467 35.259C101.614 35.6623 101.834 36.0143 102.127 36.315C102.428 36.623 102.773 36.8613 103.161 37.03C103.55 37.206 103.953 37.294 104.371 37.294C104.797 37.294 105.204 37.2353 105.592 37.118C105.988 37.0007 106.344 36.8283 106.659 36.601C106.975 36.381 107.22 36.1097 107.396 35.787C107.58 35.4717 107.671 35.1123 107.671 34.709V33.158C107.327 33.642 106.894 34.0343 106.373 34.335C105.853 34.6357 105.251 34.786 104.569 34.786C103.777 34.786 103.037 34.6357 102.347 34.335C101.658 34.0343 101.049 33.62 100.521 33.092C100.001 32.5567 99.5901 31.9407 99.2895 31.244C98.9961 30.5473 98.8495 29.7993 98.8495 29C98.8495 28.2007 98.9961 27.4527 99.2895 26.756C99.5901 26.0593 100.001 25.447 100.521 24.919C101.049 24.3837 101.658 23.9657 102.347 23.665C103.037 23.3643 103.777 23.214 104.569 23.214C105.251 23.214 105.853 23.3643 106.373 23.665C106.894 23.9583 107.327 24.347 107.671 24.831V23.5ZM104.602 32.201C105.167 32.201 105.666 32.058 106.098 31.772C106.538 31.4787 106.883 31.09 107.132 30.606C107.382 30.1147 107.506 29.5793 107.506 29C107.506 28.4133 107.378 27.878 107.121 27.394C106.872 26.91 106.527 26.5213 106.087 26.228C105.655 25.9347 105.16 25.788 104.602 25.788C104.052 25.788 103.55 25.9347 103.095 26.228C102.641 26.514 102.278 26.899 102.006 27.383C101.735 27.867 101.599 28.406 101.599 29C101.599 29.594 101.735 30.133 102.006 30.617C102.278 31.101 102.641 31.486 103.095 31.772C103.55 32.058 104.052 32.201 104.602 32.201ZM118.287 34.5V19.1H124.194C125.03 19.1 125.785 19.309 126.46 19.727C127.134 20.145 127.67 20.706 128.066 21.41C128.462 22.1067 128.66 22.8803 128.66 23.731C128.66 24.4277 128.531 25.0693 128.275 25.656C128.025 26.2353 127.673 26.7377 127.219 27.163C126.771 27.5883 126.254 27.911 125.668 28.131L129.353 34.5H126.262L122.698 28.373H120.971V34.5H118.287ZM120.971 25.689H123.886C124.267 25.689 124.615 25.5937 124.931 25.403C125.246 25.2123 125.499 24.9557 125.69 24.633C125.88 24.3103 125.976 23.951 125.976 23.555C125.976 23.1517 125.88 22.7887 125.69 22.466C125.499 22.1433 125.246 21.8867 124.931 21.696C124.615 21.5053 124.267 21.41 123.886 21.41H120.971V25.689ZM131.134 23.5H133.818V34.5H131.134V23.5ZM132.498 22.081C132.102 22.081 131.769 21.9527 131.497 21.696C131.226 21.432 131.09 21.102 131.09 20.706C131.09 20.3173 131.226 19.991 131.497 19.727C131.769 19.463 132.099 19.331 132.487 19.331C132.876 19.331 133.202 19.463 133.466 19.727C133.738 19.991 133.873 20.3173 133.873 20.706C133.873 21.102 133.741 21.432 133.477 21.696C133.213 21.9527 132.887 22.081 132.498 22.081ZM139.536 34.698C138.964 34.6613 138.41 34.5477 137.875 34.357C137.347 34.159 136.877 33.8913 136.467 33.554C136.056 33.2167 135.741 32.8133 135.521 32.344L137.787 31.376C137.875 31.5227 138.018 31.6803 138.216 31.849C138.414 32.0103 138.648 32.146 138.92 32.256C139.198 32.366 139.503 32.421 139.833 32.421C140.111 32.421 140.375 32.3843 140.625 32.311C140.881 32.2303 141.087 32.1093 141.241 31.948C141.402 31.7867 141.483 31.5777 141.483 31.321C141.483 31.0497 141.387 30.8407 141.197 30.694C141.013 30.54 140.779 30.4263 140.493 30.353C140.214 30.2723 139.943 30.199 139.679 30.133C138.982 29.9937 138.333 29.7773 137.732 29.484C137.138 29.1907 136.657 28.813 136.291 28.351C135.931 27.8817 135.752 27.317 135.752 26.657C135.752 25.931 135.942 25.304 136.324 24.776C136.712 24.248 137.215 23.841 137.831 23.555C138.454 23.269 139.125 23.126 139.844 23.126C140.716 23.126 141.516 23.3093 142.242 23.676C142.975 24.0353 143.554 24.545 143.98 25.205L141.857 26.459C141.754 26.283 141.611 26.1217 141.428 25.975C141.244 25.821 141.035 25.6963 140.801 25.601C140.566 25.4983 140.32 25.4397 140.064 25.425C139.734 25.4103 139.433 25.4397 139.162 25.513C138.89 25.5863 138.67 25.711 138.502 25.887C138.34 26.063 138.26 26.2977 138.26 26.591C138.26 26.8697 138.37 27.0787 138.59 27.218C138.81 27.35 139.074 27.4527 139.382 27.526C139.697 27.5993 139.998 27.68 140.284 27.768C140.929 27.9807 141.534 28.241 142.099 28.549C142.671 28.857 143.129 29.2347 143.474 29.682C143.818 30.1293 143.983 30.6647 143.969 31.288C143.969 31.9993 143.756 32.6227 143.331 33.158C142.905 33.686 142.355 34.0893 141.681 34.368C141.013 34.6467 140.298 34.7567 139.536 34.698ZM155.674 34.5H152.583L150.075 30.177L148.535 32.014V34.5H145.851V18H148.535V27.845L152.176 23.5H155.685L151.912 27.999L155.674 34.5ZM160.397 34.698C159.825 34.6613 159.271 34.5477 158.736 34.357C158.208 34.159 157.739 33.8913 157.328 33.554C156.917 33.2167 156.602 32.8133 156.382 32.344L158.648 31.376C158.736 31.5227 158.879 31.6803 159.077 31.849C159.275 32.0103 159.51 32.146 159.781 32.256C160.06 32.366 160.364 32.421 160.694 32.421C160.973 32.421 161.237 32.3843 161.486 32.311C161.743 32.2303 161.948 32.1093 162.102 31.948C162.263 31.7867 162.344 31.5777 162.344 31.321C162.344 31.0497 162.249 30.8407 162.058 30.694C161.875 30.54 161.64 30.4263 161.354 30.353C161.075 30.2723 160.804 30.199 160.54 30.133C159.843 29.9937 159.194 29.7773 158.593 29.484C157.999 29.1907 157.519 28.813 157.152 28.351C156.793 27.8817 156.613 27.317 156.613 26.657C156.613 25.931 156.804 25.304 157.185 24.776C157.574 24.248 158.076 23.841 158.692 23.555C159.315 23.269 159.986 23.126 160.705 23.126C161.578 23.126 162.377 23.3093 163.103 23.676C163.836 24.0353 164.416 24.545 164.841 25.205L162.718 26.459C162.615 26.283 162.472 26.1217 162.289 25.975C162.106 25.821 161.897 25.6963 161.662 25.601C161.427 25.4983 161.182 25.4397 160.925 25.425C160.595 25.4103 160.294 25.4397 160.023 25.513C159.752 25.5863 159.532 25.711 159.363 25.887C159.202 26.063 159.121 26.2977 159.121 26.591C159.121 26.8697 159.231 27.0787 159.451 27.218C159.671 27.35 159.935 27.4527 160.243 27.526C160.558 27.5993 160.859 27.68 161.145 27.768C161.79 27.9807 162.395 28.241 162.96 28.549C163.532 28.857 163.99 29.2347 164.335 29.682C164.68 30.1293 164.845 30.6647 164.83 31.288C164.83 31.9993 164.617 32.6227 164.192 33.158C163.767 33.686 163.217 34.0893 162.542 34.368C161.875 34.6467 161.16 34.7567 160.397 34.698ZM166.187 35.732L166.869 32.014H169.553L167.98 35.732H166.187ZM30.948 61.786C29.9067 61.786 28.9277 61.5807 28.011 61.17C27.0943 60.752 26.2877 60.1763 25.591 59.443C24.9017 58.7097 24.359 57.8627 23.963 56.902C23.5743 55.934 23.38 54.9 23.38 53.8C23.38 52.6927 23.5743 51.6587 23.963 50.698C24.359 49.73 24.9017 48.883 25.591 48.157C26.2877 47.4237 27.0943 46.8517 28.011 46.441C28.9277 46.023 29.9067 45.814 30.948 45.814C32.1947 45.814 33.3423 46.1037 34.391 46.683C35.4397 47.255 36.3087 48.0213 36.998 48.982L34.6 50.269C34.1673 49.7337 33.6283 49.3047 32.983 48.982C32.345 48.6593 31.6667 48.498 30.948 48.498C30.2733 48.498 29.639 48.6373 29.045 48.916C28.451 49.1873 27.9303 49.5687 27.483 50.06C27.0357 50.544 26.6873 51.1087 26.438 51.754C26.1887 52.392 26.064 53.074 26.064 53.8C26.064 54.5333 26.1887 55.219 26.438 55.857C26.6947 56.495 27.0467 57.0597 27.494 57.551C27.9413 58.035 28.4583 58.4163 29.045 58.695C29.639 58.9663 30.2733 59.102 30.948 59.102C31.6813 59.102 32.3633 58.9407 32.994 58.618C33.632 58.288 34.1673 57.8553 34.6 57.32L36.998 58.618C36.3087 59.5713 35.4397 60.3377 34.391 60.917C33.3423 61.4963 32.1947 61.786 30.948 61.786ZM38.999 61.5L38.988 50.5H41.672L41.683 51.479C42.057 51.083 42.5043 50.7713 43.025 50.544C43.5456 50.3093 44.1066 50.192 44.708 50.192C45.1113 50.192 45.5146 50.2507 45.918 50.368L44.862 53.074C44.5833 52.964 44.3046 52.909 44.026 52.909C43.5933 52.909 43.1973 53.0153 42.838 53.228C42.486 53.4333 42.2036 53.7157 41.991 54.075C41.7856 54.427 41.683 54.8193 41.683 55.252V61.5H38.999ZM51.4764 61.786C50.4644 61.786 49.5404 61.5257 48.7044 61.005C47.8757 60.4843 47.2121 59.784 46.7134 58.904C46.2221 58.024 45.9764 57.0523 45.9764 55.989C45.9764 55.1897 46.1194 54.4417 46.4054 53.745C46.6914 53.041 47.0837 52.425 47.5824 51.897C48.0884 51.3617 48.6751 50.9437 49.3424 50.643C50.0097 50.3423 50.7211 50.192 51.4764 50.192C52.3344 50.192 53.1191 50.3753 53.8304 50.742C54.5491 51.1013 55.1577 51.5963 55.6564 52.227C56.1551 52.8577 56.5181 53.5763 56.7454 54.383C56.9727 55.1897 57.0241 56.033 56.8994 56.913H48.8584C48.9611 57.3237 49.1297 57.694 49.3644 58.024C49.5991 58.3467 49.8961 58.607 50.2554 58.805C50.6147 58.9957 51.0217 59.0947 51.4764 59.102C51.9457 59.1093 52.3711 58.9993 52.7524 58.772C53.1411 58.5373 53.4637 58.222 53.7204 57.826L56.4594 58.464C56.0121 59.4393 55.3447 60.2387 54.4574 60.862C53.5701 61.478 52.5764 61.786 51.4764 61.786ZM48.7704 54.9H54.1824C54.1017 54.46 53.9294 54.064 53.6654 53.712C53.4087 53.3527 53.0897 53.0667 52.7084 52.854C52.3271 52.6413 51.9164 52.535 51.4764 52.535C51.0364 52.535 50.6294 52.6413 50.2554 52.854C49.8814 53.0593 49.5624 53.3417 49.2984 53.701C49.0417 54.053 48.8657 54.4527 48.7704 54.9ZM67.0261 50.5H69.7101V61.5H67.0261L66.9051 60.136C66.6044 60.6273 66.2048 61.027 65.7061 61.335C65.2148 61.6357 64.6318 61.786 63.9571 61.786C63.1431 61.786 62.3804 61.632 61.6691 61.324C60.9578 61.016 60.3308 60.5907 59.7881 60.048C59.2528 59.5053 58.8311 58.8783 58.5231 58.167C58.2224 57.4557 58.0721 56.693 58.0721 55.879C58.0721 55.0943 58.2151 54.3573 58.5011 53.668C58.7944 52.9787 59.2014 52.3737 59.7221 51.853C60.2428 51.3323 60.8441 50.9253 61.5261 50.632C62.2081 50.3387 62.9414 50.192 63.7261 50.192C64.4521 50.192 65.1011 50.3533 65.6731 50.676C66.2524 50.9987 66.7438 51.4093 67.1471 51.908L67.0261 50.5ZM63.8911 59.201C64.4631 59.201 64.9691 59.058 65.4091 58.772C65.8491 58.486 66.1938 58.101 66.4431 57.617C66.6924 57.1257 66.8171 56.5867 66.8171 56C66.8171 55.406 66.6924 54.867 66.4431 54.383C66.1938 53.8917 65.8454 53.503 65.3981 53.217C64.9581 52.931 64.4558 52.788 63.8911 52.788C63.3264 52.788 62.8094 52.9347 62.3401 53.228C61.8781 53.514 61.5078 53.899 61.2291 54.383C60.9578 54.867 60.8221 55.406 60.8221 56C60.8221 56.594 60.9614 57.133 61.2401 57.617C61.5188 58.101 61.8891 58.486 62.3511 58.772C62.8204 59.058 63.3338 59.201 63.8911 59.201ZM77.798 53.184H75.664V61.5H72.98V53.184H71.352V50.5H72.98V47.046H75.664V50.5H77.798V53.184ZM79.6149 50.5H82.2989V61.5H79.6149V50.5ZM80.9789 49.081C80.5829 49.081 80.2493 48.9527 79.9779 48.696C79.7066 48.432 79.5709 48.102 79.5709 47.706C79.5709 47.3173 79.7066 46.991 79.9779 46.727C80.2493 46.463 80.5793 46.331 80.9679 46.331C81.3566 46.331 81.6829 46.463 81.9469 46.727C82.2183 46.991 82.3539 47.3173 82.3539 47.706C82.3539 48.102 82.2219 48.432 81.9579 48.696C81.6939 48.9527 81.3676 49.081 80.9789 49.081ZM94.9331 54.548V61.5H92.2491V55.252C92.2491 54.8193 92.1428 54.427 91.9301 54.075C91.7174 53.7157 91.4314 53.4333 91.0721 53.228C90.7201 53.0153 90.3278 52.909 89.8951 52.909C89.4624 52.909 89.0664 53.0153 88.7071 53.228C88.3551 53.4333 88.0728 53.7157 87.8601 54.075C87.6548 54.427 87.5521 54.8193 87.5521 55.252V61.5H84.8681L84.8571 50.5H87.5411L87.5521 51.479C87.9261 51.083 88.3734 50.7713 88.8941 50.544C89.4148 50.3093 89.9758 50.192 90.5771 50.192C91.3764 50.192 92.1061 50.39 92.7661 50.786C93.4261 51.1747 93.9504 51.699 94.3391 52.359C94.7351 53.0117 94.9331 53.7413 94.9331 54.548ZM105.072 50.5H107.756V61.709C107.756 62.501 107.595 63.2197 107.272 63.865C106.949 64.5177 106.509 65.075 105.952 65.537C105.395 66.0063 104.757 66.3657 104.038 66.615C103.319 66.8717 102.564 67 101.772 67C101.002 67 100.261 66.8423 99.5498 66.527C98.8385 66.2117 98.2078 65.779 97.6578 65.229C97.1152 64.6863 96.7008 64.0667 96.4148 63.37L98.8678 62.259C99.0145 62.6623 99.2345 63.0143 99.5278 63.315C99.8285 63.623 100.173 63.8613 100.562 64.03C100.951 64.206 101.354 64.294 101.772 64.294C102.197 64.294 102.604 64.2353 102.993 64.118C103.389 64.0007 103.745 63.8283 104.06 63.601C104.375 63.381 104.621 63.1097 104.797 62.787C104.98 62.4717 105.072 62.1123 105.072 61.709V60.158C104.727 60.642 104.295 61.0343 103.774 61.335C103.253 61.6357 102.652 61.786 101.97 61.786C101.178 61.786 100.437 61.6357 99.7478 61.335C99.0585 61.0343 98.4498 60.62 97.9218 60.092C97.4012 59.5567 96.9905 58.9407 96.6898 58.244C96.3965 57.5473 96.2498 56.7993 96.2498 56C96.2498 55.2007 96.3965 54.4527 96.6898 53.756C96.9905 53.0593 97.4012 52.447 97.9218 51.919C98.4498 51.3837 99.0585 50.9657 99.7478 50.665C100.437 50.3643 101.178 50.214 101.97 50.214C102.652 50.214 103.253 50.3643 103.774 50.665C104.295 50.9583 104.727 51.347 105.072 51.831V50.5ZM102.003 59.201C102.568 59.201 103.066 59.058 103.499 58.772C103.939 58.4787 104.284 58.09 104.533 57.606C104.782 57.1147 104.907 56.5793 104.907 56C104.907 55.4133 104.779 54.878 104.522 54.394C104.273 53.91 103.928 53.5213 103.488 53.228C103.055 52.9347 102.56 52.788 102.003 52.788C101.453 52.788 100.951 52.9347 100.496 53.228C100.041 53.514 99.6782 53.899 99.4068 54.383C99.1355 54.867 98.9998 55.406 98.9998 56C98.9998 56.594 99.1355 57.133 99.4068 57.617C99.6782 58.101 100.041 58.486 100.496 58.772C100.951 59.058 101.453 59.201 102.003 59.201ZM122.815 61.786C121.774 61.786 120.795 61.5807 119.878 61.17C118.962 60.752 118.155 60.1763 117.458 59.443C116.769 58.7097 116.226 57.8627 115.83 56.902C115.442 55.934 115.247 54.9 115.247 53.8C115.247 52.6927 115.442 51.6587 115.83 50.698C116.226 49.73 116.769 48.883 117.458 48.157C118.155 47.4237 118.962 46.8517 119.878 46.441C120.795 46.023 121.774 45.814 122.815 45.814C124.062 45.814 125.21 46.1037 126.258 46.683C127.307 47.255 128.176 48.0213 128.865 48.982L126.467 50.269C126.035 49.7337 125.496 49.3047 124.85 48.982C124.212 48.6593 123.534 48.498 122.815 48.498C122.141 48.498 121.506 48.6373 120.912 48.916C120.318 49.1873 119.798 49.5687 119.35 50.06C118.903 50.544 118.555 51.1087 118.305 51.754C118.056 52.392 117.931 53.074 117.931 53.8C117.931 54.5333 118.056 55.219 118.305 55.857C118.562 56.495 118.914 57.0597 119.361 57.551C119.809 58.035 120.326 58.4163 120.912 58.695C121.506 58.9663 122.141 59.102 122.815 59.102C123.549 59.102 124.231 58.9407 124.861 58.618C125.499 58.288 126.035 57.8553 126.467 57.32L128.865 58.618C128.176 59.5713 127.307 60.3377 126.258 60.917C125.21 61.4963 124.062 61.786 122.815 61.786ZM135.201 61.786C134.189 61.786 133.265 61.5257 132.429 61.005C131.6 60.4843 130.937 59.7877 130.438 58.915C129.947 58.035 129.701 57.0633 129.701 56C129.701 55.1933 129.844 54.4417 130.13 53.745C130.416 53.041 130.808 52.425 131.307 51.897C131.813 51.3617 132.4 50.9437 133.067 50.643C133.734 50.3423 134.446 50.192 135.201 50.192C136.213 50.192 137.133 50.4523 137.962 50.973C138.798 51.4937 139.462 52.194 139.953 53.074C140.452 53.954 140.701 54.9293 140.701 56C140.701 56.7993 140.558 57.5473 140.272 58.244C139.986 58.9407 139.59 59.5567 139.084 60.092C138.585 60.62 138.002 61.0343 137.335 61.335C136.675 61.6357 135.964 61.786 135.201 61.786ZM135.201 59.102C135.736 59.102 136.217 58.959 136.642 58.673C137.067 58.387 137.401 58.0093 137.643 57.54C137.892 57.0707 138.017 56.5573 138.017 56C138.017 55.428 137.889 54.9073 137.632 54.438C137.383 53.9613 137.042 53.5837 136.609 53.305C136.184 53.019 135.714 52.876 135.201 52.876C134.673 52.876 134.196 53.019 133.771 53.305C133.346 53.591 133.008 53.9723 132.759 54.449C132.51 54.9257 132.385 55.4427 132.385 56C132.385 56.5793 132.513 57.1037 132.77 57.573C133.027 58.0423 133.368 58.4163 133.793 58.695C134.226 58.9663 134.695 59.102 135.201 59.102ZM152.49 54.548V61.5H149.806V55.252C149.806 54.8193 149.699 54.427 149.487 54.075C149.274 53.7157 148.988 53.4333 148.629 53.228C148.277 53.0153 147.884 52.909 147.452 52.909C147.019 52.909 146.623 53.0153 146.264 53.228C145.912 53.4333 145.629 53.7157 145.417 54.075C145.211 54.427 145.109 54.8193 145.109 55.252V61.5H142.425L142.414 50.5H145.098L145.109 51.479C145.483 51.083 145.93 50.7713 146.451 50.544C146.971 50.3093 147.532 50.192 148.134 50.192C148.933 50.192 149.663 50.39 150.323 50.786C150.983 51.1747 151.507 51.699 151.896 52.359C152.292 53.0117 152.49 53.7413 152.49 54.548ZM157.794 48.19V50.5H160.797V53.184H157.794V61.5H155.11V53.184H153.911V50.5H155.11V48.19C155.11 47.5593 155.264 46.9837 155.572 46.463C155.888 45.935 156.309 45.517 156.837 45.209C157.365 44.8937 157.948 44.736 158.586 44.736C159.048 44.736 159.507 44.8313 159.961 45.022C160.416 45.2127 160.819 45.506 161.171 45.902L159.235 47.794C159.169 47.6693 159.074 47.5777 158.949 47.519C158.832 47.453 158.711 47.42 158.586 47.42C158.374 47.42 158.187 47.497 158.025 47.651C157.871 47.7977 157.794 47.9773 157.794 48.19ZM162.523 50.5H165.207V61.5H162.523V50.5ZM163.887 49.081C163.491 49.081 163.157 48.9527 162.886 48.696C162.615 48.432 162.479 48.102 162.479 47.706C162.479 47.3173 162.615 46.991 162.886 46.727C163.157 46.463 163.487 46.331 163.876 46.331C164.265 46.331 164.591 46.463 164.855 46.727C165.126 46.991 165.262 47.3173 165.262 47.706C165.262 48.102 165.13 48.432 164.866 48.696C164.602 48.9527 164.276 49.081 163.887 49.081ZM175.909 45H178.593V61.5H175.909V60.125C175.557 60.6163 175.114 61.016 174.578 61.324C174.043 61.632 173.423 61.786 172.719 61.786C171.92 61.786 171.172 61.6357 170.475 61.335C169.779 61.0343 169.163 60.62 168.627 60.092C168.099 59.5567 167.685 58.9407 167.384 58.244C167.084 57.5473 166.933 56.7993 166.933 56C166.933 55.2007 167.084 54.4527 167.384 53.756C167.685 53.0593 168.099 52.447 168.627 51.919C169.163 51.3837 169.779 50.9657 170.475 50.665C171.172 50.3643 171.92 50.214 172.719 50.214C173.423 50.214 174.043 50.368 174.578 50.676C175.114 50.9767 175.557 51.3763 175.909 51.875V45ZM172.752 59.201C173.324 59.201 173.83 59.058 174.27 58.772C174.71 58.486 175.055 58.101 175.304 57.617C175.554 57.1257 175.678 56.5867 175.678 56C175.678 55.406 175.554 54.867 175.304 54.383C175.055 53.8917 174.707 53.503 174.259 53.217C173.819 52.931 173.317 52.788 172.752 52.788C172.188 52.788 171.671 52.9347 171.201 53.228C170.739 53.514 170.369 53.899 170.09 54.383C169.819 54.867 169.683 55.406 169.683 56C169.683 56.594 169.823 57.133 170.101 57.617C170.38 58.101 170.75 58.486 171.212 58.772C171.682 59.058 172.195 59.201 172.752 59.201ZM185.904 61.786C184.892 61.786 183.968 61.5257 183.132 61.005C182.303 60.4843 181.64 59.784 181.141 58.904C180.65 58.024 180.404 57.0523 180.404 55.989C180.404 55.1897 180.547 54.4417 180.833 53.745C181.119 53.041 181.511 52.425 182.01 51.897C182.516 51.3617 183.103 50.9437 183.77 50.643C184.437 50.3423 185.149 50.192 185.904 50.192C186.762 50.192 187.547 50.3753 188.258 50.742C188.977 51.1013 189.585 51.5963 190.084 52.227C190.583 52.8577 190.946 53.5763 191.173 54.383C191.4 55.1897 191.452 56.033 191.327 56.913H183.286C183.389 57.3237 183.557 57.694 183.792 58.024C184.027 58.3467 184.324 58.607 184.683 58.805C185.042 58.9957 185.449 59.0947 185.904 59.102C186.373 59.1093 186.799 58.9993 187.18 58.772C187.569 58.5373 187.891 58.222 188.148 57.826L190.887 58.464C190.44 59.4393 189.772 60.2387 188.885 60.862C187.998 61.478 187.004 61.786 185.904 61.786ZM183.198 54.9H188.61C188.529 54.46 188.357 54.064 188.093 53.712C187.836 53.3527 187.517 53.0667 187.136 52.854C186.755 52.6413 186.344 52.535 185.904 52.535C185.464 52.535 185.057 52.6413 184.683 52.854C184.309 53.0593 183.99 53.3417 183.726 53.701C183.469 54.053 183.293 54.4527 183.198 54.9ZM203.193 54.548V61.5H200.509V55.252C200.509 54.8193 200.403 54.427 200.19 54.075C199.977 53.7157 199.691 53.4333 199.332 53.228C198.98 53.0153 198.588 52.909 198.155 52.909C197.722 52.909 197.326 53.0153 196.967 53.228C196.615 53.4333 196.333 53.7157 196.12 54.075C195.915 54.427 195.812 54.8193 195.812 55.252V61.5H193.128L193.117 50.5H195.801L195.812 51.479C196.186 51.083 196.633 50.7713 197.154 50.544C197.675 50.3093 198.236 50.192 198.837 50.192C199.636 50.192 200.366 50.39 201.026 50.786C201.686 51.1747 202.21 51.699 202.599 52.359C202.995 53.0117 203.193 53.7413 203.193 54.548ZM211.99 58.189L214.41 59.498C213.904 60.1873 213.269 60.741 212.507 61.159C211.744 61.577 210.912 61.786 210.01 61.786C208.998 61.786 208.074 61.5257 207.238 61.005C206.409 60.4843 205.745 59.7877 205.247 58.915C204.755 58.035 204.51 57.0633 204.51 56C204.51 55.1933 204.653 54.4417 204.939 53.745C205.225 53.041 205.617 52.425 206.116 51.897C206.622 51.3617 207.208 50.9437 207.876 50.643C208.543 50.3423 209.254 50.192 210.01 50.192C210.912 50.192 211.744 50.401 212.507 50.819C213.269 51.237 213.904 51.798 214.41 52.502L211.99 53.8C211.733 53.5067 211.429 53.2793 211.077 53.118C210.732 52.9567 210.376 52.876 210.01 52.876C209.482 52.876 209.005 53.0227 208.58 53.316C208.154 53.602 207.817 53.9833 207.568 54.46C207.318 54.9293 207.194 55.4427 207.194 56C207.194 56.55 207.318 57.0633 207.568 57.54C207.817 58.0093 208.154 58.387 208.58 58.673C209.005 58.959 209.482 59.102 210.01 59.102C210.391 59.102 210.754 59.0213 211.099 58.86C211.443 58.6913 211.74 58.4677 211.99 58.189ZM220.881 61.786C219.869 61.786 218.945 61.5257 218.109 61.005C217.28 60.4843 216.616 59.784 216.118 58.904C215.626 58.024 215.381 57.0523 215.381 55.989C215.381 55.1897 215.524 54.4417 215.81 53.745C216.096 53.041 216.488 52.425 216.987 51.897C217.493 51.3617 218.079 50.9437 218.747 50.643C219.414 50.3423 220.125 50.192 220.881 50.192C221.739 50.192 222.523 50.3753 223.235 50.742C223.953 51.1013 224.562 51.5963 225.061 52.227C225.559 52.8577 225.922 53.5763 226.15 54.383C226.377 55.1897 226.428 56.033 226.304 56.913H218.263C218.365 57.3237 218.534 57.694 218.769 58.024C219.003 58.3467 219.3 58.607 219.66 58.805C220.019 58.9957 220.426 59.0947 220.881 59.102C221.35 59.1093 221.775 58.9993 222.157 58.772C222.545 58.5373 222.868 58.222 223.125 57.826L225.864 58.464C225.416 59.4393 224.749 60.2387 223.862 60.862C222.974 61.478 221.981 61.786 220.881 61.786ZM218.175 54.9H223.587C223.506 54.46 223.334 54.064 223.07 53.712C222.813 53.3527 222.494 53.0667 222.113 52.854C221.731 52.6413 221.321 52.535 220.881 52.535C220.441 52.535 220.034 52.6413 219.66 52.854C219.286 53.0593 218.967 53.3417 218.703 53.701C218.446 54.053 218.27 54.4527 218.175 54.9Z" fill="white"/>
<g clip-path="url(#clip1_7099_35477)">
<path d="M289.445 27.6764C289.419 26.2947 289.393 24.9895 289.393 23.7268C289.393 23.2518 289.205 22.7962 288.869 22.4603C288.533 22.1243 288.077 21.9356 287.602 21.9356C279.942 21.9356 274.109 19.7341 269.248 15.0072C268.913 14.682 268.465 14.5 267.999 14.5C267.533 14.5 267.085 14.682 266.75 15.0072C261.889 19.7341 256.058 21.9356 248.398 21.9356C247.923 21.9356 247.467 22.1243 247.131 22.4603C246.795 22.7962 246.607 23.2518 246.607 23.7268C246.607 24.9898 246.582 26.2955 246.555 27.6773C246.31 40.5349 245.973 58.144 267.412 65.5751C267.792 65.7069 268.206 65.7069 268.585 65.5751C290.026 58.1438 289.69 40.5342 289.445 27.6764ZM267.999 61.982C249.612 55.3026 249.89 40.6708 250.137 27.7456C250.152 26.9699 250.166 26.2181 250.176 25.481C257.351 25.1782 263.088 23.0042 267.999 18.7258C272.911 23.0042 278.649 25.1784 285.824 25.481C285.834 26.2178 285.848 26.9692 285.863 27.7444C286.11 40.6701 286.387 55.3024 267.999 61.982Z" fill="white"/>
<path d="M274.168 33.8643L265.523 42.5092L261.833 38.82C261.496 38.4934 261.043 38.3126 260.573 38.3166C260.103 38.3206 259.654 38.5091 259.322 38.8413C258.989 39.1736 258.801 39.6231 258.797 40.093C258.793 40.5628 258.974 41.0154 259.3 41.3532L264.256 46.3089C264.422 46.4755 264.62 46.6075 264.837 46.6975C265.054 46.7875 265.287 46.8337 265.523 46.8334C265.758 46.8337 265.991 46.7875 266.208 46.6975C266.426 46.6075 266.623 46.4755 266.789 46.3089L276.701 36.3975C276.867 36.2313 276.999 36.0338 277.089 35.8165C277.179 35.5992 277.226 35.3663 277.226 35.1311C277.226 34.8959 277.179 34.6629 277.089 34.4456C276.999 34.2283 276.867 34.0308 276.701 33.8645C276.365 33.5286 275.91 33.3399 275.435 33.3398C274.96 33.3398 274.504 33.5284 274.168 33.8643Z" fill="white"/>
</g>
<path d="M238.5 13.5312C256.851 14.2728 271.5 29.3813 271.5 47.9141C271.5 66.4469 256.851 81.5553 238.5 82.2969V13.5312Z" fill="white" fill-opacity="0.2"/>
<path d="M304.5 13.5C286.149 14.2416 271.5 29.35 271.5 47.8828C271.5 66.4157 286.149 81.524 304.5 82.2656V13.5Z" fill="white" fill-opacity="0.2"/>
</g>
<defs>
<linearGradient id="paint0_linear_7099_35477" x1="295.85" y1="80.5" x2="36.0741" y2="-65.7628" gradientUnits="userSpaceOnUse">
<stop offset="0.17976" stop-color="#FF6E00"/>
<stop offset="1" stop-color="#FF8B41"/>
</linearGradient>
<clipPath id="clip0_7099_35477">
<rect y="0.5" width="300" height="76" rx="8" fill="white"/>
</clipPath>
<clipPath id="clip1_7099_35477">
<rect width="52" height="52" fill="white" transform="translate(241.5 14.5)"/>
</clipPath>
</defs>
</svg>
