<svg width="40" height="40" viewBox="0 0 40 40" fill="none" xmlns="http://www.w3.org/2000/svg">
<rect width="40" height="40" rx="20" fill="url(#paint0_linear_2566_4441)"/>
<g clip-path="url(#clip0_2566_4441)">
<path d="M15.4993 16.5846C15.9589 16.5846 16.3327 16.2109 16.3327 15.7513V13.2513C16.3327 12.7917 15.9589 12.418 15.4993 12.418C15.0398 12.418 14.666 12.7917 14.666 13.2513V15.7513C14.666 16.2109 15.0398 16.5846 15.4993 16.5846ZM18.416 25.7513H22.5827V31.168H18.416V25.7513Z" fill="white"/>
<path d="M32.1663 9.91732H8.83301V24.9173H32.1672L32.1663 9.91732ZM27.583 11.584H30.083C30.1935 11.584 30.2995 11.6279 30.3776 11.706C30.4558 11.7842 30.4997 11.8901 30.4997 12.0007C30.4997 12.1112 30.4558 12.2171 30.3776 12.2953C30.2995 12.3734 30.1935 12.4173 30.083 12.4173H29.2497V17.0007C29.2497 17.1112 29.2058 17.2171 29.1276 17.2953C29.0495 17.3734 28.9435 17.4173 28.833 17.4173C28.7225 17.4173 28.6165 17.3734 28.5384 17.2953C28.4602 17.2171 28.4163 17.1112 28.4163 17.0007V12.4173H27.583C27.4725 12.4173 27.3665 12.3734 27.2884 12.2953C27.2102 12.2171 27.1663 12.1112 27.1663 12.0007C27.1663 11.8901 27.2102 11.7842 27.2884 11.706C27.3665 11.6279 27.4725 11.584 27.583 11.584ZM22.9997 12.0007C22.9997 11.8901 23.0436 11.7842 23.1217 11.706C23.1999 11.6279 23.3058 11.584 23.4163 11.584H25.9163C26.0268 11.584 26.1328 11.6279 26.211 11.706C26.2891 11.7842 26.333 11.8901 26.333 12.0007C26.333 12.1112 26.2891 12.2171 26.211 12.2953C26.1328 12.3734 26.0268 12.4173 25.9163 12.4173H23.833V14.084H25.083C25.1935 14.084 25.2995 14.1279 25.3776 14.206C25.4558 14.2842 25.4997 14.3901 25.4997 14.5007C25.4997 14.6112 25.4558 14.7171 25.3776 14.7953C25.2995 14.8734 25.1935 14.9173 25.083 14.9173H23.833V16.584H25.9163C26.0268 16.584 26.1328 16.6279 26.211 16.706C26.2891 16.7842 26.333 16.8901 26.333 17.0007C26.333 17.1112 26.2891 17.2171 26.211 17.2953C26.1328 17.3734 26.0268 17.4173 25.9163 17.4173H23.4163C23.3058 17.4173 23.1999 17.3734 23.1217 17.2953C23.0436 17.2171 22.9997 17.1112 22.9997 17.0007V12.0007ZM18.833 12.0007C18.833 11.8901 18.8769 11.7842 18.955 11.706C19.0332 11.6279 19.1392 11.584 19.2497 11.584C19.3602 11.584 19.4662 11.6279 19.5443 11.706C19.6224 11.7842 19.6663 11.8901 19.6663 12.0007V16.584H21.7497C21.8602 16.584 21.9662 16.6279 22.0443 16.706C22.1224 16.7842 22.1663 16.8901 22.1663 17.0007C22.1663 17.1112 22.1224 17.2171 22.0443 17.2953C21.9662 17.3734 21.8602 17.4173 21.7497 17.4173H19.2497C19.1392 17.4173 19.0332 17.3734 18.955 17.2953C18.8769 17.2171 18.833 17.1112 18.833 17.0007V12.0007ZM13.833 13.2507C13.833 12.3315 14.5805 11.584 15.4997 11.584C16.4188 11.584 17.1663 12.3315 17.1663 13.2507V15.7507C17.1663 16.6698 16.4188 17.4173 15.4997 17.4173C14.5805 17.4173 13.833 16.6698 13.833 15.7507V13.2507ZM9.66634 12.0007C9.66634 11.8901 9.71024 11.7842 9.78838 11.706C9.86652 11.6279 9.9725 11.584 10.083 11.584H12.583C12.6935 11.584 12.7995 11.6279 12.8776 11.706C12.9558 11.7842 12.9997 11.8901 12.9997 12.0007C12.9997 12.1112 12.9558 12.2171 12.8776 12.2953C12.7995 12.3734 12.6935 12.4173 12.583 12.4173H11.7497V17.0007C11.7497 17.1112 11.7058 17.2171 11.6276 17.2953C11.5495 17.3734 11.4435 17.4173 11.333 17.4173C11.2225 17.4173 11.1165 17.3734 11.0384 17.2953C10.9602 17.2171 10.9163 17.1112 10.9163 17.0007V12.4173H10.083C9.9725 12.4173 9.86652 12.3734 9.78838 12.2953C9.71024 12.2171 9.66634 12.1112 9.66634 12.0007ZM30.9163 22.834C30.9163 23.2936 30.5426 23.6673 30.083 23.6673H10.9163C10.4568 23.6673 10.083 23.2936 10.083 22.834V19.5007C10.083 19.0411 10.4568 18.6673 10.9163 18.6673H30.083C30.5426 18.6673 30.9163 19.0411 30.9163 19.5007V22.834ZM18.4163 7.83398H22.583V9.08398H18.4163V7.83398Z" fill="white"/>
<path d="M10.916 19.5H30.0831V22.8333H10.916V19.5Z" fill="white"/>
<path d="M25.29 21.9758V20.3535H26.3452V20.5999H25.5839V21.0403H26.2905V21.2867H25.5839V21.7295H26.3515V21.9758H25.29Z" fill="url(#paint1_linear_2566_4441)"/>
<path d="M24.6934 20.8742C24.6802 20.8314 24.662 20.7932 24.6388 20.7594C24.6161 20.725 24.5886 20.6957 24.5564 20.6714C24.5247 20.6471 24.4883 20.6289 24.4471 20.6168C24.4059 20.6041 24.361 20.5978 24.3124 20.5978C24.2253 20.5978 24.1477 20.6197 24.0795 20.6635C24.0114 20.7073 23.9578 20.7718 23.9187 20.8568C23.8802 20.9413 23.8609 21.0443 23.8609 21.1657C23.8609 21.2883 23.8802 21.392 23.9187 21.477C23.9573 21.5621 24.0109 21.6268 24.0795 21.6711C24.1482 21.715 24.2279 21.7369 24.3188 21.7369C24.4011 21.7369 24.4724 21.721 24.5326 21.6893C24.5934 21.6577 24.6401 21.6128 24.6728 21.5547C24.7056 21.4961 24.722 21.4274 24.722 21.3487L24.7885 21.359H24.3481V21.1293H25.0063V21.3242C25.0063 21.4631 24.9768 21.5832 24.9176 21.6846C24.8585 21.786 24.7771 21.8641 24.6736 21.9191C24.5701 21.9735 24.4513 22.0007 24.3172 22.0007C24.1677 22.0007 24.0365 21.9671 23.9235 21.9C23.811 21.8325 23.7231 21.7366 23.6597 21.6125C23.5969 21.4879 23.5654 21.34 23.5654 21.1689C23.5654 21.0379 23.5839 20.921 23.6209 20.818C23.6584 20.715 23.7107 20.6276 23.7777 20.5558C23.8448 20.4834 23.9235 20.4285 24.0138 20.391C24.1041 20.353 24.2023 20.334 24.3085 20.334C24.3982 20.334 24.4819 20.3472 24.5596 20.3736C24.6372 20.3995 24.7061 20.4364 24.7663 20.4845C24.827 20.5325 24.877 20.5896 24.916 20.6556C24.9551 20.7216 24.9807 20.7945 24.9929 20.8742H24.6934Z" fill="url(#paint2_linear_2566_4441)"/>
<path d="M22.2776 21.9758H21.9639L22.535 20.3535H22.8978L23.4697 21.9758H23.156L22.7227 20.6862H22.7101L22.2776 21.9758ZM22.2879 21.3397H23.1434V21.5758H22.2879V21.3397Z" fill="url(#paint3_linear_2566_4441)"/>
<path d="M21.5216 20.8742C21.5084 20.8314 21.4901 20.7932 21.4669 20.7594C21.4442 20.725 21.4167 20.6957 21.3845 20.6714C21.3528 20.6471 21.3164 20.6289 21.2752 20.6168C21.234 20.6041 21.1891 20.5978 21.1405 20.5978C21.0534 20.5978 20.9758 20.6197 20.9077 20.6635C20.8395 20.7073 20.7859 20.7718 20.7468 20.8568C20.7083 20.9413 20.689 21.0443 20.689 21.1657C20.689 21.2883 20.7083 21.392 20.7468 21.477C20.7854 21.5621 20.839 21.6268 20.9077 21.6711C20.9763 21.715 21.056 21.7369 21.1469 21.7369C21.2293 21.7369 21.3006 21.721 21.3608 21.6893C21.4215 21.6577 21.4682 21.6128 21.501 21.5547C21.5337 21.4961 21.5501 21.4274 21.5501 21.3487L21.6166 21.359H21.1762V21.1293H21.8345V21.3242C21.8345 21.4631 21.8049 21.5832 21.7457 21.6846C21.6866 21.786 21.6053 21.8641 21.5018 21.9191C21.3983 21.9735 21.2794 22.0007 21.1453 22.0007C20.9958 22.0007 20.8646 21.9671 20.7516 21.9C20.6391 21.8325 20.5512 21.7366 20.4878 21.6125C20.425 21.4879 20.3936 21.34 20.3936 21.1689C20.3936 21.0379 20.412 20.921 20.449 20.818C20.4865 20.715 20.5388 20.6276 20.6058 20.5558C20.6729 20.4834 20.7516 20.4285 20.8419 20.391C20.9322 20.353 21.0304 20.334 21.1366 20.334C21.2264 20.334 21.3101 20.3472 21.3877 20.3736C21.4653 20.3995 21.5342 20.4364 21.5944 20.4845C21.6552 20.5325 21.7051 20.5896 21.7442 20.6556C21.7832 20.7216 21.8088 20.7945 21.821 20.8742H21.5216Z" fill="url(#paint4_linear_2566_4441)"/>
<path d="M18.9629 20.5999V20.3535H20.2573V20.5999H19.7558V21.9758H19.4643V20.5999H18.9629Z" fill="url(#paint5_linear_2566_4441)"/>
<path d="M17.584 21.9758V20.3535H18.1923C18.317 20.3535 18.4215 20.3752 18.506 20.4185C18.5911 20.4618 18.6552 20.5225 18.6985 20.6007C18.7424 20.6783 18.7643 20.7689 18.7643 20.8724C18.7643 20.9764 18.7421 21.0667 18.6977 21.1433C18.6539 21.2193 18.5892 21.2782 18.5037 21.3199C18.4181 21.3611 18.313 21.3817 18.1884 21.3817H17.7551V21.1377H18.1488C18.2217 21.1377 18.2813 21.1277 18.3278 21.1076C18.3743 21.087 18.4086 21.0572 18.4308 21.0181C18.4535 20.9785 18.4648 20.9299 18.4648 20.8724C18.4648 20.8148 18.4535 20.7657 18.4308 20.725C18.4081 20.6838 18.3735 20.6527 18.327 20.6316C18.2805 20.6099 18.2206 20.5991 18.1472 20.5991H17.8779V21.9758H17.584ZM18.4221 21.2407L18.8237 21.9758H18.4957L18.1013 21.2407H18.4221Z" fill="url(#paint6_linear_2566_4441)"/>
<path d="M17.3062 21.1673C17.3062 21.3421 17.2735 21.4918 17.208 21.6165C17.1431 21.7406 17.0543 21.8356 16.9419 21.9016C16.8299 21.9676 16.7029 22.0007 16.5608 22.0007C16.4188 22.0007 16.2915 21.9676 16.179 21.9016C16.0671 21.8351 15.9783 21.7398 15.9129 21.6157C15.8479 21.491 15.8154 21.3416 15.8154 21.1673C15.8154 20.9925 15.8479 20.8431 15.9129 20.719C15.9783 20.5943 16.0671 20.499 16.179 20.433C16.2915 20.367 16.4188 20.334 16.5608 20.334C16.7029 20.334 16.8299 20.367 16.9419 20.433C17.0543 20.499 17.1431 20.5943 17.208 20.719C17.2735 20.8431 17.3062 20.9925 17.3062 21.1673ZM17.0108 21.1673C17.0108 21.0443 16.9915 20.9405 16.9529 20.856C16.9149 20.771 16.8621 20.7068 16.7945 20.6635C16.7269 20.6197 16.649 20.5978 16.5608 20.5978C16.4726 20.5978 16.3947 20.6197 16.3272 20.6635C16.2596 20.7068 16.2065 20.771 16.1679 20.856C16.1299 20.9405 16.1109 21.0443 16.1109 21.1673C16.1109 21.2904 16.1299 21.3944 16.1679 21.4794C16.2065 21.5639 16.2596 21.6281 16.3272 21.6719C16.3947 21.7152 16.4726 21.7369 16.5608 21.7369C16.649 21.7369 16.7269 21.7152 16.7945 21.6719C16.8621 21.6281 16.9149 21.5639 16.9529 21.4794C16.9915 21.3944 17.0108 21.2904 17.0108 21.1673Z" fill="url(#paint7_linear_2566_4441)"/>
<path d="M13.833 20.3535H14.1926L14.6743 21.5291H14.6933L15.1749 20.3535H15.5345V21.9758H15.2525V20.8613H15.2375L14.7891 21.9711H14.5784L14.1301 20.8589H14.115V21.9758H13.833V20.3535Z" fill="url(#paint8_linear_2566_4441)"/>
</g>
<defs>
<linearGradient id="paint0_linear_2566_4441" x1="0" y1="20" x2="40" y2="20" gradientUnits="userSpaceOnUse">
<stop stop-color="#FF6E00"/>
<stop offset="1" stop-color="#FC4B00"/>
</linearGradient>
<linearGradient id="paint1_linear_2566_4441" x1="25.8208" y1="20.3535" x2="25.8208" y2="21.9758" gradientUnits="userSpaceOnUse">
<stop stop-color="#FF6E00"/>
<stop offset="1" stop-color="#FC4B00"/>
</linearGradient>
<linearGradient id="paint2_linear_2566_4441" x1="24.2859" y1="20.334" x2="24.2859" y2="22.0007" gradientUnits="userSpaceOnUse">
<stop stop-color="#FF6E00"/>
<stop offset="1" stop-color="#FC4B00"/>
</linearGradient>
<linearGradient id="paint3_linear_2566_4441" x1="22.7168" y1="20.3535" x2="22.7168" y2="21.9758" gradientUnits="userSpaceOnUse">
<stop stop-color="#FF6E00"/>
<stop offset="1" stop-color="#FC4B00"/>
</linearGradient>
<linearGradient id="paint4_linear_2566_4441" x1="21.114" y1="20.334" x2="21.114" y2="22.0007" gradientUnits="userSpaceOnUse">
<stop stop-color="#FF6E00"/>
<stop offset="1" stop-color="#FC4B00"/>
</linearGradient>
<linearGradient id="paint5_linear_2566_4441" x1="19.6101" y1="20.3535" x2="19.6101" y2="21.9758" gradientUnits="userSpaceOnUse">
<stop stop-color="#FF6E00"/>
<stop offset="1" stop-color="#FC4B00"/>
</linearGradient>
<linearGradient id="paint6_linear_2566_4441" x1="18.2038" y1="20.3535" x2="18.2038" y2="21.9758" gradientUnits="userSpaceOnUse">
<stop stop-color="#FF6E00"/>
<stop offset="1" stop-color="#FC4B00"/>
</linearGradient>
<linearGradient id="paint7_linear_2566_4441" x1="16.5608" y1="20.334" x2="16.5608" y2="22.0007" gradientUnits="userSpaceOnUse">
<stop stop-color="#FF6E00"/>
<stop offset="1" stop-color="#FC4B00"/>
</linearGradient>
<linearGradient id="paint8_linear_2566_4441" x1="14.6838" y1="20.3535" x2="14.6838" y2="21.9758" gradientUnits="userSpaceOnUse">
<stop stop-color="#FF6E00"/>
<stop offset="1" stop-color="#FC4B00"/>
</linearGradient>
<clipPath id="clip0_2566_4441">
<rect width="25" height="25" fill="white" transform="translate(8 7)"/>
</clipPath>
</defs>
</svg>
