<svg width="40" height="40" viewBox="0 0 40 40" fill="none" xmlns="http://www.w3.org/2000/svg">
<rect width="40" height="40" rx="20" fill="url(#paint0_linear_2566_4479)"/>
<path fill-rule="evenodd" clip-rule="evenodd" d="M24.6712 27.6477L24.8639 21.0391C24.303 20.7959 23.692 20.6907 23.082 20.7323C21.4969 22.0686 19.8713 22.7162 18.2505 22.6567C16.6302 22.7157 15.0052 22.0686 13.4193 20.732C11.7373 20.6238 10.552 21.5778 9.84805 22.4121C8.89356 23.5416 8.23907 25.1347 8.05193 26.7831C7.77755 29.2015 8.53855 32.1617 11.5829 32.5675H12.0737V27.8466C12.075 27.7205 12.126 27.6 12.2156 27.5114C12.3053 27.4227 12.4263 27.3729 12.5523 27.3729C12.6784 27.3729 12.7994 27.4227 12.889 27.5114C12.9786 27.6 13.0296 27.7205 13.031 27.8466V32.5675H23.4715V27.8466C23.4728 27.7206 23.5238 27.6001 23.6134 27.5114C23.7031 27.4228 23.824 27.373 23.9501 27.373C24.0762 27.373 24.1971 27.4228 24.2867 27.5114C24.3764 27.6001 24.4274 27.7206 24.4287 27.8466V32.5675H24.9196C27.2699 32.2544 28.0787 30.5065 28.353 29.2127H26.1915C25.988 29.2128 25.7866 29.172 25.5992 29.0928C25.4118 29.0136 25.2422 28.8977 25.1004 28.7517C24.9587 28.6058 24.8476 28.4329 24.7739 28.2432C24.7002 28.0536 24.6653 27.8511 24.6713 27.6477H24.6712ZM27.9577 18.5085C27.9547 18.3411 27.985 18.1747 28.047 18.0191C28.109 17.8636 28.2013 17.7219 28.3186 17.6024C28.436 17.483 28.5759 17.3881 28.7303 17.3233C28.8847 17.2585 29.0505 17.2251 29.218 17.2251C29.3854 17.2251 29.5512 17.2585 29.7056 17.3233C29.86 17.3881 30 17.483 30.1173 17.6024C30.2346 17.7219 30.327 17.8636 30.3889 18.0191C30.4509 18.1747 30.4812 18.3411 30.4782 18.5085V20.4706H27.9579V18.5085H27.9577ZM31.4354 20.4706H32.0474C32.1912 20.4707 32.3295 20.5257 32.434 20.6244C32.5386 20.723 32.6015 20.8579 32.6099 21.0014L32.9991 27.6591C33.0035 27.7358 32.9923 27.8125 32.966 27.8847C32.9398 27.9568 32.8991 28.0228 32.8464 28.0787C32.7937 28.1346 32.7302 28.1791 32.6597 28.2095C32.5893 28.24 32.5133 28.2557 32.4365 28.2558H26.1917C26.1162 28.2558 26.0416 28.2407 25.9721 28.2113C25.9026 28.182 25.8398 28.139 25.7872 28.0849C25.7346 28.0308 25.6935 27.9667 25.6661 27.8964C25.6387 27.8261 25.6257 27.7511 25.6279 27.6757L25.8226 21.0182C25.8261 20.8714 25.887 20.7318 25.9922 20.6294C26.0975 20.5271 26.2387 20.47 26.3855 20.4706H27.0008V18.5085C27.0008 17.9204 27.2344 17.3564 27.6503 16.9405C28.0661 16.5247 28.6301 16.2911 29.2182 16.2911C29.8063 16.2911 30.3703 16.5247 30.7862 16.9405C31.202 17.3564 31.4356 17.9204 31.4356 18.5085V20.4706H31.4354ZM21.8646 16.7245C22.7007 15.8884 23.221 14.7883 23.3368 13.6116C23.4527 12.4349 23.157 11.2544 22.5 10.2713C21.8431 9.28816 20.8656 8.56324 19.7341 8.22003C18.6027 7.87683 17.3872 7.93657 16.2948 8.38908C15.2024 8.84158 14.3007 9.65886 13.7434 10.7017C13.186 11.7444 13.0075 12.9482 13.2382 14.1079C13.4689 15.2676 14.0945 16.3114 15.0085 17.0615C15.9226 17.8116 17.0684 18.2215 18.2508 18.2215C19.6061 18.2209 20.9059 17.6825 21.8646 16.7245Z" fill="white"/>
<defs>
<linearGradient id="paint0_linear_2566_4479" x1="0" y1="20" x2="40" y2="20" gradientUnits="userSpaceOnUse">
<stop stop-color="#FF6E00"/>
<stop offset="1" stop-color="#FC4B00"/>
</linearGradient>
</defs>
</svg>
