<svg width="40" height="40" viewBox="0 0 40 40" fill="none" xmlns="http://www.w3.org/2000/svg">
<rect width="40" height="40" rx="20" fill="url(#paint0_linear_2566_4465)"/>
<path fill-rule="evenodd" clip-rule="evenodd" d="M17.4919 31.2509H11.6344C10.1944 31.2509 9.01319 30.0631 9.01319 28.5838V19.1347H8.63444C8.25381 19.135 7.88209 19.0195 7.5687 18.8035C7.25531 18.5875 7.01508 18.2812 6.87995 17.9253C6.74482 17.5695 6.72119 17.181 6.81219 16.8114C6.9032 16.4418 7.10454 16.1087 7.38944 15.8563L16.5038 7.78063C17.0183 7.32459 17.682 7.07279 18.3694 7.07279C19.0569 7.07279 19.7206 7.32459 20.2351 7.78063L21.0572 8.50906C21.2822 8.02086 21.6424 7.60741 22.0952 7.31777C22.548 7.02814 23.0744 6.87447 23.6119 6.875H24.0713C24.4407 6.87463 24.8065 6.9471 25.1478 7.08825C25.4892 7.2294 25.7993 7.43647 26.0605 7.69761C26.3218 7.95875 26.5289 8.26883 26.6702 8.61012C26.8115 8.9514 26.8841 9.3172 26.8838 9.68656V13.6719L29.3494 15.8563C29.5369 16.0222 29.6832 16.2191 29.7901 16.4347C28.3814 15.695 26.8137 15.3095 25.2226 15.3116C19.7888 15.3116 15.3769 19.7234 15.3769 25.1563C15.3769 27.4569 16.1682 29.5756 17.4919 31.2509ZM25.2226 17.1884C29.6213 17.1884 33.1922 20.7575 33.1922 25.1572C33.1922 29.5569 29.6204 33.1259 25.2226 33.1259C20.8247 33.1259 17.2519 29.555 17.2519 25.1572C17.2519 20.7594 20.8238 17.1884 25.2226 17.1884Z" fill="white"/>
<path d="M26.2455 21.4672C26.4207 21.4667 26.5943 21.5011 26.7562 21.5684C26.9182 21.6357 27.0652 21.7345 27.1889 21.8592L27.9475 22.6209C28.0134 22.6871 28.1029 22.7243 28.1961 22.7243C28.2894 22.7243 28.3788 22.6871 28.4448 22.6209L28.9802 22.0831C29.0461 22.0169 29.0832 21.9271 29.0832 21.8335C29.0832 21.7399 29.0461 21.6501 28.9802 21.5839L28.2216 20.8223C27.1311 19.7266 25.3624 19.7258 24.2709 20.8207C24.0111 21.0814 23.805 21.3909 23.6645 21.7316C23.524 22.0724 23.4517 22.4376 23.4519 22.8064V24.3983H22.3569C22.309 24.3983 22.2616 24.4078 22.2173 24.4262C22.1731 24.4446 22.1329 24.4715 22.099 24.5055C22.0651 24.5395 22.0382 24.5799 22.0199 24.6244C22.0016 24.6688 21.9922 24.7164 21.9922 24.7645V25.4977C21.9922 25.5458 22.0016 25.5935 22.0199 25.6379C22.0382 25.6823 22.0651 25.7227 22.099 25.7567C22.1329 25.7907 22.1731 25.8177 22.2173 25.8361C22.2616 25.8545 22.309 25.864 22.3569 25.8639H23.4519V26.9632C23.4519 27.6719 22.9509 28.2632 22.2849 28.3993C22.1169 28.4337 21.9922 28.5751 21.9922 28.7473V29.5413C21.9922 29.5877 22.0013 29.6336 22.019 29.6764C22.0366 29.7193 22.0625 29.7582 22.0952 29.791C22.1278 29.8238 22.1666 29.8498 22.2093 29.8675C22.2519 29.8853 22.2977 29.8944 22.3438 29.8944H28.5743C28.6676 29.8944 28.757 29.8572 28.823 29.791C28.8889 29.7248 28.926 29.635 28.926 29.5413V28.7819C28.926 28.6882 28.8889 28.5984 28.823 28.5322C28.757 28.466 28.6676 28.4288 28.5743 28.4288H24.5176C24.7759 27.9839 24.9119 27.4781 24.9118 26.9632V25.8639H26.7496C26.8429 25.8639 26.9324 25.8267 26.9983 25.7605C27.0643 25.6943 27.1013 25.6045 27.1013 25.5109V24.7514C27.1013 24.705 27.0922 24.6591 27.0745 24.6163C27.0569 24.5734 27.031 24.5345 26.9983 24.5017C26.9656 24.4689 26.9269 24.4429 26.8842 24.4252C26.8416 24.4074 26.7958 24.3983 26.7496 24.3983H24.9117V22.8064C24.9127 22.0671 25.5092 21.4681 26.2455 21.4672Z" fill="url(#paint1_linear_2566_4465)"/>
<defs>
<linearGradient id="paint0_linear_2566_4465" x1="0" y1="20" x2="40" y2="20" gradientUnits="userSpaceOnUse">
<stop stop-color="#FF6E00"/>
<stop offset="1" stop-color="#FC4B00"/>
</linearGradient>
<linearGradient id="paint1_linear_2566_4465" x1="25.5377" y1="20" x2="25.5377" y2="29.8944" gradientUnits="userSpaceOnUse">
<stop stop-color="#FF6E00"/>
<stop offset="1" stop-color="#FC4B00"/>
</linearGradient>
</defs>
</svg>
