<svg width="36" height="36" viewBox="0 0 36 36" fill="none" xmlns="http://www.w3.org/2000/svg">
<rect x="0.689453" width="35.3004" height="35.3004" rx="7.84452" fill="#EFF5FF"/>
<g clip-path="url(#clip0_2017_2397)">
<path d="M25.0126 8.11759H24.0593V7.16426C24.0593 6.91143 23.9589 6.66894 23.7801 6.49016C23.6013 6.31138 23.3588 6.21094 23.106 6.21094C22.8531 6.21094 22.6107 6.31138 22.4319 6.49016C22.2531 6.66894 22.1527 6.91143 22.1527 7.16426V8.11759H14.526V7.16426C14.526 6.91143 14.4256 6.66894 14.2468 6.49016C14.068 6.31138 13.8255 6.21094 13.5727 6.21094C13.3199 6.21094 13.0774 6.31138 12.8986 6.49016C12.7198 6.66894 12.6194 6.91143 12.6194 7.16426V8.11759H11.6661C10.4023 8.11911 9.19079 8.62179 8.2972 9.51538C7.40361 10.409 6.90093 11.6205 6.89941 12.8842L6.89941 24.3242C6.90093 25.5879 7.40361 26.7994 8.2972 27.693C9.19079 28.5866 10.4023 29.0893 11.6661 29.0908H25.0126C26.2764 29.0893 27.4879 28.5866 28.3815 27.693C29.2751 26.7994 29.7778 25.5879 29.7793 24.3242V12.8842C29.7778 11.6205 29.2751 10.409 28.3815 9.51538C27.4879 8.62179 26.2764 8.11911 25.0126 8.11759ZM8.80607 12.8842C8.80607 12.1257 9.10739 11.3983 9.64374 10.8619C10.1801 10.3256 10.9075 10.0242 11.6661 10.0242H25.0126C25.7711 10.0242 26.4986 10.3256 27.0349 10.8619C27.5713 11.3983 27.8726 12.1257 27.8726 12.8842V13.8376H8.80607V12.8842ZM25.0126 27.1841H11.6661C10.9075 27.1841 10.1801 26.8828 9.64374 26.3465C9.10739 25.8101 8.80607 25.0827 8.80607 24.3242V15.7442H27.8726V24.3242C27.8726 25.0827 27.5713 25.8101 27.0349 26.3465C26.4986 26.8828 25.7711 27.1841 25.0126 27.1841Z" fill="url(#paint0_linear_2017_2397)"/>
<path d="M18.3401 21.942C19.1299 21.942 19.7701 21.3018 19.7701 20.512C19.7701 19.7223 19.1299 19.082 18.3401 19.082C17.5504 19.082 16.9102 19.7223 16.9102 20.512C16.9102 21.3018 17.5504 21.942 18.3401 21.942Z" fill="url(#paint1_linear_2017_2397)"/>
<path d="M13.5735 21.942C14.3633 21.942 15.0035 21.3018 15.0035 20.512C15.0035 19.7223 14.3633 19.082 13.5735 19.082C12.7838 19.082 12.1436 19.7223 12.1436 20.512C12.1436 21.3018 12.7838 21.942 13.5735 21.942Z" fill="url(#paint2_linear_2017_2397)"/>
<path d="M23.1058 21.942C23.8955 21.942 24.5358 21.3018 24.5358 20.512C24.5358 19.7223 23.8955 19.082 23.1058 19.082C22.316 19.082 21.6758 19.7223 21.6758 20.512C21.6758 21.3018 22.316 21.942 23.1058 21.942Z" fill="url(#paint3_linear_2017_2397)"/>
</g>
<defs>
<linearGradient id="paint0_linear_2017_2397" x1="18.3393" y1="6.21094" x2="18.3393" y2="29.0908" gradientUnits="userSpaceOnUse">
<stop stop-color="#6198FF"/>
<stop offset="1" stop-color="#0D5BEE"/>
</linearGradient>
<linearGradient id="paint1_linear_2017_2397" x1="18.3401" y1="19.082" x2="18.3401" y2="21.942" gradientUnits="userSpaceOnUse">
<stop stop-color="#6198FF"/>
<stop offset="1" stop-color="#0D5BEE"/>
</linearGradient>
<linearGradient id="paint2_linear_2017_2397" x1="13.5735" y1="19.082" x2="13.5735" y2="21.942" gradientUnits="userSpaceOnUse">
<stop stop-color="#6198FF"/>
<stop offset="1" stop-color="#0D5BEE"/>
</linearGradient>
<linearGradient id="paint3_linear_2017_2397" x1="23.1058" y1="19.082" x2="23.1058" y2="21.942" gradientUnits="userSpaceOnUse">
<stop stop-color="#6198FF"/>
<stop offset="1" stop-color="#0D5BEE"/>
</linearGradient>
<clipPath id="clip0_2017_2397">
<rect width="22.8799" height="22.8799" fill="white" transform="translate(6.89941 6.21094)"/>
</clipPath>
</defs>
</svg>
