<svg width="25" height="25" viewBox="0 0 25 25" fill="none" xmlns="http://www.w3.org/2000/svg">
<path d="M3.20314 0.725459C2.48066 0.00297228 1.30927 0.00297172 0.586787 0.725459C-0.1357 1.44795 -0.1357 2.61933 0.586787 3.34182L9.74403 12.4991L0.586787 21.6563C-0.1357 22.3788 -0.1357 23.5502 0.586787 24.2727C1.30927 24.9952 2.48066 24.9952 3.20314 24.2727L12.3604 15.1154L21.5176 24.2727C22.2401 24.9951 23.4115 24.9952 24.134 24.2727C24.8565 23.5502 24.8565 22.3788 24.134 21.6563L14.9767 12.4991L24.134 3.34182C24.8565 2.61933 24.8565 1.44795 24.134 0.725459C23.4115 0.00297233 22.2401 0.00297301 21.5176 0.725459L12.3604 9.8827L3.20314 0.725459Z" fill="black"/>
</svg>
