<svg width="36" height="36" viewBox="0 0 36 36" fill="none" xmlns="http://www.w3.org/2000/svg">
<rect width="35.3004" height="35.3004" rx="7.84452" fill="#E6F7F2"/>
<path d="M17.6499 6.21094C15.3873 6.21094 13.1755 6.88188 11.2942 8.13891C9.41292 9.39595 7.94664 11.1826 7.08078 13.273C6.21492 15.3634 5.98837 17.6636 6.42978 19.8827C6.87119 22.1018 7.96074 24.1402 9.56064 25.7401C11.1605 27.34 13.1989 28.4296 15.4181 28.871C17.6372 29.3124 19.9374 29.0858 22.0278 28.22C24.1181 27.3541 25.9048 25.8878 27.1618 24.0065C28.4189 22.1253 29.0898 19.9135 29.0898 17.6509C29.0865 14.6178 27.8802 11.7099 25.7355 9.56524C23.5908 7.42055 20.6829 6.21422 17.6499 6.21094ZM17.6499 27.1841C15.7644 27.1841 13.9212 26.625 12.3535 25.5775C10.7858 24.53 9.56385 23.0411 8.8423 21.2991C8.12075 19.5571 7.93196 17.6403 8.2998 15.791C8.66764 13.9417 9.5756 12.2431 10.9089 10.9098C12.2421 9.57657 13.9408 8.66861 15.79 8.30077C17.6393 7.93293 19.5561 8.12172 21.2981 8.84327C23.0401 9.56482 24.529 10.7867 25.5765 12.3545C26.624 13.9222 27.1832 15.7654 27.1832 17.6509C27.1804 20.1784 26.1751 22.6016 24.3879 24.3888C22.6006 26.1761 20.1774 27.1814 17.6499 27.1841Z" fill="url(#paint0_linear_2017_2389)"/>
<path d="M17.6494 11.9297C17.3966 11.9297 17.1541 12.0301 16.9753 12.2089C16.7965 12.3877 16.6961 12.6302 16.6961 12.883V17.0062L13.4824 19.0196C13.2675 19.1538 13.1148 19.368 13.0577 19.6149C13.0007 19.8618 13.0441 20.1212 13.1783 20.3361C13.3126 20.551 13.5267 20.7038 13.7736 20.7608C14.0205 20.8179 14.28 20.7745 14.4949 20.6402L18.1557 18.3523C18.294 18.2656 18.4077 18.1449 18.486 18.0017C18.5643 17.8584 18.6045 17.6975 18.6028 17.5343V12.883C18.6028 12.6302 18.5023 12.3877 18.3235 12.2089C18.1448 12.0301 17.9023 11.9297 17.6494 11.9297Z" fill="url(#paint1_linear_2017_2389)"/>
<defs>
<linearGradient id="paint0_linear_2017_2389" x1="17.6499" y1="6.21094" x2="17.6499" y2="29.0908" gradientUnits="userSpaceOnUse">
<stop stop-color="#6CEA96"/>
<stop offset="1" stop-color="#27E265"/>
</linearGradient>
<linearGradient id="paint1_linear_2017_2389" x1="15.818" y1="11.9297" x2="15.818" y2="20.7854" gradientUnits="userSpaceOnUse">
<stop stop-color="#6CEA96"/>
<stop offset="1" stop-color="#27E265"/>
</linearGradient>
</defs>
</svg>
