<svg width="40" height="40" viewBox="0 0 40 40" fill="none" xmlns="http://www.w3.org/2000/svg">
<rect width="40" height="40" rx="20" fill="url(#paint0_linear_2566_4260)"/>
<path fill-rule="evenodd" clip-rule="evenodd" d="M26.25 8.91096C26.2501 8.72283 26.2078 8.53711 26.1261 8.36763C26.0445 8.19815 25.9256 8.04928 25.7784 7.93213C25.6312 7.81497 25.4595 7.73255 25.276 7.69101C25.0925 7.64947 24.9021 7.64988 24.7188 7.69221L9.71875 11.1547C9.44365 11.2182 9.19815 11.373 9.02225 11.5939C8.84634 11.8147 8.75038 12.0886 8.75 12.371V31.2497H8.125C7.95924 31.2497 7.80027 31.3156 7.68306 31.4328C7.56585 31.55 7.5 31.7089 7.5 31.8747C7.5 32.0405 7.56585 32.1994 7.68306 32.3167C7.80027 32.4339 7.95924 32.4997 8.125 32.4997H15V28.7497C15 28.4182 15.1317 28.1002 15.3661 27.8658C15.6005 27.6314 15.9185 27.4997 16.25 27.4997H18.75C19.0815 27.4997 19.3995 27.6314 19.6339 27.8658C19.8683 28.1002 20 28.4182 20 28.7497V32.4997H26.25V8.91096ZM13.125 14.9997C12.9592 14.9997 12.8003 15.0656 12.6831 15.1828C12.5658 15.3 12.5 15.4589 12.5 15.6247V16.8747C12.5 17.0405 12.5658 17.1994 12.6831 17.3167C12.8003 17.4339 12.9592 17.4997 13.125 17.4997H14.375C14.5408 17.4997 14.6997 17.4339 14.8169 17.3167C14.9342 17.1994 15 17.0405 15 16.8747V15.6247C15 15.4589 14.9342 15.3 14.8169 15.1828C14.6997 15.0656 14.5408 14.9997 14.375 14.9997H13.125ZM12.5 19.3747C12.5 19.2089 12.5658 19.05 12.6831 18.9328C12.8003 18.8156 12.9592 18.7497 13.125 18.7497H14.375C14.5408 18.7497 14.6997 18.8156 14.8169 18.9328C14.9342 19.05 15 19.2089 15 19.3747V20.6247C15 20.7905 14.9342 20.9494 14.8169 21.0667C14.6997 21.1839 14.5408 21.2497 14.375 21.2497H13.125C12.9592 21.2497 12.8003 21.1839 12.6831 21.0667C12.5658 20.9494 12.5 20.7905 12.5 20.6247V19.3747ZM13.125 22.4997C12.9592 22.4997 12.8003 22.5656 12.6831 22.6828C12.5658 22.8 12.5 22.9589 12.5 23.1247V24.3747C12.5 24.5405 12.5658 24.6994 12.6831 24.8167C12.8003 24.9339 12.9592 24.9997 13.125 24.9997H14.375C14.5408 24.9997 14.6997 24.9339 14.8169 24.8167C14.9342 24.6994 15 24.5405 15 24.3747V23.1247C15 22.9589 14.9342 22.8 14.8169 22.6828C14.6997 22.5656 14.5408 22.4997 14.375 22.4997H13.125ZM16.25 15.6247C16.25 15.4589 16.3158 15.3 16.4331 15.1828C16.5503 15.0656 16.7092 14.9997 16.875 14.9997H18.125C18.2908 14.9997 18.4497 15.0656 18.5669 15.1828C18.6842 15.3 18.75 15.4589 18.75 15.6247V16.8747C18.75 17.0405 18.6842 17.1994 18.5669 17.3167C18.4497 17.4339 18.2908 17.4997 18.125 17.4997H16.875C16.7092 17.4997 16.5503 17.4339 16.4331 17.3167C16.3158 17.1994 16.25 17.0405 16.25 16.8747V15.6247ZM16.875 18.7497C16.7092 18.7497 16.5503 18.8156 16.4331 18.9328C16.3158 19.05 16.25 19.2089 16.25 19.3747V20.6247C16.25 20.7905 16.3158 20.9494 16.4331 21.0667C16.5503 21.1839 16.7092 21.2497 16.875 21.2497H18.125C18.2908 21.2497 18.4497 21.1839 18.5669 21.0667C18.6842 20.9494 18.75 20.7905 18.75 20.6247V19.3747C18.75 19.2089 18.6842 19.05 18.5669 18.9328C18.4497 18.8156 18.2908 18.7497 18.125 18.7497H16.875ZM16.25 23.1247C16.25 22.9589 16.3158 22.8 16.4331 22.6828C16.5503 22.5656 16.7092 22.4997 16.875 22.4997H18.125C18.2908 22.4997 18.4497 22.5656 18.5669 22.6828C18.6842 22.8 18.75 22.9589 18.75 23.1247V24.3747C18.75 24.5405 18.6842 24.6994 18.5669 24.8167C18.4497 24.9339 18.2908 24.9997 18.125 24.9997H16.875C16.7092 24.9997 16.5503 24.9339 16.4331 24.8167C16.3158 24.6994 16.25 24.5405 16.25 24.3747V23.1247ZM20.625 14.9997C20.4592 14.9997 20.3003 15.0656 20.1831 15.1828C20.0658 15.3 20 15.4589 20 15.6247V16.8747C20 17.0405 20.0658 17.1994 20.1831 17.3167C20.3003 17.4339 20.4592 17.4997 20.625 17.4997H21.875C22.0408 17.4997 22.1997 17.4339 22.3169 17.3167C22.4342 17.1994 22.5 17.0405 22.5 16.8747V15.6247C22.5 15.4589 22.4342 15.3 22.3169 15.1828C22.1997 15.0656 22.0408 14.9997 21.875 14.9997H20.625ZM20 19.3747C20 19.2089 20.0658 19.05 20.1831 18.9328C20.3003 18.8156 20.4592 18.7497 20.625 18.7497H21.875C22.0408 18.7497 22.1997 18.8156 22.3169 18.9328C22.4342 19.05 22.5 19.2089 22.5 19.3747V20.6247C22.5 20.7905 22.4342 20.9494 22.3169 21.0667C22.1997 21.1839 22.0408 21.2497 21.875 21.2497H20.625C20.4592 21.2497 20.3003 21.1839 20.1831 21.0667C20.0658 20.9494 20 20.7905 20 20.6247V19.3747ZM20.625 22.4997C20.4592 22.4997 20.3003 22.5656 20.1831 22.6828C20.0658 22.8 20 22.9589 20 23.1247V24.3747C20 24.5405 20.0658 24.6994 20.1831 24.8167C20.3003 24.9339 20.4592 24.9997 20.625 24.9997H21.875C22.0408 24.9997 22.1997 24.9339 22.3169 24.8167C22.4342 24.6994 22.5 24.5405 22.5 24.3747V23.1247C22.5 22.9589 22.4342 22.8 22.3169 22.6828C22.1997 22.5656 22.0408 22.4997 21.875 22.4997H20.625Z" fill="white"/>
<path d="M27.5 12.1133V32.4995H31.875C32.0408 32.4995 32.1997 32.4337 32.3169 32.3165C32.4342 32.1993 32.5 32.0403 32.5 31.8745C32.5 31.7088 32.4342 31.5498 32.3169 31.4326C32.1997 31.3154 32.0408 31.2495 31.875 31.2495H31.25V14.7608C31.2499 14.5287 31.1851 14.3012 31.0631 14.1039C30.941 13.9065 30.7664 13.747 30.5588 13.6433L27.5 12.1133ZM18.75 32.4995H16.25V28.7495H18.75V32.4995Z" fill="white"/>
<defs>
<linearGradient id="paint0_linear_2566_4260" x1="0" y1="20" x2="40" y2="20" gradientUnits="userSpaceOnUse">
<stop stop-color="#FF6E00"/>
<stop offset="1" stop-color="#FC4B00"/>
</linearGradient>
</defs>
</svg>
