<svg width="40" height="40" viewBox="0 0 40 40" fill="none" xmlns="http://www.w3.org/2000/svg">
<rect width="40" height="40" rx="20" fill="url(#paint0_linear_2566_4274)"/>
<path d="M25.8001 23.6009C25.6 22.2414 24.9193 20.9986 23.8814 20.0981C22.8435 19.1975 21.5172 18.6988 20.1431 18.6925H18.8624C17.4883 18.6988 16.162 19.1975 15.1241 20.0981C14.0862 20.9986 13.4054 22.2414 13.2053 23.6009L12.5915 27.893C12.5719 28.0317 12.5848 28.1731 12.6293 28.306C12.6738 28.4389 12.7487 28.5596 12.8479 28.6585C13.0886 28.8992 14.5654 30.1269 19.5039 30.1269C24.4424 30.1269 25.9157 28.9041 26.16 28.6585C26.2592 28.5596 26.334 28.4389 26.3785 28.306C26.423 28.1731 26.436 28.0317 26.4164 27.893L25.8001 23.6009ZM14.1574 19.3545C12.9941 20.4268 12.2373 21.8683 12.015 23.4348L11.5696 26.5161C7.99484 26.492 6.91157 25.1921 6.73103 24.9273C6.66124 24.8311 6.61144 24.7219 6.58456 24.6061C6.55769 24.4903 6.55429 24.3703 6.57456 24.2532L6.83936 22.7607C6.97732 21.9807 7.30133 21.2455 7.78393 20.6173C8.26653 19.9892 8.89347 19.4867 9.61161 19.1524C10.3297 18.8182 11.1179 18.662 11.9092 18.6972C12.7006 18.7323 13.4718 18.9578 14.1574 19.3545ZM32.4285 24.2532C32.4488 24.3703 32.4454 24.4903 32.4185 24.6061C32.3916 24.7219 32.3418 24.8311 32.272 24.9273C32.0915 25.1921 31.0082 26.492 27.4334 26.5161L26.9881 23.4348C26.7658 21.8683 26.0089 20.4268 24.8456 19.3545C25.5313 18.9578 26.3025 18.7323 27.0938 18.6972C27.8851 18.662 28.6733 18.8182 29.3914 19.1524C30.1096 19.4867 30.7365 19.9892 31.2191 20.6173C31.7017 21.2455 32.0257 21.9807 32.1637 22.7607L32.4285 24.2532ZM14.362 16.7065C14.0591 17.1362 13.6568 17.4864 13.1895 17.7274C12.7223 17.9683 12.2037 18.093 11.6779 18.0907C11.1535 18.0907 10.6365 17.966 10.1696 17.727C9.70279 17.488 9.29941 17.1415 8.99275 16.7161C8.68608 16.2906 8.48491 15.7983 8.40582 15.2799C8.32672 14.7614 8.37197 14.2315 8.53782 13.734C8.70367 13.2364 8.98539 12.7854 9.35975 12.4181C9.73411 12.0507 10.1904 11.7776 10.691 11.6213C11.1916 11.4649 11.7222 11.4297 12.2391 11.5186C12.756 11.6075 13.2443 11.818 13.6639 12.1327C13.5432 12.6046 13.4826 13.0899 13.4834 13.5771C13.4843 14.681 13.7882 15.7634 14.362 16.7065ZM30.6351 14.7807C30.6354 15.2154 30.55 15.646 30.3838 16.0477C30.2175 16.4495 29.9737 16.8145 29.6663 17.1219C29.3589 17.4293 28.9939 17.6731 28.5922 17.8393C28.1904 18.0056 27.7599 18.091 27.3251 18.0907C26.7993 18.093 26.2808 17.9683 25.8135 17.7274C25.3462 17.4864 24.944 17.1362 24.641 16.7065C25.2148 15.7634 25.5187 14.681 25.5197 13.5771C25.5205 13.0899 25.4598 12.6046 25.3391 12.1327C25.8309 11.7639 26.4156 11.5393 27.0278 11.4841C27.6401 11.4289 28.2556 11.5452 28.8054 11.8201C29.3552 12.0951 29.8176 12.5176 30.1407 13.0405C30.4639 13.5634 30.6351 14.166 30.6351 14.7807Z" fill="white"/>
<path d="M19.5019 18.0897C21.9947 18.0897 24.0155 16.0689 24.0155 13.5761C24.0155 11.0833 21.9947 9.0625 19.5019 9.0625C17.0091 9.0625 14.9883 11.0833 14.9883 13.5761C14.9883 16.0689 17.0091 18.0897 19.5019 18.0897Z" fill="white"/>
<defs>
<linearGradient id="paint0_linear_2566_4274" x1="0" y1="20" x2="40" y2="20" gradientUnits="userSpaceOnUse">
<stop stop-color="#FF6E00"/>
<stop offset="1" stop-color="#FC4B00"/>
</linearGradient>
</defs>
</svg>
