<?xml version="1.0" encoding="UTF-8"?>
<svg id="Layer_2" data-name="Layer 2" xmlns="http://www.w3.org/2000/svg" viewBox="0 0 399.21 113.71">
  <defs>
    <style>
      .cls-1 {
        fill: #b6cc00;
      }
    </style>
  </defs>
  <g id="Layer_1-2" data-name="Layer 1">
    <polygon class="cls-1" points="45.35 68.05 45.35 .82 0 .82 0 111.1 110.55 111.1 110.55 68.05 45.35 68.05"/>
    <rect class="cls-1" x="288.6" y="68.05" width="110.6" height="43.04"/>
    <rect class="cls-1" x="288.6" y=".85" width="110.6" height="43.04"/>
    <path class="cls-1" d="M261.64,37.87c4.17-4.23,6.35-9.73,6.35-15.23,0-5.6-2.67-12.05-6.97-16.3-4.75-4.69-11.55-6.8-17.74-6.25-4.93.43-9.72,2.63-13.44,6.4l-40.72,43.04L148.13,6.37c-3.6-3.57-8.16-5.7-12.86-6.21-6.4-.69-13.45,1.46-18.32,6.36-4.42,4.45-7.09,11.27-6.92,17.15.15,5.34,2.32,10.62,6.37,14.64l72.74,75.4,72.5-75.83Z"/>
  </g>
</svg>