<svg width="183" height="44" viewBox="0 0 183 44" fill="none" xmlns="http://www.w3.org/2000/svg">
<path d="M147.357 0.535156C147.234 0.570202 147.129 0.605248 147.006 0.640294C146.445 0.798001 145.955 1.09589 145.604 1.55149C145.411 1.77929 145.464 1.97204 145.727 2.11222C145.902 2.18232 146.095 2.23488 146.13 2.49773C146.06 2.51525 145.972 2.5503 145.919 2.5503C145.446 2.51525 145.026 2.62039 144.605 2.81314C144.395 2.90076 144.149 3.00589 143.922 3.07599C143.676 3.1636 143.641 3.26874 143.834 3.46149C143.922 3.56663 144.044 3.63672 144.167 3.72434C144.237 3.77691 144.29 3.79443 144.36 3.847C143.957 4.2325 143.553 4.32012 143.168 4.05727C143.185 4.0047 143.203 3.95213 143.22 3.88204C143.291 3.54911 143.168 3.42645 142.852 3.47901C142.747 3.49654 142.642 3.49654 142.484 3.49654C142.537 3.37388 142.537 3.28626 142.554 3.28626C142.835 3.09351 143.098 2.90076 143.466 2.88323C143.974 2.86571 144.377 2.56782 144.78 2.26993C144.868 2.19984 144.903 2.05965 144.938 1.93699C144.991 1.83186 144.973 1.7092 145.026 1.60406C145.604 0.85057 146.428 0.570202 147.357 0.535156Z" fill="#EB7124"/>
<path d="M141.595 3.56502C141.122 3.68768 140.648 3.81034 140.175 3.95052C140.088 3.98557 139.912 4.0907 139.93 4.12575C139.965 4.24841 140.035 4.42364 140.14 4.47621C140.385 4.56382 140.648 4.58135 140.929 4.65144C140.771 4.93181 140.491 5.14208 140.175 5.29979C140.017 5.36988 139.877 5.4575 139.895 5.65025C139.912 5.87805 140 6.03575 140.228 6.14089C141.051 6.50887 141.963 6.28108 142.506 5.54511C142.576 5.4575 142.629 5.35236 142.716 5.2297C142.874 5.54511 143.014 5.843 143.155 6.12337C143.312 6.43878 143.417 6.47383 143.733 6.33364C143.821 6.28108 143.926 6.24603 143.996 6.17594C144.101 6.08832 144.136 5.98318 144.066 5.82548C143.978 5.6152 143.908 5.35236 143.821 5.10704C144.013 5.03694 144.171 4.96685 144.311 4.89676C144.469 4.80915 144.592 4.68649 144.785 4.52878C144.82 4.68649 144.82 4.80915 144.855 4.91428C144.89 5.0019 144.925 5.12456 144.977 5.14208C145.047 5.15961 145.188 5.08951 145.24 5.03694C145.328 4.94933 145.38 4.82667 145.451 4.68649C145.608 4.87924 145.608 5.05447 145.626 5.24722C145.661 5.87805 145.556 6.45631 145.188 6.98199C145.118 7.06961 145.118 7.19227 145.065 7.33245C145.626 7.3675 146.502 6.47383 146.66 5.73786C146.87 4.93181 146.66 4.17832 146.292 3.4774C146.327 3.45988 146.344 3.44235 146.362 3.44235C146.73 3.60006 147.028 3.45988 147.378 3.28465C147.624 3.17951 147.922 3.16199 148.202 3.16199C148.535 3.16199 148.623 3.37226 148.482 3.65263C148.377 3.88043 148.185 4.02061 147.957 4.14327C147.758 4.24841 147.694 4.40612 147.764 4.61639C147.764 4.63392 147.781 4.63392 147.781 4.65144C147.957 5.14208 148.027 5.19465 148.465 4.86172C148.745 4.65144 148.991 4.40612 149.201 4.12575C149.657 3.52997 149.131 2.47859 148.412 2.4085C148.132 2.37345 147.852 2.39098 147.554 2.39098C147.484 2.39098 147.431 2.39098 147.343 2.33841C147.413 2.30336 147.484 2.25079 147.554 2.23327C148.255 2.02299 148.921 2.04052 149.569 2.39098C149.797 2.51364 149.92 2.70639 149.99 2.96923C150.147 3.61758 150.007 4.19584 149.552 4.70401C149.201 5.07199 148.815 5.35236 148.377 5.58016C148.185 5.66777 148.114 5.79043 148.097 6.00071C148.027 7.01704 147.571 7.8231 146.782 8.45392C146.222 8.92704 145.591 9.25998 144.942 9.59292C144.452 9.85576 143.926 10.0836 143.417 10.3639C142.646 10.7845 141.875 11.2401 141.209 11.8534C141.192 11.8359 141.174 11.8183 141.139 11.7833C141.227 11.6957 141.314 11.5905 141.402 11.5029C142.208 10.7319 143.137 10.066 144.066 9.43521C144.522 9.1198 144.977 8.80438 145.398 8.50649C145.521 8.41888 145.748 8.29622 145.626 8.13851C145.521 7.94576 145.31 8.12099 145.17 8.17356C144.364 8.48897 143.575 8.80438 142.751 9.13732C142.471 9.24246 142.208 9.38264 141.945 9.5053C140.666 10.1186 139.912 11.1875 139.386 12.4492C138.615 14.4117 138.721 16.3393 139.579 18.2317C139.632 18.3369 139.649 18.442 139.719 18.5472C139.755 18.5997 139.842 18.6348 139.912 18.6348C139.947 18.6348 139.982 18.5472 140.017 18.4946V18.4595C139.947 17.3906 140.385 16.4444 140.824 15.5332C141.034 15.0951 141.297 14.7096 141.595 14.3066C141.577 14.3767 141.56 14.4468 141.525 14.5169C141.122 15.5157 140.859 16.532 140.859 17.6535C140.859 19.0203 141.314 20.2294 142.191 21.2983C142.401 21.5436 142.611 21.7889 142.822 22.0342C142.874 22.0868 142.909 22.1394 142.962 22.1569C143.032 22.1744 143.137 22.1744 143.172 22.1394C143.207 22.1043 143.207 21.9817 143.172 21.9291C142.874 21.5961 142.769 21.1756 142.629 20.7901C142.278 19.7562 142.156 18.7224 142.278 17.6535C142.366 16.9 142.646 16.1991 143.014 15.5507C143.382 14.8673 143.838 14.2365 144.381 13.6758C144.732 13.3253 145.047 12.9573 145.398 12.6069C145.468 12.5193 145.573 12.4316 145.696 12.3791C145.45 12.7471 145.188 13.1501 144.925 13.5356C144.346 14.4468 143.996 15.4631 143.838 16.532C143.733 17.2505 143.821 17.9514 143.996 18.6523C144.066 18.9151 144.154 19.1605 144.224 19.4233C144.241 19.4934 144.276 19.546 144.311 19.5985C144.346 19.6336 144.416 19.6511 144.452 19.6336C144.504 19.5985 144.539 19.546 144.539 19.4934C144.539 19.3883 144.504 19.2831 144.469 19.178C144.311 18.5647 144.364 17.9689 144.504 17.3731C144.679 16.6371 144.977 15.9538 145.363 15.3229C146.046 14.1839 146.923 13.2202 147.922 12.3791C149.131 11.3627 149.972 10.1361 150.445 8.64668C150.48 8.52401 150.516 8.40135 150.533 8.27869C150.568 8.17356 150.603 8.06842 150.708 7.96328C150.691 8.17356 150.691 8.38383 150.656 8.59411C150.533 9.55787 150.305 10.4866 149.955 11.3978C149.902 11.5204 149.814 11.6431 149.762 11.7833C149.727 11.8709 149.744 11.976 149.744 12.0637C149.85 12.0461 149.972 12.0812 150.06 12.0111C150.218 11.9235 150.34 11.7833 150.48 11.6606C151.304 10.9247 151.988 10.0836 152.408 9.06723C153.285 6.92943 153.144 4.84419 151.9 2.88162C151.409 2.11061 150.743 1.49731 149.955 1.00666C149.867 0.954093 149.779 0.901525 149.709 0.796387C149.779 0.81391 149.867 0.796387 149.92 0.848956C150.41 1.09428 150.884 1.3396 151.357 1.61997C151.97 1.97043 152.531 2.39098 153.022 2.88162C154.056 3.89795 154.704 5.08951 155.072 6.45631C155.318 7.3675 155.423 8.33126 155.318 9.25998C155.16 10.8896 154.617 12.3615 153.407 13.5181C153.232 13.6933 153.232 13.7459 153.372 13.9561C153.723 14.4993 154.284 14.7972 154.897 14.9549C155.773 15.1827 156.65 15.2003 157.561 15.1652C158.525 15.1127 159.454 14.9549 160.383 14.6746C160.453 14.6571 160.505 14.6571 160.558 14.6571C160.575 14.6921 160.575 14.7096 160.575 14.7271C160.225 14.8673 159.857 15.0075 159.506 15.1302C158.034 15.6208 156.544 15.8661 154.985 15.6383C153.986 15.5157 153.092 15.1477 152.321 14.4643C152.11 14.2715 151.585 14.2365 151.357 14.3942C151.252 14.4643 151.252 14.5694 151.304 14.6571C151.602 15.1477 151.935 15.6033 152.478 15.8661C152.759 16.0063 153.057 16.1115 153.337 16.2166C153.442 16.2692 153.565 16.3042 153.688 16.3918C153.355 16.4444 153.039 16.3568 152.724 16.2867C151.742 16.0414 150.866 15.5682 150.112 14.8849C149.867 14.6746 149.657 14.6746 149.376 14.7972C148.465 15.2178 147.641 15.726 146.958 16.4619C146.257 17.2154 145.783 18.0565 145.661 19.0904C145.556 20.0191 145.783 20.8427 146.309 21.6312C146.449 21.8415 146.607 22.0517 146.765 22.262C146.8 22.3146 146.835 22.3672 146.87 22.3672C146.94 22.3847 147.028 22.3847 147.115 22.3847C147.115 22.3146 147.151 22.227 147.115 22.1744C146.625 21.4209 146.677 20.5798 146.818 19.7738C146.94 19.0028 147.396 18.3719 147.992 17.7586C147.887 18.039 147.781 18.2493 147.711 18.442C147.396 19.2831 147.466 20.0892 147.904 20.8777C148.535 21.9817 149.481 22.6651 150.708 22.9805C150.778 22.998 150.866 23.0155 150.936 23.0155C151.217 23.0155 151.269 22.9104 151.164 22.6651C151.094 22.4373 151.041 22.1919 150.971 21.9641C150.813 21.3333 150.638 20.72 150.48 20.0892C150.463 20.0366 150.48 20.0016 150.463 19.9315C150.936 20.2819 151.795 22.5073 151.935 23.6814C151.444 24.0143 150.884 23.8216 150.305 23.8566C150.358 23.9793 150.375 24.0669 150.41 24.172C151.129 25.4512 151.637 26.818 151.935 28.2549C152.023 28.728 152.093 29.2011 152.145 29.6742C152.18 30.0072 152.198 30.3051 152.408 30.5854C152.461 30.638 152.461 30.7256 152.478 30.8308C151.427 31.1111 150.971 31.812 150.954 32.8459C150.568 33.0211 150.445 32.951 150.428 32.5655C150.41 32.3202 150.445 32.0749 150.463 31.8296C150.463 31.7069 150.428 31.5842 150.41 31.409C150.288 31.4966 150.2 31.5317 150.147 31.6018C149.885 31.9522 149.657 32.3202 149.622 32.7583C149.604 32.9686 149.517 33.0386 149.324 33.0211H149.131C145.696 33.0211 142.243 33.0386 138.808 33.0386H136.915C136.845 33.0386 136.758 33.0211 136.688 32.9686C136.758 32.9335 136.81 32.8985 136.88 32.8985C137.879 32.6531 138.896 32.4078 139.877 32.1275C140.158 32.0574 140.228 31.9697 140.263 31.6719C140.35 30.9534 140.981 30.3752 141.717 30.3401H142.191C142.436 30.3226 142.541 30.27 142.611 30.0072C142.716 29.5516 142.822 29.096 142.927 28.6579C142.997 28.325 143.084 28.0096 143.155 27.6941C143.225 27.3962 143.295 27.1159 143.347 26.818C143.417 26.2748 143.505 25.714 143.575 25.1708C143.61 24.943 143.488 24.8204 143.295 24.7152C142.822 24.4349 142.366 24.1545 141.928 23.8391C140.508 22.8052 139.387 21.5261 138.721 19.8789C138.09 18.3018 137.932 16.6547 138.16 14.9725C138.335 13.7984 138.721 12.7295 139.334 11.7132C140.245 10.2413 141.507 9.17237 143.049 8.40135C143.19 8.33126 143.417 8.31374 143.4 8.10346C143.382 7.87567 143.155 7.89319 142.979 7.8231C142.226 7.5953 141.472 7.49016 140.683 7.64787C140.158 7.753 139.702 7.64787 139.386 7.15722C139.211 6.9119 139.176 6.63153 139.229 6.33364C139.299 5.93062 139.299 5.56263 139.229 5.14208C139.176 4.84419 139.229 4.51126 139.264 4.21337C139.281 4.12575 139.351 3.98557 139.439 3.95052C140.105 3.7052 140.789 3.54749 141.49 3.4774C141.595 3.52997 141.595 3.54749 141.595 3.56502ZM146.66 32.0574H148.868C149.148 32.0574 149.254 31.9873 149.271 31.7419C149.289 31.4791 149.429 31.3039 149.569 31.1286C150.007 30.6205 150.586 30.3401 151.252 30.2525C151.357 30.235 151.479 30.235 151.602 30.1999C151.795 30.1298 151.83 30.0422 151.795 29.8495C151.76 29.7443 151.725 29.6392 151.707 29.499C151.444 27.992 150.726 26.6778 149.85 25.4512C149.762 25.3285 149.657 25.276 149.499 25.2935C148.815 25.3636 148.114 25.4512 147.431 25.5038C147.256 25.5213 147.133 25.5739 147.08 25.7316C147.045 25.8017 147.028 25.8718 147.01 25.9418C146.485 27.3787 145.889 28.7806 145.153 30.1123C144.89 30.603 144.557 31.0761 144.259 31.5667C144.101 31.812 144.171 31.9873 144.469 32.0048C144.557 32.0223 144.662 32.0048 144.732 32.0048C145.363 32.0574 146.029 32.0574 146.66 32.0574ZM139.807 6.49135C139.702 6.80676 139.807 6.99952 140.017 7.15722C140.228 7.31493 140.508 7.34998 140.754 7.22732C140.806 7.20979 140.824 7.03456 140.806 7.01704C140.526 6.7542 140.21 6.56144 139.807 6.49135Z" fill="#EB7124"/>
<path d="M26.6921 12.678H24.0106C23.9931 12.643 23.9931 12.6079 23.9931 12.5904C24.0457 12.5378 24.0807 12.4853 24.1333 12.4677C24.2034 12.4502 24.3086 12.4502 24.3962 12.4502H29.1808C29.321 12.4502 29.4963 12.3801 29.6014 12.643C29.1633 12.7306 28.7427 12.678 28.322 12.6955C27.9189 12.7131 27.4983 12.6955 27.0426 12.6955C24.4663 19.5645 21.89 26.3985 19.3137 33.25H18.4549C17.2631 29.9732 16.0713 26.6964 14.8796 23.4196L14.8095 23.4021C14.3538 24.471 13.9682 25.5574 13.5476 26.6613C13.1095 27.7478 12.7064 28.8517 12.2857 29.9381C11.8651 31.0246 11.4445 32.1285 11.0063 33.2324H9.72693C7.22071 26.3985 4.73202 19.547 2.24333 12.6605H0C0.105156 12.5378 0.140208 12.4677 0.192786 12.4502C0.297942 12.4152 0.420624 12.4327 0.543306 12.4327H22.4333C22.591 12.4327 22.7663 12.3801 22.924 12.5553C22.6436 12.7656 22.3807 12.643 22.1178 12.6605C21.8725 12.678 21.6096 12.6605 21.3467 12.6605H20.4704C20.4003 12.8007 20.3477 12.9233 20.2951 13.0635C19.5415 15.0787 18.8054 17.1113 18.0343 19.1265C17.9466 19.3543 17.9291 19.5645 18.0167 19.7923C18.9456 22.3857 19.892 24.9967 20.8034 27.6076C20.8384 27.6777 20.8735 27.7828 20.9085 27.8704C21.1364 27.6251 26.6395 13.0635 26.6921 12.678ZM7.20319 12.6955C9.02589 17.7772 10.8486 22.8063 12.6713 27.8704C12.794 27.7478 12.8641 27.6251 12.8991 27.4849C13.4424 26.0656 13.9682 24.6637 14.5115 23.2444C14.5992 22.999 14.5992 22.7888 14.5115 22.5434C13.3373 19.3893 12.1981 16.2001 11.0414 13.046C10.9888 12.9233 10.9538 12.8182 10.9012 12.6955C10.9362 12.6955 7.20319 12.6955 7.20319 12.6955ZM20.19 12.6955H15.5105C16.2817 14.8333 17.0178 16.9186 17.7714 19.0213H17.8415C18.6301 16.9186 19.4013 14.8158 20.19 12.6955Z" fill="#01004C"/>
<path d="M106.477 12.6274C105.951 12.715 105.425 12.6274 104.882 12.68C104.794 12.9779 104.777 32.3232 104.865 32.7613C105.127 32.7613 105.425 32.7438 105.706 32.7613C105.969 32.7788 106.232 32.6912 106.512 32.8489C106.442 32.9015 106.424 32.9541 106.389 32.9541C106.302 32.9716 106.197 32.9716 106.126 32.9716H99.2913C99.1686 32.9716 99.0109 33.0417 98.9057 32.8489C99.081 32.6562 99.2913 32.7788 99.5016 32.7613C99.7119 32.7438 99.9397 32.7613 100.15 32.7613H100.746C100.781 32.7262 100.799 32.7087 100.799 32.7087C100.799 32.7087 100.816 32.6912 100.816 32.6737C100.816 32.5685 100.834 32.4634 100.834 32.3583C100.834 26.05 100.834 19.7593 100.763 13.451C100.711 13.5912 100.658 13.7489 100.606 13.8891C98.6078 20.2149 96.6098 26.5231 94.6118 32.8489C94.5768 32.919 94.5593 33.0241 94.5242 33.0942C94.4891 33.1468 94.4541 33.1994 94.4015 33.1994C94.3489 33.1994 94.2788 33.1468 94.2613 33.1118C94.2087 33.0241 94.1912 32.919 94.1562 32.8139C92.5963 28.1002 91.0541 23.404 89.4942 18.6728C88.9509 17.0257 88.4076 15.396 87.8643 13.7314C87.8293 13.6437 87.7942 13.5386 87.7767 13.451C87.7416 13.451 87.7241 13.4335 87.7241 13.4335C87.7066 13.4335 87.7066 13.451 87.7066 13.4685C87.7066 13.486 87.6891 13.486 87.6891 13.5036V32.4284C87.6891 32.4985 87.7066 32.5861 87.7241 32.7087C87.8818 32.7087 88.0396 32.7263 88.1798 32.7263H89.2664C89.3716 32.7263 89.4942 32.6912 89.5994 32.9015C89.4942 32.919 89.3891 32.9541 89.2664 32.9541C87.3561 33.0241 85.954 32.9716 85.6911 32.8314C85.7963 32.7963 85.8839 32.7438 85.9365 32.7438C86.287 32.7263 86.6726 32.7438 87.0231 32.7438H87.4262V12.6975C86.8128 12.6099 86.1993 12.7325 85.6035 12.6274C85.6035 12.5924 85.5859 12.5573 85.5859 12.5573C85.6385 12.5223 85.6911 12.4872 85.7612 12.4697C85.8138 12.4522 85.8664 12.4697 85.9189 12.4697H91.2468C91.3169 12.4697 91.3695 12.4872 91.4571 12.4872C93.052 17.2359 94.6469 21.9847 96.2593 26.7159H96.3469C97.8541 21.9671 99.3614 17.2359 100.886 12.4872H106.459C106.494 12.4872 106.53 12.5223 106.547 12.5573C106.494 12.5573 106.494 12.5924 106.477 12.6274Z" fill="#01004C"/>
<path d="M75.5017 23.5929C75.5543 23.4001 75.5893 23.2249 75.6769 23.0496C75.8697 22.5765 76.0275 22.1034 76.2904 21.6828C76.9038 20.649 77.8677 20.1408 79.0419 20.0707C79.5327 20.0357 80.0584 20.0707 80.5316 20.1934C81.5482 20.4387 82.2141 21.0695 82.5647 22.0333C82.775 22.6291 82.8801 23.2249 82.8801 23.8557C82.8977 25.0473 82.8801 26.2038 82.8977 27.3953V32.7223C83.1781 32.845 83.441 32.7574 83.7039 32.7924C83.9492 32.8275 84.1946 32.7223 84.475 32.8625C84.4224 32.9326 84.4049 32.9676 84.3523 32.9852C84.2822 33.0027 84.1946 33.0027 84.1245 33.0027H78.4285C78.3234 33.0027 78.2182 32.9676 78.1131 32.9151C78.4636 32.6873 78.8842 32.8625 79.2698 32.7574C79.2873 32.6873 79.3048 32.5997 79.3048 32.512C79.3048 29.5156 79.3048 26.5192 79.2873 23.5228C79.2873 23.0321 79.2172 22.5765 79.1646 22.0859C79.1646 22.0508 79.1471 22.0158 79.1471 21.9807C78.9543 21.0695 78.4636 20.7892 77.5522 21.0695C77.0615 21.2272 76.711 21.5602 76.4306 21.9807C75.9924 22.6291 75.7821 23.3651 75.6594 24.1185C75.5543 24.9246 75.4491 25.7657 75.4316 26.5718C75.3965 28.5168 75.4141 30.4794 75.4141 32.4244C75.4141 32.5296 75.4316 32.6347 75.4316 32.7398C75.8172 32.8625 76.2202 32.7048 76.6584 32.8625C76.5708 32.9326 76.5007 32.9852 76.4481 33.0027C76.378 33.0202 76.2904 33.0027 76.2202 33.0027H70.6295C70.5068 33.0027 70.3666 32.9676 70.2439 32.9501V32.8625C70.314 32.8275 70.3841 32.7924 70.4542 32.7924C70.7697 32.7749 71.0851 32.7924 71.3831 32.7924H71.7862V12.6585C71.5058 12.6585 71.2429 12.676 70.98 12.6585C70.7346 12.641 70.4892 12.7286 70.1562 12.5534C70.3315 12.4833 70.3841 12.4482 70.4717 12.4482H75.2563C75.2914 12.4482 75.3264 12.4658 75.4141 12.5008C75.4316 13.2193 75.4141 13.9552 75.4141 14.6737V23.5929H75.5017Z" fill="#01004C"/>
<path d="M158.81 20.2684C158.372 20.8992 157.758 21.3022 157.075 21.6001C156.391 21.9155 155.673 22.1433 154.937 22.301C154.849 22.3361 154.709 22.3711 154.674 22.4588C154.621 22.6165 154.761 22.6866 154.884 22.7391C155.234 22.8267 155.603 22.9494 155.971 22.9844C157.127 23.0721 158.161 22.7216 159.178 22.2134C159.721 21.9331 160.229 21.5826 160.65 21.1621C161.001 20.7941 161.281 20.3735 161.421 19.8654C161.544 19.4273 161.667 18.9892 161.789 18.5687C161.842 18.411 161.912 18.2708 162 18.043C162.07 18.4285 162.105 18.7439 162.192 19.0593C162.35 19.7076 162.683 20.2684 163.086 20.8116C164.015 22.0557 165.189 23.0545 166.574 23.773C166.802 23.8956 167.065 23.9833 167.327 24.0709C167.415 24.1059 167.555 24.0709 167.66 24.0183C167.783 23.9482 167.713 23.808 167.678 23.7029C167.345 22.5464 166.872 21.4775 166.293 20.4261C166.276 20.4086 166.293 20.3735 166.293 20.3385C166.469 20.321 166.504 20.4611 166.574 20.5488C167.012 21.1621 167.468 21.7578 167.836 22.4062C168.326 23.2298 168.835 24.0358 169.431 24.7893C170.009 25.5078 170.272 26.3313 170.307 27.225C170.342 27.961 170.307 28.6969 170.289 29.4329C170.272 29.8885 170.307 29.9235 170.675 30.1338C170.745 30.1864 170.833 30.239 170.938 30.3266C170.85 30.3791 170.815 30.4142 170.763 30.4317C170.184 30.5719 169.869 30.9924 169.711 31.5181C169.606 31.9036 169.553 32.3242 169.483 32.7623C169.413 32.7798 169.343 32.7973 169.255 32.7973C169.062 32.8148 168.957 32.7272 168.957 32.5345C168.975 32.1665 168.992 31.781 169.01 31.413C169.01 31.3779 169.045 31.3429 169.045 31.3079C169.027 31.2378 169.01 31.0976 168.957 31.0801C168.905 31.045 168.765 31.0976 168.747 31.1501C168.572 31.4305 168.397 31.7284 168.291 32.0438C168.221 32.2541 168.204 32.4994 168.151 32.7798C168.028 32.7973 167.871 32.8148 167.731 32.8148H153.955C153.85 32.8148 153.745 32.7973 153.64 32.7973C154.043 31.6408 154.218 30.5018 154.113 29.2927C154.008 28.1012 153.482 27.0323 152.921 25.9809C152.956 25.9633 152.974 25.9458 152.991 25.9283C153.061 25.9984 153.149 26.0334 153.201 26.1211C153.482 26.4715 153.745 26.8045 154.008 27.1724C154.043 27.225 154.06 27.26 154.095 27.2951C154.165 27.3301 154.253 27.3652 154.306 27.3477C154.358 27.3301 154.376 27.225 154.376 27.1549C154.341 26.9797 154.271 26.8045 154.253 26.6292C154.008 24.544 153.429 22.5288 152.746 20.5488C152.711 20.4436 152.676 20.3385 152.641 20.1632C152.763 20.2333 152.833 20.2509 152.868 20.3034C153.114 20.5312 153.377 20.7766 153.622 21.0394C153.832 21.2847 154.113 21.3899 154.446 21.4249C155.725 21.53 156.952 21.3548 158.126 20.8116C158.319 20.6013 158.564 20.4086 158.81 20.2684ZM157.215 31.8335C157.495 31.8511 157.793 31.8511 158.074 31.8511C158.214 31.8511 158.354 31.8861 158.494 31.8861C158.792 31.9036 159.09 31.9036 159.388 31.9036C159.739 31.9036 159.826 31.7985 159.879 31.4305C159.879 31.3604 159.896 31.3079 159.914 31.2378C160.212 30.5018 160.685 29.9761 161.526 29.9586C161.561 29.9586 161.596 29.9411 161.631 29.9411C161.842 29.906 161.982 29.8009 162.087 29.6081C162.455 28.8371 162.858 28.0661 162.981 27.1724C163.051 26.6818 162.946 26.2612 162.613 25.9283C162.297 25.6129 161.982 25.315 161.649 25.0171C161.036 24.4564 160.457 23.8781 160.054 23.1422C159.984 22.9844 159.861 22.9319 159.704 23.0195C159.634 23.0545 159.563 23.0721 159.493 23.0896C158.056 23.6328 156.584 24.1059 155.094 24.4564C154.779 24.5265 154.744 24.5615 154.779 24.8594C154.884 25.8582 154.972 26.8745 155.112 27.8558C155.234 28.767 155.164 29.6256 154.954 30.5018C154.884 30.7822 154.831 31.0625 154.761 31.3254C154.691 31.6583 154.744 31.7459 155.112 31.7635H155.27C155.918 31.8335 156.566 31.8335 157.215 31.8335ZM165.049 23.808C164.996 24.0183 165.119 24.1059 165.189 24.2111C165.4 24.5615 165.61 24.912 165.803 25.28C165.978 25.6304 166.066 26.0334 165.925 26.4365C165.662 27.1549 165.435 27.8909 165.172 28.5918C164.821 29.5205 164.418 30.4668 163.892 31.3254C163.7 31.6233 163.805 31.781 164.155 31.7985C165.172 31.816 166.171 31.8335 167.17 31.8335C167.485 31.8335 167.573 31.7635 167.625 31.4305C167.66 31.1151 167.801 30.8523 168.028 30.6595C168.239 30.4668 168.484 30.309 168.729 30.1689C168.957 30.0637 169.22 30.0112 169.466 29.9235C169.764 29.8184 169.781 29.7834 169.728 29.4679C169.711 29.3453 169.711 29.2051 169.693 29.0824C169.623 28.4516 169.571 27.8558 169.466 27.2425C169.343 26.5416 168.975 25.9984 168.326 25.6655C168.221 25.5954 168.116 25.5428 167.976 25.4727C167.029 24.947 166.048 24.4914 165.172 23.8255C165.172 23.8255 165.137 23.8255 165.049 23.808Z" fill="#EB7124"/>
<path d="M121.338 31.095C121.531 31.2001 121.461 31.3053 121.408 31.3929C121.128 31.9711 120.725 32.4267 120.181 32.7421C119.708 33.0225 119.182 33.2153 118.639 33.2153C118.131 33.2328 117.588 33.2328 117.097 33.1452C115.905 32.9349 115.274 32.1639 115.222 30.9723C115.222 30.8672 115.222 30.7445 115.151 30.6219C115.099 30.7445 115.046 30.8497 115.011 30.9723C114.696 31.8134 114.205 32.5143 113.364 32.8823C112.33 33.373 111.261 33.4255 110.192 33.04C108.982 32.602 108.316 31.6908 108.176 30.4291C108.106 29.9735 108.123 29.5004 108.211 29.0448C108.404 27.9934 109.017 27.2575 109.946 26.7493C110.752 26.2937 111.629 26.1009 112.54 26.0484C113.259 25.9958 113.995 26.0133 114.713 25.9958H115.151C115.186 25.9432 115.222 25.9257 115.222 25.9082C115.257 24.7341 115.292 23.5601 115.011 22.4036C114.906 21.9655 114.748 21.5625 114.485 21.212C114.135 20.7214 113.662 20.441 113.031 20.441C112.26 20.441 111.559 20.6163 110.875 20.9317C110.805 20.9667 110.735 21.0018 110.665 21.0368C110.647 21.0543 110.63 21.0718 110.595 21.1244H111.173C112.207 21.1595 112.996 21.8954 113.083 22.8942C113.101 23.0695 113.083 23.2447 113.048 23.3849C112.891 24.4363 111.839 25.1722 110.7 25.0496C109.648 24.9444 108.965 24.0858 108.982 23.0169C109 22.4036 109.245 21.8954 109.683 21.4574C110.314 20.809 111.138 20.4585 111.997 20.2658C113.294 19.9854 114.591 20.0205 115.87 20.3359C117.623 20.7915 118.639 22.0181 118.779 23.8054C118.814 24.2085 118.832 24.594 118.832 24.997V31.3929C118.832 31.5506 118.832 31.7083 118.849 31.866C118.92 32.4618 119.375 32.7597 119.936 32.5319C120.146 32.4443 120.392 32.3216 120.567 32.1464C120.795 31.9186 120.988 31.6382 121.198 31.3754C121.215 31.3053 121.25 31.2001 121.338 31.095ZM115.116 26.1886C114.853 26.1886 114.556 26.171 114.258 26.1886C113.662 26.2236 113.189 26.4864 112.82 26.942C112.61 27.2049 112.435 27.4853 112.312 27.8007C111.944 28.6418 111.927 29.5354 112.032 30.4291C112.084 30.8146 112.19 31.2001 112.4 31.5155C112.68 31.9536 113.066 32.1113 113.574 31.9887C113.925 31.9186 114.205 31.6908 114.415 31.4104C114.678 31.0775 114.836 30.692 114.924 30.2889C115.274 28.9572 115.186 27.5904 115.151 26.2411C115.186 26.2411 115.169 26.2411 115.116 26.1886Z" fill="#01004C"/>
<path d="M51.0949 31.1457C51.0598 31.2508 51.0247 31.3735 50.9897 31.4786C50.6041 32.2496 49.9557 32.7753 49.1319 33.0382C48.2732 33.3185 47.3969 33.3185 46.5381 33.0907C45.469 32.8104 44.9257 32.0919 44.8556 30.988C44.8556 30.8478 44.8556 30.7076 44.7855 30.5324C44.7504 30.6025 44.7154 30.6726 44.6803 30.7427C44.6102 30.9179 44.5577 31.0931 44.47 31.2333C43.9442 32.4073 43.0154 33.0206 41.771 33.1784C41.2102 33.2484 40.6318 33.2484 40.071 33.1083C38.7215 32.7578 37.7926 31.6013 37.705 30.1294C37.5998 28.4471 38.3534 27.203 39.8957 26.5196C40.5968 26.2042 41.3504 26.029 42.104 26.0115C42.8576 25.9589 43.5937 25.9764 44.3473 25.9589H44.803C44.803 25.4157 44.8205 24.925 44.803 24.4519C44.7855 23.6984 44.7329 22.9625 44.5226 22.2265C44.3999 21.8235 44.2422 21.4204 43.9793 21.07C43.6288 20.6319 43.2082 20.4216 42.6473 20.4041C41.8061 20.3866 41.0349 20.5969 40.2988 20.9824C40.2287 21.0174 40.1762 21.0525 40.071 21.1225C40.3865 21.1225 40.6143 21.105 40.8421 21.1225C41.6133 21.1926 42.2092 21.5781 42.5071 22.3141C42.8051 23.0326 42.6824 23.7159 42.1741 24.3117C41.6133 24.9776 40.5968 25.2404 39.7731 24.9426C38.7565 24.5921 38.2833 23.4356 38.6689 22.3492C38.8617 21.8059 39.2297 21.4029 39.7029 21.07C40.3514 20.5969 41.105 20.334 41.8762 20.2114C42.9978 20.0186 44.1195 20.0361 45.2236 20.299C47.2216 20.7721 48.2732 22.0337 48.3608 24.0839C48.3783 24.3643 48.3783 24.6622 48.3783 24.9426V31.8466C48.4484 32.5125 48.9567 32.8279 49.5701 32.53C49.833 32.4073 50.0608 32.2146 50.2887 32.0218C50.4814 31.8291 50.6041 31.5838 50.7619 31.3735C50.832 31.3034 50.867 31.2158 50.9196 31.1457C51.0072 31.1282 51.0423 31.1282 51.0949 31.1457ZM44.7855 26.1867C44.47 26.1867 44.1896 26.1692 43.9092 26.1867C43.3133 26.2217 42.8401 26.4846 42.4721 26.9402C42.2793 27.168 42.104 27.4308 41.9813 27.7112C41.5081 28.7626 41.4906 29.8665 41.8061 30.9705C41.8762 31.1807 41.9638 31.391 42.0865 31.5662C42.3319 31.9342 42.7174 32.0744 43.1556 32.0043C43.6112 31.9167 43.9267 31.6363 44.1546 31.2683C44.4525 30.7952 44.6102 30.2871 44.6979 29.7438C44.8906 28.6224 44.8381 27.4659 44.8381 26.3269C44.8381 26.2918 44.8205 26.2568 44.7855 26.1867Z" fill="#01004C"/>
<path d="M53.9608 12.6244H52.0154C51.9979 12.6244 51.9804 12.5894 51.9453 12.5368C52.0154 12.5018 52.103 12.4492 52.1556 12.4492C52.5061 12.4317 52.8216 12.4492 53.1721 12.4492H57.6062V32.7758H58.6928C59.0258 32.7934 59.3413 32.7233 59.6743 32.8985C59.6042 32.9335 59.5691 32.9686 59.499 32.9861C59.4114 33.0036 59.3062 32.9861 59.2361 32.9861H52.401C52.2608 32.9861 52.103 32.9511 51.9628 32.9511C51.9628 32.916 51.9628 32.881 51.9453 32.8459C52.0154 32.8284 52.1206 32.7758 52.1907 32.7758H53.9258C53.9608 32.7408 53.9783 32.7233 53.9783 32.7233C53.9783 32.7233 53.9959 32.7057 53.9959 32.6882C53.9959 32.6181 54.0134 32.5305 54.0134 32.4604V12.8347C54.0134 12.7821 53.9959 12.7296 53.9608 12.6244Z" fill="#01004C"/>
<path d="M35.6846 25.9105H28.2711C28.2535 25.9806 28.2185 26.0157 28.2185 26.0682C28.201 27.4701 28.236 28.8544 28.5515 30.2387C28.6742 30.7819 28.8494 31.3076 29.1298 31.7983C29.6206 32.6394 30.3391 32.9898 31.3031 32.8847C32.7051 32.7445 33.7917 32.0786 34.5979 30.9572C34.9835 30.4315 35.2464 29.8532 35.4567 29.2224C35.4918 29.1348 35.5268 29.0296 35.5619 28.9245C35.7722 29.0121 35.6846 29.1698 35.6495 29.2749C35.4392 29.9934 35.1062 30.6768 34.633 31.2726C33.7567 32.3765 32.6175 33.0073 31.233 33.165C30.0061 33.3228 28.7968 33.2176 27.6752 32.7094C26.2556 32.0786 25.2566 31.0272 24.7308 29.5728C24.0122 27.5927 23.9947 25.5951 24.7483 23.615C25.537 21.5298 27.1143 20.3733 29.3051 20.0754C30.2164 19.9527 31.1453 19.9878 32.0216 20.2681C33.9144 20.8639 35.0186 22.2307 35.4742 24.1057C35.5969 24.5788 35.6145 25.0694 35.667 25.5776C35.7196 25.6827 35.7021 25.7704 35.6846 25.9105ZM28.2185 25.7003C29.4804 25.7003 30.6721 25.7178 31.8989 25.6827C31.9165 24.5437 31.8639 23.4924 31.6886 22.4235C31.601 21.8978 31.4783 21.3721 31.1979 20.9165C30.7247 20.1104 29.8659 20.0228 29.3051 20.7413C29.0948 21.0041 28.9195 21.337 28.8144 21.6525C28.3412 22.9492 28.2535 24.2809 28.2185 25.7003Z" fill="#01004C"/>
<path d="M135.737 32.8485C135.667 32.901 135.632 32.9536 135.562 32.9536C135.474 32.9711 135.369 32.9711 135.299 32.9711H129.375C129.235 32.9711 129.06 33.0412 128.937 32.8134C129.428 32.6732 129.901 32.8134 130.427 32.7258C130.164 32.1826 129.848 31.6744 129.568 31.1663C129.287 30.6581 128.972 30.1149 128.692 29.6067C128.394 29.0985 128.113 28.5729 127.78 28.0121C126.588 29.6067 125.449 31.1312 124.24 32.7083C124.415 32.7258 124.503 32.7433 124.59 32.7433H126.308C126.431 32.7433 126.536 32.7784 126.676 32.7959C126.588 33.0237 126.413 32.9711 126.29 32.9711H122.382C122.312 32.9711 122.242 32.9185 122.172 32.901V32.8134C122.26 32.7959 122.365 32.7608 122.452 32.7608H123.697C123.854 32.7608 123.96 32.7258 124.047 32.6031C125.239 31.0085 126.413 29.449 127.605 27.8544C127.605 27.8369 127.622 27.8194 127.64 27.7843C127.605 27.7142 127.57 27.6091 127.517 27.539C126.255 25.3136 124.994 23.0882 123.749 20.8627C123.627 20.6525 123.504 20.5298 123.241 20.5473C123.031 20.5649 122.803 20.5649 122.593 20.5473C122.505 20.5473 122.4 20.5123 122.295 20.4772C122.382 20.267 122.522 20.3195 122.645 20.3195H128.902C129.042 20.3195 129.165 20.3371 129.305 20.3371C129.305 20.3721 129.322 20.4071 129.322 20.4247C129.252 20.4597 129.182 20.5123 129.112 20.5123C128.814 20.5298 128.516 20.5123 128.218 20.5123H127.78C127.85 20.8102 129.743 24.1571 130.076 24.5601C131.093 23.2283 132.074 21.9141 133.091 20.5473C132.407 20.5123 131.794 20.4772 131.198 20.4422C131.198 20.4422 131.18 20.3896 131.163 20.3546C131.233 20.3371 131.32 20.302 131.391 20.302C132.775 20.2319 135.089 20.2845 135.369 20.3721C135.351 20.5473 135.211 20.5123 135.106 20.5123C134.65 20.5123 134.195 20.5298 133.757 20.5123C133.476 20.4948 133.301 20.5999 133.143 20.8277C132.232 22.0543 131.32 23.2634 130.409 24.49C130.339 24.5951 130.251 24.7178 130.164 24.8405C130.409 25.261 130.654 25.6816 130.882 26.0846C132.074 28.1873 133.301 30.2726 134.493 32.3753C134.65 32.6382 134.808 32.7433 135.106 32.7258C135.281 32.7433 135.509 32.6732 135.737 32.8485Z" fill="#01004C"/>
<path d="M66.0055 20.3184H67.3375C67.7581 20.3184 68.1787 20.2833 68.6169 20.3534C68.5468 20.5637 68.4065 20.5462 68.2663 20.5462H66.023C66.0055 20.6689 65.9704 20.7565 65.9704 20.8791V30.7621C65.9704 31.095 66.0055 31.428 66.0756 31.7609C66.2158 32.3917 66.6014 32.5845 67.2148 32.3742C67.5653 32.2515 67.8457 32.0237 68.1086 31.7609C68.4942 31.3579 68.7921 30.8847 69.02 30.3591C69.0725 30.2539 69.1251 30.1488 69.1777 30.0261C69.2127 30.0261 69.2478 30.0436 69.2653 30.0436C69.2653 30.1137 69.3179 30.2189 69.2828 30.2714C68.8096 31.5681 67.723 32.9349 65.7952 33.1277C65.5148 33.1627 65.2168 33.1452 64.9364 33.1452C63.4817 33.0751 62.6405 32.2866 62.4652 30.8497C62.4127 30.4467 62.3951 30.0261 62.3951 29.6056V20.5637C61.7817 20.5287 61.2209 20.4936 60.6601 20.4586C60.6425 20.4586 60.6425 20.406 60.625 20.371C60.9054 20.2483 61.2034 20.3184 61.4838 20.3009C61.7642 20.2833 62.0446 20.3009 62.3776 20.3009V17.5848C63.6219 17.5147 64.8137 17.357 65.9003 16.7612C66.0405 17.0766 65.9704 17.357 65.9704 17.6374C65.988 17.9353 65.9704 18.2332 65.9704 18.531V19.3897L66.0055 20.3184Z" fill="#01004C"/>
<path d="M164.393 15.5161C164.638 15.5862 164.883 15.6388 165.129 15.7264C165.795 15.9542 166.461 16.1995 167.144 16.4448C167.285 16.4974 167.407 16.5675 167.53 16.4448C167.425 16.1469 166.566 15.411 165.882 15.0605C165.234 14.71 164.533 14.4998 163.797 14.3596V14.2895C163.902 14.2895 164.007 14.272 164.112 14.272C165.462 14.3946 166.741 14.8152 167.951 15.4635C168.985 16.0067 169.878 16.7077 170.772 17.4436C171.578 18.1095 172.507 18.6352 173.489 18.9857C174.295 19.266 175.136 19.3712 176.013 19.3887C177.38 19.4062 178.676 19.0733 179.903 18.4775C180.745 18.0569 181.165 17.3911 181.13 16.4623C181.113 16.0593 181.06 15.6388 180.99 15.2357C180.78 14.3245 180.149 13.8514 179.29 13.6061C178.799 13.4659 178.291 13.4484 177.8 13.5535C177.485 13.6236 177.292 13.7638 177.117 14.0442C176.433 15.2708 175.382 15.8841 173.962 15.7789C173.629 15.7614 173.331 15.6738 173.051 15.4811C173.068 15.446 173.068 15.411 173.086 15.411C173.576 15.3409 173.857 15.0079 174.137 14.64C174.383 14.2895 174.61 13.939 174.891 13.501C174.751 14.0091 174.681 14.4472 174.418 14.8327C174.383 14.8853 174.33 14.9203 174.312 14.9904C174.225 15.1832 174.312 15.3234 174.523 15.3234C174.593 15.3234 174.681 15.3058 174.751 15.2708C175.417 15.1306 175.925 14.7451 176.346 14.2194C176.398 14.1668 176.433 14.1143 176.451 14.0617C176.468 13.9741 176.451 13.8514 176.398 13.7813C176.363 13.7288 176.223 13.7288 176.17 13.7463C175.96 13.8164 175.767 13.904 175.557 13.9566C175.697 13.7288 175.942 13.6061 176.153 13.4659C176.275 13.3958 176.486 13.3433 176.433 13.133C176.381 12.9578 176.205 12.9402 176.048 12.9402C175.977 12.9402 175.907 12.9227 175.837 12.8701C176.258 12.73 176.678 12.6599 177.099 12.8C177.344 12.8877 177.59 12.9052 177.853 12.8701C178.869 12.7825 179.833 12.8351 180.709 13.4309C181.27 13.7989 181.656 14.2895 181.849 14.9378C182.199 16.1119 182.024 17.1983 181.393 18.2146C180.955 18.9156 180.289 19.3186 179.553 19.669C178.028 20.3875 176.416 20.5627 174.751 20.3524C173.156 20.1422 171.666 19.599 170.264 18.8279C170.106 18.7403 169.949 18.6527 169.791 18.5651C169.773 18.5651 169.756 18.5651 169.721 18.5826C169.703 18.6527 169.651 18.7053 169.668 18.7754C169.913 20.4576 170.492 21.9996 171.684 23.2613C172.069 23.6818 172.227 24.19 172.367 24.7332C172.7 25.9598 172.963 27.2214 173.103 28.5006C173.191 29.3593 173.191 30.2354 173.243 31.094V31.3569C173.261 31.6372 173.331 31.7424 173.611 31.7424C174.681 31.7949 175.662 32.2505 176.696 32.4959C176.731 32.4959 176.766 32.5309 176.784 32.5484V32.601C176.784 32.6185 176.766 32.636 176.766 32.636C175.224 32.636 173.682 32.6536 172.157 32.6536C172.087 32.6536 172.034 32.636 171.982 32.6185C172.157 31.3919 172.069 30.1828 171.911 28.9913C171.771 27.9399 171.561 26.9411 171.228 25.9247C171.21 25.8547 171.193 25.7846 171.175 25.7145C171.21 25.6969 171.228 25.6794 171.245 25.6619C171.316 25.7495 171.386 25.8547 171.438 25.9598C171.666 26.4504 171.911 26.9761 172.139 27.4668C172.192 27.5719 172.227 27.677 172.297 27.7822C172.332 27.8348 172.402 27.8523 172.455 27.8523C172.507 27.8348 172.525 27.7647 172.542 27.6946C172.56 27.677 172.542 27.642 172.525 27.6245C172.262 26.7659 172.017 25.9072 171.736 25.0661C171.543 24.5404 171.245 24.0848 170.79 23.7344C170.176 23.2437 169.843 22.5428 169.545 21.8419C169.247 21.141 168.967 20.4401 168.687 19.7216C168.073 18.127 166.987 17.0056 165.514 16.1995C165.164 16.0067 164.778 15.814 164.428 15.6212C164.375 15.5862 164.393 15.5512 164.393 15.5161Z" fill="#EB7124"/>
<path d="M6.30469 40.3469V39.8563C6.40984 39.8388 6.515 39.8037 6.60263 39.8037H82.5253V40.3119C82.5019 40.3352 82.4844 40.3528 82.4727 40.3644C82.461 40.3761 82.4493 40.382 82.4377 40.382C82.3851 40.3995 82.3325 40.417 82.2799 40.417H6.65521C6.5851 40.417 6.49747 40.417 6.42737 40.3995C6.39232 40.3995 6.37479 40.382 6.30469 40.3469Z" fill="#EB7124"/>
<path d="M146.268 35.4067C146.058 35.3892 145.9 35.3716 145.76 35.3541C145.742 35.3541 145.742 35.3366 145.725 35.3366C145.935 35.2315 146.689 35.1964 147.302 35.284V43.1518C147.512 43.1694 147.705 43.2044 147.88 43.2219V43.292H146.338V42.2932C146.321 42.2757 146.286 42.2757 146.268 42.2582C146.216 42.3283 146.18 42.3808 146.145 42.4509C145.672 43.4497 144.813 43.5724 143.972 43.257C143.481 43.0642 143.113 42.7663 142.886 42.3107C142.377 41.3295 142.36 40.3131 142.903 39.3494C143.254 38.701 143.85 38.298 144.621 38.2629C145.269 38.2104 145.742 38.4907 146.058 39.0515C146.128 39.1741 146.18 39.2793 146.286 39.472V35.4067H146.268ZM146.321 41.0316C146.286 40.3306 146.251 39.84 146.04 39.3494C145.918 39.0515 145.742 38.8061 145.479 38.6134C144.989 38.2629 144.393 38.3681 144.077 38.8938C143.92 39.1391 143.832 39.437 143.762 39.7173C143.604 40.3482 143.639 40.979 143.692 41.5923C143.744 41.9778 143.814 42.3633 144.042 42.6962C144.393 43.257 145.006 43.3621 145.532 42.9766C145.795 42.7663 145.988 42.5035 146.075 42.2056C146.18 41.75 146.251 41.3119 146.321 41.0316Z" fill="#01004C"/>
<path d="M88.6249 39.4V43.185H89.1331C89.2733 43.185 89.4311 43.2025 89.5713 43.2376C89.3084 43.3427 87.2053 43.3602 86.6094 43.3077C86.9073 43.0974 87.2228 43.2901 87.5032 43.1675V35.4048C87.2228 35.3873 86.9248 35.3873 86.6444 35.3698C86.9073 35.2296 91.2888 35.1945 91.9548 35.2821C92.0249 35.5625 92.0424 37.052 91.9548 37.5601C91.9022 37.4024 91.8847 37.3323 91.8847 37.2622C91.8146 36.9118 91.762 36.5788 91.6218 36.2459C91.4115 35.7553 91.0084 35.4574 90.4826 35.4223C89.8692 35.3698 89.2558 35.4048 88.6073 35.4048V39.2248C88.9754 39.2774 89.361 39.2599 89.729 39.1372C90.1496 39.0145 90.2898 38.6466 90.3599 38.226C90.4826 38.5414 90.4826 40.0484 90.3775 40.4865C90.3424 40.3463 90.3074 40.2762 90.3074 40.2061C90.2373 39.8556 90.0094 39.6103 89.6764 39.4877C89.4311 39.365 89.028 39.3475 88.6249 39.4Z" fill="#01004C"/>
<path d="M97.5636 43.1515C97.7915 43.169 97.9667 43.2041 98.1946 43.2216C97.8791 43.3443 96.3894 43.3618 95.9863 43.2216C96.1791 43.2041 96.3368 43.1866 96.5471 43.1515V38.5079C96.3543 38.4904 96.1791 38.4729 95.9688 38.4378C96.1791 38.2976 96.8801 38.2801 97.5636 38.3677V39.3666C97.5987 39.3666 97.6162 39.3841 97.6337 39.3841C97.6863 39.2789 97.7389 39.1738 97.809 39.0511C98.2471 38.2451 99.3688 37.9297 100.157 38.4203C100.42 38.578 100.578 38.8058 100.648 39.1037C100.701 39.349 100.718 39.6119 100.736 39.8747C100.753 40.821 100.736 41.7497 100.736 42.7134V43.134C100.946 43.169 101.139 43.1866 101.332 43.2041V43.2742H99.176C99.176 43.2566 99.176 43.2216 99.1585 43.2041C99.2461 43.1866 99.3513 43.169 99.4389 43.1515C99.5265 43.134 99.6142 43.134 99.7193 43.1165C99.7193 43.0113 99.7368 42.9062 99.7368 42.8011C99.7368 41.7497 99.7368 40.6808 99.7193 39.6294C99.7193 39.3666 99.6843 39.0862 99.6142 38.8233C99.5265 38.4729 99.3337 38.3327 98.9657 38.3677C98.5626 38.4028 98.2647 38.6131 98.0543 38.9285C97.844 39.2439 97.7214 39.5943 97.6688 39.9799C97.511 41.0488 97.5987 42.0826 97.5636 43.1515Z" fill="#01004C"/>
<path d="M138.231 35.0879C139.142 37.7689 140.036 40.4499 140.947 43.1485C141.193 43.166 141.438 43.1835 141.701 43.201C141.456 43.3237 139.282 43.3763 138.651 43.2711C139.002 43.0784 139.37 43.2536 139.72 43.1309C139.475 42.3424 139.23 41.5539 138.984 40.7653H136.338C136.075 41.5363 135.812 42.3249 135.532 43.166C135.935 43.1835 136.303 43.1835 136.653 43.201C136.426 43.3412 134.971 43.3763 134.375 43.2711C134.726 43.0959 135.041 43.2361 135.392 43.1309C136.303 40.4674 137.214 37.7864 138.108 35.1054C138.143 35.1054 138.196 35.1054 138.231 35.0879ZM137.758 36.8402C137.722 36.8402 137.705 36.8402 137.687 36.8227C137.267 38.0668 136.846 39.3109 136.408 40.5726H138.932C138.529 39.3109 138.143 38.0843 137.758 36.8402Z" fill="#01004C"/>
<path d="M109.55 43.1509C109.725 43.1685 109.9 43.186 110.093 43.2035C109.865 43.3262 108.621 43.3612 107.885 43.2736C108.06 43.0633 108.288 43.2385 108.481 43.1159V38.5073C108.27 38.4898 108.095 38.4723 107.867 38.4373C108.095 38.3146 108.849 38.2795 109.48 38.3672V39.3835C109.515 39.3835 109.532 39.3835 109.55 39.401C109.62 39.2784 109.672 39.1557 109.742 39.0506C110.181 38.262 111.355 37.9992 112.108 38.4898C112.406 38.7001 112.547 38.998 112.599 39.3484C112.634 39.5762 112.634 39.8216 112.652 40.0494V43.1685C112.862 43.2035 113.055 43.221 113.283 43.2385C113.002 43.3437 111.6 43.3787 111.039 43.3086C111.215 43.1334 111.425 43.2736 111.618 43.1509C111.618 43.0984 111.653 43.0283 111.653 42.9582C111.653 41.8017 111.635 40.6627 111.618 39.5062C111.618 39.2784 111.565 39.033 111.513 38.8228C111.425 38.5073 111.25 38.4197 110.917 38.4373C110.444 38.4723 110.128 38.7001 109.883 39.0856C109.655 39.4711 109.532 39.9267 109.515 40.3823C109.48 41.2935 109.497 42.1872 109.497 43.0984C109.515 43.0984 109.532 43.1159 109.55 43.1509Z" fill="#01004C"/>
<path d="M103.244 38.7538C103.366 38.7889 103.436 38.8064 103.506 38.8239C103.822 38.9466 103.945 39.227 103.857 39.5599C103.787 39.8578 103.506 40.0505 103.173 40.0155C102.858 39.9804 102.683 39.7702 102.683 39.4197C102.683 39.1218 102.805 38.8765 103.033 38.7363C103.279 38.5786 103.542 38.4559 103.839 38.3683C104.313 38.2282 104.786 38.2457 105.259 38.3508C105.767 38.4735 106.1 38.8064 106.17 39.3321C106.223 39.6125 106.241 39.8928 106.241 40.1907V42.8542C106.276 43.1696 106.486 43.2923 106.749 43.1171C106.889 43.047 106.994 42.8893 107.099 42.7666C107.152 42.714 107.187 42.679 107.292 42.5738C107.152 43.082 106.749 43.3974 106.223 43.4149C105.662 43.4325 105.399 43.2222 105.171 42.5738C105.136 42.6264 105.101 42.6439 105.084 42.6965C104.663 43.5376 103.436 43.5376 102.876 43.1696C102.122 42.679 102.104 41.5225 102.823 40.9793C103.138 40.7515 103.506 40.6288 103.892 40.5938C104.19 40.5587 104.488 40.5412 104.786 40.5237H105.189C105.259 39.9804 105.242 39.4723 105.066 38.9641C104.926 38.5611 104.663 38.3683 104.243 38.4034C103.927 38.456 103.577 38.5085 103.244 38.7538ZM105.277 40.6814H104.663C104.032 40.6989 103.612 41.0318 103.489 41.6101C103.419 41.9255 103.454 42.2409 103.489 42.5563C103.524 42.8192 103.664 43.082 103.98 43.1521C104.313 43.2222 104.611 43.1171 104.803 42.8542C104.961 42.6264 105.101 42.346 105.154 42.0657C105.242 41.6276 105.224 41.1895 105.277 40.6814Z" fill="#01004C"/>
<path d="M127.712 42.6242C127.624 43.1149 127.221 43.3952 126.713 43.4303C126.17 43.4653 125.942 43.2901 125.661 42.6418C125.644 42.6593 125.609 42.6593 125.591 42.6943C125.241 43.3952 124.417 43.5705 123.751 43.3777C123.26 43.2551 122.91 42.9221 122.822 42.3964C122.717 41.8357 122.857 41.3451 123.33 40.9946C123.681 40.7668 124.049 40.6441 124.452 40.6091C124.838 40.574 125.241 40.5565 125.679 40.539C125.714 40.0484 125.749 39.5227 125.591 39.0495C125.451 38.6115 125.171 38.4187 124.715 38.4362C124.312 38.4538 124.049 38.5414 123.786 38.7867C123.856 38.8042 123.944 38.8217 123.996 38.8568C124.294 38.9795 124.434 39.2949 124.347 39.5928C124.259 39.9082 123.909 40.0834 123.576 40.0133C123.295 39.9432 123.12 39.6628 123.155 39.365C123.19 39.1196 123.313 38.8918 123.523 38.7517C124.312 38.2435 125.153 38.1559 126.029 38.5063C126.467 38.6816 126.643 39.0846 126.678 39.5402C126.713 39.803 126.713 40.0484 126.713 40.3112V42.7118C126.713 42.9046 126.678 43.1149 126.923 43.2025C127.151 43.2726 127.309 43.1324 127.466 42.9922C127.537 42.8345 127.624 42.7294 127.712 42.6242ZM125.679 40.6792H125.241C124.329 40.6266 123.909 41.2399 123.891 41.9934C123.874 42.2037 123.909 42.4315 123.961 42.6418C124.119 43.22 124.68 43.3777 125.153 42.9922C125.381 42.7819 125.504 42.5191 125.591 42.2212C125.714 41.7306 125.679 41.2224 125.679 40.6792Z" fill="#01004C"/>
<path d="M129.15 35.3864H128.344C128.554 35.2287 129.255 35.1937 130.096 35.2813C130.108 35.293 130.119 35.3047 130.131 35.3164C130.131 35.3339 130.149 35.3339 130.166 35.3514C130.166 35.3864 130.184 35.404 130.184 35.4215V35.5442C130.184 38.0675 130.184 40.5908 130.201 43.1141C130.201 43.1316 130.219 43.1491 130.236 43.1842C130.464 43.2017 130.727 43.2192 130.972 43.2367V43.3068H128.361C128.624 43.0966 128.904 43.2718 129.167 43.1491V35.3864H129.15Z" fill="#01004C"/>
<path d="M167.071 41.7836C167.019 42.5546 166.353 43.2205 165.564 43.3782C163.97 43.6936 162.673 42.6422 162.62 41.0301C162.603 40.5394 162.655 40.0488 162.848 39.5932C163.216 38.7871 163.864 38.3315 164.741 38.2615C165.003 38.2439 165.284 38.2439 165.547 38.2965C166.563 38.5068 167.176 39.3654 167.106 40.5219C166.02 40.5745 164.916 40.5219 163.777 40.557C163.742 41.328 163.759 42.0815 164.145 42.7473C164.373 43.1328 164.758 43.2905 165.196 43.273C165.985 43.2205 166.545 42.8174 166.896 42.099C166.966 41.9938 167.001 41.8887 167.071 41.7836ZM165.95 40.3817C165.985 39.8911 165.932 39.4355 165.757 38.9974C165.634 38.6645 165.406 38.4192 165.021 38.3841C164.653 38.3666 164.355 38.5243 164.145 38.8572C163.864 39.3304 163.777 39.8385 163.759 40.3817H165.95Z" fill="#01004C"/>
<path d="M118.091 39.0493C117.741 38.5587 117.25 38.3835 116.655 38.401C116.129 38.4185 115.796 38.7515 115.603 39.1895C115.323 39.8729 115.288 40.5914 115.34 41.3273C115.375 41.6778 115.41 42.0283 115.533 42.3612C115.831 43.2899 116.742 43.5528 117.548 42.992C117.881 42.7642 118.074 42.4313 118.232 42.0808C118.267 41.9932 118.302 41.8881 118.424 41.818C118.407 41.8881 118.424 41.9757 118.389 42.0458C118.109 42.7817 117.671 43.3425 116.83 43.4126C115.919 43.5002 115.165 43.2198 114.639 42.4663C114.236 41.8705 114.149 41.2047 114.201 40.5038C114.219 40.311 114.271 40.1533 114.306 39.9781C114.762 38.4185 116.216 38.033 117.373 38.3835C118.056 38.5938 118.459 39.1545 118.389 39.7678C118.354 40.0832 118.179 40.276 117.899 40.3285C117.653 40.3636 117.426 40.2935 117.268 40.1007C117.11 39.8905 117.093 39.6276 117.233 39.3998C117.355 39.1895 117.583 39.0844 117.829 39.1194C117.899 39.137 117.986 39.1545 118.039 39.172C118.074 39.0844 118.074 39.0669 118.091 39.0493Z" fill="#01004C"/>
<path d="M168.646 38.5055C168.436 38.488 168.261 38.4705 168.033 38.453C168.261 38.3128 169.014 38.2953 169.628 38.3829V39.2415C169.663 39.2415 169.68 39.2415 169.698 39.259C169.768 39.1013 169.856 38.9436 169.943 38.7859C170.224 38.3478 170.644 38.1726 171.135 38.2777C171.608 38.3653 171.923 38.7684 171.888 39.2065C171.853 39.5569 171.608 39.8198 171.257 39.8198C170.907 39.8198 170.662 39.627 170.627 39.3116C170.574 38.9611 170.767 38.6808 171.117 38.5931C171.187 38.5756 171.257 38.5756 171.345 38.5581C170.924 38.3128 170.469 38.3478 170.171 38.6983C169.996 38.9086 169.873 39.1539 169.803 39.3992C169.715 39.7146 169.645 40.0476 169.628 40.398C169.593 41.2742 169.61 42.1328 169.61 42.9914C169.61 43.044 169.628 43.079 169.645 43.1666C169.838 43.1842 170.013 43.2017 170.259 43.2367C169.961 43.3594 168.699 43.3769 168.016 43.3068C168.191 43.1141 168.419 43.2718 168.611 43.1491L168.646 38.5055Z" fill="#01004C"/>
<path d="M158.46 42.9744C158.285 43.1321 158.145 43.2723 157.987 43.43C157.864 43.1496 157.847 42.291 157.952 41.8529C158.004 41.958 158.022 42.0281 158.039 42.0807C158.32 43.0094 159.459 43.5526 160.352 43.1671C160.703 43.0269 160.878 42.7816 160.913 42.3961C160.948 42.0281 160.738 41.7653 160.423 41.6251C160.125 41.4849 159.809 41.4148 159.511 41.2746C159.231 41.1695 158.916 41.0644 158.67 40.9067C158.092 40.5562 157.882 39.9429 158.057 39.2945C158.232 38.6637 158.723 38.2782 159.389 38.2432C159.862 38.2256 160.282 38.3658 160.685 38.6462C160.843 38.506 160.983 38.3833 161.141 38.2432C161.246 38.4885 161.264 39.2595 161.176 39.7852C161.123 39.68 161.088 39.61 161.071 39.5574C160.843 38.7163 159.985 38.2081 159.143 38.4184C158.968 38.471 158.793 38.5761 158.653 38.7163C158.407 38.9616 158.442 39.3471 158.705 39.5749C158.881 39.7326 159.091 39.8378 159.301 39.9254C159.581 40.048 159.879 40.1356 160.177 40.2583C160.335 40.3284 160.493 40.381 160.65 40.4511C161.369 40.8015 161.649 41.3097 161.544 42.0456C161.456 42.694 160.931 43.2372 160.247 43.3774C159.599 43.5176 159.021 43.3774 158.46 42.9744Z" fill="#01004C"/>
<path d="M175.612 38.6637C175.77 38.506 175.91 38.3833 176.05 38.2432C176.156 38.4885 176.191 39.2069 176.103 39.7852C176.05 39.68 176.015 39.6275 175.998 39.5749C175.77 38.7338 174.911 38.2256 174.07 38.4359C173.913 38.471 173.755 38.5586 173.632 38.6637C173.352 38.909 173.334 39.3296 173.632 39.5749C173.808 39.7326 174.018 39.8378 174.228 39.9254C174.508 40.048 174.806 40.1356 175.104 40.2408C175.262 40.3109 175.42 40.3634 175.577 40.4335C176.296 40.784 176.576 41.2922 176.471 42.0281C176.383 42.6765 175.858 43.2197 175.174 43.3599C174.543 43.5001 173.948 43.3599 173.404 42.9744C173.229 43.1145 173.072 43.2723 172.844 43.465V41.9055C172.861 41.9055 172.879 41.8879 172.914 41.8879C172.949 41.958 172.966 42.0106 172.984 42.0807C173.264 43.0269 174.386 43.5526 175.279 43.1671C175.63 43.0269 175.823 42.7816 175.84 42.3961C175.875 42.0281 175.665 41.7653 175.35 41.6251C175.052 41.4849 174.736 41.3973 174.438 41.2746C174.158 41.1695 173.843 41.0644 173.597 40.9067C173.019 40.5562 172.809 39.9604 172.984 39.2945C173.159 38.6637 173.65 38.2782 174.316 38.2432C174.771 38.2432 175.192 38.3833 175.612 38.6637Z" fill="#01004C"/>
<path d="M151.585 42.0117C152.076 40.8201 152.514 39.6811 153.004 38.4545H152.023C152.286 38.2968 153.232 38.2793 153.898 38.3669C153.67 38.5597 153.407 38.4195 153.145 38.5071C152.479 40.1017 151.848 41.7839 151.129 43.4135C150.393 41.7839 149.78 40.1367 149.114 38.4896C148.921 38.472 148.746 38.4545 148.57 38.4195C148.886 38.2968 150.708 38.2793 151.094 38.3844C150.814 38.5071 150.551 38.402 150.323 38.472C150.288 38.7875 151.304 41.5561 151.585 42.0117Z" fill="#01004C"/>
<path d="M156.243 43.1513C156.453 43.1688 156.629 43.1863 156.874 43.2214C156.611 43.344 155.349 43.3791 154.648 43.2915C154.824 43.0812 155.051 43.2564 155.244 43.1338V38.5077C155.034 38.4902 154.859 38.4727 154.648 38.4376C154.859 38.3149 155.525 38.2799 156.243 38.3675C156.243 38.8757 156.261 39.4189 156.261 39.9271V41.5217C156.243 42.0649 156.243 42.5906 156.243 43.1513Z" fill="#01004C"/>
<path d="M92.9238 43.2015C93.099 43.184 93.2742 43.1665 93.467 43.1489V38.5054C93.2567 38.4878 93.099 38.4703 92.9062 38.4528V38.3652C93.1516 38.3652 93.3969 38.3477 93.6422 38.3477H94.4483C94.4658 38.5229 94.4833 38.6631 94.4833 38.8208V43.1665C94.6936 43.184 94.8863 43.219 95.0616 43.2366V43.3067H92.9062C92.9238 43.2541 92.9238 43.2366 92.9238 43.2015Z" fill="#01004C"/>
<path d="M121.102 43.1482C121.348 43.1657 121.523 43.1832 121.698 43.2007C121.435 43.3234 119.981 43.3409 119.508 43.2708C119.701 43.1131 119.893 43.2358 120.069 43.1482C120.139 42.8678 120.174 38.9952 120.104 38.5046C119.911 38.487 119.753 38.4695 119.508 38.4345C119.788 38.3118 120.612 38.2943 121.12 38.3819L121.102 43.1482Z" fill="#01004C"/>
<path d="M93.8905 36.4763C93.5401 36.4763 93.2422 36.1609 93.2422 35.8105C93.2422 35.4425 93.5576 35.1621 93.9081 35.1621C94.276 35.1621 94.5389 35.46 94.5389 35.828C94.5389 36.196 94.2585 36.4939 93.8905 36.4763Z" fill="#01004C"/>
<path d="M120.518 35.1621C120.886 35.1621 121.167 35.4425 121.167 35.8105C121.167 36.1784 120.886 36.4763 120.518 36.4763C120.15 36.4763 119.87 36.1784 119.852 35.828C119.835 35.4775 120.133 35.1621 120.518 35.1621Z" fill="#01004C"/>
<path d="M155.665 35.1629C156.015 35.1629 156.313 35.4783 156.313 35.8463C156.296 36.1967 155.998 36.4946 155.647 36.4946C155.279 36.4946 155.016 36.1967 155.016 35.8112C154.999 35.4257 155.279 35.1454 155.665 35.1629Z" fill="#01004C"/>
</svg>
