<svg width="183" height="44" viewBox="0 0 183 44" fill="none" xmlns="http://www.w3.org/2000/svg">
<path d="M147.357 0.535034C147.234 0.57008 147.129 0.605126 147.006 0.640172C146.445 0.797879 145.955 1.09577 145.604 1.55137C145.411 1.77916 145.464 1.97192 145.727 2.1121C145.902 2.18219 146.095 2.23476 146.13 2.49761C146.06 2.51513 145.972 2.55018 145.919 2.55018C145.446 2.51513 145.026 2.62027 144.605 2.81302C144.395 2.90063 144.149 3.00577 143.922 3.07586C143.676 3.16348 143.641 3.26862 143.834 3.46137C143.922 3.56651 144.044 3.6366 144.167 3.72421C144.237 3.77678 144.29 3.79431 144.36 3.84687C143.957 4.23238 143.553 4.32 143.168 4.05715C143.185 4.00458 143.203 3.95201 143.22 3.88192C143.291 3.54898 143.168 3.42632 142.852 3.47889C142.747 3.49642 142.642 3.49642 142.484 3.49642C142.537 3.37375 142.537 3.28614 142.554 3.28614C142.835 3.09339 143.098 2.90063 143.466 2.88311C143.974 2.86559 144.377 2.5677 144.78 2.26981C144.868 2.19972 144.903 2.05953 144.938 1.93687C144.991 1.83173 144.973 1.70907 145.026 1.60394C145.604 0.850448 146.428 0.57008 147.357 0.535034Z" fill="#EB7124"/>
<path d="M141.595 3.56489C141.122 3.68755 140.648 3.81021 140.175 3.9504C140.088 3.98544 139.912 4.09058 139.93 4.12563C139.965 4.24829 140.035 4.42352 140.14 4.47609C140.385 4.5637 140.648 4.58123 140.929 4.65132C140.771 4.93168 140.491 5.14196 140.175 5.29967C140.017 5.36976 139.877 5.45737 139.895 5.65013C139.912 5.87793 140 6.03563 140.228 6.14077C141.051 6.50875 141.963 6.28095 142.506 5.54499C142.576 5.45737 142.629 5.35224 142.716 5.22958C142.874 5.54499 143.014 5.84288 143.155 6.12325C143.312 6.43866 143.417 6.47371 143.733 6.33352C143.821 6.28095 143.926 6.24591 143.996 6.17582C144.101 6.0882 144.136 5.98306 144.066 5.82536C143.978 5.61508 143.908 5.35224 143.821 5.10691C144.013 5.03682 144.171 4.96673 144.311 4.89664C144.469 4.80902 144.592 4.68636 144.785 4.52866C144.82 4.68636 144.82 4.80902 144.855 4.91416C144.89 5.00178 144.925 5.12444 144.977 5.14196C145.047 5.15948 145.188 5.08939 145.24 5.03682C145.328 4.94921 145.38 4.82655 145.451 4.68636C145.608 4.87912 145.608 5.05435 145.626 5.2471C145.661 5.87792 145.556 6.45618 145.188 6.98187C145.118 7.06949 145.118 7.19215 145.065 7.33233C145.626 7.36738 146.502 6.47371 146.66 5.73774C146.87 4.93168 146.66 4.1782 146.292 3.47728C146.327 3.45976 146.344 3.44223 146.362 3.44223C146.73 3.59994 147.028 3.45976 147.378 3.28453C147.624 3.17939 147.922 3.16187 148.202 3.16187C148.535 3.16187 148.623 3.37214 148.482 3.65251C148.377 3.88031 148.185 4.02049 147.957 4.14315C147.758 4.24829 147.694 4.406 147.764 4.61627C147.764 4.63379 147.781 4.63379 147.781 4.65132C147.957 5.14196 148.027 5.19453 148.465 4.86159C148.745 4.65132 148.991 4.406 149.201 4.12563C149.657 3.52985 149.131 2.47847 148.412 2.40838C148.132 2.37333 147.852 2.39085 147.554 2.39085C147.484 2.39085 147.431 2.39085 147.343 2.33829C147.413 2.30324 147.484 2.25067 147.554 2.23315C148.255 2.02287 148.921 2.0404 149.569 2.39085C149.797 2.51352 149.92 2.70627 149.99 2.96911C150.147 3.61746 150.007 4.19572 149.552 4.70389C149.201 5.07187 148.815 5.35224 148.377 5.58003C148.185 5.66765 148.114 5.79031 148.097 6.00059C148.027 7.01692 147.571 7.82297 146.782 8.4538C146.222 8.92692 145.591 9.25986 144.942 9.59279C144.452 9.85564 143.926 10.0834 143.417 10.3638C142.646 10.7844 141.875 11.24 141.209 11.8533C141.192 11.8357 141.174 11.8182 141.139 11.7832C141.227 11.6955 141.314 11.5904 141.402 11.5028C142.208 10.7318 143.137 10.0659 144.066 9.43509C144.522 9.11967 144.977 8.80426 145.398 8.50637C145.521 8.41876 145.748 8.29609 145.626 8.13839C145.521 7.94564 145.31 8.12086 145.17 8.17343C144.364 8.48885 143.575 8.80426 142.751 9.1372C142.471 9.24233 142.208 9.38252 141.945 9.50518C140.666 10.1185 139.912 11.1874 139.386 12.449C138.615 14.4116 138.721 16.3391 139.579 18.2316C139.632 18.3368 139.649 18.4419 139.719 18.547C139.755 18.5996 139.842 18.6346 139.912 18.6346C139.947 18.6346 139.982 18.547 140.017 18.4945V18.4594C139.947 17.3905 140.385 16.4443 140.824 15.5331C141.034 15.095 141.297 14.7095 141.595 14.3065C141.577 14.3766 141.56 14.4467 141.525 14.5167C141.122 15.5156 140.859 16.5319 140.859 17.6534C140.859 19.0201 141.314 20.2292 142.191 21.2981C142.401 21.5435 142.611 21.7888 142.822 22.0341C142.874 22.0867 142.909 22.1392 142.962 22.1568C143.032 22.1743 143.137 22.1743 143.172 22.1392C143.207 22.1042 143.207 21.9815 143.172 21.929C142.874 21.596 142.769 21.1755 142.629 20.79C142.278 19.7561 142.156 18.7223 142.278 17.6534C142.366 16.8999 142.646 16.199 143.014 15.5506C143.382 14.8672 143.838 14.2364 144.381 13.6756C144.732 13.3252 145.047 12.9572 145.398 12.6067C145.468 12.5191 145.573 12.4315 145.696 12.3789C145.45 12.7469 145.188 13.15 144.925 13.5355C144.346 14.4467 143.996 15.463 143.838 16.5319C143.733 17.2503 143.821 17.9513 143.996 18.6522C144.066 18.915 144.154 19.1603 144.224 19.4232C144.241 19.4933 144.276 19.5458 144.311 19.5984C144.346 19.6335 144.416 19.651 144.452 19.6335C144.504 19.5984 144.539 19.5458 144.539 19.4933C144.539 19.3881 144.504 19.283 144.469 19.1779C144.311 18.5646 144.364 17.9688 144.504 17.373C144.679 16.637 144.977 15.9536 145.363 15.3228C146.046 14.1838 146.923 13.22 147.922 12.3789C149.131 11.3626 149.972 10.136 150.445 8.64655C150.48 8.52389 150.516 8.40123 150.533 8.27857C150.568 8.17343 150.603 8.0683 150.708 7.96316C150.691 8.17343 150.691 8.38371 150.656 8.59399C150.533 9.55775 150.305 10.4865 149.955 11.3977C149.902 11.5203 149.814 11.643 149.762 11.7832C149.727 11.8708 149.744 11.9759 149.744 12.0635C149.85 12.046 149.972 12.0811 150.06 12.011C150.218 11.9233 150.34 11.7832 150.48 11.6605C151.304 10.9245 151.988 10.0834 152.408 9.06711C153.285 6.9293 153.144 4.84407 151.9 2.8815C151.409 2.11049 150.743 1.49718 149.955 1.00654C149.867 0.953971 149.779 0.901402 149.709 0.796265C149.779 0.813788 149.867 0.796265 149.92 0.848834C150.41 1.09416 150.884 1.33948 151.357 1.61984C151.97 1.9703 152.531 2.39085 153.022 2.8815C154.056 3.89783 154.704 5.08939 155.072 6.45618C155.318 7.36738 155.423 8.33114 155.318 9.25986C155.16 10.8895 154.617 12.3614 153.407 13.5179C153.232 13.6932 153.232 13.7457 153.372 13.956C153.723 14.4992 154.284 14.7971 154.897 14.9548C155.773 15.1826 156.65 15.2001 157.561 15.1651C158.525 15.1125 159.454 14.9548 160.383 14.6745C160.453 14.6569 160.505 14.6569 160.558 14.6569C160.575 14.692 160.575 14.7095 160.575 14.727C160.225 14.8672 159.857 15.0074 159.506 15.1301C158.034 15.6207 156.544 15.866 154.985 15.6382C153.986 15.5156 153.092 15.1476 152.321 14.4642C152.11 14.2714 151.585 14.2364 151.357 14.3941C151.252 14.4642 151.252 14.5693 151.304 14.6569C151.602 15.1476 151.935 15.6032 152.478 15.866C152.759 16.0062 153.057 16.1113 153.337 16.2165C153.442 16.269 153.565 16.3041 153.688 16.3917C153.355 16.4443 153.039 16.3567 152.724 16.2866C151.742 16.0412 150.866 15.5681 150.112 14.8847C149.867 14.6745 149.657 14.6745 149.376 14.7971C148.465 15.2177 147.641 15.7258 146.958 16.4618C146.257 17.2153 145.783 18.0564 145.661 19.0902C145.556 20.019 145.783 20.8425 146.309 21.6311C146.449 21.8413 146.607 22.0516 146.765 22.2619C146.8 22.3145 146.835 22.367 146.87 22.367C146.94 22.3846 147.028 22.3846 147.115 22.3846C147.115 22.3145 147.151 22.2269 147.115 22.1743C146.625 21.4208 146.677 20.5797 146.818 19.7736C146.94 19.0026 147.396 18.3718 147.992 17.7585C147.887 18.0389 147.781 18.2491 147.711 18.4419C147.396 19.283 147.466 20.0891 147.904 20.8776C148.535 21.9815 149.481 22.6649 150.708 22.9803C150.778 22.9979 150.866 23.0154 150.936 23.0154C151.217 23.0154 151.269 22.9102 151.164 22.6649C151.094 22.4371 151.041 22.1918 150.971 21.964C150.813 21.3332 150.638 20.7199 150.48 20.0891C150.463 20.0365 150.48 20.0014 150.463 19.9313C150.936 20.2818 151.795 22.5072 151.935 23.6813C151.444 24.0142 150.884 23.8214 150.305 23.8565C150.358 23.9792 150.375 24.0668 150.41 24.1719C151.129 25.4511 151.637 26.8179 151.935 28.2548C152.023 28.7279 152.093 29.201 152.145 29.6741C152.18 30.0071 152.198 30.3049 152.408 30.5853C152.461 30.6379 152.461 30.7255 152.478 30.8306C151.427 31.111 150.971 31.8119 150.954 32.8458C150.568 33.021 150.445 32.9509 150.428 32.5654C150.41 32.3201 150.445 32.0748 150.463 31.8294C150.463 31.7068 150.428 31.5841 150.41 31.4089C150.288 31.4965 150.2 31.5315 150.147 31.6016C149.885 31.9521 149.657 32.3201 149.622 32.7582C149.604 32.9684 149.517 33.0385 149.324 33.021H149.131C145.696 33.021 142.243 33.0385 138.808 33.0385H136.915C136.845 33.0385 136.758 33.021 136.688 32.9684C136.758 32.9334 136.81 32.8983 136.88 32.8983C137.879 32.653 138.896 32.4077 139.877 32.1273C140.158 32.0572 140.228 31.9696 140.263 31.6717C140.35 30.9533 140.981 30.375 141.717 30.34H142.191C142.436 30.3225 142.541 30.2699 142.611 30.007C142.716 29.5515 142.822 29.0959 142.927 28.6578C142.997 28.3248 143.084 28.0094 143.155 27.694C143.225 27.3961 143.295 27.1158 143.347 26.8179C143.417 26.2747 143.505 25.7139 143.575 25.1707C143.61 24.9429 143.488 24.8203 143.295 24.7151C142.822 24.4347 142.366 24.1544 141.928 23.839C140.508 22.8051 139.387 21.5259 138.721 19.8788C138.09 18.3017 137.932 16.6545 138.16 14.9723C138.335 13.7983 138.721 12.7294 139.334 11.7131C140.245 10.2411 141.507 9.17224 143.049 8.40123C143.19 8.33114 143.417 8.31362 143.4 8.10334C143.382 7.87554 143.155 7.89307 142.979 7.82297C142.226 7.59518 141.472 7.49004 140.683 7.64774C140.158 7.75288 139.702 7.64774 139.386 7.1571C139.211 6.91178 139.176 6.63141 139.229 6.33352C139.299 5.93049 139.299 5.56251 139.229 5.14196C139.176 4.84407 139.229 4.51113 139.264 4.21324C139.281 4.12563 139.351 3.98544 139.439 3.9504C140.105 3.70508 140.789 3.54737 141.49 3.47728C141.595 3.52985 141.595 3.54737 141.595 3.56489ZM146.66 32.0572H148.868C149.148 32.0572 149.254 31.9871 149.271 31.7418C149.289 31.479 149.429 31.3038 149.569 31.1285C150.007 30.6204 150.586 30.34 151.252 30.2524C151.357 30.2348 151.479 30.2348 151.602 30.1998C151.795 30.1297 151.83 30.0421 151.795 29.8493C151.76 29.7442 151.725 29.6391 151.707 29.4989C151.444 27.9919 150.726 26.6777 149.85 25.4511C149.762 25.3284 149.657 25.2759 149.499 25.2934C148.815 25.3635 148.114 25.4511 147.431 25.5036C147.256 25.5212 147.133 25.5737 147.08 25.7314C147.045 25.8015 147.028 25.8716 147.01 25.9417C146.485 27.3786 145.889 28.7804 145.153 30.1122C144.89 30.6028 144.557 31.076 144.259 31.5666C144.101 31.8119 144.171 31.9871 144.469 32.0047C144.557 32.0222 144.662 32.0047 144.732 32.0047C145.363 32.0572 146.029 32.0572 146.66 32.0572ZM139.807 6.49123C139.702 6.80664 139.807 6.99939 140.017 7.1571C140.228 7.31481 140.508 7.34985 140.754 7.22719C140.806 7.20967 140.824 7.03444 140.806 7.01692C140.526 6.75407 140.21 6.56132 139.807 6.49123Z" fill="#EB7124"/>
<path d="M26.6921 12.678H24.0106C23.9931 12.643 23.9931 12.6079 23.9931 12.5904C24.0457 12.5378 24.0807 12.4853 24.1333 12.4677C24.2034 12.4502 24.3086 12.4502 24.3962 12.4502H29.1808C29.321 12.4502 29.4963 12.3801 29.6014 12.643C29.1633 12.7306 28.7427 12.678 28.322 12.6955C27.9189 12.7131 27.4983 12.6955 27.0426 12.6955C24.4663 19.5645 21.89 26.3985 19.3137 33.25H18.4549C17.2631 29.9732 16.0713 26.6964 14.8796 23.4196L14.8095 23.4021C14.3538 24.471 13.9682 25.5574 13.5476 26.6613C13.1095 27.7478 12.7064 28.8517 12.2857 29.9381C11.8651 31.0246 11.4445 32.1285 11.0063 33.2324H9.72693C7.22071 26.3985 4.73202 19.547 2.24333 12.6605H0C0.105156 12.5378 0.140208 12.4677 0.192786 12.4502C0.297942 12.4152 0.420624 12.4327 0.543306 12.4327H22.4333C22.591 12.4327 22.7663 12.3801 22.924 12.5553C22.6436 12.7656 22.3807 12.643 22.1178 12.6605C21.8725 12.678 21.6096 12.6605 21.3467 12.6605H20.4704C20.4003 12.8007 20.3477 12.9233 20.2951 13.0635C19.5415 15.0787 18.8054 17.1113 18.0343 19.1265C17.9466 19.3543 17.9291 19.5645 18.0167 19.7923C18.9456 22.3857 19.892 24.9967 20.8034 27.6076C20.8384 27.6777 20.8735 27.7828 20.9085 27.8704C21.1364 27.6251 26.6395 13.0635 26.6921 12.678ZM7.20319 12.6955C9.02589 17.7772 10.8486 22.8063 12.6713 27.8704C12.794 27.7478 12.8641 27.6251 12.8991 27.4849C13.4424 26.0656 13.9682 24.6637 14.5115 23.2444C14.5992 22.999 14.5992 22.7888 14.5115 22.5434C13.3373 19.3893 12.1981 16.2001 11.0414 13.046C10.9888 12.9233 10.9538 12.8182 10.9012 12.6955C10.9362 12.6955 7.20319 12.6955 7.20319 12.6955ZM20.19 12.6955H15.5105C16.2817 14.8333 17.0178 16.9186 17.7714 19.0213H17.8415C18.6301 16.9186 19.4013 14.8158 20.19 12.6955Z" fill="#01004C"/>
<path d="M106.477 12.6272C105.951 12.7148 105.425 12.6272 104.882 12.6797C104.794 12.9776 104.777 32.323 104.865 32.7611C105.127 32.7611 105.425 32.7435 105.706 32.7611C105.969 32.7786 106.232 32.691 106.512 32.8487C106.442 32.9012 106.424 32.9538 106.389 32.9538C106.302 32.9713 106.197 32.9713 106.126 32.9713H99.2913C99.1686 32.9713 99.0109 33.0414 98.9057 32.8487C99.081 32.6559 99.2913 32.7786 99.5016 32.7611C99.7119 32.7435 99.9397 32.7611 100.15 32.7611H100.746C100.781 32.726 100.799 32.7085 100.799 32.7085C100.799 32.7085 100.816 32.691 100.816 32.6734C100.816 32.5683 100.834 32.4632 100.834 32.358C100.834 26.0498 100.834 19.759 100.763 13.4507C100.711 13.5909 100.658 13.7486 100.606 13.8888C98.6078 20.2146 96.6098 26.5229 94.6118 32.8487C94.5768 32.9188 94.5593 33.0239 94.5242 33.094C94.4891 33.1466 94.4541 33.1991 94.4015 33.1991C94.3489 33.1991 94.2788 33.1466 94.2613 33.1115C94.2087 33.0239 94.1912 32.9188 94.1562 32.8136C92.5963 28.0999 91.0541 23.4038 89.4942 18.6726C88.9509 17.0254 88.4076 15.3958 87.8643 13.7311C87.8293 13.6435 87.7942 13.5384 87.7767 13.4507C87.7416 13.4507 87.7241 13.4332 87.7241 13.4332C87.7066 13.4332 87.7066 13.4507 87.7066 13.4683C87.7066 13.4858 87.6891 13.4858 87.6891 13.5033V32.4281C87.6891 32.4982 87.7066 32.5858 87.7241 32.7085C87.8818 32.7085 88.0396 32.726 88.1798 32.726H89.2664C89.3716 32.726 89.4942 32.691 89.5994 32.9012C89.4942 32.9188 89.3891 32.9538 89.2664 32.9538C87.3561 33.0239 85.954 32.9713 85.6911 32.8311C85.7963 32.7961 85.8839 32.7435 85.9365 32.7435C86.287 32.726 86.6726 32.7435 87.0231 32.7435H87.4262V12.6973C86.8128 12.6096 86.1993 12.7323 85.6035 12.6272C85.6035 12.5921 85.5859 12.5571 85.5859 12.5571C85.6385 12.522 85.6911 12.487 85.7612 12.4695C85.8138 12.4519 85.8664 12.4695 85.9189 12.4695H91.2468C91.3169 12.4695 91.3695 12.487 91.4571 12.487C93.052 17.2357 94.6469 21.9844 96.2593 26.7156H96.3469C97.8541 21.9669 99.3614 17.2357 100.886 12.487H106.459C106.494 12.487 106.53 12.522 106.547 12.5571C106.494 12.5571 106.494 12.5921 106.477 12.6272Z" fill="#01004C"/>
<path d="M75.5017 23.5926C75.5543 23.3999 75.5893 23.2246 75.6769 23.0494C75.8697 22.5763 76.0275 22.1032 76.2904 21.6826C76.9038 20.6487 77.8677 20.1406 79.0419 20.0705C79.5327 20.0354 80.0584 20.0705 80.5316 20.1931C81.5482 20.4385 82.2141 21.0693 82.5647 22.0331C82.775 22.6288 82.8801 23.2246 82.8801 23.8555C82.8977 25.047 82.8801 26.2035 82.8977 27.3951V32.7221C83.1781 32.8447 83.441 32.7571 83.7039 32.7922C83.9492 32.8272 84.1946 32.7221 84.475 32.8623C84.4224 32.9323 84.4049 32.9674 84.3523 32.9849C84.2822 33.0024 84.1946 33.0024 84.1245 33.0024H78.4285C78.3234 33.0024 78.2182 32.9674 78.1131 32.9148C78.4636 32.687 78.8842 32.8623 79.2698 32.7571C79.2873 32.687 79.3048 32.5994 79.3048 32.5118C79.3048 29.5154 79.3048 26.5189 79.2873 23.5225C79.2873 23.0319 79.2172 22.5763 79.1646 22.0856C79.1646 22.0506 79.1471 22.0155 79.1471 21.9805C78.9543 21.0693 78.4636 20.7889 77.5522 21.0693C77.0615 21.227 76.711 21.5599 76.4306 21.9805C75.9924 22.6288 75.7821 23.3648 75.6594 24.1183C75.5543 24.9244 75.4491 25.7655 75.4316 26.5715C75.3965 28.5166 75.4141 30.4791 75.4141 32.4242C75.4141 32.5293 75.4316 32.6345 75.4316 32.7396C75.8172 32.8623 76.2202 32.7045 76.6584 32.8623C76.5708 32.9323 76.5007 32.9849 76.4481 33.0024C76.378 33.02 76.2904 33.0024 76.2202 33.0024H70.6295C70.5068 33.0024 70.3666 32.9674 70.2439 32.9499V32.8623C70.314 32.8272 70.3841 32.7922 70.4542 32.7922C70.7697 32.7746 71.0851 32.7922 71.3831 32.7922H71.7862V12.6583C71.5058 12.6583 71.2429 12.6758 70.98 12.6583C70.7346 12.6408 70.4892 12.7284 70.1562 12.5531C70.3315 12.483 70.3841 12.448 70.4717 12.448H75.2563C75.2914 12.448 75.3264 12.4655 75.4141 12.5006C75.4316 13.219 75.4141 13.955 75.4141 14.6734V23.5926H75.5017Z" fill="#01004C"/>
<path d="M158.81 20.2684C158.372 20.8992 157.758 21.3022 157.075 21.6001C156.391 21.9155 155.673 22.1433 154.937 22.301C154.849 22.3361 154.709 22.3711 154.674 22.4588C154.621 22.6165 154.761 22.6866 154.884 22.7391C155.234 22.8267 155.603 22.9494 155.971 22.9844C157.127 23.0721 158.161 22.7216 159.178 22.2134C159.721 21.9331 160.229 21.5826 160.65 21.1621C161.001 20.7941 161.281 20.3735 161.421 19.8654C161.544 19.4273 161.667 18.9892 161.789 18.5687C161.842 18.411 161.912 18.2708 162 18.043C162.07 18.4285 162.105 18.7439 162.192 19.0593C162.35 19.7076 162.683 20.2684 163.086 20.8116C164.015 22.0557 165.189 23.0545 166.574 23.773C166.802 23.8956 167.065 23.9833 167.327 24.0709C167.415 24.1059 167.555 24.0709 167.66 24.0183C167.783 23.9482 167.713 23.808 167.678 23.7029C167.345 22.5464 166.872 21.4775 166.293 20.4261C166.276 20.4086 166.293 20.3735 166.293 20.3385C166.469 20.321 166.504 20.4611 166.574 20.5488C167.012 21.1621 167.468 21.7578 167.836 22.4062C168.326 23.2298 168.835 24.0358 169.431 24.7893C170.009 25.5078 170.272 26.3313 170.307 27.225C170.342 27.961 170.307 28.6969 170.289 29.4329C170.272 29.8885 170.307 29.9235 170.675 30.1338C170.745 30.1864 170.833 30.239 170.938 30.3266C170.85 30.3791 170.815 30.4142 170.763 30.4317C170.184 30.5719 169.869 30.9924 169.711 31.5181C169.606 31.9036 169.553 32.3242 169.483 32.7623C169.413 32.7798 169.343 32.7973 169.255 32.7973C169.062 32.8148 168.957 32.7272 168.957 32.5345C168.975 32.1665 168.992 31.781 169.01 31.413C169.01 31.3779 169.045 31.3429 169.045 31.3079C169.027 31.2378 169.01 31.0976 168.957 31.0801C168.905 31.045 168.765 31.0976 168.747 31.1501C168.572 31.4305 168.397 31.7284 168.291 32.0438C168.221 32.2541 168.204 32.4994 168.151 32.7798C168.028 32.7973 167.871 32.8148 167.731 32.8148H153.955C153.85 32.8148 153.745 32.7973 153.64 32.7973C154.043 31.6408 154.218 30.5018 154.113 29.2927C154.008 28.1012 153.482 27.0323 152.921 25.9809C152.956 25.9633 152.974 25.9458 152.991 25.9283C153.061 25.9984 153.149 26.0334 153.201 26.1211C153.482 26.4715 153.745 26.8045 154.008 27.1724C154.043 27.225 154.06 27.26 154.095 27.2951C154.165 27.3301 154.253 27.3652 154.306 27.3477C154.358 27.3301 154.376 27.225 154.376 27.1549C154.341 26.9797 154.271 26.8045 154.253 26.6292C154.008 24.544 153.429 22.5288 152.746 20.5488C152.711 20.4436 152.676 20.3385 152.641 20.1632C152.763 20.2333 152.833 20.2509 152.868 20.3034C153.114 20.5312 153.377 20.7766 153.622 21.0394C153.832 21.2847 154.113 21.3899 154.446 21.4249C155.725 21.53 156.952 21.3548 158.126 20.8116C158.319 20.6013 158.564 20.4086 158.81 20.2684ZM157.215 31.8335C157.495 31.8511 157.793 31.8511 158.074 31.8511C158.214 31.8511 158.354 31.8861 158.494 31.8861C158.792 31.9036 159.09 31.9036 159.388 31.9036C159.739 31.9036 159.826 31.7985 159.879 31.4305C159.879 31.3604 159.896 31.3079 159.914 31.2378C160.212 30.5018 160.685 29.9761 161.526 29.9586C161.561 29.9586 161.596 29.9411 161.631 29.9411C161.842 29.906 161.982 29.8009 162.087 29.6081C162.455 28.8371 162.858 28.0661 162.981 27.1724C163.051 26.6818 162.946 26.2612 162.613 25.9283C162.297 25.6129 161.982 25.315 161.649 25.0171C161.036 24.4564 160.457 23.8781 160.054 23.1422C159.984 22.9844 159.861 22.9319 159.704 23.0195C159.634 23.0545 159.563 23.0721 159.493 23.0896C158.056 23.6328 156.584 24.1059 155.094 24.4564C154.779 24.5265 154.744 24.5615 154.779 24.8594C154.884 25.8582 154.972 26.8745 155.112 27.8558C155.234 28.767 155.164 29.6256 154.954 30.5018C154.884 30.7822 154.831 31.0625 154.761 31.3254C154.691 31.6583 154.744 31.7459 155.112 31.7635H155.27C155.918 31.8335 156.566 31.8335 157.215 31.8335ZM165.049 23.808C164.996 24.0183 165.119 24.1059 165.189 24.2111C165.4 24.5615 165.61 24.912 165.803 25.28C165.978 25.6304 166.066 26.0334 165.925 26.4365C165.662 27.1549 165.435 27.8909 165.172 28.5918C164.821 29.5205 164.418 30.4668 163.892 31.3254C163.7 31.6233 163.805 31.781 164.155 31.7985C165.172 31.816 166.171 31.8335 167.17 31.8335C167.485 31.8335 167.573 31.7635 167.625 31.4305C167.66 31.1151 167.801 30.8523 168.028 30.6595C168.239 30.4668 168.484 30.309 168.729 30.1689C168.957 30.0637 169.22 30.0112 169.466 29.9235C169.764 29.8184 169.781 29.7834 169.728 29.4679C169.711 29.3453 169.711 29.2051 169.693 29.0824C169.623 28.4516 169.571 27.8558 169.466 27.2425C169.343 26.5416 168.975 25.9984 168.326 25.6655C168.221 25.5954 168.116 25.5428 167.976 25.4727C167.029 24.947 166.048 24.4914 165.172 23.8255C165.172 23.8255 165.137 23.8255 165.049 23.808Z" fill="#EB7124"/>
<path d="M121.338 31.0951C121.531 31.2002 121.461 31.3054 121.408 31.393C121.128 31.9713 120.725 32.4269 120.181 32.7423C119.708 33.0226 119.182 33.2154 118.639 33.2154C118.131 33.2329 117.588 33.2329 117.097 33.1453C115.905 32.935 115.274 32.164 115.222 30.9724C115.222 30.8673 115.222 30.7446 115.151 30.622C115.099 30.7446 115.046 30.8498 115.011 30.9724C114.696 31.8135 114.205 32.5145 113.364 32.8825C112.33 33.3731 111.261 33.4257 110.192 33.0402C108.982 32.6021 108.316 31.6909 108.176 30.4292C108.106 29.9736 108.123 29.5005 108.211 29.0449C108.404 27.9935 109.017 27.2576 109.946 26.7494C110.752 26.2938 111.629 26.1011 112.54 26.0485C113.259 25.9959 113.995 26.0134 114.713 25.9959H115.151C115.186 25.9434 115.222 25.9258 115.222 25.9083C115.257 24.7343 115.292 23.5602 115.011 22.4037C114.906 21.9656 114.748 21.5626 114.485 21.2122C114.135 20.7215 113.662 20.4411 113.031 20.4411C112.26 20.4411 111.559 20.6164 110.875 20.9318C110.805 20.9668 110.735 21.0019 110.665 21.0369C110.647 21.0544 110.63 21.072 110.595 21.1245H111.173C112.207 21.1596 112.996 21.8956 113.083 22.8944C113.101 23.0696 113.083 23.2448 113.048 23.385C112.891 24.4364 111.839 25.1723 110.7 25.0497C109.648 24.9445 108.965 24.0859 108.982 23.017C109 22.4037 109.245 21.8956 109.683 21.4575C110.314 20.8091 111.138 20.4587 111.997 20.2659C113.294 19.9855 114.591 20.0206 115.87 20.336C117.623 20.7916 118.639 22.0182 118.779 23.8056C118.814 24.2086 118.832 24.5941 118.832 24.9971V31.393C118.832 31.5507 118.832 31.7084 118.849 31.8661C118.92 32.4619 119.375 32.7598 119.936 32.532C120.146 32.4444 120.392 32.3217 120.567 32.1465C120.795 31.9187 120.988 31.6383 121.198 31.3755C121.215 31.3054 121.25 31.2002 121.338 31.0951ZM115.116 26.1887C114.853 26.1887 114.556 26.1712 114.258 26.1887C113.662 26.2237 113.189 26.4866 112.82 26.9422C112.61 27.205 112.435 27.4854 112.312 27.8008C111.944 28.6419 111.927 29.5356 112.032 30.4292C112.084 30.8147 112.19 31.2002 112.4 31.5157C112.68 31.9537 113.066 32.1114 113.574 31.9888C113.925 31.9187 114.205 31.6909 114.415 31.4105C114.678 31.0776 114.836 30.6921 114.924 30.2891C115.274 28.9573 115.186 27.5905 115.151 26.2412C115.186 26.2412 115.169 26.2412 115.116 26.1887Z" fill="#01004C"/>
<path d="M51.0949 31.1454C51.0598 31.2506 51.0247 31.3732 50.9897 31.4784C50.6041 32.2494 49.9557 32.7751 49.1319 33.0379C48.2732 33.3183 47.3969 33.3183 46.5381 33.0905C45.469 32.8101 44.9257 32.0917 44.8556 30.9877C44.8556 30.8476 44.8556 30.7074 44.7855 30.5321C44.7504 30.6022 44.7154 30.6723 44.6803 30.7424C44.6102 30.9176 44.5577 31.0929 44.47 31.2331C43.9442 32.4071 43.0154 33.0204 41.771 33.1781C41.2102 33.2482 40.6318 33.2482 40.071 33.108C38.7215 32.7576 37.7926 31.601 37.705 30.1291C37.5998 28.4469 38.3534 27.2028 39.8957 26.5194C40.5968 26.204 41.3504 26.0287 42.104 26.0112C42.8576 25.9586 43.5937 25.9762 44.3473 25.9586H44.803C44.803 25.4154 44.8205 24.9248 44.803 24.4517C44.7855 23.6982 44.7329 22.9622 44.5226 22.2263C44.3999 21.8232 44.2422 21.4202 43.9793 21.0697C43.6288 20.6317 43.2082 20.4214 42.6473 20.4039C41.8061 20.3863 41.0349 20.5966 40.2988 20.9821C40.2287 21.0172 40.1762 21.0522 40.071 21.1223C40.3865 21.1223 40.6143 21.1048 40.8421 21.1223C41.6133 21.1924 42.2092 21.5779 42.5071 22.3139C42.8051 23.0323 42.6824 23.7157 42.1741 24.3115C41.6133 24.9774 40.5968 25.2402 39.7731 24.9423C38.7565 24.5919 38.2833 23.4353 38.6689 22.3489C38.8617 21.8057 39.2297 21.4027 39.7029 21.0697C40.3514 20.5966 41.105 20.3338 41.8762 20.2111C42.9978 20.0184 44.1195 20.0359 45.2236 20.2987C47.2216 20.7718 48.2732 22.0335 48.3608 24.0837C48.3783 24.3641 48.3783 24.6619 48.3783 24.9423V31.8464C48.4484 32.5122 48.9567 32.8276 49.5701 32.5298C49.833 32.4071 50.0608 32.2143 50.2887 32.0216C50.4814 31.8288 50.6041 31.5835 50.7619 31.3732C50.832 31.3031 50.867 31.2155 50.9196 31.1454C51.0072 31.1279 51.0423 31.1279 51.0949 31.1454ZM44.7855 26.1864C44.47 26.1864 44.1896 26.1689 43.9092 26.1864C43.3133 26.2215 42.8401 26.4843 42.4721 26.9399C42.2793 27.1677 42.104 27.4306 41.9813 27.7109C41.5081 28.7623 41.4906 29.8663 41.8061 30.9702C41.8762 31.1805 41.9638 31.3908 42.0865 31.566C42.3319 31.934 42.7174 32.0742 43.1556 32.0041C43.6112 31.9165 43.9267 31.6361 44.1546 31.2681C44.4525 30.795 44.6102 30.2868 44.6979 29.7436C44.8906 28.6221 44.8381 27.4656 44.8381 26.3266C44.8381 26.2916 44.8205 26.2565 44.7855 26.1864Z" fill="#01004C"/>
<path d="M53.9608 12.6242H52.0154C51.9979 12.6242 51.9804 12.5891 51.9453 12.5366C52.0154 12.5015 52.103 12.449 52.1556 12.449C52.5061 12.4314 52.8216 12.449 53.1721 12.449H57.6062V32.7756H58.6928C59.0258 32.7931 59.3413 32.723 59.6743 32.8983C59.6042 32.9333 59.5691 32.9683 59.499 32.9859C59.4114 33.0034 59.3062 32.9859 59.2361 32.9859H52.401C52.2608 32.9859 52.103 32.9508 51.9628 32.9508C51.9628 32.9158 51.9628 32.8807 51.9453 32.8457C52.0154 32.8282 52.1206 32.7756 52.1907 32.7756H53.9258C53.9608 32.7405 53.9783 32.723 53.9783 32.723C53.9783 32.723 53.9959 32.7055 53.9959 32.688C53.9959 32.6179 54.0134 32.5303 54.0134 32.4602V12.8345C54.0134 12.7819 53.9959 12.7293 53.9608 12.6242Z" fill="#01004C"/>
<path d="M35.6846 25.9107H28.2711C28.2535 25.9808 28.2185 26.0158 28.2185 26.0684C28.201 27.4702 28.236 28.8545 28.5515 30.2388C28.6742 30.782 28.8494 31.3077 29.1298 31.7984C29.6206 32.6395 30.3391 32.9899 31.3031 32.8848C32.7051 32.7446 33.7917 32.0787 34.5979 30.9573C34.9835 30.4316 35.2464 29.8533 35.4567 29.2225C35.4918 29.1349 35.5268 29.0297 35.5619 28.9246C35.7722 29.0122 35.6846 29.1699 35.6495 29.2751C35.4392 29.9935 35.1062 30.6769 34.633 31.2727C33.7567 32.3766 32.6175 33.0075 31.233 33.1652C30.0061 33.3229 28.7968 33.2177 27.6752 32.7096C26.2556 32.0787 25.2566 31.0274 24.7308 29.573C24.0122 27.5929 23.9947 25.5952 24.7483 23.6152C25.537 21.5299 27.1143 20.3734 29.3051 20.0755C30.2164 19.9529 31.1453 19.9879 32.0216 20.2683C33.9144 20.864 35.0186 22.2308 35.4742 24.1058C35.5969 24.5789 35.6145 25.0696 35.667 25.5777C35.7196 25.6829 35.7021 25.7705 35.6846 25.9107ZM28.2185 25.7004C29.4804 25.7004 30.6721 25.7179 31.8989 25.6829C31.9165 24.5439 31.8639 23.4925 31.6886 22.4236C31.601 21.8979 31.4783 21.3722 31.1979 20.9166C30.7247 20.1106 29.8659 20.0229 29.3051 20.7414C29.0948 21.0042 28.9195 21.3372 28.8144 21.6526C28.3412 22.9493 28.2535 24.281 28.2185 25.7004Z" fill="#01004C"/>
<path d="M135.737 32.8486C135.667 32.9011 135.632 32.9537 135.562 32.9537C135.474 32.9712 135.369 32.9712 135.299 32.9712H129.375C129.235 32.9712 129.06 33.0413 128.937 32.8135C129.428 32.6733 129.901 32.8135 130.427 32.7259C130.164 32.1827 129.848 31.6745 129.568 31.1664C129.287 30.6582 128.972 30.115 128.692 29.6068C128.394 29.0987 128.113 28.573 127.78 28.0122C126.588 29.6068 125.449 31.1313 124.24 32.7084C124.415 32.7259 124.503 32.7434 124.59 32.7434H126.308C126.431 32.7434 126.536 32.7785 126.676 32.796C126.588 33.0238 126.413 32.9712 126.29 32.9712H122.382C122.312 32.9712 122.242 32.9187 122.172 32.9011V32.8135C122.26 32.796 122.365 32.761 122.452 32.761H123.697C123.854 32.761 123.96 32.7259 124.047 32.6033C125.239 31.0087 126.413 29.4491 127.605 27.8545C127.605 27.837 127.622 27.8195 127.64 27.7844C127.605 27.7143 127.57 27.6092 127.517 27.5391C126.255 25.3137 124.994 23.0883 123.749 20.8629C123.627 20.6526 123.504 20.5299 123.241 20.5475C123.031 20.565 122.803 20.565 122.593 20.5475C122.505 20.5475 122.4 20.5124 122.295 20.4774C122.382 20.2671 122.522 20.3197 122.645 20.3197H128.902C129.042 20.3197 129.165 20.3372 129.305 20.3372C129.305 20.3722 129.322 20.4073 129.322 20.4248C129.252 20.4598 129.182 20.5124 129.112 20.5124C128.814 20.5299 128.516 20.5124 128.218 20.5124H127.78C127.85 20.8103 129.743 24.1572 130.076 24.5602C131.093 23.2285 132.074 21.9142 133.091 20.5475C132.407 20.5124 131.794 20.4774 131.198 20.4423C131.198 20.4423 131.18 20.3897 131.163 20.3547C131.233 20.3372 131.32 20.3021 131.391 20.3021C132.775 20.232 135.089 20.2846 135.369 20.3722C135.351 20.5475 135.211 20.5124 135.106 20.5124C134.65 20.5124 134.195 20.5299 133.757 20.5124C133.476 20.4949 133.301 20.6 133.143 20.8278C132.232 22.0544 131.32 23.2635 130.409 24.4901C130.339 24.5953 130.251 24.7179 130.164 24.8406C130.409 25.2611 130.654 25.6817 130.882 26.0847C132.074 28.1875 133.301 30.2727 134.493 32.3755C134.65 32.6383 134.808 32.7434 135.106 32.7259C135.281 32.7434 135.509 32.6733 135.737 32.8486Z" fill="#01004C"/>
<path d="M66.0055 20.3184H67.3375C67.7581 20.3184 68.1787 20.2833 68.6169 20.3534C68.5468 20.5637 68.4065 20.5462 68.2663 20.5462H66.023C66.0055 20.6689 65.9704 20.7565 65.9704 20.8791V30.7621C65.9704 31.095 66.0055 31.428 66.0756 31.7609C66.2158 32.3917 66.6014 32.5845 67.2148 32.3742C67.5653 32.2515 67.8457 32.0237 68.1086 31.7609C68.4942 31.3579 68.7921 30.8847 69.02 30.3591C69.0725 30.2539 69.1251 30.1488 69.1777 30.0261C69.2127 30.0261 69.2478 30.0436 69.2653 30.0436C69.2653 30.1137 69.3179 30.2189 69.2828 30.2714C68.8096 31.5681 67.723 32.9349 65.7952 33.1277C65.5148 33.1627 65.2168 33.1452 64.9364 33.1452C63.4817 33.0751 62.6405 32.2866 62.4652 30.8497C62.4127 30.4467 62.3951 30.0261 62.3951 29.6056V20.5637C61.7817 20.5287 61.2209 20.4936 60.6601 20.4586C60.6425 20.4586 60.6425 20.406 60.625 20.371C60.9054 20.2483 61.2034 20.3184 61.4838 20.3009C61.7642 20.2833 62.0446 20.3009 62.3776 20.3009V17.5848C63.6219 17.5147 64.8137 17.357 65.9003 16.7612C66.0405 17.0766 65.9704 17.357 65.9704 17.6374C65.988 17.9353 65.9704 18.2332 65.9704 18.531V19.3897L66.0055 20.3184Z" fill="#01004C"/>
<path d="M164.393 15.5161C164.638 15.5862 164.883 15.6388 165.129 15.7264C165.795 15.9542 166.461 16.1995 167.144 16.4448C167.285 16.4974 167.407 16.5675 167.53 16.4448C167.425 16.1469 166.566 15.411 165.882 15.0605C165.234 14.71 164.533 14.4998 163.797 14.3596V14.2895C163.902 14.2895 164.007 14.272 164.112 14.272C165.462 14.3946 166.741 14.8152 167.951 15.4635C168.985 16.0067 169.878 16.7077 170.772 17.4436C171.578 18.1095 172.507 18.6352 173.489 18.9857C174.295 19.266 175.136 19.3712 176.013 19.3887C177.38 19.4062 178.676 19.0733 179.903 18.4775C180.745 18.0569 181.165 17.3911 181.13 16.4623C181.113 16.0593 181.06 15.6388 180.99 15.2357C180.78 14.3245 180.149 13.8514 179.29 13.6061C178.799 13.4659 178.291 13.4484 177.8 13.5535C177.485 13.6236 177.292 13.7638 177.117 14.0442C176.433 15.2708 175.382 15.8841 173.962 15.7789C173.629 15.7614 173.331 15.6738 173.051 15.4811C173.068 15.446 173.068 15.411 173.086 15.411C173.576 15.3409 173.857 15.0079 174.137 14.64C174.383 14.2895 174.61 13.939 174.891 13.501C174.751 14.0091 174.681 14.4472 174.418 14.8327C174.383 14.8853 174.33 14.9203 174.312 14.9904C174.225 15.1832 174.312 15.3234 174.523 15.3234C174.593 15.3234 174.681 15.3058 174.751 15.2708C175.417 15.1306 175.925 14.7451 176.346 14.2194C176.398 14.1668 176.433 14.1143 176.451 14.0617C176.468 13.9741 176.451 13.8514 176.398 13.7813C176.363 13.7288 176.223 13.7288 176.17 13.7463C175.96 13.8164 175.767 13.904 175.557 13.9566C175.697 13.7288 175.942 13.6061 176.153 13.4659C176.275 13.3958 176.486 13.3433 176.433 13.133C176.381 12.9578 176.205 12.9402 176.048 12.9402C175.977 12.9402 175.907 12.9227 175.837 12.8701C176.258 12.73 176.678 12.6599 177.099 12.8C177.344 12.8877 177.59 12.9052 177.853 12.8701C178.869 12.7825 179.833 12.8351 180.709 13.4309C181.27 13.7989 181.656 14.2895 181.849 14.9378C182.199 16.1119 182.024 17.1983 181.393 18.2146C180.955 18.9156 180.289 19.3186 179.553 19.669C178.028 20.3875 176.416 20.5627 174.751 20.3524C173.156 20.1422 171.666 19.599 170.264 18.8279C170.106 18.7403 169.949 18.6527 169.791 18.5651C169.773 18.5651 169.756 18.5651 169.721 18.5826C169.703 18.6527 169.651 18.7053 169.668 18.7754C169.913 20.4576 170.492 21.9996 171.684 23.2613C172.069 23.6818 172.227 24.19 172.367 24.7332C172.7 25.9598 172.963 27.2214 173.103 28.5006C173.191 29.3593 173.191 30.2354 173.243 31.094V31.3569C173.261 31.6372 173.331 31.7424 173.611 31.7424C174.681 31.7949 175.662 32.2505 176.696 32.4959C176.731 32.4959 176.766 32.5309 176.784 32.5484V32.601C176.784 32.6185 176.766 32.636 176.766 32.636C175.224 32.636 173.682 32.6536 172.157 32.6536C172.087 32.6536 172.034 32.636 171.982 32.6185C172.157 31.3919 172.069 30.1828 171.911 28.9913C171.771 27.9399 171.561 26.9411 171.228 25.9247C171.21 25.8547 171.193 25.7846 171.175 25.7145C171.21 25.6969 171.228 25.6794 171.245 25.6619C171.316 25.7495 171.386 25.8547 171.438 25.9598C171.666 26.4504 171.911 26.9761 172.139 27.4668C172.192 27.5719 172.227 27.677 172.297 27.7822C172.332 27.8348 172.402 27.8523 172.455 27.8523C172.507 27.8348 172.525 27.7647 172.542 27.6946C172.56 27.677 172.542 27.642 172.525 27.6245C172.262 26.7659 172.017 25.9072 171.736 25.0661C171.543 24.5404 171.245 24.0848 170.79 23.7344C170.176 23.2437 169.843 22.5428 169.545 21.8419C169.247 21.141 168.967 20.4401 168.687 19.7216C168.073 18.127 166.987 17.0056 165.514 16.1995C165.164 16.0067 164.778 15.814 164.428 15.6212C164.375 15.5862 164.393 15.5512 164.393 15.5161Z" fill="#EB7124"/>
<path d="M6.30469 40.3468V39.8562C6.40984 39.8386 6.515 39.8036 6.60263 39.8036H82.5253V40.3118C82.5019 40.3351 82.4844 40.3526 82.4727 40.3643C82.461 40.376 82.4493 40.3818 82.4377 40.3818C82.3851 40.3994 82.3325 40.4169 82.2799 40.4169H6.65521C6.5851 40.4169 6.49747 40.4169 6.42737 40.3994C6.39232 40.3994 6.37479 40.3818 6.30469 40.3468Z" fill="#EB7124"/>
<path d="M146.268 35.4068C146.058 35.3893 145.9 35.3718 145.76 35.3542C145.742 35.3542 145.742 35.3367 145.725 35.3367C145.935 35.2316 146.689 35.1965 147.302 35.2842V43.152C147.512 43.1695 147.705 43.2045 147.88 43.2221V43.2921H146.338V42.2933C146.321 42.2758 146.286 42.2758 146.268 42.2583C146.216 42.3284 146.18 42.381 146.145 42.451C145.672 43.4499 144.813 43.5725 143.972 43.2571C143.481 43.0644 143.113 42.7665 142.886 42.3109C142.377 41.3296 142.36 40.3132 142.903 39.3495C143.254 38.7011 143.85 38.2981 144.621 38.2631C145.269 38.2105 145.742 38.4909 146.058 39.0516C146.128 39.1743 146.18 39.2794 146.286 39.4721V35.4068H146.268ZM146.321 41.0317C146.286 40.3308 146.251 39.8401 146.04 39.3495C145.918 39.0516 145.742 38.8063 145.479 38.6135C144.989 38.2631 144.393 38.3682 144.077 38.8939C143.92 39.1392 143.832 39.4371 143.762 39.7175C143.604 40.3483 143.639 40.9791 143.692 41.5924C143.744 41.9779 143.814 42.3634 144.042 42.6964C144.393 43.2571 145.006 43.3622 145.532 42.9767C145.795 42.7665 145.988 42.5036 146.075 42.2057C146.18 41.7501 146.251 41.3121 146.321 41.0317Z" fill="#01004C"/>
<path d="M88.6249 39.4002V43.1851H89.1331C89.2733 43.1851 89.4311 43.2026 89.5713 43.2377C89.3084 43.3428 87.2053 43.3604 86.6094 43.3078C86.9073 43.0975 87.2228 43.2903 87.5032 43.1676V35.4049C87.2228 35.3874 86.9248 35.3874 86.6444 35.3699C86.9073 35.2297 91.2888 35.1946 91.9548 35.2823C92.0249 35.5626 92.0424 37.0521 91.9548 37.5603C91.9022 37.4025 91.8847 37.3325 91.8847 37.2624C91.8146 36.9119 91.762 36.579 91.6218 36.246C91.4115 35.7554 91.0084 35.4575 90.4826 35.4224C89.8692 35.3699 89.2558 35.4049 88.6073 35.4049V39.2249C88.9754 39.2775 89.361 39.26 89.729 39.1373C90.1496 39.0147 90.2898 38.6467 90.3599 38.2261C90.4826 38.5415 90.4826 40.0485 90.3775 40.4866C90.3424 40.3464 90.3074 40.2763 90.3074 40.2062C90.2373 39.8558 90.0094 39.6104 89.6764 39.4878C89.4311 39.3651 89.028 39.3476 88.6249 39.4002Z" fill="#01004C"/>
<path d="M97.5636 43.1514C97.7915 43.1689 97.9667 43.204 98.1946 43.2215C97.8791 43.3441 96.3894 43.3617 95.9863 43.2215C96.1791 43.204 96.3368 43.1864 96.5471 43.1514V38.5078C96.3543 38.4903 96.1791 38.4728 95.9688 38.4377C96.1791 38.2975 96.8801 38.28 97.5636 38.3676V39.3664C97.5987 39.3664 97.6162 39.3839 97.6337 39.3839C97.6863 39.2788 97.7389 39.1737 97.809 39.051C98.2471 38.245 99.3688 37.9295 100.157 38.4202C100.42 38.5779 100.578 38.8057 100.648 39.1036C100.701 39.3489 100.718 39.6117 100.736 39.8746C100.753 40.8208 100.736 41.7496 100.736 42.7133V43.1339C100.946 43.1689 101.139 43.1864 101.332 43.204V43.274H99.176C99.176 43.2565 99.176 43.2215 99.1585 43.204C99.2461 43.1864 99.3513 43.1689 99.4389 43.1514C99.5265 43.1339 99.6142 43.1339 99.7193 43.1163C99.7193 43.0112 99.7368 42.9061 99.7368 42.8009C99.7368 41.7496 99.7368 40.6807 99.7193 39.6293C99.7193 39.3664 99.6843 39.0861 99.6142 38.8232C99.5265 38.4728 99.3337 38.3326 98.9657 38.3676C98.5626 38.4027 98.2647 38.6129 98.0543 38.9284C97.844 39.2438 97.7214 39.5942 97.6688 39.9797C97.511 41.0486 97.5987 42.0825 97.5636 43.1514Z" fill="#01004C"/>
<path d="M138.231 35.0875C139.142 37.7685 140.036 40.4496 140.947 43.1481C141.193 43.1656 141.438 43.1831 141.701 43.2007C141.456 43.3233 139.282 43.3759 138.651 43.2707C139.002 43.078 139.37 43.2532 139.72 43.1306C139.475 42.342 139.23 41.5535 138.984 40.765H136.338C136.075 41.536 135.812 42.3245 135.532 43.1656C135.935 43.1831 136.303 43.1831 136.653 43.2007C136.426 43.3408 134.971 43.3759 134.375 43.2707C134.726 43.0955 135.041 43.2357 135.392 43.1306C136.303 40.4671 137.214 37.7861 138.108 35.105C138.143 35.105 138.196 35.105 138.231 35.0875ZM137.758 36.8398C137.722 36.8398 137.705 36.8398 137.687 36.8223C137.267 38.0664 136.846 39.3106 136.408 40.5722H138.932C138.529 39.3106 138.143 38.084 137.758 36.8398Z" fill="#01004C"/>
<path d="M109.55 43.1509C109.725 43.1685 109.9 43.186 110.093 43.2035C109.865 43.3262 108.621 43.3612 107.885 43.2736C108.06 43.0633 108.288 43.2385 108.481 43.1159V38.5073C108.27 38.4898 108.095 38.4723 107.867 38.4373C108.095 38.3146 108.849 38.2795 109.48 38.3672V39.3835C109.515 39.3835 109.532 39.3835 109.55 39.401C109.62 39.2784 109.672 39.1557 109.742 39.0506C110.181 38.262 111.355 37.9992 112.108 38.4898C112.406 38.7001 112.547 38.998 112.599 39.3484C112.634 39.5762 112.634 39.8216 112.652 40.0494V43.1685C112.862 43.2035 113.055 43.221 113.283 43.2385C113.002 43.3437 111.6 43.3787 111.039 43.3086C111.215 43.1334 111.425 43.2736 111.618 43.1509C111.618 43.0984 111.653 43.0283 111.653 42.9582C111.653 41.8017 111.635 40.6627 111.618 39.5062C111.618 39.2784 111.565 39.033 111.513 38.8228C111.425 38.5073 111.25 38.4197 110.917 38.4373C110.444 38.4723 110.128 38.7001 109.883 39.0856C109.655 39.4711 109.532 39.9267 109.515 40.3823C109.48 41.2935 109.497 42.1872 109.497 43.0984C109.515 43.0984 109.532 43.1159 109.55 43.1509Z" fill="#01004C"/>
<path d="M103.244 38.7536C103.366 38.7886 103.436 38.8062 103.506 38.8237C103.822 38.9463 103.945 39.2267 103.857 39.5597C103.787 39.8575 103.506 40.0503 103.173 40.0153C102.858 39.9802 102.683 39.7699 102.683 39.4195C102.683 39.1216 102.805 38.8763 103.033 38.7361C103.279 38.5784 103.542 38.4557 103.839 38.3681C104.313 38.2279 104.786 38.2454 105.259 38.3506C105.767 38.4732 106.1 38.8062 106.17 39.3319C106.223 39.6122 106.241 39.8926 106.241 40.1905V42.854C106.276 43.1694 106.486 43.292 106.749 43.1168C106.889 43.0467 106.994 42.889 107.099 42.7664C107.152 42.7138 107.187 42.6787 107.292 42.5736C107.152 43.0818 106.749 43.3972 106.223 43.4147C105.662 43.4322 105.399 43.222 105.171 42.5736C105.136 42.6262 105.101 42.6437 105.084 42.6963C104.663 43.5374 103.436 43.5374 102.876 43.1694C102.122 42.6787 102.104 41.5222 102.823 40.979C103.138 40.7512 103.506 40.6286 103.892 40.5935C104.19 40.5585 104.488 40.5409 104.786 40.5234H105.189C105.259 39.9802 105.242 39.472 105.066 38.9639C104.926 38.5608 104.663 38.3681 104.243 38.4031C103.927 38.4557 103.577 38.5083 103.244 38.7536ZM105.277 40.6811H104.663C104.032 40.6986 103.612 41.0316 103.489 41.6098C103.419 41.9253 103.454 42.2407 103.489 42.5561C103.524 42.8189 103.664 43.0818 103.98 43.1519C104.313 43.222 104.611 43.1168 104.803 42.854C104.961 42.6262 105.101 42.3458 105.154 42.0654C105.242 41.6274 105.224 41.1893 105.277 40.6811Z" fill="#01004C"/>
<path d="M127.712 42.624C127.624 43.1146 127.221 43.395 126.713 43.43C126.17 43.4651 125.942 43.2899 125.661 42.6415C125.644 42.659 125.609 42.659 125.591 42.6941C125.241 43.395 124.417 43.5702 123.751 43.3775C123.26 43.2548 122.91 42.9219 122.822 42.3962C122.717 41.8355 122.857 41.3448 123.33 40.9943C123.681 40.7666 124.049 40.6439 124.452 40.6088C124.838 40.5738 125.241 40.5563 125.679 40.5388C125.714 40.0481 125.749 39.5224 125.591 39.0493C125.451 38.6112 125.171 38.4185 124.715 38.436C124.312 38.4535 124.049 38.5411 123.786 38.7865C123.856 38.804 123.944 38.8215 123.996 38.8565C124.294 38.9792 124.434 39.2946 124.347 39.5925C124.259 39.9079 123.909 40.0832 123.576 40.0131C123.295 39.943 123.12 39.6626 123.155 39.3647C123.19 39.1194 123.313 38.8916 123.523 38.7514C124.312 38.2432 125.153 38.1556 126.029 38.5061C126.467 38.6813 126.643 39.0843 126.678 39.5399C126.713 39.8028 126.713 40.0481 126.713 40.311V42.7116C126.713 42.9044 126.678 43.1146 126.923 43.2022C127.151 43.2723 127.309 43.1322 127.466 42.992C127.537 42.8343 127.624 42.7291 127.712 42.624ZM125.679 40.6789H125.241C124.329 40.6264 123.909 41.2397 123.891 41.9932C123.874 42.2034 123.909 42.4312 123.961 42.6415C124.119 43.2198 124.68 43.3775 125.153 42.992C125.381 42.7817 125.504 42.5188 125.591 42.221C125.714 41.7303 125.679 41.2221 125.679 40.6789Z" fill="#01004C"/>
<path d="M129.15 35.3866H128.344C128.554 35.2289 129.255 35.1938 130.096 35.2814C130.108 35.2931 130.119 35.3048 130.131 35.3165C130.131 35.334 130.149 35.334 130.166 35.3515C130.166 35.3866 130.184 35.4041 130.184 35.4216V35.5443C130.184 38.0676 130.184 40.5909 130.201 43.1142C130.201 43.1317 130.219 43.1492 130.236 43.1843C130.464 43.2018 130.727 43.2193 130.972 43.2369V43.307H128.361C128.624 43.0967 128.904 43.2719 129.167 43.1492V35.3866H129.15Z" fill="#01004C"/>
<path d="M167.071 41.7833C167.019 42.5543 166.353 43.2202 165.564 43.3779C163.97 43.6933 162.673 42.642 162.62 41.0298C162.603 40.5392 162.655 40.0486 162.848 39.593C163.216 38.7869 163.864 38.3313 164.741 38.2612C165.003 38.2437 165.284 38.2437 165.547 38.2963C166.563 38.5065 167.176 39.3652 167.106 40.5217C166.02 40.5742 164.916 40.5217 163.777 40.5567C163.742 41.3277 163.759 42.0812 164.145 42.7471C164.373 43.1326 164.758 43.2903 165.196 43.2728C165.985 43.2202 166.545 42.8172 166.896 42.0987C166.966 41.9936 167.001 41.8885 167.071 41.7833ZM165.95 40.3815C165.985 39.8908 165.932 39.4353 165.757 38.9972C165.634 38.6642 165.406 38.4189 165.021 38.3839C164.653 38.3663 164.355 38.5241 164.145 38.857C163.864 39.3301 163.777 39.8383 163.759 40.3815H165.95Z" fill="#01004C"/>
<path d="M118.091 39.0492C117.741 38.5586 117.25 38.3834 116.655 38.4009C116.129 38.4184 115.796 38.7513 115.603 39.1894C115.323 39.8728 115.288 40.5912 115.34 41.3272C115.375 41.6777 115.41 42.0281 115.533 42.3611C115.831 43.2898 116.742 43.5526 117.548 42.9919C117.881 42.7641 118.074 42.4312 118.232 42.0807C118.267 41.9931 118.302 41.8879 118.424 41.8179C118.407 41.8879 118.424 41.9756 118.389 42.0457C118.109 42.7816 117.671 43.3424 116.83 43.4124C115.919 43.5001 115.165 43.2197 114.639 42.4662C114.236 41.8704 114.149 41.2046 114.201 40.5036C114.219 40.3109 114.271 40.1532 114.306 39.9779C114.762 38.4184 116.216 38.0329 117.373 38.3834C118.056 38.5936 118.459 39.1544 118.389 39.7677C118.354 40.0831 118.179 40.2758 117.899 40.3284C117.653 40.3634 117.426 40.2934 117.268 40.1006C117.11 39.8903 117.093 39.6275 117.233 39.3997C117.355 39.1894 117.583 39.0843 117.829 39.1193C117.899 39.1368 117.986 39.1544 118.039 39.1719C118.074 39.0843 118.074 39.0667 118.091 39.0492Z" fill="#01004C"/>
<path d="M168.646 38.5052C168.436 38.4876 168.261 38.4701 168.033 38.4526C168.261 38.3124 169.014 38.2949 169.628 38.3825V39.2411C169.663 39.2411 169.68 39.2411 169.698 39.2587C169.768 39.1009 169.856 38.9432 169.943 38.7855C170.224 38.3475 170.644 38.1722 171.135 38.2774C171.608 38.365 171.923 38.768 171.888 39.2061C171.853 39.5565 171.608 39.8194 171.257 39.8194C170.907 39.8194 170.662 39.6266 170.627 39.3112C170.574 38.9608 170.767 38.6804 171.117 38.5928C171.187 38.5753 171.257 38.5753 171.345 38.5577C170.924 38.3124 170.469 38.3475 170.171 38.6979C169.996 38.9082 169.873 39.1535 169.803 39.3988C169.715 39.7143 169.645 40.0472 169.628 40.3976C169.593 41.2738 169.61 42.1324 169.61 42.991C169.61 43.0436 169.628 43.0787 169.645 43.1663C169.838 43.1838 170.013 43.2013 170.259 43.2364C169.961 43.359 168.699 43.3766 168.016 43.3065C168.191 43.1137 168.419 43.2714 168.611 43.1488L168.646 38.5052Z" fill="#01004C"/>
<path d="M158.46 42.9744C158.285 43.1321 158.145 43.2723 157.987 43.43C157.864 43.1496 157.847 42.291 157.952 41.8529C158.004 41.958 158.022 42.0281 158.039 42.0807C158.32 43.0094 159.459 43.5526 160.352 43.1671C160.703 43.0269 160.878 42.7816 160.913 42.3961C160.948 42.0281 160.738 41.7653 160.423 41.6251C160.125 41.4849 159.809 41.4148 159.511 41.2746C159.231 41.1695 158.916 41.0644 158.67 40.9067C158.092 40.5562 157.882 39.9429 158.057 39.2945C158.232 38.6637 158.723 38.2782 159.389 38.2432C159.862 38.2256 160.282 38.3658 160.685 38.6462C160.843 38.506 160.983 38.3833 161.141 38.2432C161.246 38.4885 161.264 39.2595 161.176 39.7852C161.123 39.68 161.088 39.61 161.071 39.5574C160.843 38.7163 159.985 38.2081 159.143 38.4184C158.968 38.471 158.793 38.5761 158.653 38.7163C158.407 38.9616 158.442 39.3471 158.705 39.5749C158.881 39.7326 159.091 39.8378 159.301 39.9254C159.581 40.048 159.879 40.1356 160.177 40.2583C160.335 40.3284 160.493 40.381 160.65 40.4511C161.369 40.8015 161.649 41.3097 161.544 42.0456C161.456 42.694 160.931 43.2372 160.247 43.3774C159.599 43.5176 159.021 43.3774 158.46 42.9744Z" fill="#01004C"/>
<path d="M175.612 38.6637C175.77 38.506 175.91 38.3833 176.05 38.2432C176.156 38.4885 176.191 39.2069 176.103 39.7852C176.05 39.68 176.015 39.6275 175.998 39.5749C175.77 38.7338 174.911 38.2256 174.07 38.4359C173.913 38.471 173.755 38.5586 173.632 38.6637C173.352 38.909 173.334 39.3296 173.632 39.5749C173.808 39.7326 174.018 39.8378 174.228 39.9254C174.508 40.048 174.806 40.1356 175.104 40.2408C175.262 40.3109 175.42 40.3634 175.577 40.4335C176.296 40.784 176.576 41.2922 176.471 42.0281C176.383 42.6765 175.858 43.2197 175.174 43.3599C174.543 43.5001 173.948 43.3599 173.404 42.9744C173.229 43.1145 173.072 43.2723 172.844 43.465V41.9055C172.861 41.9055 172.879 41.8879 172.914 41.8879C172.949 41.958 172.966 42.0106 172.984 42.0807C173.264 43.0269 174.386 43.5526 175.279 43.1671C175.63 43.0269 175.823 42.7816 175.84 42.3961C175.875 42.0281 175.665 41.7653 175.35 41.6251C175.052 41.4849 174.736 41.3973 174.438 41.2746C174.158 41.1695 173.843 41.0644 173.597 40.9067C173.019 40.5562 172.809 39.9604 172.984 39.2945C173.159 38.6637 173.65 38.2782 174.316 38.2432C174.771 38.2432 175.192 38.3833 175.612 38.6637Z" fill="#01004C"/>
<path d="M151.585 42.0116C152.076 40.82 152.514 39.681 153.004 38.4544H152.023C152.286 38.2967 153.232 38.2792 153.898 38.3668C153.67 38.5595 153.407 38.4194 153.145 38.507C152.479 40.1016 151.848 41.7838 151.129 43.4134C150.393 41.7838 149.78 40.1366 149.114 38.4895C148.921 38.4719 148.746 38.4544 148.57 38.4194C148.886 38.2967 150.708 38.2792 151.094 38.3843C150.814 38.507 150.551 38.4018 150.323 38.4719C150.288 38.7873 151.304 41.556 151.585 42.0116Z" fill="#01004C"/>
<path d="M156.243 43.1513C156.453 43.1688 156.629 43.1863 156.874 43.2214C156.611 43.344 155.349 43.3791 154.648 43.2915C154.824 43.0812 155.051 43.2564 155.244 43.1338V38.5077C155.034 38.4902 154.859 38.4727 154.648 38.4376C154.859 38.3149 155.525 38.2799 156.243 38.3675C156.243 38.8757 156.261 39.4189 156.261 39.9271V41.5217C156.243 42.0649 156.243 42.5906 156.243 43.1513Z" fill="#01004C"/>
<path d="M92.9238 43.2015C93.099 43.184 93.2742 43.1665 93.467 43.1489V38.5054C93.2567 38.4878 93.099 38.4703 92.9062 38.4528V38.3652C93.1516 38.3652 93.3969 38.3477 93.6422 38.3477H94.4483C94.4658 38.5229 94.4833 38.6631 94.4833 38.8208V43.1665C94.6936 43.184 94.8863 43.219 95.0616 43.2366V43.3067H92.9062C92.9238 43.2541 92.9238 43.2366 92.9238 43.2015Z" fill="#01004C"/>
<path d="M121.102 43.1482C121.348 43.1657 121.523 43.1832 121.698 43.2007C121.435 43.3234 119.981 43.3409 119.508 43.2708C119.701 43.1131 119.893 43.2358 120.069 43.1482C120.139 42.8678 120.174 38.9952 120.104 38.5046C119.911 38.487 119.753 38.4695 119.508 38.4345C119.788 38.3118 120.612 38.2943 121.12 38.3819L121.102 43.1482Z" fill="#01004C"/>
<path d="M93.8905 36.476C93.5401 36.476 93.2422 36.1606 93.2422 35.8101C93.2422 35.4421 93.5576 35.1617 93.9081 35.1617C94.276 35.1617 94.5389 35.4596 94.5389 35.8276C94.5389 36.1956 94.2585 36.4935 93.8905 36.476Z" fill="#01004C"/>
<path d="M120.518 35.1617C120.886 35.1617 121.167 35.4421 121.167 35.8101C121.167 36.1781 120.886 36.476 120.518 36.476C120.15 36.476 119.87 36.1781 119.852 35.8276C119.835 35.4772 120.133 35.1617 120.518 35.1617Z" fill="#01004C"/>
<path d="M155.665 35.1625C156.015 35.1625 156.313 35.4779 156.313 35.8459C156.296 36.1964 155.998 36.4943 155.647 36.4943C155.279 36.4943 155.016 36.1964 155.016 35.8109C154.999 35.4254 155.279 35.145 155.665 35.1625Z" fill="#01004C"/>
</svg>
