<?xml version="1.0" encoding="UTF-8"?>
<svg id="Layer_1" xmlns="http://www.w3.org/2000/svg" version="1.1" viewBox="0 0 1024 768">
  <!-- Generator: Adobe Illustrator 29.8.1, SVG Export Plug-In . SVG Version: 2.1.1 Build 2)  -->
  <defs>
    <style>
      .st0 {
        fill: #b6cc00;
      }

      .st1 {
        fill: #fff;
      }
    </style>
  </defs>
  <polygon class="st1" points="576.3 767.8 570 767.8 570 758.8 572.8 758.8 572.8 765.6 576.3 765.6 576.3 767.8"/>
  <rect class="st1" x="577.4" y="758.8" width="2.8" height="9.1"/>
  <polygon class="st1" points="587 767.8 584.1 767.8 581.2 758.8 584.1 758.8 585.8 764.6 587.5 758.8 589.8 758.8 587 767.8"/>
  <polygon class="st1" points="597.5 767.8 590.7 767.8 590.7 758.8 597.5 758.8 597.5 760.9 593.4 760.9 593.4 762.2 596.7 762.2 596.7 764.2 593.4 764.2 593.4 765.7 597.5 765.7 597.5 767.8"/>
  <g>
    <polygon class="st0" points="358.7 385.6 358.7 318.4 313.3 318.4 313.3 428.6 423.8 428.6 423.8 385.6 358.7 385.6"/>
    <rect class="st0" x="601.9" y="385.6" width="110.6" height="43"/>
    <rect class="st0" x="601.9" y="318.4" width="110.6" height="43"/>
    <path class="st0" d="M574.9,355.4c4.2-4.2,6.3-9.7,6.4-15.2,0-5.6-2.7-12.1-7-16.3-4.7-4.7-11.5-6.8-17.7-6.3-4.9.4-9.7,2.6-13.4,6.4l-40.7,43-41-43.2c-3.6-3.6-8.2-5.7-12.9-6.2-6.4-.7-13.5,1.5-18.3,6.4-4.4,4.5-7.1,11.3-6.9,17.1.2,5.3,2.3,10.6,6.4,14.6l72.7,75.4,72.5-75.8Z"/>
  </g>
</svg>