<?xml version="1.0" encoding="UTF-8"?>
<svg id="Layer_1" xmlns="http://www.w3.org/2000/svg" version="1.1" viewBox="0 0 842 595">
  <!-- Generator: Adobe Illustrator 29.8.1, SVG Export Plug-In . SVG Version: 2.1.1 Build 2)  -->
  <defs>
    <style>
      .st0 {
        fill: #006ca8;
      }

      .st1 {
        fill: #009fdd;
      }

      .st2 {
        fill: #373435;
      }

      .st3 {
        fill: #a7cf57;
      }
    </style>
  </defs>
  <path class="st2" d="M600.2,278.2c-5.8,0-10.6-4.8-10.6-10.6s4.8-10.6,10.6-10.6,10.7,4.6,10.7,10.6-4.8,10.6-10.7,10.6M301.4,346.5h18.7l2.3-56.5,19.1,33.5h10.2l18-33.8,2.4,56.9h19.7l-4-87.1h-18.8l-22.2,40.9-22.7-40.9h-18.6l-4.1,87.1ZM452.6,327.9c-1.3,1.1-3.6,2.3-6.6,3.7-3.1,1.4-7.1,2.2-11.9,2.2s-8.9-1.2-11.8-3.7c-2.8-2.4-4.2-5.4-4.3-8.6h43.6v-3.1c0-5.2-.6-9.8-1.9-14.2-1.3-4.3-3.2-8-5.9-11.2-2.5-3-5.6-5.4-9.4-7.2-3.8-1.7-8.2-2.6-13.1-2.6s-9.4,1-13.3,2.8c-4,1.7-7.2,4.1-10,7.1-2.6,2.9-4.7,6.4-6.1,10.3-1.4,4-2.2,8.2-2.2,12.4s.7,9.4,2.3,13.4c1.4,4,3.7,7.4,6.6,10.3,3,2.9,6.5,5.2,10.7,6.7s8.9,2.4,14,2.4,7.4-.4,10.4-1.1c3.1-.7,5.8-1.6,7.9-2.5,2.3-1,4.1-2,5.4-3,1.4-1,2.4-1.7,3.1-2.2l-7.7-11.9ZM418,309.4c0-1.3.2-2.6.8-4,.6-1.4,1.4-2.6,2.5-3.7,1.1-1.2,2.4-2.2,4.1-2.9s3.6-1.1,5.8-1.1,4.1.4,5.6,1.1,2.8,1.7,3.8,2.9c1.1,1.1,1.8,2.3,2.4,3.7.5,1.3.7,2.6.7,4h-25.8ZM525.3,346.5h57.2v-16.2h-37.4v-70.9h-19.8v87.1ZM590.8,346.5h18.8v-61.2h-18.8v61.2ZM673.4,263.5c-2.8-2.3-5.9-4-9.2-4.9-3.4-1-6.7-1.4-10.1-1.4s-6.1.5-9.1,1.4c-3,1.1-5.8,2.5-8,4.6-2.4,2-4.3,4.7-5.6,7.8-1.4,3.1-2.2,6.8-2.2,11.3v3.1h-10v14.8h10v46.4h18.6v-46.4h14.5v-14.8h-14.5v-3.5c0-3,.8-5.4,2.4-7,1.6-1.7,3.6-2.5,6.2-2.5s3.2.2,4.8.8c1.6.5,3,1.2,4.3,2.2l7.9-11.9ZM510.8,330.2c-1.2.8-2.5,1.6-4,2.3-1.3.6-3,1-4.9,1s-4.4-.8-5.5-2.4c-1.2-1.7-1.8-4-1.8-6.8v-24.1h15.7v-14.8h-15.7v-16.4h-18.8v16.4h-9.6v14.8h9.6v23c0,3.8.5,7.3,1.2,10.4.8,3.1,2.2,5.8,4,8,1.8,2.2,4.2,4,7.2,5.2,2.9,1.3,6.6,1.9,10.9,1.9,7,0,13.4-2.3,19.3-7.1l-7.6-11.4ZM718.7,327.9c-1.4,1.1-3.6,2.3-6.7,3.7-3,1.4-7,2.2-11.9,2.2s-8.8-1.2-11.6-3.7c-2.9-2.4-4.3-5.4-4.3-8.6h43.6v-3.1c0-5.2-.7-9.8-2-14.2-1.2-4.3-3.2-8-5.8-11.2-2.5-3-5.8-5.4-9.5-7.2-3.7-1.7-8-2.6-13-2.6s-9.5,1-13.3,2.8c-4,1.7-7.3,4.1-10,7.1-2.6,2.9-4.8,6.4-6.2,10.3-1.4,4-2.2,8.2-2.2,12.4s.8,9.4,2.3,13.4c1.6,4,3.8,7.4,6.7,10.3s6.5,5.2,10.6,6.7c4.2,1.6,8.9,2.4,14.2,2.4s7.3-.4,10.4-1.1c3-.7,5.6-1.6,7.9-2.5,2.2-1,4-2,5.4-3,1.3-1,2.4-1.7,3.1-2.2l-7.7-11.9ZM684.2,309.4c0-1.3.2-2.6.8-4,.5-1.4,1.3-2.6,2.4-3.7,1.1-1.2,2.5-2.2,4.2-2.9,1.6-.7,3.5-1.1,5.6-1.1s4.1.4,5.6,1.1,2.9,1.7,4,2.9c1.1,1.1,1.8,2.3,2.3,3.7.6,1.3.8,2.6.8,4h-25.8Z"/>
  <path class="st3" d="M185.6,278.6c14.8,19.6,23.5,43.9,23.5,70.4s-.5,12.6-1.6,18.7h42.8c3.7,0,6.7-3.1,6.7-6.8v-118.3c0-4.3-4.1-7.6-8.4-6.5-25.6,6.7-47.6,22-63.1,42.5"/>
  <path class="st1" d="M163.5,367.7c-1-6.1-1.6-12.4-1.6-18.7,0-26.5,8.9-50.9,23.6-70.4-15.6-20.5-37.7-35.8-63.2-42.5-4.2-1.1-8.4,2.2-8.4,6.5v118.3c0,3.7,3,6.8,6.7,6.8"/>
  <path class="st0" d="M185.6,278.6c-14.9,19.6-23.6,43.9-23.6,70.4s.6,12.6,1.6,18.7h44c1.1-6.1,1.6-12.4,1.6-18.7,0-26.5-8.8-50.9-23.5-70.4"/>
</svg>