<svg xmlns="http://www.w3.org/2000/svg" viewBox="0 0 440 300">
  <path
      style="fill: #470054"
      d="M33.29,210.78c-3.44,1.29-5.73,4.87-5.73,9.74V273.1c0,7.74,1.43,11.32,9,11.32,11.18,0,24.93-5.44,30.81-16.91-2,8.74-4.73,20.21-4.73,20.21H11.37C14.66,286,17,283.27,17,278V220.52c0-6.45-3.58-8.88-5.58-9.88H33.29Zm179.66,0H195.33a10.55,10.55,0,0,1,6.73,9.74v47.14L160.8,210.78H145a19.8,19.8,0,0,1,6.88,5.44v61.9a10.56,10.56,0,0,1-6.74,9.74h17.48a10.55,10.55,0,0,1-6.73-9.74v-56.6l50.43,69.21V220.52a10,10,0,0,1,6.59-9.74Zm164.05-86c2,1,5.58,3.44,5.58,9.88v57.45c0,5.31-2.29,8-5.58,9.75h51.29s2.72-11.47,4.87-20.2c-5.88,11.46-19.63,16.9-30.81,16.9-7.59,0-9-3.58-9-11.32V134.7c0-4.87,2.29-8.59,5.73-9.74Zm-9.6,66.62c2.58,6.73,6.59,9.31,9.31,10.46H353.36c3.58-1.58,5.15-4.59,3.43-9-1.28-3.44-7-18.19-7-18.19H325.42s-6,15.75-7,18.19c-1.72,4.44.86,8.17,3.44,9H305.65c3.15-1.72,6.44-3.3,9.17-10.46,2.86-7.45,17.05-44.85,26.21-69.2,15.19,39.83,22.64,60,26.37,69.2M348.48,171,337.74,142.3,326.85,171Zm-40.54-46.28c2.86.86,5.87,5.16,2.58,10.61l-16.19,26.64s-13-23.78-15.05-27.65a7.31,7.31,0,0,1,2.87-9.45H257.51c5.73,2.58,9.31,8,11.32,11.74,3.29,6,17.19,31.52,17.19,31.52v24.07c0,4.88-2,7.88-5.59,9.75h21.63c-3.58-1.72-5.44-5-5.44-9.75V165.08s16.05-26.37,19.06-31.38c1.43-2.44,5.3-7.16,9.31-9ZM202.49,163.36c0-24.5,10.32-36.39,26.22-36.39s26.36,11.89,26.36,36.39-10.46,36.39-26.36,36.39-26.22-11.89-26.22-36.39m64.62,0c0-25.94-18.92-40-38.4-40s-38.4,14-38.4,40,18.77,40.11,38.4,40.11,38.4-14.32,38.4-40.11m-188,85.82c0-24.5,10.32-36.39,26.22-36.39s26.36,11.89,26.36,36.39-10.45,36.39-26.21,36.39-26.37-11.89-26.37-36.39m64.62,0c0-25.94-18.91-40-38.4-40s-38.39,14-38.39,40,18.76,40,38.39,40,38.4-14.18,38.4-40m156.45,0c0-24.5,10.32-36.39,26.22-36.39s26.36,11.89,26.36,36.39-10.46,36.39-26.36,36.39-26.22-11.89-26.22-36.39m64.62,0c0-25.94-18.91-40-38.4-40s-38.4,14-38.4,40,18.77,40,38.4,40,38.4-14.18,38.4-40M128.71,124.67c3.43,1.58,5.44,5,5.44,9.75V192c0,4.73-1.86,8-5.59,9.74H150.2c-3.58-1.72-5.45-4.87-5.45-9.74V164.93a5.56,5.56,0,0,1,2.15,0c3.87,0,8-.28,12.9,6.45,6,8.31,16,22.06,22.2,30.52h17.48c-5.16-1-8.88-6.45-12.18-10.75-15.33-19.77-15.47-26.36-31.8-27.08,39.83.15,36.39-39.11,1.29-39.11Zm16.19,3.87c2.86-.28,5.73-.43,8.59-.43,12.75,0,18.48,5.59,18.48,16.48,0,12-6.73,16.76-20.34,16.76H144.9Zm289.83,82.1H417.26a10.54,10.54,0,0,1,6.73,9.74v47.14l-41.26-56.88H366.82a19.61,19.61,0,0,1,6.88,5.44V278a10.56,10.56,0,0,1-6.73,9.75h17.48a10.56,10.56,0,0,1-6.74-9.75V221.38l50.43,69.2v-70.2A10.21,10.21,0,0,1,434.73,210.64Zm-193.27,0H215c2.72,1.14,5.58,4.44,5.58,9.6v57.59a10.4,10.4,0,0,1-5.58,9.89h28.51c24.5,0,38.39-14,38.39-38,0-12.47-5.73-39.11-40.4-39.11m3.15,73.78c-11.46,0-13.32-4.87-13.32-16.62V214.36c4.15-.29,7-.29,9.31-.29,20.06,0,29.23,11.61,29.23,38.54-.14,21.78-8.74,31.81-25.22,31.81M102.34,201.75c-5.15-.86-7.16,1.29-14.9.58a82.89,82.89,0,0,0-14.61,0c1.15-3.3,6.3-2.44,7.59-4.3,2-2.87-1.43-7.74-3.58-14-.86-2.58-.28-7.6,4-8-.28,3.73,1.72,14.62,5.59,18.63,1.72,1.72,3.44,3.3,9.6,3.44C98.62,198,101.05,198.74,102.34,201.75Zm31.09-92.69a8,8,0,0,0-2.14-6C127.85,99.74,120,91.58,113.09,84c14.76,24.93-11.61,63.9-22.06,76.65-1.29,1.58,1-3-.72-7C87.87,167.8,75.84,171.52,74,175.68c-2.3-6.88-21.06-.86-39.12,2.29C46.47,170.38,71.4,153,80.71,137,66.1,153.76,45,168.23,33.43,175.53a27.17,27.17,0,0,1-12.46,4c-5.31.14-12.18-.86-15.91-4,21.78-4.29,25.65-29.51,34.39-43.41a100.91,100.91,0,0,1,12-15.9c-13.61,19.63-19.63,48.71-19.63,48.71s18.06-37.68,37.69-50.14c9-5.73,23.21-9.74,21.2,5.3,8.45-14.62-1.58-23.5-16.33-20.78,2.58-1.43,5.44-2.86,8.45-4.72,4.58-2.58,12.46-7.74,10.74-16-2.29-10.46-13-24.21-16.47-35.1-2.29-7.31-5-21.21,7.74-27.22-.72-1.58-4.59-4.3-4.73-9,3,2.87,6.59,3.58,12.18,5.3,12.17,3.58,16.18,8.17,18.33,14,1,3,1.44,8.17,2.58,14.47,7.6,21.21,20.92,56.31,22.5,61.47C136.73,106.62,135,108.05,133.43,109.06ZM102.49,36.85a3.35,3.35,0,0,0,3,1.86,3.45,3.45,0,0,0,.57-3.29,1.85,1.85,0,0,0-2.44-1.15h0A2.14,2.14,0,0,0,102.49,36.85Zm30.37,63.9c-2.58-7.88-21.35-53.59-23.07-57.31-.86-1.72-4.29-1-3,2.15s16.47,37.53,19.62,45.56C120.25,83,107.22,53.47,103.2,47.31c-.43-.72-4-6-8.59-2.73-6.74-2.29-8.89-8.16-8-13.89C82.29,42.44,89.88,46,93.75,47,93.32,59.34,127.42,95.45,132.86,100.75Z"
      />
</svg>
