<svg width="63" height="62" viewBox="0 0 63 62" fill="none" xmlns="http://www.w3.org/2000/svg">
<rect x="0.5" width="62" height="62" rx="31" fill="url(#paint0_linear_2006_1022)"/>
<path d="M46.1182 19.5387L31.6387 11.8231C31.5331 11.7667 31.4151 11.7376 31.2954 11.7383C31.1757 11.739 31.0581 11.7696 30.9532 11.8273L16.8741 19.5426C16.7608 19.6048 16.6663 19.6963 16.6005 19.8075C16.5346 19.9187 16.4999 20.0456 16.5 20.1749V30.2534C16.5084 38.5383 21.4169 46.0332 29.0078 49.3523L30.9619 50.2039C31.0524 50.2434 31.15 50.2638 31.2486 50.2639C31.3473 50.2641 31.445 50.2439 31.5355 50.2048L33.7376 49.2538C41.4693 46.0067 46.4992 38.4392 46.5 30.0536V20.1751C46.5 20.0444 46.4645 19.9161 46.3973 19.804C46.33 19.6919 46.2336 19.6002 46.1182 19.5387ZM45.0583 30.0537C45.0566 37.8613 40.3722 44.9062 33.1732 47.9276L33.1684 47.93L31.2508 48.758L29.5846 48.0309C22.5187 44.9416 17.9495 37.9655 17.9413 30.2536V20.6019L31.3043 13.2782L45.0582 20.6071L45.0583 30.0537Z" fill="white" stroke="white"/>
<path d="M25.9862 29.786C25.9247 29.7139 25.8496 29.6547 25.7652 29.6117C25.6809 29.5687 25.5889 29.5428 25.4945 29.5354C25.4001 29.5279 25.3051 29.5392 25.2151 29.5684C25.125 29.5977 25.0416 29.6444 24.9696 29.7059C24.8976 29.7674 24.8384 29.8424 24.7954 29.9267C24.7524 30.0111 24.7265 30.103 24.719 30.1974C24.7116 30.2918 24.7228 30.3867 24.7521 30.4767C24.7814 30.5667 24.8281 30.6501 24.8896 30.7221L28.6974 35.1811C28.8196 35.3243 28.9929 35.4139 29.1802 35.431C29.3676 35.4481 29.5543 35.3912 29.7003 35.2725L38.5688 28.0574C38.7171 27.9368 38.8114 27.7621 38.8309 27.5719C38.8505 27.3817 38.7937 27.1916 38.673 27.0433C38.5523 26.895 38.3777 26.8007 38.1875 26.7811C37.9973 26.7616 37.8071 26.8184 37.6588 26.9391L29.3366 33.7093L25.9862 29.786Z" fill="white"/>
<defs>
<linearGradient id="paint0_linear_2006_1022" x1="31.5" y1="0" x2="31.5" y2="62" gradientUnits="userSpaceOnUse">
<stop stop-color="#FF6E00"/>
<stop offset="1" stop-color="#FC4B00"/>
</linearGradient>
</defs>
</svg>
