<svg width="63" height="62" viewBox="0 0 63 62" fill="none" xmlns="http://www.w3.org/2000/svg">
<rect x="0.5" width="62" height="62" rx="31" fill="url(#paint0_linear_2006_1152)"/>
<path d="M22.9453 23.1055H33.2208C33.3296 23.1055 33.4339 23.0623 33.5108 22.9853C33.5877 22.9084 33.6309 22.8041 33.6309 22.6953C33.6309 22.5865 33.5877 22.4822 33.5108 22.4053C33.4339 22.3284 33.3296 22.2852 33.2208 22.2852H22.9453C22.8365 22.2852 22.7322 22.3284 22.6553 22.4053C22.5784 22.4822 22.5352 22.5865 22.5352 22.6953C22.5352 22.8041 22.5784 22.9084 22.6553 22.9853C22.7322 23.0623 22.8365 23.1055 22.9453 23.1055ZM22.9453 26.7484H31.354C31.4628 26.7484 31.5671 26.7051 31.644 26.6282C31.7209 26.5513 31.7641 26.447 31.7641 26.3382C31.7641 26.2294 31.7209 26.1251 31.644 26.0482C31.5671 25.9713 31.4628 25.928 31.354 25.928H22.9453C22.8365 25.928 22.7322 25.9713 22.6553 26.0482C22.5784 26.1251 22.5352 26.2294 22.5352 26.3382C22.5352 26.447 22.5784 26.5513 22.6553 26.6282C22.7322 26.7051 22.8365 26.7484 22.9453 26.7484ZM22.9453 30.391H30.5927C30.7015 30.391 30.8058 30.3478 30.8828 30.2709C30.9597 30.194 31.0029 30.0896 31.0029 29.9809C31.0029 29.8721 30.9597 29.7678 30.8828 29.6908C30.8058 29.6139 30.7015 29.5707 30.5927 29.5707H22.9453C22.8365 29.5707 22.7322 29.6139 22.6553 29.6908C22.5784 29.7678 22.5352 29.8721 22.5352 29.9809C22.5352 30.0896 22.5784 30.194 22.6553 30.2709C22.7322 30.3478 22.8365 30.391 22.9453 30.391ZM27.7734 33.2141H22.9453C22.8365 33.2141 22.7322 33.2573 22.6553 33.3342C22.5784 33.4111 22.5352 33.5154 22.5352 33.6242C22.5352 33.733 22.5784 33.8373 22.6553 33.9142C22.7322 33.9912 22.8365 34.0344 22.9453 34.0344H27.7734C27.8822 34.0344 27.9865 33.9912 28.0635 33.9142C28.1404 33.8373 28.1836 33.733 28.1836 33.6242C28.1836 33.5154 28.1404 33.4111 28.0635 33.3342C27.9865 33.2573 27.8822 33.2141 27.7734 33.2141Z" fill="white" stroke="white"/>
<path d="M45.2385 21.0753C45.2037 21.0325 45.1606 20.9972 45.1118 20.9714C45.0631 20.9456 45.0096 20.9299 44.9546 20.9253C42.4532 20.716 40.2943 20.9558 38.4976 21.6359V17.832C38.4976 17.7233 38.4544 17.6189 38.3775 17.542C38.3006 17.4651 38.1962 17.4219 38.0874 17.4219H18.0789C17.9701 17.4219 17.8657 17.4651 17.7888 17.542C17.7119 17.6189 17.6687 17.7233 17.6687 17.832C17.6671 48.5459 17.6687 37.4105 17.6687 41.9023C17.6703 42.6127 17.9534 43.2936 18.4559 43.7957C18.9585 44.2978 19.6395 44.5803 20.3499 44.5813L38.4906 44.5789C39.2207 44.5781 39.9207 44.2877 40.437 43.7714C40.9533 43.2551 41.2437 42.5551 41.2445 41.825V38.1242C41.2445 38.0154 41.2013 37.9111 41.1243 37.8342C41.0474 37.7573 40.9431 37.7141 40.8343 37.7141H38.4976V31.3048C42.8614 29.9164 44.7742 25.9677 45.3273 21.3833C45.334 21.3286 45.3296 21.2731 45.3143 21.2202C45.2991 21.1673 45.2733 21.118 45.2385 21.0753ZM40.4242 41.825C40.4236 42.3377 40.2197 42.8291 39.8572 43.1916C39.4947 43.5541 39.0032 43.758 38.4906 43.7586L22.2732 43.7607C22.7571 43.2627 23.0278 42.5956 23.0277 41.9012V38.5344H40.4242V41.825ZM37.6773 37.7141H22.6187C22.5095 37.7143 22.4048 37.7579 22.3277 37.8352C22.2506 37.9126 22.2073 38.0173 22.2074 38.1266V41.9023C22.2019 42.3918 22.0036 42.8594 21.6555 43.2036C21.3074 43.5477 20.8377 43.7408 20.3482 43.7408C19.8587 43.7408 19.3889 43.5477 19.0409 43.2036C18.6928 42.8594 18.4945 42.3918 18.489 41.9023V18.2422H37.6773V21.9905C36.9851 22.3242 36.3397 22.7472 35.7575 23.2487C33.7653 24.9753 32.5935 27.6671 32.3563 31.0381L29.6666 33.2281C29.5822 33.2968 29.5286 33.3963 29.5176 33.5045C29.5065 33.6127 29.5389 33.7209 29.6076 33.8053C29.6764 33.8896 29.7758 33.9432 29.884 33.9543C29.9922 33.9653 30.1004 33.9329 30.1848 33.8642L32.8749 31.6737C34.4714 31.9144 36.0983 31.8652 37.6773 31.5284V37.7141ZM33.7632 30.95L38.8133 26.8374C38.8575 26.8043 38.8945 26.7626 38.9221 26.7148C38.9498 26.667 38.9675 26.6141 38.9742 26.5593C38.981 26.5045 38.9765 26.4489 38.9613 26.3958C38.946 26.3428 38.9201 26.2934 38.8853 26.2505C38.8505 26.2077 38.8073 26.1723 38.7585 26.1466C38.7097 26.1208 38.6561 26.1052 38.6011 26.1006C38.5461 26.096 38.4907 26.1026 38.4383 26.12C38.3859 26.1373 38.3375 26.1651 38.296 26.2016L33.2446 30.3146C33.5727 27.5047 34.5974 25.3393 36.2947 23.8693C38.2042 22.2146 40.9475 21.4899 44.4575 21.713C43.4928 28.5369 39.5734 31.4581 33.7632 30.95Z" fill="white" stroke="white"/>
<defs>
<linearGradient id="paint0_linear_2006_1152" x1="31.5" y1="0" x2="31.5" y2="62" gradientUnits="userSpaceOnUse">
<stop stop-color="#FF6E00"/>
<stop offset="1" stop-color="#FC4B00"/>
</linearGradient>
</defs>
</svg>
