<svg width="40" height="40" viewBox="0 0 40 40" fill="none" xmlns="http://www.w3.org/2000/svg">
<g clip-path="url(#clip0_4375_9152)">
<path d="M9.4164 6C9.30817 6.03092 9.21539 6.06184 9.10716 6.09276C8.61237 6.23189 8.17943 6.4947 7.87019 6.89665C7.7001 7.09762 7.74649 7.26768 7.97842 7.39135C8.13304 7.45319 8.30313 7.49957 8.33405 7.73146C8.2722 7.74692 8.19489 7.77784 8.1485 7.77784C7.73102 7.74692 7.35993 7.83968 6.98884 8.00973C6.80329 8.08703 6.58683 8.17979 6.38582 8.24163C6.16935 8.31892 6.13843 8.41168 6.30851 8.58174C6.38582 8.67449 6.49405 8.73633 6.60229 8.81363C6.66413 8.86001 6.71053 8.87547 6.77237 8.92184C6.41674 9.26195 6.06112 9.33925 5.72095 9.10736C5.73641 9.06098 5.75187 9.0146 5.76733 8.95276C5.82918 8.65903 5.72094 8.55082 5.44262 8.5972C5.34985 8.61265 5.25708 8.61265 5.11792 8.61265C5.16431 8.50444 5.16431 8.42714 5.17977 8.42714C5.42717 8.25709 5.65909 8.08703 5.9838 8.07157C6.4322 8.05611 6.78783 7.7933 7.14346 7.53049C7.22077 7.46865 7.2517 7.34498 7.28262 7.23676C7.32901 7.144 7.31355 7.03579 7.35994 6.94303C7.87019 6.27827 8.59691 6.03092 9.4164 6Z" fill="#EB7124"/>
<path d="M4.32941 8.67698C3.91193 8.78519 3.49445 8.89341 3.07697 9.01708C2.99966 9.048 2.84504 9.14076 2.8605 9.17168C2.89143 9.2799 2.95327 9.43449 3.04604 9.48087C3.26251 9.55817 3.49444 9.57363 3.74184 9.63546C3.60268 9.88282 3.35529 10.0683 3.07697 10.2075C2.93781 10.2693 2.81411 10.3466 2.82958 10.5167C2.84504 10.7176 2.92234 10.8568 3.12335 10.9495C3.85007 11.2742 4.65411 11.0732 5.13344 10.4239C5.19528 10.3466 5.24167 10.2538 5.31898 10.1456C5.45814 10.4239 5.58184 10.6867 5.70554 10.9341C5.8447 11.2123 5.93747 11.2433 6.21579 11.1196C6.2931 11.0732 6.38587 11.0423 6.44772 10.9804C6.54049 10.9031 6.57142 10.8104 6.50957 10.6713C6.43226 10.4857 6.37041 10.2538 6.2931 10.0374C6.46318 9.97557 6.60235 9.91374 6.72605 9.8519C6.86521 9.7746 6.97343 9.66638 7.14352 9.52725C7.17444 9.66638 7.17445 9.7746 7.20537 9.86736C7.23629 9.94465 7.26722 10.0529 7.31361 10.0683C7.37546 10.0838 7.49915 10.022 7.54554 9.97557C7.62285 9.89828 7.66924 9.79006 7.73109 9.66638C7.87025 9.83644 7.87025 9.99103 7.88571 10.1611C7.91663 10.7176 7.82386 11.2278 7.49916 11.6916C7.43731 11.7689 7.43731 11.8771 7.39092 12.0008C7.88571 12.0317 8.65881 11.2433 8.79797 10.594C8.98352 9.88282 8.79798 9.21806 8.47327 8.59968C8.5042 8.58422 8.51965 8.56876 8.53511 8.56876C8.85982 8.70789 9.12268 8.58422 9.43193 8.42962C9.6484 8.33687 9.91125 8.32141 10.1586 8.32141C10.4524 8.32141 10.5297 8.50692 10.406 8.75427C10.3133 8.95525 10.1432 9.07892 9.94218 9.18714C9.76694 9.2799 9.71024 9.41903 9.77209 9.60455C9.77209 9.62001 9.78756 9.62001 9.78756 9.63546C9.94218 10.0683 10.004 10.1147 10.3906 9.82098C10.638 9.63546 10.8544 9.41903 11.04 9.17168C11.442 8.64606 10.9781 7.71849 10.3442 7.65665C10.0968 7.62573 9.84941 7.64119 9.58655 7.64119C9.5247 7.64119 9.47831 7.64119 9.401 7.59481C9.46285 7.56389 9.5247 7.51751 9.58655 7.50205C10.205 7.31654 10.7926 7.332 11.3647 7.64119C11.5657 7.74941 11.6739 7.91946 11.7358 8.15135C11.8749 8.72335 11.7512 9.23352 11.3492 9.68184C11.04 10.0065 10.6998 10.2538 10.3133 10.4548C10.1432 10.5321 10.0813 10.6403 10.0659 10.8258C10.004 11.7225 9.60201 12.4336 8.90621 12.9902C8.41142 13.4076 7.85478 13.7013 7.28268 13.995C6.84974 14.2269 6.38587 14.4279 5.93747 14.6753C5.25713 15.0463 4.5768 15.4482 3.98924 15.9893C3.97378 15.9739 3.95831 15.9584 3.92739 15.9275C4.0047 15.8502 4.08201 15.7574 4.15932 15.6801C4.87058 14.9999 5.69008 14.4124 6.50957 13.8559C6.91159 13.5776 7.3136 13.2994 7.68469 13.0366C7.79293 12.9593 7.99395 12.851 7.88571 12.7119C7.79294 12.5419 7.60739 12.6964 7.48369 12.7428C6.77243 13.0211 6.07663 13.2994 5.34991 13.5931C5.10251 13.6859 4.87059 13.8095 4.63865 13.9177C3.50991 14.4588 2.84503 15.4019 2.38117 16.5149C1.70083 18.2464 1.79361 19.947 2.55126 21.6166C2.59765 21.7093 2.61311 21.8021 2.67495 21.8948C2.70588 21.9412 2.78319 21.9721 2.84503 21.9721C2.87596 21.9721 2.90689 21.8948 2.93781 21.8485V21.8176C2.87596 20.8745 3.26252 20.0397 3.64907 19.2358C3.83462 18.8493 4.06655 18.5092 4.32941 18.1536C4.31395 18.2155 4.29848 18.2773 4.26756 18.3392C3.91193 19.2204 3.68 20.117 3.68 21.1064C3.68 22.3123 4.08201 23.379 4.85512 24.322C5.04066 24.5384 5.22622 24.7549 5.41176 24.9713C5.45815 25.0177 5.48907 25.064 5.53546 25.0795C5.59731 25.095 5.69008 25.095 5.72101 25.064C5.75193 25.0331 5.75193 24.9249 5.72101 24.8785C5.45815 24.5848 5.36537 24.2138 5.24167 23.8737C4.93243 22.9616 4.82419 22.0494 4.93243 21.1064C5.00974 20.4417 5.25714 19.8233 5.58184 19.2513C5.90655 18.6484 6.30856 18.0918 6.78789 17.5971C7.09713 17.2879 7.37545 16.9633 7.68469 16.6541C7.74654 16.5768 7.83932 16.4995 7.94755 16.4531C7.73108 16.7778 7.49916 17.1333 7.26722 17.4734C6.75697 18.2773 6.44773 19.174 6.30857 20.117C6.21579 20.7508 6.2931 21.3692 6.44772 21.9876C6.50957 22.2195 6.58689 22.4359 6.64874 22.6678C6.6642 22.7297 6.69512 22.776 6.72605 22.8224C6.75697 22.8533 6.81882 22.8688 6.84974 22.8533C6.89613 22.8224 6.92705 22.776 6.92705 22.7297C6.92705 22.6369 6.89613 22.5441 6.8652 22.4514C6.72604 21.9103 6.77243 21.3847 6.89613 20.8591C7.05075 20.2098 7.31361 19.6068 7.65378 19.0503C8.2568 18.0454 9.02991 17.1952 9.91125 16.4531C10.9781 15.5565 11.7203 14.4743 12.1378 13.1602C12.1687 13.052 12.1997 12.9438 12.2151 12.8356C12.246 12.7428 12.277 12.6501 12.3697 12.5573C12.3543 12.7428 12.3543 12.9283 12.3233 13.1139C12.2151 13.9641 12.0141 14.7835 11.7049 15.5874C11.6585 15.6956 11.5812 15.8038 11.5348 15.9275C11.5039 16.0048 11.5193 16.0975 11.5193 16.1748C11.6121 16.1594 11.7203 16.1903 11.7976 16.1285C11.9368 16.0512 12.045 15.9275 12.1687 15.8193C12.8954 15.17 13.4985 14.4279 13.8696 13.5313C14.6427 11.6452 14.519 9.80552 13.4212 8.07406C12.9882 7.39384 12.4007 6.85275 11.7049 6.41989C11.6275 6.37351 11.5502 6.32713 11.4884 6.23438C11.5502 6.24983 11.6276 6.23437 11.6739 6.28075C12.1069 6.49719 12.5244 6.71362 12.9418 6.96097C13.483 7.27016 13.9778 7.64119 14.4107 8.07406C15.323 8.97071 15.8951 10.022 16.2198 11.2278C16.4363 12.0317 16.5291 12.882 16.4363 13.7013C16.2971 15.139 15.8178 16.4376 14.7509 17.458C14.5963 17.6126 14.5963 17.6589 14.72 17.8445C15.0292 18.3237 15.524 18.5865 16.0652 18.7257C16.8383 18.9266 17.6114 18.9421 18.4154 18.9112C19.2659 18.8648 20.0854 18.7256 20.9049 18.4783C20.9667 18.4628 21.0131 18.4628 21.0595 18.4628C21.0749 18.4938 21.0749 18.5092 21.0749 18.5247C20.7657 18.6484 20.441 18.772 20.1317 18.8802C18.8329 19.3131 17.5186 19.5295 16.1425 19.3286C15.2612 19.2204 14.4726 18.8957 13.7923 18.2928C13.6067 18.1227 13.1428 18.0918 12.9418 18.2309C12.8491 18.2928 12.8491 18.3855 12.8954 18.4628C13.1583 18.8957 13.4521 19.2977 13.9314 19.5295C14.1788 19.6532 14.4417 19.746 14.6891 19.8387C14.7818 19.8851 14.8901 19.916 14.9983 19.9933C14.7045 20.0397 14.4262 19.9624 14.1479 19.9006C13.282 19.6841 12.5089 19.2667 11.844 18.6638C11.6276 18.4783 11.442 18.4783 11.1946 18.5865C10.3906 18.9575 9.66386 19.4059 9.06083 20.0552C8.44234 20.7199 8.02486 21.462 7.91663 22.3741C7.82385 23.1934 8.02486 23.92 8.48873 24.6157C8.61243 24.8012 8.75159 24.9867 8.89075 25.1723C8.92168 25.2186 8.9526 25.265 8.98352 25.265C9.04537 25.2805 9.12268 25.2805 9.2 25.2805C9.2 25.2186 9.23092 25.1413 9.2 25.095C8.76705 24.4302 8.81344 23.6881 8.93714 22.977C9.04537 22.2968 9.44739 21.7403 9.9731 21.1992C9.88033 21.4465 9.78755 21.632 9.7257 21.8021C9.44738 22.5441 9.50924 23.2553 9.89579 23.951C10.4524 24.9249 11.2874 25.5278 12.3697 25.8061C12.4316 25.8216 12.5089 25.837 12.5707 25.837C12.8181 25.837 12.8645 25.7443 12.7718 25.5278C12.7099 25.3269 12.6635 25.1104 12.6017 24.9094C12.4625 24.3529 12.3079 23.8118 12.1687 23.2553C12.1533 23.2089 12.1687 23.178 12.1533 23.1161C12.5707 23.4253 13.3284 25.3887 13.4521 26.4245C13.0192 26.7182 12.5244 26.5482 12.0141 26.5791C12.0605 26.6873 12.076 26.7646 12.1069 26.8573C12.7408 27.9859 13.1892 29.1917 13.4521 30.4594C13.5294 30.8768 13.5912 31.2942 13.6376 31.7116C13.6686 32.0054 13.684 32.2682 13.8696 32.5155C13.916 32.5619 13.916 32.6392 13.9314 32.732C13.0037 32.9793 12.6017 33.5977 12.5862 34.5098C12.246 34.6644 12.1378 34.6026 12.1223 34.2624C12.1069 34.046 12.1378 33.8296 12.1533 33.6131C12.1533 33.5049 12.1223 33.3967 12.1069 33.2421C11.9986 33.3194 11.9213 33.3503 11.8749 33.4122C11.643 33.7214 11.442 34.046 11.4111 34.4325C11.3956 34.618 11.3183 34.6799 11.1482 34.6644H10.9781C7.94756 34.6644 4.90151 34.6799 1.87092 34.6799H0.201006C0.139158 34.6799 0.0618487 34.6644 0 34.618C0.0618487 34.5871 0.108231 34.5562 0.17008 34.5562C1.05142 34.3397 1.94823 34.1233 2.81411 33.876C3.0615 33.8141 3.12335 33.7368 3.15428 33.474C3.23159 32.8402 3.78823 32.33 4.43764 32.2991H4.85512C5.07159 32.2836 5.16437 32.2373 5.22621 32.0054C5.31899 31.6034 5.41176 31.2015 5.50453 30.815C5.56638 30.5212 5.64369 30.243 5.70554 29.9647C5.76739 29.7019 5.82924 29.4545 5.87563 29.1917C5.93748 28.7125 6.01478 28.2178 6.07663 27.7385C6.10756 27.5376 5.99932 27.4293 5.82923 27.3366C5.41175 27.0892 5.00974 26.8419 4.62319 26.5636C3.37075 25.6515 2.38117 24.523 1.79361 23.0698C1.23697 21.6784 1.09781 20.2252 1.29882 18.7411C1.45344 17.7053 1.79361 16.7623 2.33478 15.8656C3.13882 14.567 4.2521 13.624 5.61277 12.9438C5.73647 12.882 5.93747 12.8665 5.92201 12.681C5.90655 12.48 5.70554 12.4955 5.55092 12.4336C4.88604 12.2327 4.22117 12.1399 3.52537 12.279C3.06151 12.3718 2.65949 12.279 2.38117 11.8462C2.22655 11.6297 2.19563 11.3824 2.24202 11.1196C2.30386 10.764 2.30386 10.4394 2.24202 10.0683C2.19563 9.80552 2.24201 9.51179 2.27293 9.24898C2.28839 9.17168 2.35024 9.048 2.42755 9.01708C3.01512 8.80065 3.61814 8.66152 4.23663 8.59968C4.3294 8.64606 4.32941 8.66152 4.32941 8.67698ZM8.79797 33.8141H10.7462C10.9936 33.8141 11.0864 33.7523 11.1018 33.5359C11.1173 33.304 11.241 33.1494 11.3647 32.9948C11.7513 32.5464 12.2615 32.2991 12.8491 32.2218C12.9418 32.2063 13.0501 32.2063 13.1583 32.1754C13.3284 32.1136 13.3593 32.0363 13.3284 31.8662C13.2975 31.7735 13.2665 31.6807 13.2511 31.557C13.0191 30.2275 12.3852 29.0681 11.6121 27.9859C11.5348 27.8777 11.442 27.8313 11.3028 27.8468C10.6998 27.9086 10.0813 27.9859 9.47831 28.0323C9.32369 28.0477 9.21546 28.0941 9.16907 28.2332C9.13814 28.2951 9.12268 28.3569 9.10722 28.4188C8.64335 29.6864 8.11764 30.9232 7.46823 32.0981C7.2363 32.531 6.94251 32.9484 6.67965 33.3813C6.54049 33.5977 6.60234 33.7523 6.8652 33.7677C6.94251 33.7832 7.03528 33.7677 7.09713 33.7677C7.65377 33.8141 8.24133 33.8141 8.79797 33.8141ZM2.75227 11.2587C2.65949 11.537 2.75227 11.707 2.93781 11.8462C3.12336 11.9853 3.37075 12.0162 3.58722 11.908C3.6336 11.8926 3.64907 11.738 3.63361 11.7225C3.38622 11.4906 3.1079 11.3206 2.75227 11.2587Z" fill="#EB7124"/>
<path d="M19.5164 23.4165C19.1299 23.973 18.5887 24.3286 17.9857 24.5914C17.3826 24.8697 16.7487 25.0706 16.0993 25.2098C16.022 25.2407 15.8983 25.2716 15.8673 25.3489C15.821 25.4881 15.9447 25.5499 16.0529 25.5963C16.3621 25.6736 16.6868 25.7818 17.0115 25.8127C18.032 25.89 18.9443 25.5808 19.8411 25.1325C20.3204 24.8851 20.7688 24.5759 21.1399 24.2049C21.4492 23.8803 21.6966 23.5092 21.8203 23.0609C21.9285 22.6744 22.0367 22.2879 22.145 21.9169C22.1914 21.7778 22.2532 21.6541 22.3305 21.4531C22.3924 21.7932 22.4233 22.0715 22.5006 22.3498C22.6398 22.9218 22.9336 23.4165 23.2892 23.8957C24.1087 24.9933 25.1446 25.8745 26.3662 26.5084C26.5672 26.6166 26.7991 26.6939 27.031 26.7712C27.1083 26.8021 27.232 26.7712 27.3248 26.7248C27.433 26.663 27.3712 26.5393 27.3403 26.4465C27.0465 25.4262 26.629 24.4832 26.1188 23.5556C26.1033 23.5402 26.1188 23.5092 26.1188 23.4783C26.2734 23.4629 26.3043 23.5865 26.3662 23.6638C26.7527 24.2049 27.1547 24.7305 27.4794 25.3025C27.9124 26.0291 28.3608 26.7403 28.8865 27.405C29.3967 28.0389 29.6287 28.7655 29.6596 29.5539C29.6905 30.2032 29.6596 30.8525 29.6441 31.5018C29.6287 31.9037 29.6596 31.9347 29.9843 32.1202C30.0462 32.1666 30.1235 32.2129 30.2162 32.2902C30.1389 32.3366 30.108 32.3675 30.0616 32.383C29.5514 32.5067 29.273 32.8777 29.1339 33.3415C29.0411 33.6816 28.9947 34.0526 28.9329 34.4391C28.871 34.4546 28.8092 34.47 28.7319 34.47C28.5618 34.4855 28.469 34.4082 28.469 34.2381C28.4845 33.9135 28.4999 33.5734 28.5154 33.2487C28.5154 33.2178 28.5463 33.1869 28.5463 33.156C28.5309 33.0941 28.5154 32.9704 28.469 32.955C28.4226 32.9241 28.2989 32.9704 28.2835 33.0168C28.1288 33.2642 27.9742 33.527 27.8815 33.8053C27.8196 33.9908 27.8041 34.2072 27.7578 34.4546C27.6495 34.47 27.5104 34.4855 27.3867 34.4855H15.2334C15.1406 34.4855 15.0478 34.47 14.9551 34.47C15.3107 33.4497 15.4653 32.4448 15.3725 31.3781C15.2798 30.3269 14.8159 29.3838 14.3211 28.4563C14.352 28.4408 14.3675 28.4254 14.383 28.4099C14.4448 28.4717 14.5221 28.5027 14.5685 28.58C14.8159 28.8891 15.0478 29.1829 15.2798 29.5075C15.3107 29.5539 15.3262 29.5848 15.3571 29.6157C15.4189 29.6467 15.4963 29.6776 15.5426 29.6621C15.589 29.6467 15.6045 29.5539 15.6045 29.4921C15.5736 29.3375 15.5117 29.1829 15.4962 29.0283C15.2798 27.1886 14.7695 25.4108 14.1665 23.6638C14.1356 23.5711 14.1047 23.4783 14.0737 23.3237C14.182 23.3856 14.2438 23.401 14.2747 23.4474C14.4912 23.6484 14.7231 23.8648 14.9396 24.0967C15.1252 24.3131 15.3726 24.4059 15.6663 24.4368C16.7951 24.5296 17.8774 24.375 18.9134 23.8957C19.0835 23.7102 19.2999 23.5402 19.5164 23.4165ZM18.1094 33.6197C18.3568 33.6352 18.6196 33.6352 18.867 33.6352C18.9907 33.6352 19.1144 33.6661 19.2381 33.6661C19.5009 33.6816 19.7638 33.6816 20.0267 33.6816C20.3359 33.6816 20.4132 33.5888 20.4596 33.2642C20.4596 33.2023 20.4751 33.156 20.4905 33.0941C20.7534 32.4448 21.1709 31.981 21.913 31.9656C21.944 31.9656 21.9749 31.9501 22.0058 31.9501C22.1914 31.9192 22.3151 31.8264 22.4078 31.6564C22.7325 30.9762 23.0882 30.296 23.1964 29.5075C23.2583 29.0747 23.1655 28.7036 22.8717 28.4099C22.5934 28.1316 22.3151 27.8688 22.0213 27.606C21.4801 27.1113 20.9699 26.6011 20.6142 25.9518C20.5524 25.8127 20.4441 25.7663 20.305 25.8436C20.2431 25.8745 20.1813 25.89 20.1194 25.9055C18.8515 26.3847 17.5527 26.8021 16.2384 27.1113C15.9601 27.1731 15.9292 27.2041 15.9601 27.4669C16.0529 28.3481 16.1302 29.2447 16.2539 30.1104C16.3621 30.9143 16.3003 31.6719 16.1147 32.4448C16.0529 32.6922 16.0065 32.9395 15.9447 33.1714C15.8828 33.4652 15.9292 33.5424 16.2539 33.5579H16.3931C16.9652 33.6197 17.5373 33.6197 18.1094 33.6197ZM25.021 26.5393C24.9746 26.7248 25.0828 26.8021 25.1446 26.8949C25.3302 27.2041 25.5157 27.5132 25.6858 27.8379C25.8404 28.1471 25.9178 28.5027 25.7941 28.8582C25.5621 29.4921 25.3611 30.1414 25.1292 30.7597C24.8199 31.5791 24.4643 32.4139 24.0004 33.1714C23.8304 33.4342 23.9231 33.5734 24.2324 33.5888C25.1292 33.6043 26.0105 33.6197 26.8919 33.6197C27.1702 33.6197 27.2475 33.5579 27.2939 33.2642C27.3248 32.9859 27.4485 32.754 27.6495 32.584C27.8351 32.4139 28.0515 32.2748 28.268 32.1511C28.469 32.0583 28.701 32.012 28.9174 31.9347C29.1803 31.8419 29.1957 31.811 29.1494 31.5327C29.1339 31.4245 29.1339 31.3008 29.1184 31.1926C29.0566 30.6361 29.0102 30.1104 28.9174 29.5694C28.8092 28.951 28.4845 28.4717 27.9124 28.178C27.8196 28.1162 27.7268 28.0698 27.6031 28.008C26.7682 27.5442 25.9023 27.1422 25.1292 26.5548C25.1292 26.5548 25.0983 26.5548 25.021 26.5393Z" fill="#EB7124"/>
<path d="M24.4427 19.2254C24.6592 19.2872 24.8757 19.3336 25.0921 19.4109C25.6797 19.6118 26.2672 19.8283 26.8703 20.0447C26.994 20.0911 27.1022 20.1529 27.2104 20.0447C27.1177 19.7819 26.36 19.1326 25.757 18.8234C25.1849 18.5142 24.5664 18.3287 23.917 18.205V18.1432C24.0098 18.1432 24.1025 18.1277 24.1953 18.1277C25.3859 18.2359 26.5146 18.607 27.5815 19.179C28.4938 19.6582 29.2824 20.2766 30.0709 20.9259C30.7822 21.5134 31.6017 21.9771 32.4676 22.2863C33.1788 22.5337 33.921 22.6264 34.6941 22.6419C35.9002 22.6574 37.0444 22.3636 38.1267 21.838C38.8689 21.467 39.24 20.8795 39.2091 20.0602C39.1936 19.7046 39.1472 19.3336 39.0854 18.978C38.8998 18.1741 38.3432 17.7567 37.5856 17.5403C37.1526 17.4166 36.7042 17.4011 36.2713 17.4939C35.993 17.5557 35.8229 17.6794 35.6682 17.9268C35.0652 19.0089 34.1375 19.55 32.8851 19.4572C32.5913 19.4418 32.3284 19.3645 32.081 19.1944C32.0965 19.1635 32.0965 19.1326 32.1119 19.1326C32.5449 19.0708 32.7923 18.777 33.0397 18.4524C33.2561 18.1432 33.4572 17.834 33.7046 17.4475C33.5809 17.8958 33.519 18.2823 33.2871 18.6224C33.2562 18.6688 33.2098 18.6997 33.1943 18.7616C33.117 18.9316 33.1943 19.0553 33.3798 19.0553C33.4417 19.0553 33.519 19.0398 33.5809 19.0089C34.1684 18.8852 34.6168 18.5451 34.9879 18.0814C35.0343 18.035 35.0652 17.9886 35.0807 17.9422C35.0961 17.8649 35.0807 17.7567 35.0343 17.6949C35.0034 17.6485 34.8797 17.6485 34.8333 17.6639C34.6477 17.7258 34.4777 17.8031 34.2921 17.8495C34.4158 17.6485 34.6323 17.5403 34.8178 17.4166C34.9261 17.3548 35.1116 17.3084 35.0652 17.1229C35.0188 16.9683 34.8642 16.9528 34.7251 16.9528C34.6632 16.9528 34.6014 16.9373 34.5395 16.891C34.9106 16.7673 35.2817 16.7055 35.6528 16.8291C35.8693 16.9064 36.0857 16.9219 36.3177 16.891C37.2145 16.8137 38.0649 16.8601 38.838 17.3857C39.3328 17.7103 39.673 18.1432 39.843 18.7152C40.1523 19.751 39.9977 20.7095 39.441 21.6061C39.0545 22.2245 38.4669 22.5801 37.8175 22.8893C36.4723 23.5231 35.0498 23.6777 33.5809 23.4922C32.1738 23.3067 30.8595 22.8274 29.6225 22.1472C29.4834 22.0699 29.3442 21.9926 29.2051 21.9153C29.1896 21.9153 29.1741 21.9153 29.1432 21.9308C29.1278 21.9926 29.0814 22.039 29.0968 22.1008C29.3133 23.5849 29.8235 24.9454 30.875 26.0584C31.2151 26.4295 31.3543 26.8778 31.478 27.357C31.7718 28.4392 32.0037 29.5523 32.1274 30.6808C32.2047 31.4384 32.2047 32.2113 32.2511 32.9688V33.2007C32.2666 33.4481 32.3284 33.5408 32.5758 33.5408C33.519 33.5872 34.3849 33.9892 35.2972 34.2056C35.3281 34.2056 35.359 34.2365 35.3745 34.252V34.2984C35.3745 34.3138 35.359 34.3293 35.359 34.3293C33.9983 34.3293 32.6377 34.3447 31.2925 34.3447C31.2306 34.3447 31.1842 34.3293 31.1378 34.3138C31.2925 33.2317 31.2151 32.1649 31.076 31.1137C30.9523 30.1861 30.7667 29.3049 30.473 28.4083C30.4575 28.3465 30.442 28.2846 30.4266 28.2228C30.4575 28.2073 30.473 28.1919 30.4884 28.1764C30.5503 28.2537 30.6121 28.3465 30.6585 28.4392C30.8595 28.8721 31.076 29.3359 31.277 29.7687C31.3234 29.8615 31.3543 29.9542 31.4161 30.047C31.4471 30.0934 31.5089 30.1088 31.5553 30.1088C31.6017 30.0934 31.6172 30.0315 31.6326 29.9697C31.6481 29.9542 31.6326 29.9233 31.6172 29.9079C31.3852 29.1504 31.1688 28.3928 30.9214 27.6508C30.7513 27.187 30.4884 26.785 30.0864 26.4759C29.5452 26.043 29.2515 25.4246 28.9886 24.8062C28.7257 24.1879 28.4783 23.5695 28.2309 22.9356C27.6898 21.5288 26.7311 20.5394 25.4323 19.8283C25.123 19.6582 24.7829 19.4882 24.4736 19.3181C24.4272 19.2872 24.4427 19.2563 24.4427 19.2254Z" fill="#EB7124"/>
</g>
<defs>
<clipPath id="clip0_4375_9152">
<rect width="40" height="40" fill="white"/>
</clipPath>
</defs>
</svg>
