<svg width="54" height="54" viewBox="0 0 54 54" fill="none" xmlns="http://www.w3.org/2000/svg">
<path d="M53.7241 27.4849C53.6253 27.3761 53.505 27.2893 53.3709 27.2298C53.2369 27.1704 53.0919 27.1397 52.9454 27.1397H31.396C31.1874 27.1398 30.9836 27.202 30.8101 27.3185C30.6367 27.4351 30.5016 27.6007 30.4218 27.7945C30.3419 27.9883 30.3211 28.2015 30.3617 28.4072C30.4024 28.6129 30.5028 28.8019 30.6502 28.9502L45.3208 43.7027C45.5186 43.9016 45.7868 44.0132 46.0665 44.0132C46.3462 44.0132 46.6145 43.9016 46.8123 43.7027C50.9228 39.5692 53.4739 34.0976 53.9957 28.2958C54.0089 28.1491 53.9916 28.0012 53.9448 27.8616C53.8981 27.722 53.8229 27.5937 53.7241 27.4849ZM46.0492 41.4354L33.9422 29.2609H51.761C51.1189 33.7883 49.1234 38.0428 46.0492 41.4354ZM25.9303 27.3861V3.87132C25.9303 3.28556 25.458 2.81074 24.8756 2.81074C18.2311 2.81074 11.9842 5.41267 7.2859 10.1374C2.58747 14.8619 0 21.1437 0 27.8254C0 34.507 2.58747 40.7888 7.2859 45.5134C11.9842 50.238 18.2311 52.84 24.8756 52.84C31.5201 52.84 37.767 50.2381 42.4654 45.5134C42.6632 45.3145 42.7743 45.0447 42.7743 44.7634C42.7743 44.4822 42.6632 44.2124 42.4654 44.0135L25.9303 27.3861ZM24.8756 50.7188C12.3223 50.7188 2.10938 40.4489 2.10938 27.8254C2.10938 15.5571 11.7548 5.51173 23.8209 4.95619V27.8254C23.8209 28.1066 23.9321 28.3764 24.1298 28.5753L40.2113 44.7466C36.0092 48.6057 30.6037 50.7188 24.8756 50.7188ZM29.2225 24.8897H52.9436C53.0901 24.8897 53.235 24.859 53.3691 24.7995C53.5032 24.7401 53.6234 24.6532 53.7223 24.5444C53.8211 24.4357 53.8963 24.3074 53.9431 24.1678C53.9899 24.0281 54.0072 23.8803 53.994 23.7335C53.4371 17.5425 50.6135 11.8082 46.0434 7.58687C41.4448 3.33923 35.471 1 29.2225 1C28.6401 1 28.1678 1.47482 28.1678 2.06058V23.8291C28.1678 24.4148 28.6401 24.8897 29.2225 24.8897ZM30.2772 3.14503C41.2696 3.63948 50.2338 11.836 51.7606 22.7686H30.2772V3.14503Z" fill="#EB7124"/>
</svg>
