<svg width="54" height="54" viewBox="0 0 54 54" fill="none" xmlns="http://www.w3.org/2000/svg">
<g clip-path="url(#clip0_6920_31171)">
<path d="M47.3339 51.5987H6.66408C6.19649 51.5987 5.82031 51.2181 5.82031 50.745V24.5646C5.82031 24.0915 6.19649 23.7109 6.66408 23.7109C7.13167 23.7109 7.50786 24.0915 7.50786 24.5646V49.8913H46.4901V24.5646C46.4901 24.0915 46.8663 23.7109 47.3339 23.7109C47.8015 23.7109 48.1777 24.0915 48.1777 24.5646V50.745C48.1777 51.2181 47.798 51.5987 47.3339 51.5987Z" fill="#EB7124"/>
<path d="M51.391 28.1728C50.8109 28.1728 50.2519 27.9771 49.7878 27.6072L26.999 9.46594L4.21011 27.6072C3.08156 28.5036 1.44324 28.3079 0.55728 27.1661C0.128363 26.6148 -0.0650015 25.9247 0.0193757 25.2275C0.100237 24.5303 0.448293 23.9042 0.993228 23.4703L26.4786 3.18408C26.7845 2.93864 27.2169 2.93864 27.5228 3.18408L53.0082 23.4703C54.1368 24.3667 54.3301 26.0243 53.4442 27.1661C53.0153 27.7175 52.3965 28.0696 51.7074 28.1514C51.6019 28.1657 51.4965 28.1728 51.391 28.1728ZM26.999 7.52731C27.1818 7.52731 27.3681 7.58778 27.5193 7.70872L50.832 26.2626C51.0254 26.4156 51.2644 26.4832 51.507 26.4547C51.7496 26.4262 51.9676 26.3017 52.1187 26.1097C52.4316 25.7077 52.3613 25.1243 51.9641 24.8113L26.999 4.94129L2.03388 24.8113C1.84052 24.9643 1.72098 25.1848 1.69286 25.4302C1.66473 25.6757 1.73153 25.9176 1.8827 26.1132C2.1956 26.5152 2.76866 26.5827 3.16594 26.2697L26.4786 7.71584C26.6298 7.58778 26.8162 7.52731 26.999 7.52731Z" fill="#EB7124"/>
<path d="M42.9772 17.4221C42.5097 17.4221 42.1335 17.0414 42.1335 16.5684V6.75429H37.9498V11.8943C37.9498 12.3674 37.5736 12.748 37.106 12.748C36.6384 12.748 36.2622 12.3674 36.2622 11.8943V5.90058C36.2622 5.42749 36.6384 5.04688 37.106 5.04688H42.9772C43.4448 5.04688 43.821 5.42749 43.821 5.90058V16.5684C43.821 17.0414 43.4448 17.4221 42.9772 17.4221ZM18.079 44.513C17.861 44.513 17.6465 44.4276 17.4813 44.2604C17.1508 43.9261 17.1543 43.3854 17.4813 43.0546L35.32 25.0556C35.6505 24.7212 36.1849 24.7248 36.5118 25.0556C36.8423 25.39 36.8388 25.9307 36.5118 26.2615L18.6731 44.2604C18.5114 44.4312 18.2934 44.513 18.079 44.513ZM21.2009 33.831H21.1939C18.4305 33.8274 16.184 31.5473 16.1875 28.7515C16.1875 27.3962 16.7113 26.1227 17.6606 25.1659C18.6063 24.209 19.8649 23.6861 21.2009 23.6861H21.2079C22.5474 23.6861 23.8061 24.2161 24.7518 25.1766C25.6975 26.137 26.2178 27.4104 26.2143 28.7657C26.2143 30.1209 25.6905 31.3944 24.7412 32.3512C23.7955 33.3081 22.5369 33.831 21.2009 33.831ZM21.2009 25.3935C20.315 25.3935 19.4817 25.7421 18.8524 26.3753C18.2231 27.0085 17.875 27.8551 17.875 28.755C17.8715 30.6118 19.3622 32.1236 21.1974 32.1236H21.2009C22.0869 32.1236 22.9236 31.775 23.5494 31.1418C24.1787 30.5087 24.5268 29.6621 24.5268 28.7621C24.5268 27.8622 24.1822 27.0191 23.5564 26.3824C22.9306 25.7457 22.0939 25.3935 21.2044 25.3935H21.2009ZM32.7957 45.6335H32.7887C30.0254 45.6299 27.7788 43.3498 27.7823 40.5539C27.7858 39.1987 28.3062 37.9252 29.2554 36.9684C30.2011 36.0115 31.4598 35.4886 32.7957 35.4886H32.8028C35.5661 35.4922 37.8127 37.7723 37.8091 40.5682C37.8056 41.9234 37.2853 43.1969 36.3361 44.1537C35.3903 45.107 34.1317 45.6335 32.7957 45.6335ZM32.7957 37.196C31.9098 37.196 31.0766 37.5446 30.4472 38.1778C29.8179 38.811 29.4699 39.6575 29.4699 40.5575C29.4664 42.4143 30.957 43.9261 32.7922 43.9261H32.7957C33.6817 43.9261 34.5149 43.5775 35.1442 42.9443C35.7736 42.3111 36.1216 41.4646 36.1216 40.5646C36.1251 38.7078 34.6345 37.196 32.7993 37.196H32.7957Z" fill="#EB7124"/>
</g>
<defs>
<clipPath id="clip0_6920_31171">
<rect width="54" height="54" fill="white"/>
</clipPath>
</defs>
</svg>
