<svg width="55" height="54" viewBox="0 0 55 54" fill="none" xmlns="http://www.w3.org/2000/svg">
<g clip-path="url(#clip0_6920_31171)">
<path d="M47.9745 51.5987H7.30471C6.83712 51.5987 6.46094 51.2181 6.46094 50.745V24.5646C6.46094 24.0915 6.83712 23.7109 7.30471 23.7109C7.7723 23.7109 8.14848 24.0915 8.14848 24.5646V49.8913H47.1307V24.5646C47.1307 24.0915 47.5069 23.7109 47.9745 23.7109C48.4421 23.7109 48.8183 24.0915 48.8183 24.5646V50.745C48.8183 51.2181 48.4386 51.5987 47.9745 51.5987Z" fill="#EB7124"/>
<path d="M52.0316 28.1728C51.4515 28.1728 50.8925 27.9771 50.4285 27.6072L27.6396 9.46594L4.85073 27.6072C3.72219 28.5036 2.08387 28.3079 1.19791 27.1661C0.768988 26.6148 0.575624 25.9247 0.660001 25.2275C0.740862 24.5303 1.08892 23.9042 1.63385 23.4703L27.1193 3.18408C27.4251 2.93864 27.8576 2.93864 28.1634 3.18408L53.6489 23.4703C54.7774 24.3667 54.9708 26.0243 54.0848 27.1661C53.6559 27.7175 53.0371 28.0696 52.348 28.1514C52.2426 28.1657 52.1371 28.1728 52.0316 28.1728ZM27.6396 7.52731C27.8224 7.52731 28.0087 7.58778 28.1599 7.70872L51.4726 26.2626C51.666 26.4156 51.9051 26.4832 52.1476 26.4547C52.3902 26.4262 52.6082 26.3017 52.7594 26.1097C53.0723 25.7077 53.002 25.1243 52.6047 24.8113L27.6396 4.94129L2.6745 24.8113C2.48114 24.9643 2.36161 25.1848 2.33348 25.4302C2.30535 25.6757 2.37215 25.9176 2.52333 26.1132C2.83623 26.5152 3.40929 26.5827 3.80657 26.2697L27.1193 7.71584C27.2704 7.58778 27.4568 7.52731 27.6396 7.52731Z" fill="#EB7124"/>
<path d="M43.6179 17.4221C43.1503 17.4221 42.7741 17.0414 42.7741 16.5684V6.75429H38.5904V11.8943C38.5904 12.3674 38.2142 12.748 37.7466 12.748C37.279 12.748 36.9029 12.3674 36.9029 11.8943V5.90058C36.9029 5.42749 37.279 5.04688 37.7466 5.04688H43.6179C44.0855 5.04688 44.4616 5.42749 44.4616 5.90058V16.5684C44.4616 17.0414 44.0855 17.4221 43.6179 17.4221ZM18.7196 44.513C18.5016 44.513 18.2872 44.4276 18.1219 44.2604C17.7914 43.9261 17.795 43.3854 18.1219 43.0546L35.9606 25.0556C36.2911 24.7212 36.8255 24.7248 37.1525 25.0556C37.483 25.39 37.4794 25.9307 37.1525 26.2615L19.3137 44.2604C19.152 44.4312 18.934 44.513 18.7196 44.513ZM21.8415 33.831H21.8345C19.0712 33.8274 16.8246 31.5473 16.8281 28.7515C16.8281 27.3962 17.352 26.1227 18.3012 25.1659C19.2469 24.209 20.5056 23.6861 21.8415 23.6861H21.8486C23.1881 23.6861 24.4467 24.2161 25.3924 25.1766C26.3381 26.137 26.8585 27.4104 26.8549 28.7657C26.8549 30.1209 26.3311 31.3944 25.3819 32.3512C24.4361 33.3081 23.1775 33.831 21.8415 33.831ZM21.8415 25.3935C20.9556 25.3935 20.1224 25.7421 19.493 26.3753C18.8637 27.0085 18.5157 27.8551 18.5157 28.755C18.5122 30.6118 20.0028 32.1236 21.838 32.1236H21.8415C22.7275 32.1236 23.5642 31.775 24.19 31.1418C24.8193 30.5087 25.1674 29.6621 25.1674 28.7621C25.1674 27.8622 24.8229 27.0191 24.1971 26.3824C23.5713 25.7457 22.7345 25.3935 21.8451 25.3935H21.8415ZM33.4364 45.6335H33.4293C30.666 45.6299 28.4194 43.3498 28.423 40.5539C28.4265 39.1987 28.9468 37.9252 29.896 36.9684C30.8418 36.0115 32.1004 35.4886 33.4364 35.4886H33.4434C36.2067 35.4922 38.4533 37.7723 38.4498 40.5682C38.4463 41.9234 37.9259 43.1969 36.9767 44.1537C36.031 45.107 34.7723 45.6335 33.4364 45.6335ZM33.4364 37.196C32.5504 37.196 31.7172 37.5446 31.0879 38.1778C30.4586 38.811 30.1105 39.6575 30.1105 40.5575C30.107 42.4143 31.5976 43.9261 33.4328 43.9261H33.4364C34.3223 43.9261 35.1555 43.5775 35.7849 42.9443C36.4142 42.3111 36.7622 41.4646 36.7622 40.5646C36.7657 38.7078 35.2751 37.196 33.4399 37.196H33.4364Z" fill="#EB7124"/>
</g>
<defs>
<clipPath id="clip0_6920_31171">
<rect width="54" height="54" fill="white" transform="translate(0.640625)"/>
</clipPath>
</defs>
</svg>
