<svg width="54" height="54" viewBox="0 0 54 54" fill="none" xmlns="http://www.w3.org/2000/svg">
<path d="M44.542 43.6649L44.1337 43.7324C43.6075 41.4474 44.7408 40.0026 45.5194 37.6851C46.4763 35.1675 46.4801 31.7126 45.535 26.1342L44.8898 22.3658C44.8439 22.0881 44.7427 21.8221 44.592 21.5831C44.4413 21.3441 44.2441 21.1367 44.0118 20.973C43.7794 20.8093 43.5164 20.6925 43.238 20.6292C42.9596 20.5659 42.6712 20.5575 42.3895 20.6043C41.7937 20.6345 41.2141 20.8059 40.7001 21.1039C40.5221 20.6348 40.1844 20.2411 39.7444 19.9899C39.3044 19.7387 38.7895 19.6457 38.2876 19.7266C37.6975 19.7637 37.1243 19.9361 36.6138 20.2299C36.4371 19.7614 36.1004 19.3679 35.6615 19.1167C35.2225 18.8656 34.7086 18.7725 34.2076 18.8533C33.6275 18.8851 33.0628 19.0485 32.5575 19.3308L32.0788 16.5222C33.6889 16.6916 35.1271 15.7397 35.1539 14.0672V2.45501C35.1532 1.8041 34.8903 1.18004 34.4228 0.719775C33.9553 0.259511 33.3215 0.000649936 32.6604 0H20.866C20.2049 0.000649936 19.5711 0.259511 19.1036 0.719775C18.6361 1.18004 18.3732 1.8041 18.3725 2.45501V14.0672C18.3732 14.7181 18.6361 15.3422 19.1036 15.8025C19.5711 16.2627 20.2049 16.5216 20.866 16.5222H26.7458L27.7469 26.0502C27.8884 26.8394 27.6447 30.9405 27.6409 31.8182C27.6402 31.8447 27.6321 31.8704 27.6176 31.8927C27.6031 31.915 27.5828 31.933 27.5587 31.9448C27.5346 31.9566 27.5078 31.9617 27.481 31.9596C27.4542 31.9575 27.4284 31.9483 27.4065 31.933L23.1414 29.3024C22.5899 28.9656 21.9593 28.775 21.3109 28.7492C20.6625 28.7234 20.0183 28.8632 19.441 29.1551L18.7759 29.4939C18.5894 29.5922 18.4277 29.7305 18.3028 29.8986C18.1779 30.0667 18.093 30.2603 18.0542 30.465C18.0155 30.6698 18.024 30.8804 18.0791 31.0815C18.1342 31.2826 18.2345 31.4689 18.3725 31.6267L28.518 43.0155C29.2883 43.8775 29.7951 44.9366 29.9798 46.0702L29.5697 46.1377C29.2441 46.1927 28.9538 46.3721 28.7618 46.6368C28.5699 46.9015 28.4919 47.2301 28.5448 47.5512L29.5572 53.488C29.5848 53.6482 29.6757 53.7911 29.8101 53.8855C29.9444 53.9799 30.1112 54.0182 30.2741 53.9919L46.477 51.3159C46.6395 51.2881 46.7843 51.1984 46.8801 51.0662C46.9759 50.9339 47.015 50.7699 46.9887 50.6095L45.977 44.6714C45.9217 44.3509 45.7397 44.0649 45.4707 43.8762C45.2017 43.6876 44.8678 43.6116 44.542 43.6649ZM20.866 15.2947C20.5355 15.2944 20.2186 15.165 19.9848 14.9348C19.7511 14.7047 19.6196 14.3927 19.6193 14.0672V2.45501C19.6198 2.12961 19.7513 1.81767 19.985 1.58757C20.2187 1.35748 20.5355 1.22799 20.866 1.22751H32.6604C32.9909 1.22799 33.3077 1.35748 33.5414 1.58757C33.7751 1.81767 33.9066 2.12961 33.9071 2.45501V14.0672C33.9066 14.3926 33.7751 14.7046 33.5414 14.9347C33.3077 15.1648 32.9909 15.2942 32.6604 15.2947H31.8699C31.6792 14.3465 31.6736 12.8723 30.7161 12.3082C30.0416 11.7798 29.1127 11.8988 28.326 12.0695C27.765 12.1646 27.2638 12.4715 26.929 12.9248C26.5942 13.3781 26.4522 13.9421 26.5332 14.4969L26.6167 15.2947H20.866ZM29.4562 42.2066L19.3095 30.8166C19.2936 30.7995 19.2819 30.779 19.2754 30.7568C19.2688 30.7345 19.2676 30.7111 19.2719 30.6883C19.2761 30.6656 19.2856 30.644 19.2997 30.6255C19.3138 30.607 19.3321 30.5919 19.3531 30.5815L20.0139 30.2452C20.3985 30.0504 20.8278 29.957 21.26 29.9741C21.6922 29.9912 22.1125 30.1182 22.48 30.3427L26.7464 32.9745C26.9551 33.1012 27.1938 33.1719 27.4389 33.1796C27.684 33.1873 27.9268 33.1318 28.1433 33.0185C28.3598 32.9052 28.5424 32.738 28.673 32.5337C28.8036 32.3294 28.8776 32.095 28.8877 31.8538C28.892 30.8239 29.1458 26.8664 28.9862 25.9121L27.9345 15.9116C27.9364 15.906 27.9333 15.9011 27.9327 15.8956L27.7681 14.3336C27.7277 14.0939 27.7856 13.8483 27.929 13.6506C28.0724 13.4529 28.2896 13.3193 28.533 13.2792L29.2985 13.1503C29.5412 13.1106 29.79 13.1672 29.9904 13.3076C30.1909 13.4481 30.3267 13.6609 30.3682 13.8997L31.6424 21.3801L32.4279 25.9697C32.4403 26.0502 32.4689 26.1275 32.5119 26.197C32.555 26.2665 32.6117 26.3269 32.6787 26.3746C32.7456 26.4223 32.8216 26.4565 32.9021 26.475C32.9826 26.4936 33.0661 26.4961 33.1476 26.4826C33.2292 26.4691 33.3072 26.4398 33.3771 26.3963C33.447 26.3528 33.5074 26.2961 33.5548 26.2294C33.6022 26.1627 33.6357 26.0874 33.6533 26.0078C33.6709 25.9282 33.6722 25.846 33.6572 25.766L32.8761 21.1972C32.8514 20.9641 32.9171 20.7304 33.0602 20.543C33.2032 20.3556 33.4129 20.2285 33.6472 20.187L34.4152 20.063C34.6583 20.0245 34.907 20.0817 35.1077 20.2223C35.3083 20.3628 35.4447 20.5755 35.4874 20.8142L35.7405 22.2995L35.7449 22.3253L36.3813 26.0913C36.4084 26.2519 36.4992 26.3953 36.6337 26.4899C36.7682 26.5846 36.9354 26.6228 37.0985 26.5961C37.2616 26.5694 37.4073 26.48 37.5034 26.3476C37.5996 26.2152 37.6384 26.0505 37.6113 25.89L36.9735 22.1191C36.9528 22.0003 36.9562 21.8786 36.9836 21.7611C37.0109 21.6436 37.0617 21.5326 37.133 21.4346C37.2043 21.3365 37.2946 21.2534 37.3987 21.19C37.5029 21.1266 37.6188 21.0842 37.7397 21.0652L38.4958 20.9364C38.7394 20.8976 38.9888 20.9544 39.1903 21.0946C39.3919 21.2349 39.5295 21.4473 39.5736 21.6864L39.8299 23.1925L40.3429 26.214C40.3564 26.2935 40.3857 26.3696 40.4291 26.438C40.4725 26.5064 40.5291 26.5657 40.5957 26.6125C40.6624 26.6593 40.7378 26.6927 40.8176 26.7109C40.8973 26.729 40.98 26.7315 41.0607 26.7182C41.1415 26.7049 41.2188 26.6761 41.2882 26.6334C41.3577 26.5907 41.4179 26.5349 41.4654 26.4693C41.513 26.4037 41.547 26.3294 41.5654 26.2509C41.5838 26.1723 41.5863 26.091 41.5728 26.0115L41.0598 22.99V22.9888C41.0215 22.7507 41.0795 22.5074 41.2213 22.311C41.3632 22.1145 41.5775 21.9806 41.8184 21.938L42.5958 21.8146C42.7158 21.795 42.8386 21.7989 42.9571 21.826C43.0756 21.8532 43.1875 21.9032 43.2864 21.973C43.3853 22.0429 43.4691 22.1313 43.5332 22.2331C43.5973 22.3349 43.6404 22.4482 43.6599 22.5665L44.3051 26.3362C45.2121 31.6881 45.2258 34.9533 44.3512 37.2548V37.2561C43.4691 39.7454 42.3221 41.4308 42.9037 43.9337L31.2091 45.864C30.9857 44.5066 30.3782 43.2394 29.4562 42.2066ZM30.683 52.6803L29.7748 47.3492L43.0671 45.152L43.7254 45.044L44.7477 44.8752L45.6566 50.2075L30.683 52.6803ZM13.2521 10.7075H4.87014C4.3743 10.708 3.89891 10.9022 3.5483 11.2474C3.19769 11.5926 3.0005 12.0606 3 12.5488V20.8019C3.0005 21.2901 3.19769 21.7582 3.5483 22.1034C3.89891 22.4486 4.3743 22.6427 4.87014 22.6432H13.2521C13.7479 22.6427 14.2233 22.4486 14.5739 22.1034C14.9245 21.7582 15.1217 21.2901 15.1222 20.8019V12.5488C15.1217 12.0606 14.9245 11.5926 14.5739 11.2474C14.2233 10.9022 13.7479 10.708 13.2521 10.7075ZM13.8755 20.8019C13.8755 20.9647 13.8098 21.1208 13.6929 21.2359C13.576 21.351 13.4174 21.4157 13.2521 21.4157H4.87014C4.70481 21.4157 4.54625 21.351 4.42934 21.2359C4.31244 21.1208 4.24676 20.9647 4.24676 20.8019V12.5488C4.24676 12.386 4.31244 12.2299 4.42934 12.1148C4.54625 11.9997 4.70481 11.935 4.87014 11.935H13.2521C13.4174 11.935 13.576 11.9997 13.6929 12.1148C13.8098 12.2299 13.8755 12.386 13.8755 12.5488V20.8019Z" fill="#EB7124"/>
<path d="M49.1286 4.59101H40.7466C40.2508 4.5915 39.7754 4.78565 39.4248 5.13084C39.0742 5.47604 38.877 5.94409 38.8765 6.43227V14.6848C38.877 15.173 39.0742 15.641 39.4248 15.9862C39.7754 16.3314 40.2508 16.5256 40.7466 16.5261H49.1286C49.6244 16.5256 50.0998 16.3314 50.4504 15.9862C50.801 15.641 50.9982 15.173 50.9987 14.6848V6.43227C50.9982 5.94409 50.801 5.47604 50.4504 5.13084C50.0998 4.78565 49.6244 4.5915 49.1286 4.59101ZM49.752 14.6848C49.752 14.8476 49.6863 15.0037 49.5694 15.1188C49.4525 15.2339 49.2939 15.2986 49.1286 15.2986H40.7466C40.5813 15.2986 40.4227 15.2339 40.3058 15.1188C40.1889 15.0037 40.1233 14.8476 40.1233 14.6848V6.43227C40.1233 6.2695 40.1889 6.11339 40.3058 5.99828C40.4227 5.88318 40.5813 5.81852 40.7466 5.81852H49.1286C49.2939 5.81852 49.4525 5.88318 49.5694 5.99828C49.6863 6.11339 49.752 6.2695 49.752 6.43227V14.6848ZM31.3716 4.4922C31.2547 4.37714 31.0962 4.3125 30.9309 4.3125C30.7656 4.3125 30.6071 4.37714 30.4902 4.4922L25.9869 8.92595L23.6804 6.65507C23.5627 6.54334 23.4052 6.48159 23.2418 6.4831C23.0783 6.48461 22.922 6.54927 22.8065 6.66314C22.691 6.77702 22.6256 6.93101 22.6243 7.09193C22.623 7.25286 22.6859 7.40785 22.7996 7.52353L25.5462 10.2277C25.6631 10.3428 25.8216 10.4074 25.9869 10.4074C26.1522 10.4074 26.3107 10.3428 26.4276 10.2277L31.371 5.36066C31.429 5.30366 31.475 5.23597 31.5063 5.16146C31.5377 5.08695 31.5538 5.00709 31.5538 4.92643C31.5538 4.84577 31.5377 4.76591 31.5063 4.6914C31.475 4.61689 31.4296 4.5492 31.3716 4.4922ZM9.05965 14.5338C8.48232 14.5338 7.92863 14.7596 7.52039 15.1616C7.11216 15.5635 6.88281 16.1086 6.88281 16.677C6.88281 17.2455 7.11216 17.7906 7.52039 18.1925C7.92863 18.5945 8.48232 18.8203 9.05965 18.8203C9.63699 18.8203 10.1907 18.5945 10.5989 18.1925C11.0071 17.7906 11.2365 17.2455 11.2365 16.677C11.2365 16.1086 11.0071 15.5635 10.5989 15.1616C10.1907 14.7596 9.63699 14.5338 9.05965 14.5338ZM9.05965 17.5928C8.81298 17.5928 8.57641 17.4963 8.40199 17.3246C8.22756 17.1528 8.12957 16.9199 8.12957 16.677C8.12957 16.4342 8.22756 16.2013 8.40199 16.0295C8.57641 15.8578 8.81298 15.7613 9.05965 15.7613C9.30632 15.7613 9.54289 15.8578 9.71732 16.0295C9.89174 16.2013 9.98973 16.4342 9.98973 16.677C9.98973 16.9199 9.89174 17.1528 9.71732 17.3246C9.54289 17.4963 9.30632 17.5928 9.05965 17.5928Z" fill="#EB7124"/>
<path d="M44.9386 8.41406C44.3612 8.41406 43.8075 8.63987 43.3993 9.0418C42.9911 9.44373 42.7617 9.98887 42.7617 10.5573C42.7617 11.1257 42.9911 11.6708 43.3993 12.0728C43.8075 12.4747 44.3612 12.7005 44.9386 12.7005C45.5159 12.7005 46.0696 12.4747 46.4778 12.0728C46.886 11.6708 47.1154 11.1257 47.1154 10.5573C47.1154 9.98887 46.886 9.44373 46.4778 9.0418C46.0696 8.63987 45.5159 8.41406 44.9386 8.41406ZM44.9386 11.473C44.6919 11.473 44.4553 11.3765 44.2809 11.2048C44.1065 11.0331 44.0085 10.8002 44.0085 10.5573C44.0085 10.3144 44.1065 10.0815 44.2809 9.90978C44.4553 9.73805 44.6919 9.64157 44.9386 9.64157C45.1852 9.64157 45.4218 9.73805 45.5962 9.90978C45.7706 10.0815 45.8686 10.3144 45.8686 10.5573C45.8686 10.8002 45.7706 11.0331 45.5962 11.2048C45.4218 11.3765 45.1852 11.473 44.9386 11.473Z" fill="#EB7124"/>
</svg>
