<svg width="55" height="54" viewBox="0 0 55 54" fill="none" xmlns="http://www.w3.org/2000/svg">
<g clip-path="url(#clip0_6920_31177)">
<path d="M1.17349 38.0454C1.06406 38.0943 0.96549 38.1646 0.883576 38.2521C0.801661 38.3396 0.738051 38.4426 0.696481 38.555C0.65491 38.6674 0.636217 38.7871 0.641499 38.9068C0.646781 39.0266 0.675932 39.1441 0.72724 39.2524C0.778547 39.3608 0.850977 39.4578 0.940277 39.5377C1.02958 39.6177 1.13395 39.679 1.24726 39.718C1.36057 39.7571 1.48054 39.7731 1.60012 39.7651C1.7197 39.7571 1.83649 39.7253 1.94362 39.6716L11.5342 35.1314C12.3211 34.7568 13.182 34.5638 14.0535 34.5668C14.9249 34.5697 15.7846 34.7686 16.5688 35.1485L22.8126 38.1579C22.935 38.2155 23.0592 38.2686 23.1851 38.3127L31.7348 41.3698C32.2462 41.5536 32.6639 41.9328 32.8963 42.4242C33.1287 42.9156 33.1568 43.4791 32.9745 43.9913C32.7909 44.5028 32.412 44.9206 31.9209 45.153C31.4298 45.3855 30.8665 45.4137 30.3547 45.2314L22.5346 42.4353C22.3112 42.3601 22.0673 42.3756 21.8552 42.4784C21.643 42.5813 21.4798 42.7633 21.4004 42.9853C21.3211 43.2073 21.3321 43.4516 21.4309 43.6657C21.5298 43.8797 21.7087 44.0464 21.9291 44.1299L29.7492 46.9259C30.1756 47.0789 30.6111 47.1509 31.0411 47.1509C31.8352 47.1506 32.6098 46.9051 33.2592 46.448C33.9086 45.9909 34.4011 45.3445 34.6695 44.5969C34.7523 44.3647 34.8063 44.1289 34.8423 43.895L49.5791 36.9178C50.1266 36.6598 50.7541 36.6294 51.324 36.8331C51.894 37.0369 52.36 37.4582 52.62 38.0049C52.8809 38.5566 52.9115 39.1766 52.7064 39.7508C52.6062 40.0336 52.4509 40.2938 52.2495 40.5163C52.0481 40.7387 51.8047 40.919 51.5332 41.0467L30.8882 50.8208C30.4303 51.0361 29.9143 51.0946 29.4199 50.9873L10.6912 46.8656C10.4968 46.8226 10.2937 46.8454 10.1136 46.9304L6.245 48.7627C6.13756 48.8128 6.04109 48.8837 5.96113 48.9712C5.88117 49.0588 5.81929 49.1613 5.77906 49.2728C5.73882 49.3843 5.72102 49.5027 5.72667 49.6212C5.73232 49.7396 5.76132 49.8558 5.812 49.963C5.86268 50.0702 5.93404 50.1663 6.02198 50.2458C6.10992 50.3253 6.2127 50.3867 6.32442 50.4264C6.43614 50.466 6.55459 50.4832 6.67297 50.4769C6.79135 50.4706 6.90733 50.441 7.01423 50.3898L10.6058 48.6889L29.0339 52.7449C29.9175 52.938 30.8402 52.8336 31.6583 52.4479L52.3015 42.6729C52.787 42.4447 53.2223 42.1224 53.5825 41.7248C53.9426 41.3272 54.2203 40.8621 54.3996 40.3564C54.7675 39.3296 54.7127 38.2209 54.2457 37.2346C53.7788 36.2483 52.9565 35.504 51.9299 35.1368C51.4253 34.9546 50.8895 34.8743 50.3536 34.9007C49.8177 34.9271 49.2923 35.0597 48.808 35.2907L34.6444 41.997C34.2665 40.9549 33.4613 40.0766 32.3394 39.6752L23.787 36.6172C23.7197 36.593 23.6536 36.5654 23.5891 36.5344L17.3489 33.5269C16.323 33.0297 15.1985 32.7696 14.0586 32.7657C12.9187 32.7618 11.7924 33.0142 10.7632 33.5044L1.17349 38.0454Z" fill="#EB7124"/>
<path d="M32.6726 36.4654C32.8413 36.6341 33.0701 36.7289 33.3087 36.7289C33.5473 36.7289 33.7761 36.6341 33.9448 36.4654L49.3158 21.0901C50.4122 19.9996 51.2815 18.7025 51.8734 17.2738C52.4653 15.8451 52.7681 14.3132 52.7643 12.7667C52.7643 9.62319 51.5399 6.66782 49.3167 4.44319C44.9335 0.0605316 37.9268 -0.136554 33.3105 3.85284C31.1775 2.00449 28.4475 0.991113 25.6254 1.00006C22.4801 1.00006 19.5256 2.22396 17.3034 4.44499C15.0811 6.66602 13.8594 9.62229 13.8594 12.7693C13.8594 15.9146 15.0829 18.8709 17.3034 21.0919L32.6726 36.4654ZM18.5764 5.71749C19.5002 4.78916 20.5988 4.0533 21.8088 3.5525C23.0187 3.0517 24.316 2.7959 25.6254 2.79992C28.2894 2.79992 30.7932 3.83484 32.6744 5.71659C32.8464 5.87898 33.074 5.96945 33.3105 5.96945C33.547 5.96945 33.7746 5.87898 33.9466 5.71659C37.8332 1.82889 44.158 1.82889 48.0446 5.71659C48.9731 6.64026 49.7093 7.73895 50.2106 8.94908C50.7119 10.1592 50.9683 11.4568 50.9649 12.7667C50.9649 15.4304 49.9267 17.9341 48.0437 19.8176L33.3087 34.5567L18.5755 19.8194C17.6473 18.8955 16.9116 17.7965 16.4109 16.5862C15.9102 15.3759 15.6546 14.0783 15.6587 12.7684C15.6587 10.1029 16.6952 7.59925 18.5764 5.71749Z" fill="#EB7124"/>
<path d="M19.3609 14.3783C19.4889 14.3785 19.6155 14.3513 19.7322 14.2986C19.8489 14.2459 19.9531 14.1689 20.0376 14.0728C20.1222 13.9766 20.1853 13.8634 20.2226 13.7409C20.26 13.6184 20.2708 13.4893 20.2542 13.3623C20.1431 12.5383 20.2242 11.6997 20.4911 10.9122C20.758 10.1247 21.2035 9.40963 21.7927 8.82307C22.2949 8.31825 22.8922 7.91815 23.5501 7.64596C24.208 7.37376 24.9134 7.23489 25.6253 7.23739C25.8639 7.23739 26.0928 7.14258 26.2615 6.97381C26.4302 6.80504 26.525 6.57614 26.525 6.33746C26.525 6.09879 26.4302 5.86989 26.2615 5.70112C26.0928 5.53235 25.8639 5.43753 25.6253 5.43753C24.6772 5.43471 23.7379 5.62001 22.8618 5.98271C21.9857 6.34541 21.1903 6.87831 20.5214 7.55057C19.7365 8.3314 19.1429 9.28333 18.787 10.3319C18.4312 11.3804 18.3227 12.4971 18.4702 13.5945C18.4981 13.8112 18.6039 14.0102 18.7678 14.1546C18.9317 14.299 19.1425 14.3789 19.3609 14.3792V14.3783Z" fill="#EB7124"/>
</g>
<defs>
<clipPath id="clip0_6920_31177">
<rect width="54" height="54" fill="white" transform="translate(0.640625)"/>
</clipPath>
</defs>
</svg>
