<svg width="54" height="54" viewBox="0 0 54 54" fill="none" xmlns="http://www.w3.org/2000/svg">
<path d="M26.6384 12.8103V13.7414C18.9556 14.1939 12.8421 20.6546 12.8421 28.5325C12.842 28.7308 12.9088 28.9231 13.0316 29.0778C13.1543 29.2324 13.3255 29.3401 13.517 29.3831C13.7085 29.426 13.9087 29.4016 14.0846 29.3139C14.2605 29.2262 14.4015 29.0805 14.4844 28.9008C15.1772 27.4001 16.6758 26.4304 18.3024 26.4304C19.9289 26.4304 21.4276 27.4001 22.1203 28.9008C22.1897 29.051 22.3 29.178 22.4384 29.267C22.5767 29.356 22.7372 29.4033 22.9012 29.4033C23.0651 29.4033 23.2257 29.356 23.364 29.267C23.5023 29.178 23.6126 29.051 23.682 28.9008C24.2501 27.6702 25.3605 26.7978 26.6385 26.5232V39.1033C26.6385 39.9047 25.9935 40.5567 25.2007 40.5567C24.408 40.5567 23.7631 39.9048 23.7631 39.1033V38.4676C23.7631 38.2366 23.6723 38.0151 23.5107 37.8518C23.3491 37.6884 23.13 37.5967 22.9015 37.5967C22.673 37.5967 22.4538 37.6884 22.2922 37.8518C22.1307 38.0151 22.0399 38.2366 22.0399 38.4676V39.1033C22.0399 40.8653 23.4579 42.2987 25.2007 42.2987C26.9437 42.2987 28.3617 40.8653 28.3617 39.1033V26.5232C29.6397 26.7978 30.7499 27.6702 31.318 28.9008C31.3874 29.051 31.4977 29.178 31.636 29.267C31.7744 29.356 31.9349 29.4033 32.0988 29.4033C32.2628 29.4033 32.4233 29.356 32.5617 29.267C32.7 29.178 32.8103 29.051 32.8797 28.9008C33.5725 27.4001 35.0711 26.4304 36.6976 26.4304C38.3241 26.4304 39.8228 27.4001 40.5158 28.9009C40.5988 29.0805 40.7398 29.2262 40.9157 29.3138C41.0916 29.4014 41.2918 29.4257 41.4832 29.3828C41.6746 29.3398 41.8458 29.2322 41.9685 29.0776C42.0913 28.923 42.1581 28.7307 42.1581 28.5325C42.1581 20.6546 36.0446 14.1939 28.3618 13.7414V12.8103C28.3582 12.5816 28.2659 12.3636 28.1047 12.2032C27.9435 12.0427 27.7263 11.9528 27.5001 11.9528C27.2739 11.9528 27.0568 12.0427 26.8956 12.2032C26.7343 12.3636 26.642 12.5816 26.6384 12.8103ZM18.3024 24.6885C17.0421 24.6885 15.8367 25.1006 14.8446 25.8223C15.9434 20.5733 20.1671 16.4767 25.4476 15.6221C23.1299 18.8562 22.3766 23.2269 22.1414 26.1265C21.0852 25.2183 19.7296 24.6885 18.3024 24.6885ZM27.4999 24.6885C26.1762 24.6885 24.9138 25.1443 23.8949 25.9347C24.1691 23.0451 25.0019 18.6218 27.4995 15.8223C29.7046 18.3041 30.7794 22.2862 31.1161 25.9433C30.0953 25.1475 28.8285 24.6885 27.4999 24.6885ZM40.1552 25.8223C39.1631 25.1006 37.9577 24.6885 36.6974 24.6885C35.2704 24.6885 33.9148 25.2183 32.8586 26.1262C32.6235 23.2269 31.8703 18.8566 29.5532 15.6227C32.2163 16.0541 34.6782 17.3214 36.6344 19.2988C38.436 21.1198 39.6424 23.3743 40.1552 25.8223ZM49.4778 9.44484L27.8394 0.0703045C27.7321 0.0239167 27.6166 0 27.4999 0C27.3833 0 27.2678 0.0239167 27.1605 0.0703045L5.52223 9.44484C5.36724 9.51201 5.23515 9.62367 5.14233 9.76598C5.0495 9.9083 5.00001 10.075 5 10.2455V27.9325C5 34.09 7.17745 40.0968 11.1312 44.8464C15.0832 49.5939 20.5642 52.7909 26.5645 53.8482C26.8673 53.9016 27.1919 54 27.5 54C27.8068 54 28.1332 53.9016 28.4355 53.8482C34.4357 52.7909 39.9167 49.594 43.8688 44.8464C47.8226 40.0968 50 34.0899 50 27.9325V10.2454C50 10.0749 49.9505 9.90821 49.8577 9.76591C49.7649 9.62362 49.6328 9.51198 49.4778 9.44484ZM48.2768 27.9324C48.2768 39.8984 39.8078 50.076 28.1395 52.1321L27.5 52.2449L26.8605 52.1322C15.1922 50.076 6.72318 39.8985 6.72318 27.9324V10.8198L27.5 1.81855L48.2768 10.8198V27.9324ZM27.1606 3.62374L8.7532 11.5984C8.59821 11.6656 8.46612 11.7772 8.37329 11.9196C8.28046 12.0619 8.23098 12.2286 8.23096 12.3991V27.9325C8.23096 33.3219 10.139 38.582 13.6034 42.7437C17.0666 46.9039 21.8666 49.7048 27.1193 50.6306C27.2446 50.6527 27.3722 50.6846 27.5 50.6846C27.6274 50.6846 27.7556 50.6527 27.8806 50.6306C33.1334 49.7048 37.9335 46.9039 41.3967 42.7437C44.8612 38.582 46.7691 33.3219 46.7691 27.9325V12.3991C46.7691 12.0507 46.5638 11.7357 46.2469 11.5984L27.8394 3.62374C27.7321 3.57735 27.6167 3.55343 27.5 3.55343C27.3833 3.55343 27.2679 3.57735 27.1606 3.62374ZM45.046 12.9733V27.9324C45.046 38.3071 37.7024 47.1313 27.5845 48.9145L27.5 48.9295L27.4154 48.9145C17.2976 47.1314 9.95414 38.3071 9.95414 27.9324V12.9733L27.5 5.37199L45.046 12.9733Z" fill="#EB7124"/>
</svg>
