<svg width="54" height="54" viewBox="0 0 54 54" fill="none" xmlns="http://www.w3.org/2000/svg">
<path d="M26.9469 54H26.3033C25.7031 54.0003 25.1079 53.8935 24.5459 53.6846C18.3431 51.3827 13.359 47.6522 9.73196 42.5965C6.88369 38.6264 4.90818 33.8805 3.86039 28.4906C2.13213 19.6003 3.53161 11.894 3.59204 11.5703C3.90148 9.91294 5.02225 8.53556 6.59014 7.88583L24.6917 0.384489C25.3074 0.129351 25.9578 0 26.6251 0C27.2923 0 27.9427 0.129351 28.5584 0.38446L46.66 7.8858C48.2279 8.53559 49.3487 9.91294 49.658 11.5702C49.7185 11.894 51.1178 19.6012 49.3897 28.4905C48.3419 33.8805 46.3664 38.6264 43.5181 42.5965C39.8911 47.6522 34.9069 51.3827 28.7042 53.6845C28.1423 53.8935 27.547 54.0004 26.9469 54ZM26.6251 1.85408C26.2086 1.85365 25.7963 1.93564 25.4123 2.09525L7.31068 9.59659C6.32714 10.0042 5.62407 10.8682 5.42997 11.9078C5.37217 12.2174 4.0336 19.5894 5.69574 28.1395C6.69251 33.2669 8.56288 37.7692 11.2549 41.5215C14.6617 46.2702 19.3538 49.7782 25.2008 51.9481C25.5533 52.0791 25.9268 52.1461 26.3032 52.1459H26.9468C27.3245 52.1459 27.6954 52.0793 28.0493 51.948C33.8963 49.7782 38.5883 46.2702 41.9952 41.5215C44.6872 37.7692 46.5576 33.2669 47.5544 28.1395C49.2163 19.5903 47.8779 12.2174 47.8201 11.9078C47.626 10.8682 46.923 10.0042 45.9394 9.59656L27.8378 2.09522C27.4538 1.93564 27.0415 1.85365 26.6251 1.85408Z" fill="#EB7124"/>
<path d="M26.9457 49.9514H26.302C26.1902 49.9514 26.0793 49.9315 25.9746 49.8926C20.5484 47.879 16.2018 44.6343 13.0555 40.2488C10.5484 36.7542 8.80241 32.54 7.86604 27.7233C7.0382 23.4649 7.00946 19.5098 7.13111 16.9418C7.26332 14.1513 7.58946 12.3804 7.60328 12.3065C7.63155 12.155 7.69744 12.0129 7.79498 11.893C7.89253 11.7731 8.01865 11.6793 8.16196 11.6199L26.2635 4.11853C26.3777 4.07123 26.5001 4.04688 26.6238 4.04688C26.7475 4.04687 26.8699 4.07123 26.9841 4.11853L45.0856 11.6199C45.2289 11.6793 45.3551 11.7731 45.4526 11.893C45.5501 12.0129 45.616 12.155 45.6443 12.3065C45.6582 12.3805 45.9843 14.1513 46.1165 16.9418C46.2382 19.5098 46.2094 23.4649 45.3816 27.7233C44.4452 32.5401 42.6992 36.7542 40.1921 40.2488C37.0458 44.6343 32.6992 47.879 27.2731 49.8926C27.1684 49.9315 27.0575 49.9514 26.9457 49.9514ZM26.4724 48.0973H26.7752C35.8997 44.6561 41.5416 37.6843 43.5462 27.3723C44.8317 20.7599 44.1356 14.8327 43.8846 13.1315L26.6238 5.97861L9.36279 13.1316C9.25954 13.828 9.08121 15.2308 8.99564 17.0849C8.88171 19.5532 8.91351 23.351 9.71203 27.4266C11.7266 37.709 17.3647 44.6625 26.4724 48.0973Z" fill="#EB7124"/>
<path d="M31.1308 38.4743H22.122C19.7026 38.4743 17.7344 36.5218 17.7344 34.1219V26.8603C17.7344 24.4603 19.7026 22.5078 22.122 22.5078H31.1308C33.5501 22.5078 35.5184 24.4603 35.5184 26.8603V34.1219C35.5184 36.5218 33.5501 38.4743 31.1308 38.4743ZM22.122 24.3619C20.7333 24.3619 19.6036 25.4827 19.6036 26.8603V34.1219C19.6036 35.4995 20.7333 36.6202 22.122 36.6202H31.1308C32.5195 36.6202 33.6492 35.4994 33.6492 34.1219V26.8603C33.6492 25.4827 32.5194 24.3619 31.1308 24.3619H22.122ZM26.6264 31.5989C25.1986 31.5989 24.037 30.4467 24.037 29.0304C24.037 27.614 25.1986 26.4616 26.6264 26.4616C28.0542 26.4616 29.2158 27.614 29.2158 29.0304C29.2158 30.4467 28.0542 31.5989 26.6264 31.5989ZM26.6264 28.3157C26.2293 28.3157 25.9062 28.6363 25.9062 29.0304C25.9062 29.4243 26.2293 29.7448 26.6264 29.7448C27.0235 29.7448 27.3466 29.4243 27.3466 29.0304C27.3466 28.6363 27.0235 28.3157 26.6264 28.3157Z" fill="#EB7124"/>
<path d="M32.4457 24.365C31.9295 24.365 31.5111 23.9499 31.5111 23.438V20.5985C31.5111 17.9264 29.3195 15.7525 26.6257 15.7525C23.9319 15.7525 21.7403 17.9264 21.7403 20.5985V23.438C21.7403 23.9499 21.3218 24.365 20.8057 24.365C20.2895 24.365 19.8711 23.9499 19.8711 23.438V20.5985C19.8711 18.8088 20.5737 17.1263 21.8495 15.8608C23.1252 14.5954 24.8215 13.8984 26.6257 13.8984C28.4299 13.8984 30.1261 14.5954 31.4019 15.8608C32.6777 17.1263 33.3803 18.8088 33.3803 20.5985V23.438C33.3803 23.9499 32.9618 24.365 32.4457 24.365ZM26.6257 34.3688C26.1095 34.3688 25.6911 33.9537 25.6911 33.4417V30.6748C25.6911 30.1628 26.1095 29.7478 26.6257 29.7478C27.1418 29.7478 27.5603 30.1628 27.5603 30.6748V33.4417C27.5603 33.9537 27.1418 34.3688 26.6257 34.3688Z" fill="#EB7124"/>
</svg>
