<svg width="40" height="40" viewBox="0 0 40 40" fill="none" xmlns="http://www.w3.org/2000/svg">
<rect width="40" height="40" rx="20" fill="url(#paint0_linear_2536_26402)"/>
<path d="M13.8276 13.3792C14.2934 13.3792 14.6709 12.7185 14.6709 11.9034C14.6709 11.0884 14.2934 10.4277 13.8276 10.4277C13.3619 10.4277 12.9844 11.0884 12.9844 11.9034C12.9844 12.7185 13.3619 13.3792 13.8276 13.3792Z" fill="white"/>
<path d="M17.6232 11.3379L17.2227 12.5353H18.0238L17.6232 11.3379Z" fill="white"/>
<path d="M23.9471 28.1368V25.3245C23.295 25.7099 22.6858 26.1636 22.1299 26.678C21.9983 26.8038 21.8228 26.8734 21.6408 26.8719H19.3091C19.1973 26.8719 19.0901 26.8275 19.011 26.7484C18.9319 26.6694 18.8875 26.5621 18.8875 26.4503C18.8875 26.3385 18.9319 26.2312 19.011 26.1521C19.0901 26.0731 19.1973 26.0287 19.3091 26.0287H20.9198C21.08 24.9872 21.3077 22.3478 19.9585 20.2438C19.88 20.1233 19.8376 19.9829 19.8362 19.8391C19.8362 19.6122 19.9441 19.3993 20.1271 19.2657C20.2409 19.1813 22.7201 17.3135 23.9471 15.4667V8.7417C23.9464 8.51826 23.8574 8.30416 23.6994 8.14616C23.5414 7.98816 23.3273 7.8991 23.1038 7.89844H9.18995C8.9665 7.8991 8.7524 7.98816 8.5944 8.14616C8.43641 8.30416 8.34735 8.51826 8.34668 8.7417V28.1368C8.34735 28.3603 8.43641 28.5744 8.5944 28.7324C8.7524 28.8904 8.9665 28.9794 9.18995 28.9801H23.1038C23.3273 28.9794 23.5414 28.8904 23.6994 28.7324C23.8574 28.5744 23.9464 28.3603 23.9471 28.1368ZM20.0976 23.0772C20.0976 23.189 20.0532 23.2963 19.9741 23.3754C19.895 23.4544 19.7878 23.4989 19.676 23.4989H17.201C17.0891 23.4989 16.9819 23.4544 16.9028 23.3754C16.8238 23.2963 16.7793 23.189 16.7793 23.0772C16.7793 22.9654 16.8238 22.8582 16.9028 22.7791C16.9819 22.7 17.0891 22.6556 17.201 22.6556H19.676C19.7878 22.6556 19.895 22.7 19.9741 22.7791C20.0532 22.8582 20.0976 22.9654 20.0976 23.0772ZM17.201 20.5474H18.917C19.0288 20.5474 19.1361 20.5918 19.2152 20.6709C19.2942 20.75 19.3386 20.8572 19.3386 20.9691C19.3386 21.0809 19.2942 21.1881 19.2152 21.2672C19.1361 21.3463 19.0288 21.3907 18.917 21.3907H17.201C17.0891 21.3907 16.9819 21.3463 16.9028 21.2672C16.8238 21.1881 16.7793 21.0809 16.7793 20.9691C16.7793 20.8572 16.8238 20.75 16.9028 20.6709C16.9819 20.5918 17.0891 20.5474 17.201 20.5474ZM16.7793 18.8609C16.7793 18.7491 16.8238 18.6418 16.9028 18.5628C16.9819 18.4837 17.0891 18.4393 17.201 18.4393H18.8369C18.9487 18.4393 19.056 18.4837 19.135 18.5628C19.2141 18.6418 19.2585 18.7491 19.2585 18.8609C19.2585 18.9727 19.2141 19.08 19.135 19.159C19.056 19.2381 18.9487 19.2825 18.8369 19.2825H17.201C17.0891 19.2825 16.9819 19.2381 16.9028 19.159C16.8238 19.08 16.7793 18.9727 16.7793 18.8609ZM21.139 17.1744H17.201C17.0891 17.1744 16.9819 17.1299 16.9028 17.0509C16.8238 16.9718 16.7793 16.8646 16.7793 16.7527C16.7793 16.6409 16.8238 16.5337 16.9028 16.4546C16.9819 16.3755 17.0891 16.3311 17.201 16.3311H21.139C21.2508 16.3311 21.3581 16.3755 21.4372 16.4546C21.5162 16.5337 21.5607 16.6409 21.5607 16.7527C21.5607 16.8646 21.5162 16.9718 21.4372 17.0509C21.3581 17.1299 21.2508 17.1744 21.139 17.1744ZM20.1524 10.0066C20.1524 9.9132 20.1834 9.82244 20.2406 9.74856C20.2977 9.67469 20.3778 9.62189 20.4682 9.59844C20.5586 9.57499 20.6542 9.58223 20.7401 9.61902C20.8259 9.6558 20.8972 9.72005 20.9425 9.80169L22.2606 12.1742V10.0066C22.2606 9.89478 22.305 9.78753 22.3841 9.70846C22.4631 9.62939 22.5704 9.58497 22.6822 9.58497C22.794 9.58497 22.9013 9.62939 22.9803 9.70846C23.0594 9.78753 23.1038 9.89478 23.1038 10.0066V13.8013C23.1038 13.8947 23.0728 13.9855 23.0157 14.0593C22.9585 14.1332 22.8785 14.186 22.788 14.2095C22.6976 14.2329 22.602 14.2257 22.5161 14.1889C22.4303 14.1521 22.3591 14.0878 22.3137 14.0062L20.9957 11.6337V13.8013C20.9957 13.9131 20.9512 14.0204 20.8722 14.0994C20.7931 14.1785 20.6859 14.2229 20.574 14.2229C20.4622 14.2229 20.355 14.1785 20.2759 14.0994C20.1968 14.0204 20.1524 13.9131 20.1524 13.8013V10.0066ZM15.9572 13.6664L16.0541 13.3754L16.1553 13.0719L17.2221 9.87168C17.2498 9.78732 17.3034 9.71388 17.3754 9.66181C17.4473 9.60973 17.5338 9.5817 17.6226 9.5817C17.7114 9.5817 17.7979 9.60973 17.8699 9.66181C17.9418 9.71388 17.9954 9.78732 18.0232 9.87168L19.2881 13.6664C19.3015 13.7102 19.3087 13.7553 19.3091 13.8013C19.3094 13.8897 19.2818 13.9759 19.2304 14.0478C19.1789 14.1197 19.1062 14.1736 19.0224 14.2018C18.9786 14.2145 18.933 14.2217 18.8875 14.2229C18.7991 14.2232 18.7129 14.1956 18.641 14.1442C18.5691 14.0927 18.5152 14.02 18.487 13.9362L18.3014 13.3797H16.9438L16.7583 13.9362C16.7225 14.0425 16.646 14.1301 16.5455 14.1799C16.4451 14.2298 16.329 14.2376 16.2228 14.2018C16.1165 14.1661 16.0289 14.0895 15.9791 13.9891C15.9293 13.8887 15.9214 13.7726 15.9572 13.6664ZM13.8279 9.58497C14.7724 9.58497 15.5144 10.6053 15.5144 11.9039C15.5157 12.2123 15.4717 12.5191 15.3837 12.8147C15.3551 12.9171 15.3184 13.0171 15.2741 13.114C15.1687 13.4205 14.9753 13.6891 14.7181 13.8863C14.4609 14.0836 14.1512 14.2006 13.8279 14.2229C13.5887 14.2155 13.3548 14.1503 13.1463 14.0328C12.9377 13.9153 12.7608 13.7491 12.6305 13.5483C12.2991 13.065 12.128 12.4898 12.1414 11.9039C12.1414 10.6053 12.8835 9.58497 13.8279 9.58497ZM9.18995 10.0066C9.18995 9.89478 9.23437 9.78753 9.31344 9.70846C9.39251 9.62939 9.49975 9.58497 9.61158 9.58497C9.7234 9.58497 9.83065 9.62939 9.90972 9.70846C9.98879 9.78753 10.0332 9.89478 10.0332 10.0066V13.3797H11.2981C11.4099 13.3797 11.5172 13.4241 11.5962 13.5032C11.6753 13.5822 11.7197 13.6895 11.7197 13.8013C11.7197 13.9131 11.6753 14.0204 11.5962 14.0994C11.5172 14.1785 11.4099 14.2229 11.2981 14.2229H9.61158C9.49975 14.2229 9.39251 14.1785 9.31344 14.0994C9.23437 14.0204 9.18995 13.9131 9.18995 13.8013V10.0066ZM9.61158 16.3311H15.0928C15.2046 16.3311 15.3119 16.3755 15.3909 16.4546C15.47 16.5337 15.5144 16.6409 15.5144 16.7527C15.5144 16.8646 15.47 16.9718 15.3909 17.0509C15.3119 17.1299 15.2046 17.1744 15.0928 17.1744H9.61158C9.49975 17.1744 9.39251 17.1299 9.31344 17.0509C9.23437 16.9718 9.18995 16.8646 9.18995 16.7527C9.18995 16.6409 9.23437 16.5337 9.31344 16.4546C9.39251 16.3755 9.49975 16.3311 9.61158 16.3311ZM9.61158 18.4393H15.0928C15.2046 18.4393 15.3119 18.4837 15.3909 18.5628C15.47 18.6418 15.5144 18.7491 15.5144 18.8609C15.5144 18.9727 15.47 19.08 15.3909 19.159C15.3119 19.2381 15.2046 19.2825 15.0928 19.2825H9.61158C9.49975 19.2825 9.39251 19.2381 9.31344 19.159C9.23437 19.08 9.18995 18.9727 9.18995 18.8609C9.18995 18.7491 9.23437 18.6418 9.31344 18.5628C9.39251 18.4837 9.49975 18.4393 9.61158 18.4393ZM9.61158 20.5474H15.0928C15.2046 20.5474 15.3119 20.5918 15.3909 20.6709C15.47 20.75 15.5144 20.8572 15.5144 20.9691C15.5144 21.0809 15.47 21.1881 15.3909 21.2672C15.3119 21.3463 15.2046 21.3907 15.0928 21.3907H9.61158C9.49975 21.3907 9.39251 21.3463 9.31344 21.2672C9.23437 21.1881 9.18995 21.0809 9.18995 20.9691C9.18995 20.8572 9.23437 20.75 9.31344 20.6709C9.39251 20.5918 9.49975 20.5474 9.61158 20.5474ZM9.18995 23.0772C9.18995 22.9654 9.23437 22.8582 9.31344 22.7791C9.39251 22.7 9.49975 22.6556 9.61158 22.6556H15.0928C15.2046 22.6556 15.3119 22.7 15.3909 22.7791C15.47 22.8582 15.5144 22.9654 15.5144 23.0772C15.5144 23.189 15.47 23.2963 15.3909 23.3754C15.3119 23.4544 15.2046 23.4989 15.0928 23.4989H9.61158C9.49975 23.4989 9.39251 23.4544 9.31344 23.3754C9.23437 23.2963 9.18995 23.189 9.18995 23.0772ZM17.6226 26.8719H16.2523C16.0855 26.8721 15.9212 26.8311 15.7741 26.7524C15.6269 26.6738 15.5015 26.56 15.409 26.4212L15.2336 26.1572C15.2183 26.1338 15.1974 26.1145 15.1727 26.1011C15.148 26.0877 15.1204 26.0808 15.0924 26.0808C15.0643 26.0808 15.0367 26.0877 15.0121 26.1011C14.9874 26.1145 14.9665 26.1338 14.9511 26.1572L14.4658 26.885C14.3596 27.0467 14.2087 27.1742 14.0315 27.252C13.8543 27.3297 13.6584 27.3544 13.4674 27.3231C13.2758 27.2946 13.0966 27.2112 12.9515 27.0829C12.8064 26.9546 12.7016 26.787 12.6499 26.6004L12.5752 26.3402C12.567 26.3067 12.5482 26.2768 12.5216 26.2548C12.495 26.2328 12.4621 26.2199 12.4277 26.218C12.3932 26.2129 12.3581 26.2193 12.3276 26.2361C12.2971 26.2529 12.273 26.2793 12.259 26.3111C12.1756 26.4798 12.0466 26.6217 11.8867 26.7208C11.7268 26.8199 11.5423 26.8722 11.3542 26.8719H10.0332C9.92139 26.8719 9.81414 26.8275 9.73507 26.7484C9.656 26.6694 9.61158 26.5621 9.61158 26.4503C9.61158 26.3385 9.656 26.2312 9.73507 26.1521C9.81414 26.0731 9.92139 26.0287 10.0332 26.0287H11.3542C11.3858 26.0288 11.4169 26.0201 11.4438 26.0035C11.4707 25.9869 11.4924 25.963 11.5064 25.9346C11.5974 25.7517 11.7416 25.6007 11.92 25.5013C12.0985 25.4019 12.3028 25.3588 12.5062 25.3778C12.7096 25.3967 12.9025 25.4767 13.0595 25.6074C13.2165 25.738 13.3304 25.9131 13.386 26.1096L13.4602 26.3698C13.4687 26.4012 13.4862 26.4296 13.5105 26.4513C13.5347 26.4731 13.5648 26.4874 13.597 26.4924C13.6292 26.4974 13.6622 26.493 13.6919 26.4797C13.7217 26.4664 13.747 26.4448 13.7647 26.4174L14.2495 25.6913C14.3418 25.5522 14.4672 25.438 14.6143 25.3591C14.7614 25.2801 14.9258 25.2388 15.0928 25.2388C15.2598 25.2388 15.4242 25.2801 15.5713 25.3591C15.7185 25.438 15.8438 25.5522 15.9361 25.6913L16.1119 25.9549C16.1275 25.9777 16.1484 25.9964 16.1729 26.0093C16.1974 26.0222 16.2246 26.0288 16.2523 26.0287H17.6226C17.7344 26.0287 17.8417 26.0731 17.9207 26.1521C17.9998 26.2312 18.0442 26.3385 18.0442 26.4503C18.0442 26.5621 17.9998 26.6694 17.9207 26.7484C17.8417 26.8275 17.7344 26.8719 17.6226 26.8719Z" fill="white"/>
<path d="M23.9721 21.7165C24.169 21.8219 24.4 21.843 24.613 21.7755C24.828 21.711 25.008 21.5639 25.1147 21.3666C25.3297 20.9555 25.1737 20.4474 24.7648 20.2282C24.6677 20.1749 24.5609 20.1418 24.4508 20.1309C24.3406 20.12 24.2294 20.1316 24.1239 20.1649C23.9097 20.2282 23.7301 20.3757 23.6264 20.5739C23.5726 20.6707 23.5392 20.7775 23.5283 20.8878C23.5175 20.998 23.5293 21.1093 23.5631 21.2148C23.6276 21.4298 23.7748 21.6098 23.9721 21.7165Z" fill="white"/>
<path d="M24.7775 15.7421C23.6138 17.6057 21.2232 19.4904 20.7214 19.8741C21.5811 21.3578 21.9844 23.0619 21.8809 24.7735L23.2343 22.21C22.9475 21.9441 22.7626 21.5864 22.7116 21.1986C22.6607 20.8108 22.7468 20.4174 22.9553 20.0865C23.1637 19.7556 23.4812 19.5079 23.8529 19.3863C24.2247 19.2647 24.6272 19.2769 24.9909 19.4208C25.3546 19.5646 25.6565 19.8311 25.8446 20.174C26.0326 20.517 26.0948 20.9149 26.0204 21.2988C25.9461 21.6828 25.7399 22.0287 25.4374 22.2767C25.135 22.5247 24.7554 22.6592 24.3643 22.6569C24.2337 22.6563 24.1035 22.6407 23.9764 22.6105L22.6103 25.1993C23.9791 24.1462 25.6303 23.5239 27.3537 23.4116C27.3959 22.7792 27.6235 19.7434 28.5258 17.7364L27.2356 17.0492L24.7775 15.7421ZM24.7902 28.1381C24.7902 28.5854 24.6125 29.0144 24.2962 29.3307C23.9799 29.647 23.5509 29.8247 23.1036 29.8247H10.8763V30.6679C10.8733 30.7772 10.8927 30.886 10.9333 30.9875C10.9739 31.089 11.0348 31.1811 11.1124 31.2582C11.2718 31.4218 11.491 31.5133 11.7195 31.5112H25.6334C25.8569 31.5105 26.071 31.4215 26.229 31.2635C26.387 31.1055 26.476 30.8914 26.4767 30.6679V24.3561C25.8948 24.4644 25.3282 24.644 24.7902 24.8915V28.1381ZM28.264 9.23168L25.1865 15.0043L27.3073 16.1342L28.9095 16.9859L31.581 11.9685C31.6638 11.8129 31.6957 11.6353 31.6724 11.4606C31.649 11.2859 31.5715 11.1229 31.4507 10.9945L29.6221 9.05038C29.5303 8.95289 29.4166 8.87866 29.2904 8.83383C29.1643 8.789 29.0292 8.77485 28.8965 8.79257C28.7638 8.81029 28.6372 8.85936 28.5272 8.93572C28.4172 9.01208 28.327 9.11353 28.264 9.23168Z" fill="white"/>
<defs>
<linearGradient id="paint0_linear_2536_26402" x1="0" y1="20" x2="40" y2="20" gradientUnits="userSpaceOnUse">
<stop stop-color="#FF6E00"/>
<stop offset="1" stop-color="#FC4B00"/>
</linearGradient>
</defs>
</svg>
