<svg width="40" height="40" viewBox="0 0 40 40" fill="none" xmlns="http://www.w3.org/2000/svg">
<rect width="40" height="40" rx="20" fill="url(#paint0_linear_2536_26430)"/>
<path d="M32.4998 27.7996V29.674C32.4989 30.0051 32.3669 30.3224 32.1328 30.5565C31.8986 30.7906 31.5814 30.9226 31.2502 30.9236H23.0653C23.3978 30.6588 23.6758 30.332 23.8838 29.9614C24.4888 28.9024 24.9113 27.7492 25.1334 26.55H31.2502C31.5814 26.551 31.8986 26.6829 32.1328 26.9171C32.3669 27.1512 32.4989 27.4685 32.4998 27.7996ZM32.4998 23.426V25.3004C32.4989 25.6315 32.3669 25.9488 32.1328 26.1829C31.8986 26.417 31.5814 26.549 31.2502 26.55H25.1334C25.2265 26.0621 25.2663 25.5656 25.2521 25.0692C25.2082 24.0721 24.9816 23.0916 24.5836 22.1764H31.2502C31.5814 22.1773 31.8986 22.3093 32.1328 22.5434C32.3669 22.7776 32.4989 23.0949 32.4998 23.426ZM32.4998 19.0523V20.9268C32.4989 21.2579 32.3669 21.5751 32.1328 21.8093C31.8986 22.0434 31.5814 22.1754 31.2502 22.1764H24.5836C23.8913 20.6447 22.9234 19.2533 21.7282 18.0714C21.647 17.9777 21.5533 17.8902 21.4658 17.8027H31.2502C31.5814 17.8037 31.8986 17.9357 32.1328 18.1698C32.3669 18.404 32.4989 18.7212 32.4998 19.0523Z" fill="white"/>
<path d="M31.2691 16.1832L23.0842 17.8015L21.7283 18.0701C21.6471 17.9764 21.5534 17.8889 21.4659 17.8015C20.7632 17.1041 20.016 16.4529 19.2291 15.8521C19.529 15.5147 19.8227 15.1585 20.0914 14.7899L30.6568 12.6968C31.0263 12.6324 31.4062 12.7173 31.7132 12.9329C32.0201 13.1484 32.229 13.477 32.2938 13.8465L32.4187 14.54C32.4829 14.9102 32.3981 15.2908 32.1827 15.5986C31.9673 15.9065 31.6389 16.1166 31.2691 16.1832ZM15.0055 21.5253V22.9686C14.8503 22.922 14.7143 22.8266 14.6176 22.6966C14.521 22.5666 14.4688 22.4089 14.4688 22.2469C14.4688 22.0849 14.521 21.9273 14.6176 21.7973C14.7143 21.6673 14.8503 21.5719 15.0055 21.5253ZM16.2551 24.5056C16.4102 24.5522 16.5462 24.6476 16.6429 24.7776C16.7396 24.9076 16.7918 25.0652 16.7918 25.2272C16.7918 25.3892 16.7396 25.5469 16.6429 25.6769C16.5462 25.8069 16.4102 25.9023 16.2551 25.9489V24.5056Z" fill="white"/>
<path d="M18.7652 15.9527C19.5112 15.2157 20.1733 14.3985 20.7396 13.516C21.2794 12.5502 21.6991 11.5221 21.9892 10.4544C22.0579 10.2357 22.1204 10.0421 22.1766 9.8796C22.2215 9.74573 22.2196 9.60062 22.1715 9.46792C22.1233 9.33522 22.0316 9.22275 21.9113 9.14883C21.791 9.07492 21.6492 9.04393 21.5091 9.0609C21.3689 9.07787 21.2386 9.14182 21.1395 9.2423C20.9898 9.39408 20.8105 9.51344 20.6127 9.59298C20.4149 9.67252 20.2029 9.71053 19.9898 9.70466C19.78 9.68552 19.5782 9.61468 19.4025 9.49847C19.0451 9.20601 18.596 9.04894 18.1342 9.05486C17.6742 9.04869 17.227 9.20588 16.872 9.49847C16.7257 9.63111 16.5353 9.70457 16.3378 9.70457C16.1404 9.70457 15.9499 9.63111 15.8036 9.49847C15.4444 9.21133 14.9983 9.0549 14.5384 9.0549C14.0785 9.0549 13.6324 9.21133 13.2732 9.49847C13.1912 9.56431 13.1009 9.61895 13.0045 9.66092C12.9795 9.67342 12.8671 9.67967 12.7358 9.70466C12.2671 9.63079 11.8233 9.44426 11.4425 9.16108C11.3341 9.08948 11.206 9.05345 11.0762 9.05803C10.9463 9.0626 10.8211 9.10754 10.718 9.18659C10.6149 9.26565 10.539 9.37488 10.5009 9.49909C10.4628 9.6233 10.4643 9.75631 10.5053 9.8796C10.5615 10.0421 10.624 10.2357 10.6927 10.4544C10.9829 11.522 11.4026 12.5502 11.9424 13.516C12.5086 14.3985 13.1708 15.2157 13.9167 15.9527C11.8611 17.421 7.6562 20.9136 7.5 25.0998C7.52627 26.676 7.96346 28.218 8.76835 29.5734C9.00687 29.9863 9.35045 30.3287 9.76419 30.5657C10.1779 30.8027 10.647 30.926 11.1239 30.923H21.5581C22.0349 30.926 22.504 30.8027 22.9177 30.5657C23.3315 30.3287 23.6751 29.9863 23.9136 29.5734C24.7185 28.218 25.1557 26.676 25.1819 25.0998C25.0257 20.9136 20.8208 17.421 18.7652 15.9527Z" fill="white"/>
<path d="M17.0016 20.0412C17.1666 20.0408 17.33 20.0731 17.4824 20.1365C17.6348 20.1998 17.7732 20.2929 17.8896 20.4102L18.6037 21.1271C18.6657 21.1895 18.7499 21.2245 18.8377 21.2245C18.9255 21.2245 19.0097 21.1895 19.0718 21.1271L19.5758 20.621C19.6378 20.5587 19.6727 20.4741 19.6727 20.386C19.6727 20.2979 19.6378 20.2134 19.5758 20.1511L18.8617 19.4341C17.8352 18.4028 16.1704 18.402 15.143 19.4327C14.8984 19.678 14.7044 19.9694 14.5722 20.2901C14.4399 20.6109 14.3719 20.9546 14.3721 21.3017V22.8002H13.3414C13.2963 22.8002 13.2516 22.8091 13.21 22.8264C13.1683 22.8438 13.1305 22.8692 13.0986 22.9012C13.0667 22.9332 13.0414 22.9712 13.0242 23.013C13.0069 23.0548 12.998 23.0997 12.998 23.1449V23.8351C12.998 23.8804 13.0069 23.9252 13.0242 23.967C13.0414 24.0089 13.0667 24.0469 13.0986 24.0789C13.1305 24.1109 13.1683 24.1363 13.21 24.1536C13.2516 24.1709 13.2963 24.1798 13.3414 24.1798H14.3721V25.2145C14.3721 25.8816 13.9005 26.4382 13.2736 26.5663C13.1154 26.5987 12.998 26.7318 12.998 26.8939V27.6413C12.998 27.6849 13.0066 27.7281 13.0232 27.7685C13.0399 27.8088 13.0643 27.8454 13.095 27.8763C13.1257 27.9071 13.1622 27.9316 13.2024 27.9483C13.2425 27.965 13.2856 27.9736 13.3291 27.9736H19.1937C19.2815 27.9736 19.3657 27.9386 19.4278 27.8763C19.4899 27.814 19.5247 27.7294 19.5247 27.6413V26.9264C19.5247 26.8383 19.4899 26.7537 19.4278 26.6914C19.3657 26.6291 19.2815 26.5941 19.1937 26.5941H15.3752C15.6183 26.1753 15.7463 25.6992 15.7462 25.2145V24.1798H17.4762C17.564 24.1798 17.6482 24.1448 17.7102 24.0825C17.7723 24.0201 17.8072 23.9356 17.8072 23.8475V23.1326C17.8072 23.0889 17.7986 23.0457 17.782 23.0054C17.7654 22.9651 17.741 22.9284 17.7102 22.8976C17.6795 22.8667 17.643 22.8422 17.6029 22.8255C17.5627 22.8088 17.5196 22.8002 17.4762 22.8002H15.7461V21.3017C15.7471 20.6059 16.3086 20.0421 17.0016 20.0412Z" fill="url(#paint1_linear_2536_26430)"/>
<defs>
<linearGradient id="paint0_linear_2536_26430" x1="0" y1="20" x2="40" y2="20" gradientUnits="userSpaceOnUse">
<stop stop-color="#FF6E00"/>
<stop offset="1" stop-color="#FC4B00"/>
</linearGradient>
<linearGradient id="paint1_linear_2536_26430" x1="12.998" y1="23.3169" x2="19.6727" y2="23.3169" gradientUnits="userSpaceOnUse">
<stop stop-color="#FF6E00"/>
<stop offset="1" stop-color="#FC4B00"/>
</linearGradient>
</defs>
</svg>
