<svg width="40" height="40" viewBox="0 0 40 40" fill="none" xmlns="http://www.w3.org/2000/svg">
<rect width="40" height="40" rx="20" fill="url(#paint0_linear_2536_26457)"/>
<path d="M28.75 29.9902V7.49023H11.25V29.9902H7.5V32.4902H32.5V29.9902H28.75ZM18.75 9.99023H21.25V12.4902H18.75V9.99023ZM18.75 14.9902H21.25V17.4902H18.75V14.9902ZM18.75 19.9902H21.25V22.4902H18.75V19.9902ZM16.25 22.4902H13.75V19.9902H16.25V22.4902ZM16.25 17.4902H13.75V14.9902H16.25V17.4902ZM16.25 12.4902H13.75V9.99023H16.25V12.4902ZM22.5 29.9902H17.5V24.9902H22.5V29.9902ZM26.25 22.4902H23.75V19.9902H26.25V22.4902ZM26.25 17.4902H23.75V14.9902H26.25V17.4902ZM26.25 12.4902H23.75V9.99023H26.25V12.4902Z" fill="white"/>
<defs>
<linearGradient id="paint0_linear_2536_26457" x1="0" y1="20" x2="40" y2="20" gradientUnits="userSpaceOnUse">
<stop stop-color="#FF6E00"/>
<stop offset="1" stop-color="#FC4B00"/>
</linearGradient>
</defs>
</svg>
