<svg width="40" height="40" viewBox="0 0 40 40" fill="none" xmlns="http://www.w3.org/2000/svg">
<rect width="40" height="40" rx="20" fill="url(#paint0_linear_2536_26416)"/>
<path d="M25.4975 10.8664C25.4777 10.8551 25.4553 10.8491 25.4324 10.8491C25.4096 10.8491 25.3872 10.8551 25.3673 10.8664L24.9902 11.0842V17.3337H26.7288C27.2293 17.3337 27.6365 17.7409 27.6365 18.2413V20.8025H30.5462C30.5836 20.8025 30.6209 20.8041 30.6578 20.8067V13.8456L25.4975 10.8664ZM29.8798 15.9074C29.8798 16.4079 29.4726 16.815 28.9721 16.815H27.9348C27.4342 16.815 27.0271 16.4078 27.0271 15.9074V14.87C27.0271 14.3695 27.4343 13.9623 27.9348 13.9623H28.9721C29.4727 13.9623 29.8798 14.3695 29.8798 14.87V15.9074ZM32.0592 13.0832C32.0592 13.1513 32.0414 13.2182 32.0074 13.2772C31.9 13.4629 31.6614 13.5266 31.4757 13.4193L31.2475 13.2881L31.2351 13.2804L25.8854 10.1921C25.7494 10.1142 25.5955 10.0726 25.4387 10.0715C25.2818 10.0705 25.1274 10.1099 24.9902 10.1859V9.28754L25.1085 9.21957C25.2071 9.16273 25.3189 9.13281 25.4327 9.13281C25.5465 9.13281 25.6583 9.16273 25.7568 9.21957L31.8647 12.7455C31.9238 12.7799 31.9728 12.8292 32.007 12.8884C32.0411 12.9477 32.0591 13.0148 32.0592 13.0832Z" fill="white"/>
<path d="M26.8579 20.8023H24.9896V18.1114H26.7282C26.7626 18.1114 26.7956 18.1251 26.8199 18.1494C26.8442 18.1737 26.8579 18.2067 26.8579 18.2411V20.8023ZM29.1012 14.8697V15.9071C29.1012 15.9415 29.0875 15.9744 29.0632 15.9988C29.0388 16.0231 29.0059 16.0368 28.9715 16.0368H27.9341C27.8997 16.0368 27.8668 16.0231 27.8424 15.9988C27.8181 15.9744 27.8045 15.9415 27.8044 15.9071V14.8697C27.8045 14.8353 27.8181 14.8024 27.8424 14.778C27.8668 14.7537 27.8997 14.7401 27.9341 14.74H28.9715C29.0059 14.7401 29.0388 14.7537 29.0632 14.7781C29.0875 14.8024 29.1011 14.8353 29.1012 14.8697ZM23.0446 7.57617H19.4139C18.7703 7.57617 18.2469 8.09951 18.2469 8.74316V14.0782C18.8206 15.1825 19.1105 16.335 19.1105 17.5155C19.1105 18.0404 19.0177 18.5284 18.8346 18.9662C18.7588 19.1457 18.7972 19.3495 18.9311 19.4864C19.2313 19.793 19.3968 20.1441 19.3968 20.475C19.3968 20.5938 19.3782 20.7027 19.3414 20.8023H24.2117V8.74316C24.2117 8.09951 23.6883 7.57617 23.0446 7.57617ZM20.7106 17.0419C20.7106 17.2567 20.5363 17.431 20.3216 17.431C20.1068 17.431 19.9326 17.2567 19.9326 17.0419V16.2639C19.9326 16.0492 20.1068 15.8749 20.3216 15.8749C20.5363 15.8749 20.7106 16.0492 20.7106 16.2639V17.0419ZM20.7106 14.7079C20.7106 14.9227 20.5363 15.0969 20.3216 15.0969C20.1068 15.0969 19.9326 14.9227 19.9326 14.7079V13.9299C19.9326 13.7151 20.1068 13.5409 20.3216 13.5409C20.5363 13.5409 20.7106 13.7151 20.7106 13.9299V14.7079ZM20.7106 12.3739C20.7106 12.5886 20.5363 12.7629 20.3216 12.7629C20.1068 12.7629 19.9326 12.5886 19.9326 12.3739V11.5959C19.9326 11.3812 20.1068 11.2069 20.3216 11.2069C20.5363 11.2069 20.7106 11.3812 20.7106 11.5959V12.3739ZM20.7106 10.0398C20.7106 10.2546 20.5363 10.4289 20.3216 10.4289C20.1068 10.4289 19.9326 10.2546 19.9326 10.0398V9.26186C19.9326 9.04712 20.1068 8.87285 20.3216 8.87285C20.5363 8.87285 20.7106 9.04712 20.7106 9.26186V10.0398ZM22.526 17.0419C22.526 17.2567 22.3517 17.431 22.137 17.431C21.9222 17.431 21.7479 17.2567 21.7479 17.0419V16.2639C21.7479 16.0492 21.9222 15.8749 22.137 15.8749C22.3517 15.8749 22.526 16.0492 22.526 16.2639V17.0419ZM22.526 14.7079C22.526 14.9227 22.3517 15.0969 22.137 15.0969C21.9222 15.0969 21.7479 14.9227 21.7479 14.7079V13.9299C21.7479 13.7151 21.9222 13.5409 22.137 13.5409C22.3517 13.5409 22.526 13.7151 22.526 13.9299V14.7079ZM22.526 12.3739C22.526 12.5886 22.3517 12.7629 22.137 12.7629C21.9222 12.7629 21.7479 12.5886 21.7479 12.3739V11.5959C21.7479 11.3812 21.9222 11.2069 22.137 11.2069C22.3517 11.2069 22.526 11.3812 22.526 11.5959V12.3739ZM22.526 10.0398C22.526 10.2546 22.3517 10.4289 22.137 10.4289C21.9222 10.4289 21.7479 10.2546 21.7479 10.0398V9.26186C21.7479 9.04712 21.9222 8.87285 22.137 8.87285C22.3517 8.87285 22.526 9.04712 22.526 9.26186V10.0398ZM29.6219 23.1415L27.0586 25.7048C27.0513 25.697 27.0439 25.6894 27.0363 25.682C26.6323 25.2774 26.0949 25.0544 25.5223 25.0544H22.458C22.3246 25.0547 22.1944 25.0137 22.0851 24.9372L21.944 24.8376C20.9996 24.1727 19.8896 23.821 18.7345 23.821H17.095C15.8673 23.821 14.6567 24.2344 13.6863 24.9849L13.5623 25.0803C13.4485 25.1677 13.3091 25.2153 13.1655 25.2157H11.5949C11.4253 24.6176 10.874 24.1783 10.2225 24.1783H9.34648L8.83091 22.4102C8.77334 22.2125 8.81069 22.0045 8.93413 21.8396C9.05811 21.6747 9.24687 21.5803 9.45332 21.5803H30.5456C30.7521 21.5803 30.9409 21.6747 31.0648 21.8396C31.1883 22.0045 31.2256 22.2125 31.1681 22.4102L31.1374 22.5154C30.5887 22.515 30.04 22.724 29.6219 23.1415ZM18.3755 20.0311C18.0218 19.6701 17.9201 19.1343 18.1172 18.6654C18.2599 18.3241 18.3325 17.9366 18.3325 17.5155C18.3325 15.9304 17.7241 13.5658 14.8465 11.2582H11.7127C8.83511 13.5658 8.22671 15.9304 8.22671 17.5155C8.22671 17.9366 8.29932 18.3241 8.44248 18.6664C8.63906 19.1342 8.5374 19.67 8.18315 20.031C8.0042 20.2141 7.94043 20.3801 7.94043 20.475C7.94043 20.6378 8.35122 20.8023 9.26978 20.8023H17.2895C18.2081 20.8023 18.6188 20.6379 18.6188 20.475C18.6188 20.3801 18.555 20.2141 18.3755 20.0311ZM14.8138 10.4802H11.7454C11.2734 9.95947 10.2754 8.72866 10.8221 8.18198C10.9855 8.0186 11.3029 8.06113 11.5244 8.14722C11.8958 8.29194 12.3118 8.20166 12.5841 7.91694C12.7734 7.71934 13.0659 7.57617 13.2796 7.57617C13.4933 7.57617 13.7858 7.71934 13.9746 7.91694C14.2474 8.20171 14.6634 8.29194 15.0343 8.14722C15.2562 8.06113 15.5737 8.0186 15.7371 8.18145C16.2837 8.72866 15.2858 9.95947 14.8138 10.4802Z" fill="white"/>
<path d="M32.1013 25.6197L27.2828 30.4377C26.5728 31.1477 25.6283 31.5388 24.6241 31.5388H11.65V25.9937H13.1666C13.4818 25.9931 13.7881 25.8886 14.038 25.6965L14.163 25.6005C14.998 24.9548 16.0395 24.599 17.0961 24.599H18.7356C19.7294 24.599 20.6848 24.9014 21.497 25.4729L21.6376 25.5725C21.8779 25.7422 22.165 25.833 22.4592 25.8324H25.5235C25.8876 25.8324 26.2299 25.974 26.4872 26.2317C26.745 26.489 26.8866 26.8313 26.8866 27.1954C26.8866 27.9475 26.275 28.559 25.5235 28.559H20.9083C20.6931 28.559 20.5193 28.7333 20.5193 28.948C20.5193 29.1628 20.6931 29.337 20.9083 29.337H25.5235C26.704 29.337 27.6645 28.3765 27.6645 27.1954C27.665 26.9107 27.6086 26.6287 27.4986 26.3661L30.1734 23.6913C30.705 23.1602 31.5697 23.1602 32.1013 23.6913C32.6329 24.2229 32.6329 25.0876 32.1013 25.6197ZM10.223 24.9563H7.62969C7.5953 24.9563 7.56232 24.97 7.538 24.9943C7.51368 25.0187 7.50001 25.0516 7.5 25.086V32.4465C7.50003 32.4809 7.5137 32.5139 7.53802 32.5382C7.56233 32.5625 7.5953 32.5761 7.62969 32.5762H10.223C10.5804 32.5762 10.8714 32.2852 10.8714 31.9278V25.6047C10.8714 25.2473 10.5804 24.9563 10.223 24.9563ZM9.57471 30.7115C9.57471 30.9263 9.40044 31.1005 9.18569 31.1005C8.97095 31.1005 8.79668 30.9263 8.79668 30.7115V29.9335C8.79668 29.7182 8.97095 29.5445 9.18569 29.5445C9.40044 29.5445 9.57471 29.7182 9.57471 29.9335V30.7115Z" fill="white"/>
<path d="M13.3392 14.543C13.4249 14.5427 13.5098 14.5596 13.5889 14.5924C13.6681 14.6253 13.74 14.6736 13.8004 14.7345L14.1713 15.1066C14.2036 15.139 14.2473 15.1571 14.2929 15.1571C14.3385 15.1571 14.3822 15.139 14.4144 15.1066L14.6762 14.8439C14.7085 14.8116 14.7266 14.7677 14.7266 14.722C14.7266 14.6762 14.7085 14.6324 14.6762 14.6L14.3054 14.2279C13.7722 13.6926 12.9075 13.6922 12.3738 14.2271C12.2468 14.3545 12.1461 14.5057 12.0774 14.6722C12.0086 14.8386 11.9733 15.0171 11.9734 15.1972V15.975H11.4381C11.4147 15.975 11.3915 15.9796 11.3698 15.9886C11.3482 15.9976 11.3285 16.0108 11.312 16.0274C11.2954 16.044 11.2823 16.0637 11.2733 16.0854C11.2644 16.1071 11.2598 16.1304 11.2598 16.1539V16.5121C11.2598 16.5356 11.2644 16.5589 11.2733 16.5806C11.2823 16.6023 11.2954 16.622 11.312 16.6387C11.3285 16.6553 11.3482 16.6684 11.3698 16.6774C11.3915 16.6864 11.4147 16.691 11.4381 16.691H11.9734V17.2281C11.9734 17.5743 11.7285 17.8632 11.4029 17.9297C11.3207 17.9465 11.2598 18.0156 11.2598 18.0997V18.4877C11.2598 18.5103 11.2642 18.5327 11.2729 18.5537C11.2815 18.5746 11.2942 18.5936 11.3101 18.6096C11.3261 18.6257 11.345 18.6384 11.3659 18.647C11.3868 18.6557 11.4091 18.6602 11.4317 18.6602H14.4778C14.5234 18.6602 14.5671 18.642 14.5994 18.6096C14.6316 18.5773 14.6497 18.5334 14.6497 18.4877V18.1166C14.6497 18.0709 14.6316 18.027 14.5994 17.9946C14.5671 17.9623 14.5234 17.9441 14.4778 17.9441H12.4944C12.6207 17.7268 12.6872 17.4797 12.6872 17.2281V16.691H13.5857C13.6313 16.691 13.675 16.6729 13.7073 16.6405C13.7395 16.6082 13.7576 16.5643 13.7576 16.5185V16.1475C13.7576 16.1248 13.7532 16.1024 13.7445 16.0815C13.7359 16.0606 13.7232 16.0415 13.7073 16.0255C13.6913 16.0095 13.6723 15.9968 13.6515 15.9881C13.6306 15.9795 13.6083 15.975 13.5857 15.975H12.6871V15.1972C12.6876 14.8361 12.9792 14.5434 13.3392 14.543Z" fill="url(#paint1_linear_2536_26416)"/>
<defs>
<linearGradient id="paint0_linear_2536_26416" x1="0" y1="20" x2="40" y2="20" gradientUnits="userSpaceOnUse">
<stop stop-color="#FF6E00"/>
<stop offset="1" stop-color="#FC4B00"/>
</linearGradient>
<linearGradient id="paint1_linear_2536_26416" x1="11.2598" y1="16.2432" x2="14.7266" y2="16.2432" gradientUnits="userSpaceOnUse">
<stop stop-color="#FF6E00"/>
<stop offset="1" stop-color="#FC4B00"/>
</linearGradient>
</defs>
</svg>
