<svg width="40" height="40" viewBox="0 0 40 40" fill="none" xmlns="http://www.w3.org/2000/svg">
<rect width="40" height="40" rx="20" fill="url(#paint0_linear_2536_26442)"/>
<path d="M26.5686 11.2855V11.4912H23.0791V8H23.2101L26.5686 11.2855Z" fill="white"/>
<path d="M22.4634 12.7229C22.3003 12.7217 22.1443 12.6564 22.029 12.5411C21.9137 12.4258 21.8484 12.2697 21.8472 12.1067V8H9.32115C9.10362 8.00081 8.89523 8.08759 8.74141 8.24142C8.58759 8.39524 8.50081 8.60364 8.5 8.82118V31.8212C8.5 32.2734 8.86975 32.6424 9.32115 32.6424H22.874C21.9624 31.9589 21.2596 31.0344 20.845 29.9731H11.7854C11.4487 29.9731 11.1691 29.6935 11.1691 29.3569C11.1691 29.0202 11.4487 28.7406 11.7854 28.7406H20.5076C20.4455 28.4046 20.4126 28.0639 20.409 27.7222C20.409 27.3694 20.4421 27.0243 20.4991 26.6876H11.7854C11.4487 26.6876 11.1691 26.408 11.1691 26.0714C11.1691 25.7347 11.4487 25.4551 11.7854 25.4551H20.845C21.1514 24.6889 21.6064 23.9909 22.1838 23.4014H11.7846C11.4487 23.4014 11.1691 23.1225 11.1691 22.7851C11.1691 22.4477 11.4487 22.1696 11.7854 22.1696H23.2846C23.4248 22.1696 23.5472 22.2274 23.6466 22.3006C24.545 21.8156 25.5498 21.5617 26.5707 21.5618V12.7229H22.4634Z" fill="white"/>
<path d="M26.5696 22.7891C23.8504 22.7891 21.6396 24.9999 21.6396 27.7192C21.6396 30.4385 23.8504 32.6494 26.5696 32.6494C29.2888 32.6494 31.4996 30.4385 31.4996 27.7192C31.4996 24.9999 29.2888 22.7891 26.5696 22.7891ZM28.8189 26.9566L26.4695 29.2984C26.417 29.3535 26.3535 29.3971 26.2832 29.4262C26.2129 29.4554 26.1373 29.4696 26.0612 29.4679C25.9149 29.4679 25.7685 29.414 25.653 29.2984L24.3203 27.9657C24.0969 27.7423 24.0969 27.3726 24.3203 27.1492C24.5437 26.9258 24.9135 26.9258 25.1369 27.1492L26.0612 28.0736L28.0024 26.14C28.2258 25.9089 28.5955 25.9089 28.8189 26.14C29.0423 26.3634 29.0423 26.7332 28.8189 26.9566Z" fill="white"/>
<path d="M17.3779 11.5354C17.5195 11.535 17.6597 11.5627 17.7905 11.6167C17.9214 11.6707 18.0402 11.7501 18.1401 11.8502L18.753 12.4617C18.8063 12.5148 18.8785 12.5447 18.9539 12.5447C19.0292 12.5447 19.1015 12.5148 19.1548 12.4617L19.5874 12.0299C19.6407 11.9768 19.6706 11.9047 19.6706 11.8295C19.6706 11.7544 19.6407 11.6823 19.5874 11.6291L18.9745 11.0176C18.0934 10.1379 16.6644 10.1372 15.7825 11.0164C15.5726 11.2256 15.4061 11.4742 15.2925 11.7477C15.179 12.0213 15.1206 12.3145 15.1208 12.6106V13.8888H14.2361C14.1974 13.8888 14.1591 13.8964 14.1233 13.9111C14.0875 13.9259 14.0551 13.9476 14.0277 13.9749C14.0003 14.0022 13.9786 14.0346 13.9638 14.0703C13.949 14.1059 13.9414 14.1442 13.9414 14.1828V14.7715C13.9414 14.8101 13.949 14.8484 13.9638 14.884C13.9786 14.9197 14.0003 14.9521 14.0277 14.9794C14.0551 15.0067 14.0875 15.0284 14.1233 15.0432C14.1591 15.0579 14.1974 15.0655 14.2361 15.0655H15.1208V15.9481C15.1208 16.5171 14.716 16.9918 14.1779 17.1011C14.0421 17.1287 13.9414 17.2423 13.9414 17.3805V18.0181C13.9414 18.0553 13.9488 18.0921 13.963 18.1265C13.9773 18.1609 13.9982 18.1922 14.0246 18.2185C14.051 18.2448 14.0823 18.2657 14.1168 18.28C14.1513 18.2942 14.1882 18.3015 14.2255 18.3015H19.2595C19.3348 18.3015 19.4071 18.2717 19.4604 18.2185C19.5137 18.1653 19.5436 18.0932 19.5436 18.0181V17.4083C19.5436 17.3331 19.5137 17.261 19.4604 17.2078C19.4071 17.1547 19.3348 17.1248 19.2595 17.1248H15.9818C16.1905 16.7676 16.3004 16.3615 16.3003 15.9481V15.0655H17.7852C17.8606 15.0655 17.9328 15.0357 17.9861 14.9825C18.0394 14.9293 18.0693 14.8572 18.0693 14.782V14.1723C18.0693 14.135 18.062 14.0982 18.0477 14.0638C18.0334 14.0294 18.0125 13.9981 17.9861 13.9718C17.9597 13.9455 17.9284 13.9246 17.8939 13.9104C17.8595 13.8961 17.8225 13.8888 17.7852 13.8888H16.3002V12.6106C16.3011 12.0171 16.783 11.5362 17.3779 11.5354Z" fill="url(#paint1_linear_2536_26442)"/>
<defs>
<linearGradient id="paint0_linear_2536_26442" x1="0" y1="20" x2="40" y2="20" gradientUnits="userSpaceOnUse">
<stop stop-color="#FF6E00"/>
<stop offset="1" stop-color="#FC4B00"/>
</linearGradient>
<linearGradient id="paint1_linear_2536_26442" x1="13.9414" y1="14.3295" x2="19.6706" y2="14.3295" gradientUnits="userSpaceOnUse">
<stop stop-color="#FF6E00"/>
<stop offset="1" stop-color="#FC4B00"/>
</linearGradient>
</defs>
</svg>
