<svg width="40" height="40" viewBox="0 0 40 40" fill="none" xmlns="http://www.w3.org/2000/svg">
<rect width="40" height="40" rx="20" fill="url(#paint0_linear_2536_26466)"/>
<path d="M32.9975 20.9886C32.9689 21.4404 32.8026 21.8726 32.5211 22.2272C31.4254 23.6433 29.6498 25.8867 28.4198 27.4415C27.9948 27.9781 27.4486 28.4063 26.826 28.6909C26.2034 28.9755 25.5221 29.1083 24.8382 29.0785L17.0947 28.7407L16.8305 28.9832L11.8631 23.5697L13.1364 22.4004L13.1407 22.3961C13.3921 22.1647 13.6869 21.9854 14.008 21.8687C14.3292 21.752 14.6703 21.7001 15.0116 21.7161L24.3185 22.1189C24.6311 22.1144 24.9366 22.2116 25.189 22.3961C25.3677 22.5121 25.5143 22.6714 25.615 22.8591C25.7156 23.0469 25.7673 23.2571 25.765 23.4701C25.7605 23.6319 25.7211 23.7908 25.6493 23.9358C25.5775 24.0808 25.4752 24.2086 25.3493 24.3103C25.0924 24.5422 24.7553 24.6649 24.4095 24.6524L19.6499 24.4445C19.5929 24.4416 19.5359 24.4501 19.4822 24.4696C19.4285 24.489 19.3792 24.519 19.3373 24.5577C19.2953 24.5964 19.2615 24.6431 19.2379 24.6951C19.2142 24.7471 19.2012 24.8032 19.1995 24.8603C19.1953 24.9751 19.2366 25.0868 19.3145 25.1712C19.3924 25.2556 19.5005 25.3058 19.6153 25.3107L24.3748 25.5186H24.4701C25.0123 25.5176 25.5346 25.3137 25.9339 24.9469C26.1644 24.7593 26.3473 24.5199 26.4677 24.2482C26.5881 23.9765 26.6427 23.6803 26.6269 23.3835C26.6123 23.2111 26.5774 23.041 26.5229 22.8768C26.9777 22.4827 29.5978 20.2047 30.0872 19.7586C30.4169 19.4421 30.8571 19.2668 31.3142 19.2701C31.7712 19.2733 32.2089 19.4548 32.5341 19.7759C32.6924 19.934 32.8155 20.1237 32.8954 20.3327C32.9753 20.5417 33.0101 20.7652 32.9975 20.9886ZM11.2265 24.1544L10.3993 23.2492L8 25.4493L14.6218 32.6731L17.0211 30.473L16.1939 29.5722L11.2265 24.1544ZM13.1364 14.1718L20.4987 9.10478L27.8611 14.1718L29.5718 15.3498L30.5549 13.9207L27.8611 12.0671L25.2627 10.2784L20.4987 7L10.4426 13.9207L11.4257 15.3498L13.1364 14.1718ZM19.6326 14.4837C19.6326 14.398 19.6072 14.3143 19.5596 14.2431C19.512 14.1718 19.4444 14.1163 19.3652 14.0835C19.2861 14.0508 19.199 14.0422 19.115 14.0589C19.031 14.0756 18.9538 14.1169 18.8933 14.1774C18.8327 14.238 18.7915 14.3152 18.7747 14.3992C18.758 14.4832 18.7666 14.5703 18.7994 14.6494C18.8322 14.7285 18.8877 14.7962 18.9589 14.8438C19.0301 14.8913 19.1138 14.9167 19.1995 14.9167C19.3143 14.9164 19.4242 14.8707 19.5054 14.7895C19.5865 14.7084 19.6322 14.5984 19.6326 14.4837ZM21.3649 18.8145C21.3649 18.9001 21.3903 18.9839 21.4379 19.0551C21.4855 19.1263 21.5531 19.1818 21.6323 19.2146C21.7114 19.2474 21.7985 19.2559 21.8825 19.2392C21.9665 19.2225 22.0437 19.1813 22.1042 19.1207C22.1648 19.0601 22.206 18.983 22.2228 18.899C22.2395 18.815 22.2309 18.7279 22.1981 18.6487C22.1653 18.5696 22.1098 18.502 22.0386 18.4544C21.9674 18.4068 21.8837 18.3814 21.798 18.3814C21.6832 18.3817 21.5733 18.4275 21.4921 18.5086C21.411 18.5898 21.3653 18.6997 21.3649 18.8145ZM20.4987 10.1572L27.8611 15.2242V20.5771C27.8611 20.5771 26.4233 21.8157 26.1331 22.0669C25.6704 21.5739 25.0331 21.2816 24.3575 21.2527L15.0506 20.85C14.9986 20.85 14.9466 20.8456 14.8947 20.8456C14.2755 20.8452 13.6678 21.0129 13.1364 21.3307V15.2242L20.4987 10.1572ZM19.1995 15.7829C19.4565 15.7829 19.7077 15.7067 19.9213 15.5639C20.135 15.4212 20.3015 15.2183 20.3999 14.9809C20.4982 14.7435 20.5239 14.4822 20.4738 14.2302C20.4237 13.9782 20.2999 13.7467 20.1182 13.565C19.9365 13.3832 19.705 13.2595 19.453 13.2094C19.2009 13.1592 18.9397 13.185 18.7023 13.2833C18.4649 13.3816 18.262 13.5482 18.1192 13.7618C17.9765 13.9755 17.9003 14.2267 17.9003 14.4837C17.9013 14.8279 18.0385 15.1578 18.2819 15.4012C18.5254 15.6447 18.8552 15.7819 19.1995 15.7829ZM21.798 17.5152C21.541 17.5152 21.2898 17.5914 21.0762 17.7342C20.8625 17.877 20.696 18.0799 20.5976 18.3173C20.4993 18.5547 20.4736 18.8159 20.5237 19.068C20.5738 19.32 20.6976 19.5515 20.8793 19.7332C21.061 19.9149 21.2925 20.0386 21.5445 20.0888C21.7966 20.1389 22.0578 20.1132 22.2952 20.0148C22.5326 19.9165 22.7355 19.75 22.8783 19.5363C23.021 19.3226 23.0972 19.0714 23.0972 18.8145C23.0962 18.4702 22.959 18.1403 22.7156 17.8969C22.4721 17.6535 22.1423 17.5163 21.798 17.5152ZM21.8933 14.2151L18.4286 18.546C18.3926 18.59 18.3657 18.6408 18.3496 18.6954C18.3336 18.75 18.3286 18.8072 18.3351 18.8638C18.3415 18.9203 18.3593 18.975 18.3872 19.0245C18.4152 19.0741 18.4528 19.1175 18.4979 19.1523C18.5734 19.2146 18.6685 19.2484 18.7664 19.2476C18.8315 19.2473 18.8956 19.2324 18.9541 19.2039C19.0126 19.1754 19.0639 19.1341 19.1042 19.083L22.5689 14.7522C22.6401 14.6626 22.6728 14.5484 22.6598 14.4347C22.6468 14.321 22.5892 14.2171 22.4996 14.1459C22.41 14.0746 22.2958 14.0419 22.1821 14.0549C22.0684 14.0679 21.9645 14.1256 21.8933 14.2151ZM27.8611 7.98743H25.2627V9.22604L27.8611 11.0147V7.98743Z" fill="white"/>
<defs>
<linearGradient id="paint0_linear_2536_26466" x1="0" y1="20" x2="40" y2="20" gradientUnits="userSpaceOnUse">
<stop stop-color="#FF6E00"/>
<stop offset="1" stop-color="#FC4B00"/>
</linearGradient>
</defs>
</svg>
