<svg width="27" height="27" viewBox="0 0 27 27" fill="none" xmlns="http://www.w3.org/2000/svg">
<path d="M13.5 26.25C20.6797 26.25 26.5 20.4297 26.5 13.25C26.5 6.0703 20.6797 0.25 13.5 0.25C6.3203 0.25 0.5 6.0703 0.5 13.25C0.5 20.4297 6.3203 26.25 13.5 26.25Z" fill="#2196F3"/>
<path d="M13.496 13.8873L6.64355 10.4688V17.2612C6.64449 17.6056 6.7817 17.9356 7.0252 18.1791C7.2687 18.4226 7.59869 18.5598 7.94305 18.5607H19.055C19.3994 18.5598 19.7293 18.4226 19.9728 18.1791C20.2163 17.9356 20.3536 17.6056 20.3545 17.2612V10.5404L13.496 13.8873Z" fill="white"/>
<path d="M13.5021 12.6031L20.3545 9.25863V9.22918C20.3536 8.88482 20.2163 8.55484 19.9728 8.31134C19.7293 8.06784 19.3994 7.93063 19.055 7.92969H7.94305C7.60661 7.93035 7.28347 8.06113 7.04126 8.29463C6.79904 8.52813 6.65653 8.84627 6.64355 9.18246L13.5021 12.6031Z" fill="white"/>
</svg>
