<svg width="27" height="27" viewBox="0 0 27 27" fill="none" xmlns="http://www.w3.org/2000/svg">
<path d="M24.6774 0.25H2.51599C2.00695 0.25 1.51877 0.452212 1.15883 0.812152C0.798892 1.17209 0.59668 1.66027 0.59668 2.16931V24.3307C0.59668 24.8397 0.798892 25.3279 1.15883 25.6878C1.51877 26.0478 2.00695 26.25 2.51599 26.25H24.6774C25.1864 26.25 25.6746 26.0478 26.0345 25.6878C26.3945 25.3279 26.5967 24.8397 26.5967 24.3307V2.16931C26.5967 1.66027 26.3945 1.17209 26.0345 0.812152C25.6746 0.452212 25.1864 0.25 24.6774 0.25ZM8.34612 22.3987H4.4371V9.98194H8.34612V22.3987ZM6.3889 8.26125C5.94549 8.25875 5.51275 8.12496 5.14531 7.87676C4.77786 7.62856 4.49217 7.27707 4.3243 6.86666C4.15642 6.45625 4.11388 6.00531 4.20205 5.57074C4.29021 5.13618 4.50513 4.73747 4.81968 4.42493C5.13423 4.11239 5.53431 3.90004 5.96943 3.81467C6.40456 3.72929 6.85522 3.77473 7.26454 3.94523C7.67387 4.11574 8.02351 4.40368 8.26935 4.77271C8.51519 5.14175 8.6462 5.57533 8.64585 6.01875C8.65003 6.31562 8.5944 6.61029 8.48228 6.8852C8.37015 7.16012 8.20383 7.40964 7.99321 7.61891C7.7826 7.82817 7.53202 7.99289 7.25639 8.10325C6.98076 8.2136 6.68574 8.26734 6.3889 8.26125ZM22.7545 22.4096H18.8472V15.6261C18.8472 13.6256 17.9968 13.0081 16.899 13.0081C15.7399 13.0081 14.6024 13.8819 14.6024 15.6767V22.4096H10.6933V9.99097H14.4525V11.7117H14.5031C14.8804 10.9479 16.2021 9.6425 18.2189 9.6425C20.4 9.6425 22.7563 10.9371 22.7563 14.7287L22.7545 22.4096Z" fill="#0A66C2"/>
</svg>
