<svg width="63" height="62" viewBox="0 0 63 62" fill="none" xmlns="http://www.w3.org/2000/svg">
<rect x="0.5" width="62" height="62" rx="31" fill="url(#paint0_linear_2006_198)"/>
<g clip-path="url(#clip0_2006_198)">
<path d="M45.7498 44.4998H43.4998V32.4999H44.9998C45.2965 32.4998 45.5865 32.4118 45.8332 32.247C46.0799 32.0822 46.2722 31.8479 46.3858 31.5739C46.4993 31.2998 46.529 30.9981 46.4711 30.7071C46.4133 30.4161 46.2705 30.1488 46.0608 29.9389L32.5609 16.439C32.2679 16.1465 31.8839 16 31.4999 16C31.1159 16 30.7319 16.1465 30.4394 16.4395L26.2499 20.6285V19C26.2499 18.1715 25.5785 17.5 24.75 17.5H23.25C22.4214 17.5 21.75 18.1715 21.75 19V25.1284L16.9395 29.9389C16.7297 30.1487 16.5868 30.416 16.5289 30.7071C16.471 30.9981 16.5008 31.2998 16.6145 31.5739C16.728 31.848 16.9201 32.0822 17.1668 32.2471C17.4134 32.4119 17.7034 32.4999 18 32.4999H19.5V44.4998H17.25C16.8355 44.4998 16.5 44.8353 16.5 45.2498C16.5 45.6643 16.8355 45.9998 17.25 45.9998H45.7498C46.1643 45.9998 46.4998 45.6643 46.4998 45.2498C46.4998 44.8353 46.1643 44.4998 45.7498 44.4998ZM23.25 19H24.75V22.1285L23.25 23.6285V19ZM41.9999 44.4998H21V30.9999H18L31.4999 17.5L44.9998 30.9999H41.9999V44.4998Z" fill="white" stroke="white" stroke-width="0.5"/>
<path d="M24.9697 40.9692L36.9694 28.9695L38.03 30.0301L26.0304 42.0298L24.9697 40.9692ZM27.75 28.75C26.096 28.75 24.75 30.0955 24.75 31.75C24.75 33.4045 26.0965 34.75 27.75 34.75C29.404 34.75 30.75 33.4045 30.75 31.75C30.75 30.0955 29.404 28.75 27.75 28.75ZM27.75 33.25C26.9225 33.25 26.25 32.577 26.25 31.75C26.25 30.923 26.9225 30.25 27.75 30.25C28.5775 30.25 29.25 30.923 29.25 31.75C29.25 32.577 28.5775 33.25 27.75 33.25ZM35.2499 36.25C33.596 36.25 32.25 37.5954 32.25 39.2499C32.25 40.9044 33.596 42.2499 35.2499 42.2499C36.9039 42.2499 38.2499 40.9044 38.2499 39.2499C38.2499 37.5954 36.9039 36.25 35.2499 36.25ZM35.2499 40.7499C34.4224 40.7499 33.7499 40.0769 33.7499 39.2499C33.7499 38.423 34.4224 37.7499 35.2499 37.7499C36.0775 37.7499 36.7499 38.423 36.7499 39.2499C36.7499 40.0769 36.0775 40.7499 35.2499 40.7499Z" fill="white" stroke="white" stroke-width="0.5"/>
</g>
<defs>
<linearGradient id="paint0_linear_2006_198" x1="31.5" y1="0" x2="31.5" y2="62" gradientUnits="userSpaceOnUse">
<stop stop-color="#FF6E00"/>
<stop offset="1" stop-color="#FC4B00"/>
</linearGradient>
<clipPath id="clip0_2006_198">
<rect width="30" height="30" fill="white" transform="translate(16.5 16)"/>
</clipPath>
</defs>
</svg>
