<svg width="62" height="62" viewBox="0 0 62 62" fill="none" xmlns="http://www.w3.org/2000/svg">
<rect width="62" height="62" rx="31" fill="url(#paint0_linear_2006_632)"/>
<path d="M32.6668 28.7905C32.6668 28.9343 32.724 29.0722 32.8256 29.1739C32.9273 29.2756 33.0652 29.3327 33.209 29.3327C33.3528 29.3327 33.4907 29.2756 33.5924 29.1739C33.6941 29.0722 33.7512 28.9343 33.7512 28.7905C33.7498 28.1555 33.5293 27.5405 33.1269 27.0492C32.7246 26.558 32.165 26.2206 31.5428 26.0941V25.4797C31.5428 25.3359 31.4856 25.198 31.384 25.0963C31.2823 24.9946 31.1444 24.9375 31.0006 24.9375C30.8568 24.9375 30.7189 24.9946 30.6172 25.0963C30.5155 25.198 30.4584 25.3359 30.4584 25.4797V26.0941C29.8358 26.2196 29.2757 26.5567 28.8734 27.0482C28.4711 27.5397 28.2513 28.1553 28.2513 28.7905C28.2513 29.4257 28.4711 30.0413 28.8734 30.5328C29.2757 31.0243 29.8358 31.3614 30.4584 31.4869V34.7761C30.1317 34.6631 29.8482 34.4515 29.6468 34.1705C29.4455 33.8896 29.3363 33.553 29.3343 33.2074C29.3343 33.0636 29.2772 32.9257 29.1755 32.824C29.0739 32.7223 28.936 32.6652 28.7922 32.6652C28.6484 32.6652 28.5105 32.7223 28.4088 32.824C28.3071 32.9257 28.25 33.0636 28.25 33.2074C28.2514 33.8424 28.4719 34.4574 28.8743 34.9487C29.2766 35.4399 29.8362 35.7773 30.4584 35.9038V36.5182C30.4584 36.662 30.5155 36.7999 30.6172 36.9016C30.7189 37.0033 30.8568 37.0604 31.0006 37.0604C31.1444 37.0604 31.2823 37.0033 31.384 36.9016C31.4856 36.7999 31.5428 36.662 31.5428 36.5182V35.9038C32.1654 35.7783 32.7254 35.4412 33.1278 34.9497C33.5301 34.4582 33.7499 33.8426 33.7499 33.2074C33.7499 32.5722 33.5301 31.9566 33.1278 31.4651C32.7254 30.9736 32.1654 30.6365 31.5428 30.511V27.2218C31.8694 27.3348 32.153 27.5464 32.3544 27.8273C32.5557 28.1083 32.6649 28.4449 32.6668 28.7905ZM30.4584 30.3592C30.1301 30.2485 29.8448 30.0376 29.6427 29.7562C29.4406 29.4747 29.3319 29.137 29.3319 28.7905C29.3319 28.444 29.4406 28.1063 29.6427 27.8249C29.8448 27.5434 30.1301 27.3325 30.4584 27.2218V30.3592ZM32.6668 33.2074C32.6649 33.553 32.5557 33.8896 32.3544 34.1705C32.153 34.4515 31.8694 34.6631 31.5428 34.7761V31.6387C31.8694 31.7517 32.153 31.9632 32.3544 32.2442C32.5557 32.5252 32.6649 32.8617 32.6668 33.2074Z" fill="white"/>
<path d="M44.8759 16H41.7675C41.4694 16 41.1834 16.1184 40.9726 16.3292C40.7618 16.54 40.6434 16.826 40.6434 17.1241V17.2361H36.8808C35.7458 16.994 32.2796 16.2892 31.5097 16.4699C31.3326 16.5096 30.7868 16.6361 22.2423 21.8663C21.8922 22.1103 21.6454 22.4758 21.5497 22.8916C21.454 23.3075 21.5162 23.7441 21.7243 24.1166C21.9324 24.4892 22.2716 24.7711 22.6759 24.9076C23.0802 25.0441 23.5208 25.0255 23.9122 24.8554L27.8555 22.8964C27.861 22.9873 27.8719 23.0778 27.888 23.1675C26.6344 23.6641 25.5184 24.4547 24.634 25.4726C23.7496 26.4905 23.1227 27.7059 22.806 29.0167C22.4893 30.3274 22.4921 31.695 22.8142 33.0044C23.1362 34.3138 23.7682 35.5267 24.6567 36.541C23.4504 36.9247 22.3298 37.5384 21.3567 38.3482V38.0193C21.3558 37.7214 21.2371 37.4361 21.0265 37.2255C20.8159 37.0149 20.5305 36.8961 20.2327 36.8952H17.1242C16.9751 36.8952 16.8274 36.9248 16.6898 36.9824C16.5523 37.0401 16.4275 37.1245 16.3229 37.2308C16.2183 37.3371 16.1359 37.4632 16.0805 37.6016C16.0251 37.7401 15.9977 37.8882 16.0001 38.0373V44.8759C16.0001 45.174 16.1186 45.46 16.3294 45.6708C16.5402 45.8816 16.8261 46 17.1242 46H20.2327C20.5308 46 20.8167 45.8816 21.0275 45.6708C21.2383 45.46 21.3567 45.174 21.3567 44.8759V44.7639H25.1194C26.1314 44.9771 28.9868 45.559 30.1434 45.559C30.2647 45.5639 30.386 45.5542 30.5049 45.5301C30.682 45.4904 31.2278 45.3639 39.7723 40.1337C40.1329 39.8928 40.3892 39.5245 40.4899 39.1027C40.5906 38.6808 40.5282 38.2365 40.3153 37.8586C40.1024 37.4808 39.7546 37.1973 39.3417 37.0649C38.9287 36.9325 38.4809 36.961 38.088 37.1446L34.1446 39.1036C34.1391 39.0127 34.1283 38.9222 34.1121 38.8325C35.3657 38.3359 36.4817 37.5453 37.3661 36.5274C38.2505 35.5095 38.8775 34.2941 39.1942 32.9833C39.5109 31.6726 39.508 30.305 39.186 28.9956C38.8639 27.6862 38.232 26.4733 37.3434 25.459C38.5511 25.0698 39.6719 24.4499 40.6434 23.6337V23.9627C40.6444 24.2605 40.7631 24.5459 40.9737 24.7565C41.1843 24.9671 41.4697 25.0858 41.7675 25.0867H44.8759C45.174 25.0867 45.46 24.9683 45.6708 24.7575C45.8816 24.5467 46 24.2608 46 23.9627V17.1241C46 16.826 45.8816 16.54 45.6708 16.3292C45.46 16.1184 45.174 16 44.8759 16ZM20.2724 44.8759C20.2724 44.8864 20.2682 44.8966 20.2608 44.904C20.2533 44.9115 20.2432 44.9157 20.2327 44.9157H17.1242C17.1137 44.9157 17.1036 44.9115 17.0961 44.904C17.0887 44.8966 17.0845 44.8864 17.0845 44.8759V38.0373C17.0845 38.0268 17.0887 38.0167 17.0961 38.0092C17.1036 38.0018 17.1137 37.9976 17.1242 37.9976H20.2327C20.2432 37.9976 20.2533 38.0018 20.2608 38.0092C20.2682 38.0167 20.2724 38.0268 20.2724 38.0373V44.8759ZM38.5904 38.1024C38.7371 38.0204 38.9103 38.0001 39.0719 38.0459C39.2336 38.0916 39.3705 38.1997 39.4524 38.3464C39.5344 38.4931 39.5547 38.6663 39.509 38.8279C39.4632 38.9896 39.3551 39.1265 39.2085 39.2084C33.1326 42.9277 30.588 44.3735 30.2483 44.4747C29.8326 44.5542 27.3567 44.1133 25.2856 43.6904C25.2484 43.6866 25.2109 43.6866 25.1736 43.6904H21.3567V39.6024H21.3784C21.5129 39.602 21.6422 39.5503 21.7399 39.4578C21.7616 39.4398 23.9591 37.4482 25.8423 37.4482C27.6495 37.4482 28.4736 38.3084 28.5061 38.341C28.5605 38.4036 28.6285 38.4528 28.705 38.4847C28.7815 38.5167 28.8643 38.5306 28.9471 38.5253L32.1712 38.3084C32.3576 38.2973 32.5423 38.3493 32.6956 38.4561C32.8488 38.5628 32.9617 38.718 33.016 38.8967C33.0702 39.0754 33.0628 39.2671 32.9947 39.4411C32.9267 39.615 32.8021 39.761 32.641 39.8554H32.6085C32.5509 39.8848 32.4903 39.9078 32.4278 39.9241L28.4989 40.9325C28.4298 40.9499 28.3648 40.9806 28.3077 41.0231C28.2505 41.0655 28.2022 41.1188 28.1657 41.1799C28.1291 41.2409 28.1049 41.3086 28.0944 41.3791C28.084 41.4495 28.0876 41.5213 28.1049 41.5904C28.1222 41.6594 28.153 41.7244 28.1954 41.7816C28.2379 41.8387 28.2911 41.887 28.3522 41.9236C28.4133 41.9602 28.481 41.9844 28.5514 41.9948C28.6219 42.0052 28.6937 42.0017 28.7627 41.9843L32.6989 40.994C32.8626 40.9524 33.0204 40.8904 33.1687 40.8096L38.5904 38.1024ZM38.3446 31C38.3435 32.4819 37.8941 33.9288 37.0555 35.1506C36.2168 36.3724 35.0283 37.3119 33.6458 37.8458C33.4499 37.6305 33.2074 37.4629 32.9368 37.3558C32.6661 37.2486 32.3746 37.2048 32.0844 37.2277L29.0989 37.4265C28.2133 36.7333 27.1187 36.3612 25.9941 36.3711C25.0794 35.5257 24.3955 34.461 24.007 33.2777C23.6185 32.0943 23.5382 30.8314 23.7738 29.6084C24.0093 28.3854 24.5529 27.2427 25.3532 26.2883C26.1534 25.3339 27.1839 24.5994 28.3471 24.1542C28.5437 24.3705 28.7875 24.5387 29.0595 24.6459C29.3314 24.753 29.6244 24.7963 29.9157 24.7723L32.9013 24.5735C33.7868 25.2667 34.8815 25.6388 36.0061 25.6289C36.7447 26.3149 37.3337 27.146 37.7361 28.0703C38.1385 28.9945 38.3457 29.9919 38.3446 31ZM40.6434 22.3976H40.6217C40.4872 22.398 40.3579 22.4497 40.2603 22.5422C40.2386 22.5422 38.041 24.5518 36.1579 24.5518C34.3507 24.5518 33.5266 23.6916 33.494 23.659C33.444 23.6007 33.3819 23.554 33.312 23.5221C33.2421 23.4903 33.166 23.4741 33.0892 23.4747H33.0531L29.829 23.6916C29.6426 23.7027 29.4578 23.6507 29.3046 23.5439C29.1513 23.4372 29.0385 23.282 28.9842 23.1033C28.9299 22.9246 28.9374 22.7329 29.0054 22.5589C29.0734 22.385 29.198 22.239 29.3591 22.1446L29.3916 22.1265C29.4492 22.0971 29.5098 22.0741 29.5724 22.0578L33.5049 21.0675C33.6444 21.0325 33.7642 20.9435 33.8381 20.8201C33.912 20.6968 33.9338 20.5491 33.8989 20.4096C33.8639 20.2702 33.7749 20.1503 33.6515 20.0764C33.5282 20.0025 33.3805 19.9807 33.241 20.0157L29.3013 21.006C29.1388 21.0479 28.9822 21.1098 28.835 21.1904L23.4134 23.8976C23.2667 23.9796 23.0935 23.9999 22.9318 23.9541C22.7701 23.9084 22.6333 23.8003 22.5513 23.6536C22.4694 23.5069 22.449 23.3337 22.4948 23.1721C22.5405 23.0104 22.6486 22.8735 22.7953 22.7916C28.8676 19.0723 31.4121 17.6265 31.7519 17.5253C32.1675 17.4458 34.6434 17.8867 36.7145 18.3096C36.7518 18.3134 36.7893 18.3134 36.8266 18.3096H40.6434V22.3976ZM44.9157 23.9627C44.9157 23.9732 44.9115 23.9833 44.904 23.9908C44.8966 23.9982 44.8865 24.0024 44.8759 24.0024H41.7675C41.7569 24.0024 41.7468 23.9982 41.7394 23.9908C41.7319 23.9833 41.7277 23.9732 41.7277 23.9627V17.1241C41.7277 17.1136 41.7319 17.1034 41.7394 17.096C41.7468 17.0885 41.7569 17.0843 41.7675 17.0843H44.8759C44.8865 17.0843 44.8966 17.0885 44.904 17.096C44.9115 17.1034 44.9157 17.1136 44.9157 17.1241V23.9627Z" fill="white"/>
<defs>
<linearGradient id="paint0_linear_2006_632" x1="31" y1="0" x2="31" y2="62" gradientUnits="userSpaceOnUse">
<stop stop-color="#FF6E00"/>
<stop offset="1" stop-color="#FC4B00"/>
</linearGradient>
</defs>
</svg>
