<svg width="40" height="40" viewBox="0 0 40 40" fill="none" xmlns="http://www.w3.org/2000/svg">
<rect width="40" height="40" rx="20" fill="url(#paint0_linear_2566_4552)"/>
<g clip-path="url(#clip0_2566_4552)">
<path d="M24.4434 32.1829H15.5892C15.4027 32.1829 15.2223 32.116 15.0807 31.9945C14.9391 31.873 14.8457 31.7048 14.8173 31.5204L13.7757 24.7496C13.7586 24.6383 13.7657 24.5246 13.7966 24.4163C13.8276 24.3081 13.8815 24.2077 13.9548 24.1223C14.0281 24.0368 14.1191 23.9682 14.2214 23.9211C14.3237 23.874 14.4349 23.8497 14.5476 23.8496H25.4851C25.5978 23.8496 25.7091 23.874 25.8115 23.9212C25.9139 23.9683 26.0049 24.037 26.0782 24.1226C26.1516 24.2082 26.2055 24.3086 26.2363 24.4171C26.2672 24.5255 26.2742 24.6393 26.2569 24.7507L25.2153 31.5215C25.1867 31.7057 25.0932 31.8736 24.9516 31.9949C24.8101 32.1162 24.6298 32.1829 24.4434 32.1829Z" fill="white"/>
<path d="M20.0163 15.5169C22.3175 15.5169 24.1829 13.6514 24.1829 11.3503C24.1829 9.04907 22.3175 7.18359 20.0163 7.18359C17.7151 7.18359 15.8496 9.04907 15.8496 11.3503C15.8496 13.6514 17.7151 15.5169 20.0163 15.5169Z" fill="white"/>
<path d="M31.7003 20.7251C31.615 19.5765 31.2687 18.4624 30.6878 17.4678C30.107 16.4732 29.3068 15.6242 28.3482 14.9855C28.346 14.6772 28.2525 14.3765 28.0795 14.1212C27.9066 13.8659 27.6619 13.6676 27.3764 13.5511C27.0909 13.4347 26.7773 13.4054 26.4752 13.467C26.1731 13.5285 25.8959 13.6781 25.6787 13.8969C25.4615 14.1158 25.3139 14.394 25.2545 14.6966C25.1952 14.9991 25.2268 15.3125 25.3453 15.5972C25.4638 15.8818 25.664 16.125 25.9205 16.2961C26.177 16.4672 26.4784 16.5585 26.7868 16.5585C27.0722 16.5585 27.3357 16.4762 27.566 16.3428C28.289 16.8408 28.894 17.4913 29.3383 18.2485C29.7827 19.0057 30.0556 19.8511 30.1378 20.7251H28.2868C27.9118 18.371 25.8701 16.5585 23.4014 16.5585H16.6305C14.1618 16.5585 12.1201 18.371 11.7451 20.7251H8.2972C7.74408 20.7251 7.38679 21.2855 7.55762 21.7772L9.64095 27.5064C9.75554 27.8085 10.0472 28.0168 10.3805 28.0168H12.1722L11.7139 25.0689C11.5889 24.2355 11.8285 23.4022 12.3701 22.7668C12.8347 22.2095 13.6566 21.7668 14.5472 21.7668H25.4847C25.898 21.7678 26.3063 21.8576 26.6819 22.0302C27.0575 22.2027 27.3917 22.4539 27.6618 22.7668C28.2035 23.4022 28.443 24.2355 28.318 25.0689L27.8597 28.0168H29.6514C29.9847 28.0168 30.2764 27.8085 30.3909 27.5064L32.4743 21.7772C32.5167 21.6558 32.5288 21.5258 32.5097 21.3986C32.4906 21.2715 32.4407 21.1508 32.3645 21.0472C32.2883 20.9436 32.188 20.8602 32.0723 20.804C31.9565 20.7479 31.8289 20.7208 31.7003 20.7251Z" fill="white"/>
</g>
<defs>
<linearGradient id="paint0_linear_2566_4552" x1="0" y1="20" x2="40" y2="20" gradientUnits="userSpaceOnUse">
<stop stop-color="#FF6E00"/>
<stop offset="1" stop-color="#FC4B00"/>
</linearGradient>
<clipPath id="clip0_2566_4552">
<rect width="25" height="25" fill="white" transform="translate(7.51562 7.18359)"/>
</clipPath>
</defs>
</svg>
