<svg width="40" height="40" viewBox="0 0 40 40" fill="none" xmlns="http://www.w3.org/2000/svg">
<rect width="40" height="40" rx="20" fill="url(#paint0_linear_2566_4579)"/>
<path d="M16.4287 23.5663C16.4299 24.0387 16.6177 24.4915 16.951 24.8262C17.145 25.0157 17.3789 25.1593 17.6356 25.2466C17.8923 25.3339 18.1653 25.3626 18.4346 25.3306L18.7801 23.956C18.5932 23.9877 18.404 24.0045 18.2145 24.006C17.5943 23.9911 16.9849 23.841 16.4287 23.5663ZM7.50427 31.9835C7.49546 32.0458 7.50032 32.1091 7.51852 32.1693C7.53672 32.2294 7.56781 32.2849 7.60963 32.3318C7.65261 32.3815 7.7059 32.4213 7.7658 32.4484C7.82571 32.4754 7.89079 32.4891 7.95652 32.4885H13.75V31.1491C13.75 30.9123 13.8441 30.6852 14.0115 30.5178C14.179 30.3503 14.4061 30.2563 14.6429 30.2563H17.1975L18.2073 26.2383C17.6009 26.239 17.0124 26.0329 16.5391 25.6539C16.0658 25.2749 15.7359 24.7457 15.6041 24.1538L11.7129 25.4289C10.6763 25.7707 9.75579 26.3955 9.05537 27.2327C8.35494 28.07 7.90244 29.0863 7.74892 30.167L7.50427 31.9835ZM12.8571 17.7558C12.9627 17.7559 13.0649 17.7933 13.1455 17.8616C13.2261 17.9298 13.2799 18.0244 13.2973 18.1286L13.5344 19.5438C13.5991 19.9324 13.7417 20.3038 13.9537 20.6358C14.1657 20.9678 14.4427 21.2534 14.7679 21.4756C14.8951 21.5613 15.0318 21.6573 15.1755 21.7591C16.0322 22.3622 17.0983 23.1132 18.2145 23.1132C18.4905 23.1067 18.7642 23.0603 19.027 22.9752L19.4542 21.2729C19.546 20.9058 19.758 20.5799 20.0563 20.3471C20.3547 20.1143 20.7223 19.9879 21.1007 19.988H22.7789C22.8298 19.8427 22.8686 19.6933 22.895 19.5416L23.1316 18.1282C23.1491 18.0241 23.2029 17.9296 23.2835 17.8614C23.3641 17.7932 23.4662 17.7558 23.5718 17.7558C23.8086 17.7558 24.0357 17.6618 24.2031 17.4943C24.3706 17.3269 24.4647 17.0997 24.4647 16.8629C24.4647 16.6261 24.3706 16.399 24.2031 16.2316C24.0357 16.0641 23.8086 15.9701 23.5718 15.9701C23.4534 15.9701 23.3398 15.923 23.2561 15.8393C23.1724 15.7556 23.1253 15.642 23.1253 15.5236C23.13 15.2014 23.0335 14.8858 22.8494 14.6213C22.7826 14.517 22.6951 14.4275 22.5923 14.3583C22.4894 14.2892 22.3735 14.242 22.2516 14.2195C20.8773 14.0469 19.5529 13.5943 18.3604 12.8896C18.3158 12.8617 18.264 12.8471 18.2113 12.8477C18.1586 12.8482 18.1072 12.8639 18.0631 12.8927C16.8729 13.5966 15.551 14.0489 14.179 14.2218C13.9058 14.3053 13.6697 14.4803 13.5103 14.7173C13.3509 14.9544 13.2779 15.2391 13.3036 15.5236C13.3036 15.642 13.2565 15.7556 13.1728 15.8393C13.0891 15.923 12.9755 15.9701 12.8571 15.9701C12.6203 15.9701 12.3932 16.0641 12.2258 16.2316C12.0583 16.399 11.9642 16.6261 11.9642 16.8629C11.9642 17.0997 12.0583 17.3269 12.2258 17.4943C12.3932 17.6618 12.6203 17.7558 12.8571 17.7558Z" fill="white"/>
<path d="M25.3571 27.1318C26.3433 27.1318 27.1428 26.5321 27.1428 25.7925C27.1428 25.0528 26.3433 24.4531 25.3571 24.4531C24.3708 24.4531 23.5713 25.0528 23.5713 25.7925C23.5713 26.5321 24.3708 27.1318 25.3571 27.1318Z" fill="white"/>
<path d="M11.9647 15.3229C12.1132 15.2345 12.2738 15.1683 12.4415 15.1265C12.4851 14.6955 12.6648 14.2897 12.9547 13.9679C13.2446 13.646 13.6295 13.4249 14.0536 13.3367C15.3031 13.1806 16.5075 12.7704 17.5925 12.1313C17.778 12.0144 17.9926 11.9522 18.2118 11.9516C18.4309 11.9511 18.6459 12.0123 18.8319 12.1282C19.9184 12.7676 21.1243 13.1778 22.3753 13.3336C22.6167 13.3724 22.8475 13.4604 23.0534 13.5922C23.2593 13.724 23.4359 13.8967 23.5722 14.0997C23.7896 14.4044 23.9316 14.7563 23.9865 15.1265C24.1542 15.1683 24.3148 15.2345 24.4633 15.3229V13.7385C24.4633 12.0808 23.8048 10.4911 22.6327 9.31893C21.4605 8.14678 19.8708 7.48828 18.2131 7.48828C16.5554 7.48828 14.9657 8.14678 13.7935 9.31893C12.6214 10.4911 11.9629 12.0808 11.9629 13.7385L11.9647 15.3229ZM14.6433 31.1498H30.7158V32.4891H14.6433V31.1498ZM21.1011 20.8816C20.9218 20.8814 20.7475 20.9413 20.6061 21.0517C20.4646 21.162 20.3642 21.3165 20.3208 21.4905L18.1185 30.2569H30.3675L32.4765 21.8798C32.5061 21.7614 32.5083 21.6378 32.483 21.5184C32.4576 21.3991 32.4055 21.287 32.3304 21.1908C32.2553 21.0946 32.1593 21.0167 32.0496 20.9632C31.94 20.9096 31.8195 20.8817 31.6975 20.8816H21.1011ZM25.358 28.0247C23.8807 28.0247 22.6793 27.0233 22.6793 25.7925C22.6793 24.5616 23.8807 23.5603 25.358 23.5603C26.8353 23.5603 28.0366 24.5616 28.0366 25.7925C28.0366 27.0233 26.8353 28.0247 25.358 28.0247Z" fill="white"/>
<defs>
<linearGradient id="paint0_linear_2566_4579" x1="0" y1="20" x2="40" y2="20" gradientUnits="userSpaceOnUse">
<stop stop-color="#FF6E00"/>
<stop offset="1" stop-color="#FC4B00"/>
</linearGradient>
</defs>
</svg>
