<svg width="40" height="40" viewBox="0 0 40 40" fill="none" xmlns="http://www.w3.org/2000/svg">
<rect width="40" height="40" rx="20" fill="url(#paint0_linear_2566_4605)"/>
<g clip-path="url(#clip0_2566_4605)">
<path d="M29.4518 23.674V23.2573C29.4518 22.8153 29.2762 22.3914 28.9637 22.0788C28.6511 21.7663 28.2272 21.5907 27.7852 21.5907H25.2852C24.8431 21.5907 24.4192 21.7663 24.1066 22.0788C23.7941 22.3914 23.6185 22.8153 23.6185 23.2573V23.674H24.4518V23.2573C24.4518 23.0363 24.5396 22.8244 24.6959 22.6681C24.8522 22.5118 25.0641 22.424 25.2852 22.424H27.7852C28.0062 22.424 28.2181 22.5118 28.3744 22.6681C28.5307 22.8244 28.6185 23.0363 28.6185 23.2573V23.674H29.4518ZM20.5835 21.7269C20.8875 21.5204 21.1464 21.2544 21.3446 20.9449C21.5427 20.6355 21.676 20.289 21.7364 19.9265L21.9577 18.6053C21.9739 18.508 22.0241 18.4197 22.0993 18.356C22.1746 18.2923 22.2699 18.2574 22.3685 18.2573C22.5895 18.2573 22.8015 18.1695 22.9577 18.0133C23.114 17.857 23.2018 17.645 23.2018 17.424C23.2018 17.203 23.114 16.991 22.9577 16.8348C22.8015 16.6785 22.5895 16.5907 22.3685 16.5907C22.258 16.5907 22.152 16.5468 22.0739 16.4686C21.9957 16.3905 21.9518 16.2845 21.9518 16.174C21.9761 15.9084 21.9081 15.6426 21.7593 15.4212C21.6105 15.1999 21.3899 15.0367 21.1347 14.959C19.8533 14.7958 18.6186 14.3727 17.5064 13.7157C17.4657 13.6884 17.4177 13.6738 17.3687 13.6738C17.3197 13.6738 17.2717 13.6884 17.231 13.7157C16.1185 14.3729 14.8836 14.796 13.6018 14.959C13.3468 15.0368 13.1263 15.2 12.9775 15.4213C12.8288 15.6427 12.7608 15.9085 12.7852 16.174C12.7852 16.2845 12.7413 16.3905 12.6631 16.4686C12.585 16.5468 12.479 16.5907 12.3685 16.5907C12.1475 16.5907 11.9355 16.6785 11.7792 16.8348C11.623 16.991 11.5352 17.203 11.5352 17.424C11.5352 17.645 11.623 17.857 11.7792 18.0133C11.9355 18.1695 12.1475 18.2573 12.3685 18.2573C12.4671 18.2574 12.5624 18.2923 12.6376 18.356C12.7129 18.4197 12.7631 18.508 12.7793 18.6053L13.0006 19.9261C13.0609 20.2887 13.1942 20.6352 13.3923 20.9448C13.5905 21.2543 13.8495 21.5204 14.1535 21.7269C14.2747 21.8103 14.4035 21.9003 14.5414 21.9969C15.3381 22.5582 16.3293 23.2573 17.3685 23.2573C18.4077 23.2573 19.3989 22.5582 20.1956 21.9969C20.3322 21.9003 20.4622 21.809 20.5835 21.7269ZM15.7018 23.6794C15.7018 24.1215 15.8774 24.5454 16.19 24.8579C16.5025 25.1705 16.9265 25.3461 17.3685 25.3461C17.8105 25.3461 18.2344 25.1705 18.547 24.8579C18.8596 24.5454 19.0352 24.1215 19.0352 23.6794C18.5162 23.9364 17.9474 24.0768 17.3685 24.0907C16.7896 24.0768 16.2207 23.9364 15.7018 23.6794Z" fill="white"/>
<path d="M31.1185 24.5078H21.9518C21.7217 24.5078 21.5352 24.6944 21.5352 24.9245V27.0078C21.5352 27.2379 21.7217 27.4245 21.9518 27.4245H31.1185C31.3486 27.4245 31.5352 27.2379 31.5352 27.0078V24.9245C31.5352 24.6944 31.3486 24.5078 31.1185 24.5078Z" fill="white"/>
<path d="M26.9521 29.0905C27.0627 29.0905 27.1686 29.0466 27.2468 28.9685C27.3249 28.8903 27.3688 28.7843 27.3688 28.6738V28.2572H25.7021V28.6738C25.7021 28.7843 25.746 28.8903 25.8242 28.9685C25.9023 29.0466 26.0083 29.0905 26.1188 29.0905H26.9521ZM8.61882 32.0072H20.7788C20.7295 31.8737 20.7035 31.7328 20.7021 31.5905V24.9238C20.7039 24.7947 20.726 24.6666 20.7676 24.5442L19.8046 24.228C19.6795 24.7805 19.3703 25.2741 18.9277 25.6277C18.485 25.9813 17.9353 26.1739 17.3688 26.1739C16.8023 26.1739 16.2526 25.9813 15.81 25.6277C15.3673 25.2741 15.0581 24.7805 14.933 24.228L11.3026 25.4197C9.3034 26.0772 8.20215 28.1205 8.20215 31.1738V31.5905C8.20215 31.701 8.24605 31.807 8.32419 31.8851C8.40233 31.9633 8.50831 32.0072 8.61882 32.0072ZM11.5355 14.5072V15.9859C11.6741 15.9034 11.824 15.8416 11.9805 15.8026C12.0213 15.4007 12.1891 15.0222 12.4596 14.7221C12.7301 14.4221 13.0891 14.216 13.4846 14.1338C14.6504 13.9869 15.7741 13.6042 16.7871 13.0088C16.961 12.8982 17.1628 12.8394 17.3688 12.8394C17.5749 12.8394 17.7766 12.8982 17.9505 13.0088C18.9635 13.604 20.0869 13.9867 21.2526 14.1338C21.6482 14.2159 22.0073 14.422 22.2779 14.722C22.5484 15.0221 22.7163 15.4006 22.7571 15.8026C22.9136 15.8416 23.0636 15.9034 23.2021 15.9859V14.5072C23.2021 12.9601 22.5876 11.4763 21.4936 10.3824C20.3996 9.28841 18.9159 8.67383 17.3688 8.67383C15.8217 8.67383 14.338 9.28841 13.244 10.3824C12.1501 11.4763 11.5355 12.9601 11.5355 14.5072Z" fill="white"/>
<path d="M31.5352 28.1797C31.4017 28.229 31.2608 28.255 31.1185 28.2564H28.2018V28.673C28.2018 29.0045 28.0701 29.3225 27.8357 29.5569C27.6013 29.7913 27.2833 29.923 26.9518 29.923H26.1185C25.787 29.923 25.469 29.7913 25.2346 29.5569C25.0002 29.3225 24.8685 29.0045 24.8685 28.673V28.2564H21.9518C21.8096 28.255 21.6686 28.229 21.5352 28.1797V31.5897C21.5352 31.7002 21.5791 31.8062 21.6572 31.8843C21.7353 31.9625 21.8413 32.0064 21.9518 32.0064H31.1185C31.229 32.0064 31.335 31.9625 31.4131 31.8843C31.4913 31.8062 31.5352 31.7002 31.5352 31.5897V28.1797Z" fill="white"/>
</g>
<defs>
<linearGradient id="paint0_linear_2566_4605" x1="0" y1="20" x2="40" y2="20" gradientUnits="userSpaceOnUse">
<stop stop-color="#FF6E00"/>
<stop offset="1" stop-color="#FC4B00"/>
</linearGradient>
<clipPath id="clip0_2566_4605">
<rect width="25" height="25" fill="white" transform="translate(7.36914 7.83984)"/>
</clipPath>
</defs>
</svg>
