<svg width="49" height="49" viewBox="0 0 49 49" fill="none" xmlns="http://www.w3.org/2000/svg">
<path d="M41.6495 27.999L38.9523 29.6747C38.8037 29.767 38.6878 29.9035 38.6208 30.0651C38.5539 30.2268 38.5393 30.4053 38.5791 30.5756L40.7122 39.7071C40.8533 40.311 40.3112 40.8531 39.7072 40.7121L30.5758 38.579C30.4055 38.5392 30.227 38.5538 30.0654 38.6207C29.9038 38.6876 29.7672 38.8035 29.6749 38.9521L24.7263 46.9173C24.399 47.4441 23.6323 47.4441 23.305 46.9173L18.3564 38.9521C18.2641 38.8035 18.1276 38.6876 17.966 38.6206C17.8044 38.5537 17.6258 38.5391 17.4555 38.579L8.32405 40.7121C7.72012 40.8531 7.17805 40.311 7.31905 39.7071L9.45215 30.5756C9.49193 30.4053 9.47733 30.2268 9.4104 30.0652C9.34347 29.9036 9.22758 29.767 9.07902 29.6747L1.11384 24.7262C0.587055 24.3989 0.587055 23.6322 1.11384 23.3049L4.52118 21.1881M7.3709 19.4176L9.07912 18.3563C9.22772 18.264 9.34364 18.1275 9.41057 17.9659C9.4775 17.8043 9.49208 17.6257 9.45224 17.4554L7.31915 8.32405C7.17805 7.72012 7.72021 7.17805 8.32415 7.31905L17.4556 9.45215C17.6259 9.49193 17.8044 9.47733 17.966 9.4104C18.1276 9.34347 18.2642 9.22758 18.3565 9.07902L23.3051 1.11384C23.6324 0.587055 24.3991 0.587055 24.7264 1.11384L29.675 9.07902C29.7672 9.22762 29.9038 9.34355 30.0654 9.41048C30.227 9.47741 30.4056 9.49198 30.5759 9.45215L39.7073 7.31905C40.3113 7.17796 40.8533 7.72012 40.7123 8.32405L38.5792 17.4555C38.5395 17.6258 38.5541 17.8043 38.621 17.9659C38.6879 18.1275 38.8038 18.2641 38.9524 18.3564L46.9176 23.305C47.4443 23.6323 47.4443 24.399 46.9176 24.7263L44.036 26.5165" stroke="#EB7124" stroke-width="1.43555" stroke-miterlimit="10" stroke-linecap="round"/>
<path d="M24.4645 9.49278L27.603 14.5445C27.6615 14.6387 27.7481 14.7122 27.8506 14.7547C27.9531 14.7972 28.0663 14.8064 28.1744 14.7812L33.9657 13.4284C34.3488 13.339 34.6925 13.6828 34.6031 14.0658L33.2503 19.8571C33.2251 19.9652 33.2343 20.0784 33.2768 20.1809C33.3192 20.2834 33.3928 20.37 33.487 20.4285L38.5387 23.567C38.8728 23.7746 38.8728 24.2608 38.5387 24.4684L33.487 27.6069C33.3928 27.6654 33.3193 27.752 33.2768 27.8545C33.2343 27.957 33.2251 28.0702 33.2503 28.1783L34.6031 33.9696C34.6925 34.3527 34.3488 34.6964 33.9657 34.607L28.1744 33.2542C28.0663 33.229 27.9531 33.2382 27.8506 33.2807C27.7481 33.3231 27.6615 33.3967 27.603 33.4909L24.4645 38.5426C24.2569 38.8768 23.7708 38.8768 23.5631 38.5426L20.4246 33.4909C20.3661 33.3967 20.2795 33.3232 20.177 33.2807C20.0745 33.2382 19.9613 33.229 19.8532 33.2542L14.0619 34.607C13.6788 34.6964 13.3351 34.3527 13.4245 33.9696L14.7773 28.1783C14.8025 28.0702 14.7933 27.957 14.7508 27.8545C14.7084 27.752 14.6348 27.6654 14.5406 27.6069L9.48888 24.4684C9.15475 24.2608 9.15475 23.7747 9.48888 23.567L14.5406 20.4285C14.6348 20.37 14.7083 20.2834 14.7508 20.1809C14.7933 20.0784 14.8025 19.9652 14.7773 19.8571L13.4245 14.0658C13.3351 13.6828 13.6788 13.339 14.0619 13.4284L19.8532 14.7812C19.9613 14.8064 20.0745 14.7972 20.177 14.7547C20.2795 14.7123 20.3661 14.6387 20.4246 14.5445L23.5631 9.49278C23.7708 9.15866 24.2569 9.15866 24.4645 9.49278Z" stroke="#EB7124" stroke-width="1.43555" stroke-miterlimit="10" stroke-linecap="round"/>
<path d="M25.2137 24.1714H22.817C22.6658 24.1714 22.5201 24.1147 22.4086 24.0126C22.2971 23.9104 22.2279 23.7702 22.2147 23.6196L21.7093 17.8448C21.702 17.7613 21.7122 17.6771 21.7391 17.5978C21.7661 17.5184 21.8092 17.4455 21.8659 17.3837C21.9225 17.3218 21.9914 17.2725 22.0681 17.2387C22.1448 17.2049 22.2277 17.1875 22.3116 17.1875H25.7191C25.8029 17.1875 25.8859 17.2049 25.9626 17.2387C26.0393 17.2725 26.1082 17.3218 26.1648 17.3837C26.2215 17.4455 26.2646 17.5184 26.2916 17.5978C26.3185 17.6771 26.3287 17.7613 26.3214 17.8448L25.816 23.6196C25.8028 23.7702 25.7337 23.9105 25.6222 24.0126C25.5107 24.1148 25.3649 24.1714 25.2137 24.1714Z" stroke="#EB7124" stroke-width="1.43555" stroke-miterlimit="10" stroke-linecap="round"/>
<path d="M24.0155 30.8435C25.2106 30.8435 26.1794 29.8747 26.1794 28.6796C26.1794 27.4845 25.2106 26.5156 24.0155 26.5156C22.8204 26.5156 21.8516 27.4845 21.8516 28.6796C21.8516 29.8747 22.8204 30.8435 24.0155 30.8435Z" stroke="#EB7124" stroke-width="1.43555" stroke-miterlimit="10" stroke-linecap="round"/>
</svg>
