<svg width="48" height="48" viewBox="0 0 48 48" fill="none" xmlns="http://www.w3.org/2000/svg">
<path fill-rule="evenodd" clip-rule="evenodd" d="M41.6895 45.8135C39.7532 45.8135 38.1771 44.2376 38.1771 42.3001C38.1772 41.6859 38.338 41.0824 38.6434 40.5495C38.6544 40.5317 38.6642 40.5127 38.674 40.4937L41.6959 33.9881L44.7935 40.6534C45.0599 41.2043 45.2016 41.6433 45.2016 42.2998C45.2017 44.2374 43.627 45.8134 41.6895 45.8135ZM46.2825 40.4071C46.2287 40.2779 46.1701 40.1507 46.1067 40.0259L42.5661 32.4089C42.2221 31.6699 41.17 31.6692 40.8265 32.4089L37.3677 39.8527C36.9447 40.599 36.7226 41.4422 36.7231 42.3C36.7232 45.0396 38.9511 47.2681 41.6896 47.2681C44.4292 47.268 46.6565 45.0394 46.6564 42.2998C46.6572 41.6547 46.5318 41.0157 46.2874 40.4187C46.2855 40.4149 46.2839 40.4111 46.2825 40.4071ZM46.5451 29.0241C46.5449 29.0977 46.5155 29.1682 46.4634 29.2202C46.4112 29.2721 46.3406 29.3012 46.267 29.3011L37.1113 29.3013C37.0749 29.3014 37.0388 29.2942 37.0052 29.2803C36.9716 29.2664 36.941 29.246 36.9153 29.2203C36.8896 29.1946 36.8692 29.164 36.8553 29.1304C36.8414 29.0968 36.8342 29.0607 36.8343 29.0243L36.8342 26.5611C36.8342 26.1033 37.2061 25.7307 37.6638 25.7307L45.7153 25.7305C46.1731 25.7305 46.5449 26.103 46.545 26.5608L46.5451 29.0241ZM37.6698 19.8104L21.201 19.8108L21.2009 15.6827L23.5924 15.6826C24.761 15.6826 25.7983 15.1231 26.4404 14.1452L27.4526 12.6047C27.8098 12.0619 28.3417 11.7745 28.9918 11.7745L32.0887 11.7744C32.7382 11.7744 33.27 12.0618 33.6267 12.6046L34.6403 14.145C35.2813 15.1229 36.3199 15.6823 37.4871 15.6823L42.0233 15.6822C42.9774 15.6822 43.7532 16.4579 43.7532 17.412L43.7534 24.2766L39.6253 24.2767L39.6252 21.7657C39.6251 20.6879 38.7477 19.8104 37.6698 19.8104ZM26.5773 21.7935C26.4834 21.6342 26.4536 21.4451 26.4939 21.2647L22.9486 21.2648C24.665 22.9988 25.668 25.3615 25.6681 27.8683C25.6682 33.0411 21.46 37.2496 16.2872 37.2497C11.115 37.2498 6.90662 33.0415 6.90641 27.8688C6.90631 24.6041 8.60721 21.5813 11.3725 19.879L11.3724 16.9752C10.9748 17.1545 10.5874 17.3556 10.2119 17.5776C10.1064 17.6399 9.98696 17.6746 9.86453 17.6785C9.74209 17.6823 9.62067 17.6552 9.5115 17.5996L6.90662 16.2725L4.69098 18.4882L6.01825 21.0936C6.07383 21.2028 6.10095 21.3242 6.09709 21.4467C6.09323 21.5691 6.05852 21.6886 5.99618 21.794C5.42459 22.7598 4.99263 23.8016 4.71316 24.8884C4.68265 25.0071 4.62269 25.1161 4.53883 25.2054C4.45498 25.2948 4.34993 25.3615 4.23343 25.3994L1.45467 26.3021L1.45478 29.4363L4.23364 30.3388C4.35026 30.3765 4.45543 30.4431 4.53934 30.5325C4.62324 30.6219 4.68315 30.731 4.71347 30.8498C4.99281 31.9363 5.42482 32.9777 5.9966 33.9429C6.05895 34.0484 6.09365 34.168 6.09751 34.2906C6.10137 34.4131 6.07425 34.5346 6.01867 34.6439L4.69151 37.2488L6.90726 39.4657L9.51203 38.1378C9.62114 38.0821 9.74254 38.0549 9.86498 38.0586C9.98741 38.0624 10.1069 38.097 10.2124 38.1592C11.1781 38.731 12.2199 39.1632 13.3068 39.4429C13.4254 39.4733 13.5345 39.5331 13.6238 39.6168C13.7131 39.7006 13.7799 39.8055 13.8178 39.922L14.7204 42.7014L17.8547 42.7013L18.7571 39.9218C18.795 39.8052 18.8617 39.7001 18.951 39.6162C19.0404 39.5324 19.1495 39.4724 19.2682 39.442C20.3548 39.1631 21.3963 38.7311 22.3613 38.1589C22.467 38.0967 22.5867 38.0621 22.7093 38.0583C22.8319 38.0546 22.9535 38.0818 23.0628 38.1375L25.6671 39.4653L27.884 37.2482L26.5561 34.6435C26.5004 34.5343 26.4732 34.4128 26.4769 34.2902C26.4807 34.1677 26.5153 34.0481 26.5775 33.9424C27.1504 32.9749 27.5817 31.9344 27.8612 30.8492C27.8914 30.7305 27.9511 30.6214 28.0349 30.532C28.1187 30.4426 28.2238 30.376 28.3404 30.3382L31.1198 29.4356L31.1196 26.3015L28.3401 25.399C28.2237 25.361 28.1187 25.2943 28.0348 25.2049C27.951 25.1156 27.891 25.0066 27.8604 24.888C27.5812 23.801 27.1492 22.7591 26.5773 21.7935ZM13.2154 12.5585L19.3576 12.5584C19.5684 12.5584 19.7467 12.7361 19.7467 12.9469L19.7469 22.5462C19.7469 22.7576 19.5686 22.9359 19.3578 22.936L13.2157 22.9361C13.0055 22.9361 12.8272 22.7577 12.8272 22.5464L12.827 12.9471C12.827 12.7363 13.0053 12.5585 13.2154 12.5585ZM13.2158 24.3907C12.1999 24.3907 11.3726 23.5636 11.3726 22.5464V21.6506C9.48965 23.1396 8.36098 25.4246 8.36109 27.8688C8.36119 32.2395 11.917 35.7953 16.2872 35.7952C20.6579 35.7951 24.2137 32.2392 24.2136 27.8685C24.2134 25.4242 23.0848 23.1393 21.2011 21.6504V22.5462C21.2011 23.5634 20.3739 24.3906 19.3579 24.3906L13.2158 24.3907ZM23.2987 5.46693C22.4684 5.46693 21.7925 4.79115 21.7925 3.9608C21.7925 3.13109 22.4683 2.45467 23.2987 2.45467C24.1295 2.45467 24.8043 3.13109 24.8043 3.9608C24.8041 4.79104 24.1295 5.46693 23.2987 5.46693ZM37.7809 2.45436C38.6105 2.45436 39.2865 3.13077 39.2865 3.96048C39.2865 4.79072 38.6106 5.46661 37.781 5.46661C36.9508 5.46661 36.2749 4.79083 36.2749 3.96048C36.2748 3.13077 36.9506 2.45436 37.7809 2.45436ZM45.7153 24.2765H45.208L45.2078 17.4119C45.2078 15.6557 43.7794 14.2274 42.0232 14.2275L37.487 14.2276C36.7989 14.2276 36.2339 13.9232 35.8553 13.3471L34.8424 11.8055C34.2223 10.8612 33.2186 10.3196 32.0887 10.3196H31.2675L31.2674 4.68782L34.9114 4.68771C35.2363 5.96957 36.3998 6.92118 37.781 6.92107C39.414 6.92107 40.7412 5.59317 40.7411 3.96016C40.7411 2.32843 39.4138 1 37.7808 1C36.399 1 35.2361 1.95108 34.9113 3.23293L26.1686 3.23315C25.8439 1.95129 24.6802 1.00032 23.2984 1.00042C21.6661 1.00042 20.3377 2.32896 20.3377 3.96069C20.3377 5.5937 21.6663 6.9215 23.2985 6.92139C24.6803 6.92139 25.8426 5.96978 26.1686 4.68782L29.8126 4.68771L29.8128 10.3195H28.9916C27.8605 10.3195 26.8568 10.8612 26.2361 11.8055L25.2239 13.3471C24.8458 13.9232 24.2816 14.2276 23.5922 14.2276L21.2007 14.2278V12.9465C21.2007 11.9306 20.3734 11.1035 19.3575 11.1035L13.2153 11.1036C12.1994 11.1036 11.3723 11.9308 11.3723 12.9467L11.3724 15.3959C10.8404 15.6053 10.3225 15.8491 9.82213 16.1257L7.09599 14.736C6.95904 14.6667 6.80369 14.6423 6.65208 14.6664C6.50047 14.6905 6.36033 14.7618 6.25164 14.8702L3.2884 17.8336C3.17968 17.9421 3.10818 18.0823 3.08418 18.234C3.06018 18.3857 3.08492 18.5411 3.15483 18.6779L4.54405 21.4041C4.06611 22.27 3.68592 23.1864 3.41051 24.1363L0.502431 25.0819C0.356428 25.1293 0.229176 25.2217 0.138918 25.3458C0.0486602 25.47 3.05215e-05 25.6196 0 25.7731L0.000106029 29.9643C-2.65915e-05 30.1178 0.0485401 30.2674 0.138821 30.3916C0.229102 30.5158 0.356446 30.6082 0.502537 30.6554L3.41061 31.6002C3.68614 32.5506 4.06635 33.4673 4.54426 34.3337L3.15526 37.0598C3.08543 37.1966 3.06073 37.352 3.08473 37.5037C3.10873 37.6554 3.18018 37.7956 3.28882 37.9042L6.25217 40.8673C6.36084 40.9758 6.50107 41.0471 6.65275 41.071C6.80443 41.0949 6.95978 41.0701 7.09652 41.0002L9.82266 39.6117C10.6886 40.0897 11.605 40.4699 12.5549 40.7452L13.5005 43.6533C13.5479 43.7994 13.6404 43.9267 13.7647 44.0168C13.889 44.107 14.0387 44.1554 14.1923 44.1551L18.3829 44.155C18.5364 44.1551 18.686 44.1066 18.8103 44.0164C18.9346 43.9263 19.0271 43.7991 19.0747 43.6531L20.0201 40.7437C20.97 40.4686 21.8863 40.0888 22.7523 39.6113L25.4779 40.9998C25.6148 41.0696 25.7702 41.0944 25.922 41.0705C26.0738 41.0466 26.2141 40.9753 26.3229 40.8668L29.2855 37.9034C29.3941 37.7948 29.4654 37.6546 29.4894 37.503C29.5134 37.3513 29.4888 37.1959 29.4191 37.0591L28.0305 34.3331C28.5086 33.4668 28.8888 32.5499 29.164 31.5995L32.0721 30.6546C32.2181 30.6073 32.3454 30.5149 32.4355 30.3907C32.5257 30.2665 32.5742 30.1169 32.5739 29.9634L32.5738 25.7722C32.5739 25.6188 32.5254 25.4692 32.4352 25.345C32.345 25.2209 32.2178 25.1284 32.0719 25.081L29.1625 24.1356C28.8875 23.1857 28.5077 22.2694 28.0302 21.4034L28.1006 21.2643L37.6699 21.2641C37.8028 21.2645 37.93 21.3174 38.024 21.4113C38.1179 21.5053 38.1708 21.6326 38.1712 21.7654L38.1713 24.2764H37.664C36.4042 24.2764 35.3797 25.301 35.3797 26.5608L35.3798 29.024C35.3798 29.9792 36.1562 30.7556 37.1115 30.7556L46.2672 30.7554C47.2224 30.7554 48 29.979 48 29.0237L47.9999 26.5604C47.9997 25.301 46.9751 24.2765 45.7153 24.2765Z" fill="#EB7124"/>
</svg>
