<svg width="48" height="48" viewBox="0 0 48 48" fill="none" xmlns="http://www.w3.org/2000/svg">
<g clip-path="url(#clip0_7226_46210)">
<path d="M47.6565 15.1197L24.4065 0.119716C24.2853 0.0415647 24.1442 0 24 0C23.8558 0 23.7147 0.0415647 23.5935 0.119716L0.3435 15.1197C0.238062 15.1876 0.151354 15.2808 0.0913354 15.3909C0.0313168 15.5009 -8.92621e-05 15.6243 1.90554e-07 15.7497V47.2497C1.90554e-07 47.4486 0.0790178 47.6394 0.21967 47.78C0.360322 47.9207 0.551088 47.9997 0.75 47.9997H47.25C47.4489 47.9997 47.6397 47.9207 47.7803 47.78C47.921 47.6394 48 47.4486 48 47.2497V15.7497C48.0001 15.6243 47.9687 15.5009 47.9087 15.3909C47.8486 15.2808 47.7619 15.1876 47.6565 15.1197ZM15 37.4997C15.1989 37.4997 15.3897 37.4207 15.5303 37.28C15.671 37.1394 15.75 36.9486 15.75 36.7497V35.9997H17.25V40.4997H12.75V35.9997H14.25V36.7497C14.25 36.9486 14.329 37.1394 14.4697 37.28C14.6103 37.4207 14.8011 37.4997 15 37.4997ZM18.75 35.9997H20.25V36.7497C20.25 36.9486 20.329 37.1394 20.4697 37.28C20.6103 37.4207 20.8011 37.4997 21 37.4997C21.1989 37.4997 21.3897 37.4207 21.5303 37.28C21.671 37.1394 21.75 36.9486 21.75 36.7497V35.9997H23.25V40.4997H18.75V35.9997ZM12.75 41.9997H14.25V42.7497C14.25 42.9486 14.329 43.1394 14.4697 43.28C14.6103 43.4207 14.8011 43.4997 15 43.4997C15.1989 43.4997 15.3897 43.4207 15.5303 43.28C15.671 43.1394 15.75 42.9486 15.75 42.7497V41.9997H17.25V46.4997H12.75V41.9997ZM18.75 41.9997H20.25V42.7497C20.25 42.9486 20.329 43.1394 20.4697 43.28C20.6103 43.4207 20.8011 43.4997 21 43.4997C21.1989 43.4997 21.3897 43.4207 21.5303 43.28C21.671 43.1394 21.75 42.9486 21.75 42.7497V41.9997H23.25V46.4997H18.75V41.9997ZM24.75 46.4997V41.9997H26.25V42.7497C26.25 42.9486 26.329 43.1394 26.4697 43.28C26.6103 43.4207 26.8011 43.4997 27 43.4997C27.1989 43.4997 27.3897 43.4207 27.5303 43.28C27.671 43.1394 27.75 42.9486 27.75 42.7497V41.9997H29.25V46.4997H24.75ZM30.75 46.4997V41.2497C30.75 41.0508 30.671 40.86 30.5303 40.7194C30.3897 40.5787 30.1989 40.4997 30 40.4997H24.75V35.2497C24.75 35.0508 24.671 34.86 24.5303 34.7194C24.3897 34.5787 24.1989 34.4997 24 34.4997H12.75V26.9997H35.25V46.4997H30.75ZM35.25 25.4997H12.75V23.9997H35.25V25.4997ZM46.5 46.4997H36.75V23.2497C36.75 23.0508 36.671 22.86 36.5303 22.7194C36.3897 22.5787 36.1989 22.4997 36 22.4997H12C11.8011 22.4997 11.6103 22.5787 11.4697 22.7194C11.329 22.86 11.25 23.0508 11.25 23.2497V46.4997H1.5V16.1585L24 1.64222L46.5 16.1585V46.4997Z" fill="#EB7124"/>
<path d="M29.25 17.25H18.75C18.5511 17.25 18.3603 17.329 18.2197 17.4697C18.079 17.6103 18 17.8011 18 18V20.25C18 20.4489 18.079 20.6397 18.2197 20.7803C18.3603 20.921 18.5511 21 18.75 21H29.25C29.4489 21 29.6397 20.921 29.7803 20.7803C29.921 20.6397 30 20.4489 30 20.25V18C30 17.8011 29.921 17.6103 29.7803 17.4697C29.6397 17.329 29.4489 17.25 29.25 17.25ZM28.5 19.5H19.5V18.75H28.5V19.5ZM18 13.5V15.75C18 15.9489 18.079 16.1397 18.2197 16.2803C18.3603 16.421 18.5511 16.5 18.75 16.5H29.25C29.4489 16.5 29.6397 16.421 29.7803 16.2803C29.921 16.1397 30 15.9489 30 15.75V13.5C30 13.3011 29.921 13.1103 29.7803 12.9697C29.6397 12.829 29.4489 12.75 29.25 12.75H18.75C18.5511 12.75 18.3603 12.829 18.2197 12.9697C18.079 13.1103 18 13.3011 18 13.5ZM19.5 14.25H28.5V15H19.5V14.25Z" fill="#EB7124"/>
</g>
<defs>
<clipPath id="clip0_7226_46210">
<rect width="48" height="48" fill="white"/>
</clipPath>
</defs>
</svg>
