<svg width="48" height="48" viewBox="0 0 48 48" fill="none" xmlns="http://www.w3.org/2000/svg">
<g clip-path="url(#clip0_7226_46240)">
<path d="M6.17024 30.9688C5.71087 30.9688 5.26183 31.105 4.87988 31.3602C4.49793 31.6154 4.20024 31.9781 4.02445 32.4025C3.84866 32.8269 3.80267 33.2939 3.89229 33.7444C3.9819 34.195 4.20311 34.6088 4.52793 34.9336C4.85274 35.2585 5.26659 35.4797 5.71712 35.5693C6.16766 35.6589 6.63465 35.6129 7.05905 35.4371C7.48345 35.2613 7.84618 34.9636 8.10139 34.5817C8.3566 34.1997 8.49282 33.7507 8.49282 33.2913C8.49213 32.6756 8.2472 32.0852 7.81179 31.6498C7.37637 31.2144 6.78601 30.9694 6.17024 30.9688ZM6.17024 34.0655C6.01712 34.0655 5.86743 34.0201 5.74012 33.935C5.6128 33.85 5.51357 33.7291 5.45498 33.5876C5.39638 33.4461 5.38105 33.2905 5.41092 33.1403C5.44079 32.9901 5.51453 32.8522 5.6228 32.7439C5.73107 32.6356 5.86902 32.5619 6.0192 32.532C6.16938 32.5021 6.32504 32.5175 6.46651 32.5761C6.60797 32.6347 6.72889 32.7339 6.81396 32.8612C6.89903 32.9885 6.94443 33.1382 6.94443 33.2913C6.9442 33.4966 6.86256 33.6934 6.71742 33.8385C6.57228 33.9837 6.3755 34.0653 6.17024 34.0655ZM35.5896 30.9688C35.1302 30.9688 34.6812 31.105 34.2992 31.3602C33.9173 31.6154 33.6196 31.9781 33.4438 32.4025C33.268 32.8269 33.222 33.2939 33.3116 33.7444C33.4013 34.195 33.6225 34.6088 33.9473 34.9336C34.2721 35.2585 34.6859 35.4797 35.1365 35.5693C35.587 35.6589 36.054 35.6129 36.4784 35.4371C36.9028 35.2613 37.2655 34.9636 37.5207 34.5817C37.776 34.1997 37.9122 33.7507 37.9122 33.2913C37.9115 32.6756 37.6666 32.0852 37.2311 31.6498C36.7957 31.2144 36.2054 30.9694 35.5896 30.9688ZM35.5896 34.0655C35.4365 34.0655 35.2868 34.0201 35.1595 33.935C35.0322 33.85 34.9329 33.7291 34.8743 33.5876C34.8157 33.4461 34.8004 33.2905 34.8303 33.1403C34.8601 32.9901 34.9339 32.8522 35.0422 32.7439C35.1504 32.6356 35.2884 32.5619 35.4386 32.532C35.5887 32.5021 35.7444 32.5175 35.8859 32.5761C36.0273 32.6347 36.1482 32.7339 36.2333 32.8612C36.3184 32.9885 36.3638 33.1382 36.3638 33.2913C36.3636 33.4966 36.2819 33.6934 36.1368 33.8385C35.9916 33.9837 35.7948 34.0653 35.5896 34.0655Z" fill="#EB7124"/>
<path d="M41.008 33.2949C41.008 32.5754 40.8648 31.8632 40.5866 31.1997C40.3085 30.5361 39.901 29.9347 39.388 29.4303C38.8749 28.9259 38.2666 28.5287 37.5984 28.2619C36.9303 27.9951 36.2157 27.864 35.4964 27.8763C32.5591 27.9253 30.1693 30.3904 30.1693 33.3713V35.9721C28.0485 35.3949 24.9554 34.8432 20.879 34.8432C16.8026 34.8432 13.7095 35.3949 11.5887 35.9721V33.2949C11.5887 32.5655 11.4415 31.8436 11.1558 31.1724C10.8701 30.5013 10.452 29.8948 9.92628 29.3891C9.40061 28.8835 8.77827 28.4891 8.09656 28.2297C7.41484 27.9704 6.68778 27.8513 5.95894 27.8796C4.59692 27.937 3.30612 28.5038 2.34218 29.4677C1.37823 30.4317 0.811435 31.7225 0.754039 33.0845C0.702367 34.4229 1.14794 35.7332 2.00489 36.7626C2.86184 37.7921 4.0695 38.468 5.39514 38.6599V41.811C5.39606 42.632 5.72262 43.4192 6.30318 43.9997C6.88374 44.5803 7.67088 44.9068 8.49191 44.9078V47.2303C8.49191 47.4357 8.57348 47.6326 8.71867 47.7778C8.86386 47.923 9.06077 48.0045 9.2661 48.0045H11.5887C11.7325 48.0045 11.8734 47.9645 11.9957 47.8889C12.118 47.8133 12.2168 47.7052 12.2811 47.5766L13.6155 44.9078H28.1425L29.4769 47.5766C29.5412 47.7052 29.64 47.8133 29.7623 47.8889C29.8846 47.9645 30.0256 48.0045 30.1693 48.0045H32.4919C32.6972 48.0045 32.8942 47.923 33.0393 47.7778C33.1845 47.6326 33.2661 47.4357 33.2661 47.2303V44.9078C34.0871 44.9068 34.8743 44.5803 35.4548 43.9997C36.0354 43.4192 36.362 42.632 36.3629 41.811V38.6591C37.652 38.4712 38.8306 37.826 39.6834 36.8412C40.5363 35.8563 41.0064 34.5976 41.008 33.2949ZM11.1102 46.4562H10.0403V44.9078H11.8844L11.1102 46.4562ZM31.7177 46.4562H30.6478L29.8736 44.9078H31.7177V46.4562ZM35.5887 37.1658C35.3834 37.1658 35.1864 37.2474 35.0412 37.3926C34.8961 37.5378 34.8145 37.7347 34.8145 37.94V41.811C34.814 42.2215 34.6507 42.6151 34.3604 42.9053C34.0702 43.1956 33.6766 43.3589 33.2661 43.3594H8.49191C8.0814 43.3589 7.68785 43.1956 7.39757 42.9053C7.1073 42.6151 6.94401 42.2215 6.94352 41.811V37.94C6.94352 37.7347 6.86196 37.5378 6.71677 37.3926C6.57158 37.2474 6.37466 37.1658 6.16933 37.1658C5.64822 37.1658 5.13248 37.0606 4.65301 36.8565C4.17355 36.6524 3.74023 36.3536 3.37903 35.978C3.01784 35.6023 2.7362 35.1577 2.551 34.6706C2.36581 34.1835 2.28086 33.664 2.30126 33.1433C2.34229 32.1709 2.74698 31.2493 3.43519 30.5611C4.12341 29.8729 5.04497 29.4682 6.01739 29.4272C6.5381 29.4067 7.05757 29.4916 7.54468 29.6768C8.03179 29.8619 8.4765 30.1435 8.85215 30.5047C9.22781 30.8658 9.52667 31.2991 9.73084 31.7786C9.935 32.258 10.0403 32.7738 10.0403 33.2949V36.4497C8.81988 36.8755 8.17856 37.228 8.11236 37.2652L8.86981 38.6157C8.90978 38.5934 12.9622 36.3916 20.879 36.3916C28.7958 36.3916 32.8482 38.5934 32.8866 38.6148L33.6456 37.2652C33.5795 37.228 32.9381 36.8751 31.7177 36.4497V33.3713C31.7177 31.2301 33.4244 29.4595 35.5222 29.4245C36.0333 29.4156 36.5411 29.5081 37.0163 29.6965C37.4915 29.885 37.9246 30.1657 38.2907 30.5224C38.6569 30.8792 38.9487 31.3049 39.1494 31.7751C39.3501 32.2452 39.4557 32.7504 39.4601 33.2616C39.4645 33.7728 39.3676 34.2798 39.175 34.7533C38.9824 35.2268 38.6979 35.6575 38.338 36.0205C37.978 36.3835 37.5498 36.6716 37.0779 36.8681C36.606 37.0647 36.0999 37.1659 35.5887 37.1658ZM6.94352 22.4561C6.94401 22.0456 7.1073 21.6521 7.39757 21.3618C7.68785 21.0715 8.0814 20.9082 8.49191 20.9078H33.2661C33.6766 20.9082 34.0702 21.0715 34.3604 21.3618C34.6507 21.6521 34.814 22.0456 34.8145 22.4561V26.3271H36.3629V22.4561C36.362 21.6351 36.0354 20.848 35.4548 20.2674C34.8743 19.6869 34.0871 19.3603 33.2661 19.3594H8.49191C7.67088 19.3603 6.88374 19.6869 6.30318 20.2674C5.72262 20.848 5.39606 21.6351 5.39514 22.4561V26.3271H6.94352V22.4561Z" fill="#EB7124"/>
<path d="M16.2342 24H17.7826V25.5484H16.2342V24ZM20.1052 27.871H21.6536V29.4194H20.1052V27.871ZM12.3633 27.871H13.9117V29.4194H12.3633V27.871ZM16.2342 31.7419H17.7826V33.2903H16.2342V31.7419ZM23.9762 24H25.5246V25.5484H23.9762V24ZM27.8472 27.871H29.3955V29.4194H27.8472V27.871ZM23.9762 31.7419H25.5246V33.2903H23.9762V31.7419ZM44.1052 0H22.4278C21.6068 0.000922106 20.8196 0.327484 20.2391 0.908042C19.6585 1.4886 19.3319 2.27574 19.331 3.09677V3.87097H20.8794V3.09677C20.8799 2.68627 21.0432 2.29271 21.3335 2.00244C21.6237 1.71216 22.0173 1.54887 22.4278 1.54839H32.4923V17.8065H34.0407V1.54839H44.1052C44.5157 1.54887 44.9093 1.71216 45.1996 2.00244C45.4898 2.29271 45.6531 2.68627 45.6536 3.09677V41.8064C45.6531 42.217 45.4898 42.6105 45.1996 42.9008C44.9093 43.1911 44.5157 43.3544 44.1052 43.3548H37.1375V44.9032H38.9816L40.316 47.5721C40.3803 47.7006 40.4792 47.8088 40.6015 47.8844C40.7237 47.96 40.8647 48 41.0084 48H43.331C43.5364 48 43.7333 47.9184 43.8785 47.7732C44.0237 47.6281 44.1052 47.4311 44.1052 47.2258V44.9032C44.9263 44.9023 45.7134 44.5757 46.2939 43.9952C46.8745 43.4146 47.2011 42.6275 47.202 41.8064V3.09677C47.2011 2.27574 46.8745 1.4886 46.2939 0.908042C45.7134 0.327484 44.9263 0.000922106 44.1052 0ZM42.5568 46.4516H41.4869L40.7127 44.9032H42.5568V46.4516Z" fill="#EB7124"/>
<path d="M6.16869 16.2621H13.1364V17.8105H14.6848V16.2621H21.6526C21.7597 16.2621 21.8656 16.2399 21.9636 16.1968C22.0617 16.1538 22.1498 16.0909 22.2223 16.0121C22.2948 15.9333 22.3502 15.8403 22.3849 15.739C22.4196 15.6377 22.433 15.5303 22.4241 15.4235L21.6499 6.13323C21.6337 5.93971 21.5454 5.75934 21.4025 5.62785C21.2596 5.49637 21.0726 5.42339 20.8784 5.42339H14.6848V3.875H13.1364V5.42339H6.94289C6.7487 5.42339 6.56161 5.49637 6.41872 5.62785C6.27582 5.75934 6.18755 5.93971 6.1714 6.13323L5.39721 15.4235C5.38831 15.5303 5.40164 15.6377 5.43637 15.739C5.4711 15.8403 5.52647 15.9333 5.59898 16.0121C5.67149 16.0909 5.75955 16.1538 5.85762 16.1968C5.95568 16.2399 6.0616 16.2621 6.16869 16.2621ZM7.65524 6.97177H20.166L20.8112 14.7137H7.01005L7.65524 6.97177Z" fill="#EB7124"/>
</g>
<defs>
<clipPath id="clip0_7226_46240">
<rect width="48" height="48" fill="white"/>
</clipPath>
</defs>
</svg>
