<svg width="48" height="48" viewBox="0 0 48 48" fill="none" xmlns="http://www.w3.org/2000/svg">
<path d="M7.73437 19.0547H40.2612C40.8135 19.0547 41.2612 19.5024 41.2612 20.0547V47.0009C41.2612 47.5532 40.8135 48.001 40.2612 48.001H7.73437C7.18209 48.001 6.73438 47.5532 6.73438 47.001V20.0547C6.73438 19.5024 7.18209 19.0547 7.73437 19.0547ZM39.2612 21.0547H8.73437V46.0009H39.2612V21.0547Z" fill="#EB7124"/>
<path d="M24.6756 0.262667L47.6367 19.2843L47 20.0538L47.6379 19.2838C48.0632 19.6361 48.1224 20.2665 47.77 20.6918C47.5724 20.9303 47.2873 21.0537 47 21.0538V21.0539H1C0.447719 21.0539 0 20.6061 0 20.0538C0 19.7259 0.157874 19.4347 0.401811 19.2524L23.3628 0.230824L23.3621 0.229887C23.7516 -0.0928006 24.3132 -0.0702067 24.6756 0.262637L24.6756 0.262667ZM44.2272 19.0538L24 2.29698L3.77272 19.0538H44.2271H44.2272Z" fill="#EB7124"/>
<path d="M24.8886 1.44913C25.1388 0.95944 24.9447 0.359534 24.455 0.109284C23.9653 -0.140966 23.3654 0.0531285 23.1152 0.542847L19.1213 8.35581L19.1176 8.35391C18.8663 8.84566 19.0611 9.44812 19.5528 9.69947C19.5853 9.71609 19.6183 9.73072 19.6517 9.74347L23.3323 11.5503L20.2091 16.7037L20.2052 16.7014C19.9748 17.0816 20.0277 17.5542 20.3034 17.8734L25.4397 25.0079L22.7561 26.7436L22.7544 26.7409C22.2907 27.0408 22.1578 27.66 22.4578 28.1237C22.5059 28.1981 22.5636 28.2658 22.6294 28.325L26.5414 32.6007L21.5354 36.3261L22.1291 37.1269L21.5321 36.3247C21.1038 36.6435 21.0037 37.2398 21.2957 37.6794L26.6482 47.4709C26.9114 47.9542 27.5166 48.1326 27.9998 47.8694C28.4831 47.6062 28.6614 47.001 28.3982 46.5178L23.4192 37.4095L28.5511 33.5904C28.6024 33.5582 28.6507 33.5214 28.6954 33.4805C29.1029 33.1077 29.131 32.4751 28.7582 32.0676L28.7547 32.0708L24.8274 27.7782L27.3339 26.1571C27.3723 26.1363 27.4093 26.1132 27.4447 26.0877C27.8929 25.765 27.9947 25.1401 27.672 24.6918L27.669 24.694L22.2535 17.1718L25.5491 11.7341C25.5859 11.6847 25.6181 11.6319 25.6453 11.5766C25.8887 11.0808 25.6841 10.4816 25.1883 10.2382L24.7476 11.1359L25.1851 10.2413L21.3553 8.36119L24.8886 1.44916V1.44913Z" fill="#EB7124"/>
</svg>
