<svg width="48" height="48" viewBox="0 0 48 48" fill="none" xmlns="http://www.w3.org/2000/svg">
<path d="M39.5749 29.31C34.4254 30.1275 29.2149 30.4989 24.0014 30.42C18.7879 30.4976 13.5774 30.1248 8.42801 29.3057C6.15401 28.9157 4.78258 31.4485 5.2283 33.684C6.56372 40.3894 12.2869 43.9362 19.2443 43.836C19.8097 43.8276 20.3633 43.6732 20.8514 43.3877C21.4958 43.0082 22.0716 42.5228 22.5546 41.952C22.7084 41.7072 22.9217 41.5055 23.1747 41.3657C23.4277 41.2259 23.712 41.1526 24.001 41.1526C24.29 41.1526 24.5744 41.2259 24.8273 41.3657C25.0803 41.5055 25.2937 41.7072 25.4474 41.952C25.9315 42.5227 26.5078 43.0083 27.1523 43.3885C27.64 43.6734 28.193 43.8275 28.7577 43.836C35.6294 43.9345 41.4246 40.464 42.7746 33.684C43.2177 31.4665 41.8583 28.9122 39.5749 29.31ZM41.0937 33.354C39.8937 39.3617 34.678 42.2477 28.7894 42.1259C28.5224 42.1219 28.2609 42.0493 28.03 41.9151C27.537 41.6247 27.0975 41.2519 26.7306 40.8128C26.4143 40.3878 26.0031 40.0426 25.5297 39.8047C25.0563 39.5669 24.5338 39.4431 24.004 39.4431C23.4742 39.4431 22.9518 39.5669 22.4784 39.8047C22.005 40.0426 21.5937 40.3878 21.2774 40.8128C20.9094 41.2527 20.4681 41.6257 19.9729 41.9151C19.7405 42.0492 19.4774 42.121 19.2092 42.1234C13.3806 42.264 8.1083 39.3805 6.90573 33.3514C6.70858 32.3605 7.15258 30.8211 8.12887 30.9968C13.3771 31.832 18.6877 32.2126 24.0014 32.1342H24.0169C29.3254 32.2131 34.6308 31.8334 39.874 30.9994C40.8477 30.8305 41.2926 32.3554 41.0937 33.354Z" fill="#EB7124"/>
<path d="M28.1143 38.2889C27.7335 37.9685 27.4432 37.5541 27.2723 37.0867C27.1013 36.6194 27.0556 36.1154 27.1397 35.625C27.9403 32.727 36.2554 32.3318 37.1571 34.9392C37.5943 36.2087 36.3643 37.4344 35.8389 37.9581C33.762 40.0341 30.0317 40.3692 28.1143 38.2889ZM28.7914 36.0818C28.7769 36.135 28.7357 36.435 29.3743 37.1267C30.6257 38.4861 33.2657 38.1038 34.6286 36.7469C35.514 35.8641 35.5371 35.5418 35.5329 35.4861C34.9646 34.5304 29.1274 34.8681 28.7914 36.0861V36.0818ZM12.6429 37.9607C12.1183 37.4378 10.8874 36.2129 11.3254 34.9418C12.2271 32.3267 20.544 32.733 21.3429 35.6275C21.427 36.1181 21.3813 36.6222 21.2103 37.0897C21.0393 37.5572 20.7491 37.9718 20.3683 38.2924C18.4286 40.3932 14.6923 40.0032 12.6429 37.9607ZM12.942 35.5101C12.942 35.5418 12.9677 35.865 13.8531 36.7461C15.282 38.1707 17.8989 38.4389 19.1074 37.1275C19.7469 36.4349 19.7074 36.135 19.6911 36.0818C19.3577 34.8775 13.5086 34.5269 12.942 35.5101ZM39.8057 16.2304C38.0914 9.45895 38.4274 6.85581 35.9486 5.18866C35.4445 4.79136 34.8616 4.50598 34.2387 4.35154C33.6157 4.19709 32.967 4.17712 32.3357 4.29295C31.0336 4.61552 29.7639 5.05739 28.5429 5.61295C27.1901 6.28574 25.7059 6.6527 24.1954 6.68781C22.0333 6.71847 19.8986 6.20001 17.9914 5.18095C16.5111 4.63752 15.0206 3.85238 13.3869 4.50123C12.7161 4.75197 12.1137 5.15694 11.6283 5.68344C11.1429 6.20993 10.7881 6.84319 10.5926 7.53209C9.66765 10.4265 8.80857 13.3415 8.016 16.2749C4.24457 17.1724 0 18.7692 0 21.4264C0 25.8724 12.0737 28.1978 24 28.1978C35.9263 28.1978 48 25.8724 48 21.4264C48 18.7401 43.662 17.1304 39.8057 16.2304ZM12.228 8.05495C12.3459 7.60784 12.5707 7.19609 12.883 6.85519C13.1954 6.51429 13.586 6.25446 14.0211 6.09809C14.922 5.73809 15.8426 6.20866 17.3349 6.76838C19.4662 7.89132 21.8487 8.45213 24.2571 8.39781C25.9829 8.36024 27.6796 7.946 29.2286 7.18409C30.3594 6.66748 31.5359 6.25742 32.7429 5.95923C33.1423 5.90663 33.5484 5.93743 33.9354 6.0497C34.3224 6.16198 34.6818 6.35328 34.9911 6.61152C36.918 7.90752 36.2237 9.94581 39.0883 20.2049C39.0996 20.2456 39.1022 20.2881 39.096 20.3298C39.0897 20.3715 39.0748 20.4114 39.0522 20.4469C39.0296 20.4825 38.9997 20.5129 38.9646 20.5362C38.9295 20.5595 38.8899 20.5751 38.8483 20.5821C33.9486 21.4392 28.9826 21.86 24.0086 21.8395C19.0183 21.7753 14.0443 21.2563 9.14829 20.2889C9.1038 20.28 9.06155 20.2623 9.02396 20.2368C8.98638 20.2114 8.95422 20.1788 8.92934 20.1408C8.90446 20.1029 8.88737 20.0604 8.87905 20.0157C8.87072 19.9711 8.87134 19.9253 8.88086 19.8809C9.49714 17.1407 10.83 12.4324 12.228 8.05495ZM24 26.4835C10.1923 26.4835 1.71429 23.5384 1.71429 21.4264C1.71429 20.5341 3.53057 19.2295 7.52914 18.1624C7.392 18.7152 7.266 19.2407 7.16571 19.6967C7.11557 19.9564 7.1195 20.2237 7.17725 20.4818C7.235 20.74 7.34533 20.9835 7.50136 21.1971C7.65739 21.4107 7.85577 21.5899 8.08412 21.7234C8.31247 21.8569 8.56589 21.942 8.82857 21.9732C13.8243 22.9602 18.8996 23.4892 23.9914 23.5538C29.0675 23.5726 34.1354 23.1441 39.1363 22.2732C39.4134 22.2441 39.681 22.1553 39.9206 22.0129C40.1601 21.8705 40.3661 21.678 40.5241 21.4485C40.6822 21.219 40.7887 20.958 40.8364 20.6834C40.884 20.4088 40.8716 20.1271 40.8 19.8578C40.62 19.2407 40.4571 18.6698 40.3054 18.1212C44.4189 19.1978 46.2857 20.5195 46.2857 21.4264C46.2857 23.5384 37.8077 26.4835 24 26.4835Z" fill="#EB7124"/>
</svg>
