<svg width="48" height="48" viewBox="0 0 48 48" fill="none" xmlns="http://www.w3.org/2000/svg">
<g clip-path="url(#clip0_7226_46252)">
<path fill-rule="evenodd" clip-rule="evenodd" d="M23.625 48C23.4375 48 23.25 47.9062 23.0625 47.7188L3.75 22.2188C3.65625 22.0312 3.65625 21.75 3.75 21.4688L8.71875 13.2188C8.8125 13.0312 9.09375 12.9375 9.28125 12.9375H38.0625C38.3438 12.9375 38.5312 13.0312 38.625 13.2188L43.5 21.4688C43.5938 21.75 43.5938 22.0312 43.5 22.2188L24.1875 47.7188C24 47.9062 23.8125 48 23.625 48ZM5.0625 21.8438L23.625 46.2188L42.1875 21.75L37.6875 14.25H9.65625L5.0625 21.8438Z" fill="#EB7124"/>
<path fill-rule="evenodd" clip-rule="evenodd" d="M23.625 48.0005C23.3438 48.0005 23.0625 47.813 22.9688 47.5317L15 22.0317V21.6567L17.0625 13.4067C17.1562 13.1255 17.5312 12.8442 17.9062 12.938C18.2812 13.0317 18.4688 13.4067 18.375 13.7817L16.3125 21.8442L23.625 45.188L31.0312 21.8442L28.9688 13.7817C28.875 13.4067 29.1562 13.0317 29.4375 12.938C29.8125 12.8442 30.1875 13.0317 30.2812 13.4067L32.3438 21.6567V22.0317L24.2812 47.5317C24.1875 47.813 23.9062 48.0005 23.625 48.0005Z" fill="#EB7124"/>
<path fill-rule="evenodd" clip-rule="evenodd" d="M42.9392 22.5H4.31422C3.93922 22.5 3.65797 22.2188 3.65797 21.8438C3.65797 21.4688 3.93922 21.1875 4.31422 21.1875H42.9392C43.3142 21.1875 43.5955 21.4688 43.5955 21.8438C43.5955 22.2188 43.3142 22.5 42.9392 22.5ZM24.0955 7.3125C23.7205 7.3125 23.4392 7.03125 23.4392 6.65625V0.65625C23.4392 0.28125 23.7205 0 24.0955 0C24.4705 0 24.7517 0.28125 24.7517 0.65625V6.65625C24.7517 7.03125 24.4705 7.3125 24.0955 7.3125ZM33.4705 8.25C33.3767 8.25 33.283 8.25 33.1892 8.15625C32.908 8.0625 32.7205 7.6875 32.908 7.3125L35.2517 1.5C35.3455 1.21875 35.7205 1.03125 36.0955 1.125C36.3767 1.3125 36.5642 1.6875 36.4705 2.0625L34.1267 7.875C33.9392 8.0625 33.7517 8.25 33.4705 8.25ZM42.0955 10.6875C41.908 10.6875 41.8142 10.5938 41.6267 10.5C41.3455 10.3125 41.3455 9.84375 41.6267 9.5625L46.2205 4.40625C46.408 4.125 46.8767 4.125 47.158 4.40625C47.4392 4.59375 47.4392 5.0625 47.158 5.34375L42.5642 10.5C42.4705 10.5938 42.283 10.6875 42.0955 10.6875ZM14.7205 7.96875C14.4392 7.96875 14.2517 7.78125 14.158 7.59375L11.8142 1.875C11.6267 1.5 11.8142 1.125 12.0955 1.03125C12.4705 0.84375 12.8455 1.03125 12.9392 1.3125L15.283 7.03125C15.4705 7.40625 15.283 7.78125 15.0017 7.875C14.908 7.96875 14.8142 7.96875 14.7205 7.96875ZM5.90797 10.3125C5.72047 10.3125 5.53297 10.2188 5.43922 10.125L0.845474 4.96875C0.564224 4.6875 0.657974 4.21875 0.845474 4.03125C1.12672 3.75 1.59547 3.84375 1.78297 4.03125L6.37672 9.1875C6.65797 9.46875 6.65797 9.9375 6.37672 10.125C6.18922 10.2188 6.09547 10.3125 5.90797 10.3125Z" fill="#EB7124"/>
</g>
<defs>
<clipPath id="clip0_7226_46252">
<rect width="48" height="48" fill="white"/>
</clipPath>
</defs>
</svg>
