<svg width="922" height="922" viewBox="0 0 922 922" fill="none" xmlns="http://www.w3.org/2000/svg">
<path d="M461.004 257.803C423.563 257.803 393.211 227.451 393.211 190.01V67.7931C393.211 30.3521 423.563 0 461.004 0C498.445 0 528.797 30.3521 528.797 67.7931V190.01C528.797 227.451 498.445 257.803 461.004 257.803Z" fill="#EB7124"/>
<path opacity="0.2" d="M652.748 337.044C635.396 337.044 618.046 330.424 604.809 317.187C578.335 290.712 578.335 247.787 604.809 221.312L691.097 135.024C717.574 108.549 760.497 108.549 786.974 135.024C813.449 161.498 813.449 204.424 786.974 230.901L700.686 317.187C687.446 330.426 670.097 337.044 652.748 337.044Z" fill="#EB7124"/>
<path opacity="0.4" d="M854.196 528.793H732.168C694.727 528.793 664.375 498.438 664.375 461C664.375 423.559 694.727 393.207 732.168 393.207H854.196C891.637 393.207 921.989 423.559 921.989 461C921.989 498.441 891.637 528.793 854.196 528.793Z" fill="#EB7124"/>
<path opacity="0.5" d="M739.036 806.829C721.684 806.829 704.334 800.209 691.097 786.972L604.809 700.683C578.335 674.209 578.335 631.283 604.809 604.809C631.286 578.335 674.209 578.335 700.686 604.809L786.974 691.097C813.449 717.572 813.449 760.497 786.974 786.974C773.734 800.212 756.385 806.829 739.036 806.829Z" fill="#EB7124"/>
<path opacity="0.6" d="M461.004 921.999C423.563 921.999 393.211 891.647 393.211 854.206V732.176C393.211 694.735 423.563 664.383 461.004 664.383C498.445 664.383 528.797 694.735 528.797 732.176V854.206C528.797 891.644 498.445 921.999 461.004 921.999Z" fill="#EB7124"/>
<path opacity="0.7" d="M182.962 806.833C165.613 806.833 148.264 800.213 135.024 786.976C108.549 760.499 108.549 717.576 135.024 691.099L221.446 604.676C247.924 578.202 290.844 578.202 317.321 604.676C343.798 631.151 343.798 674.076 317.321 700.553L230.901 786.976C217.661 800.216 200.312 806.833 182.962 806.833Z" fill="#EB7124"/>
<path opacity="0.8" d="M189.821 528.793H67.7932C30.3522 528.793 0 498.438 0 461C0 423.559 30.3522 393.207 67.7932 393.207H189.821C227.262 393.207 257.614 423.559 257.614 461C257.614 498.441 227.262 528.793 189.821 528.793Z" fill="#EB7124"/>
<path opacity="0.85" d="M269.251 337.044C251.899 337.044 234.552 330.424 221.312 317.187L135.024 230.901C108.549 204.426 108.549 161.501 135.024 135.024C161.501 108.549 204.424 108.549 230.901 135.024L317.187 221.312C343.664 247.787 343.664 290.712 317.187 317.187C303.949 330.426 286.6 337.044 269.251 337.044Z" fill="#EB7124"/>
</svg>
