<svg width="54" height="54" viewBox="0 0 54 54" fill="none" xmlns="http://www.w3.org/2000/svg">
<path d="M50.9912 43.2209L42.1069 30.9525C41.6841 30.3701 41.1296 29.8958 40.4886 29.5684C39.8476 29.241 39.1384 29.0698 38.4186 29.0686H27.043V26.6333H35.8698C36.7734 26.6229 37.6365 26.2566 38.2718 25.6139C38.9071 24.9712 39.2634 24.1039 39.2634 23.2003C39.2634 22.2966 38.9071 21.4293 38.2718 20.7866C37.6365 20.1439 36.7734 19.7776 35.8698 19.7672H27.043V15.8119C27.0425 15.1182 26.8833 14.4338 26.5774 13.8111C26.2716 13.1885 25.8273 12.6441 25.2786 12.2196C26.5905 11.5876 27.649 10.5289 28.2807 9.21688C28.9124 7.90482 29.0799 6.41716 28.7558 4.99747C28.4317 3.57779 27.6351 2.31023 26.4966 1.40233C25.3581 0.494429 23.945 0 22.4888 0C21.0326 0 19.6195 0.494429 18.481 1.40233C17.3424 2.31023 16.5459 3.57779 16.2218 4.99747C15.8977 6.41716 16.0652 7.90482 16.6969 9.21688C17.3286 10.5289 18.3871 11.5876 19.699 12.2196C19.1502 12.644 18.7059 13.1884 18.4 13.811C18.0942 14.4337 17.9349 15.1182 17.9346 15.8119V20.7634C14.718 20.9188 11.6158 22.005 9.00473 23.8899C6.39368 25.7748 4.38615 28.3774 3.22597 31.3814C2.06579 34.3855 1.80289 37.6618 2.46921 40.8125C3.13552 43.9631 4.70238 46.8525 6.97946 49.1296C9.25654 51.4067 12.1459 52.9737 15.2965 53.6401C18.4471 54.3065 21.7234 54.0437 24.7275 52.8836C27.7316 51.7235 30.3342 49.716 32.2192 47.105C34.1042 44.494 35.1904 41.3918 35.346 38.1753H36.0918L43.6122 48.5625C43.9618 49.048 44.4041 49.4594 44.9137 49.7729C45.4233 50.0863 45.99 50.2955 46.581 50.3885C46.8223 50.4272 47.0663 50.4467 47.3107 50.4469C48.149 50.4447 48.9706 50.2112 49.6848 49.7722C50.399 49.3331 50.9782 48.7055 51.3587 47.9584C51.7391 47.2113 51.906 46.3737 51.841 45.5378C51.776 44.7019 51.4816 43.9002 50.9902 43.2209H50.9912ZM17.669 6.43784C17.669 5.48464 17.9516 4.55284 18.4812 3.76027C19.0107 2.9677 19.7634 2.34996 20.6441 1.98517C21.5247 1.62037 22.4937 1.5249 23.4286 1.71083C24.3635 1.89675 25.2223 2.35573 25.8964 3.02972C26.5704 3.7037 27.0295 4.56243 27.2155 5.49731C27.4015 6.43218 27.3061 7.40123 26.9414 8.2819C26.5767 9.16257 25.959 9.91532 25.1665 10.445C24.374 10.9746 23.4422 11.2573 22.489 11.2574C21.2111 11.2562 19.9859 10.7481 19.0822 9.84449C18.1786 8.94092 17.6703 7.71575 17.669 6.43784ZM22.489 38.1753H29.4429C29.2894 40.2246 28.551 42.1867 27.3153 43.8288C26.0796 45.4708 24.3986 46.7237 22.4719 47.4386C20.5453 48.1536 18.4539 48.3005 16.4462 47.862C14.4385 47.4235 12.5988 46.418 11.1456 44.9649C9.69246 43.5118 8.68688 41.6722 8.2483 39.6645C7.80973 37.6568 7.9566 35.5654 8.67146 33.6387C9.38632 31.712 10.6391 30.031 12.2811 28.7952C13.9231 27.5595 15.8853 26.8209 17.9346 26.6673V33.6217C17.936 34.8291 18.4164 35.9866 19.2702 36.8403C20.124 37.6939 21.2816 38.174 22.489 38.1753ZM18.7387 52.3919C14.8235 52.3939 11.0623 50.867 8.25634 48.1366C5.45039 45.4062 3.82148 41.688 3.71665 37.7743C3.61181 33.8605 5.03932 30.0605 7.69508 27.1838C10.3508 24.3071 14.0249 22.581 17.9346 22.3734V25.055C15.5665 25.2093 13.2931 26.0429 11.3866 27.456C9.48007 28.8691 8.02131 30.8019 7.18497 33.0227C6.34864 35.2436 6.17019 37.6584 6.67099 39.9781C7.17179 42.2977 8.33061 44.4239 10.0087 46.1019C11.6867 47.7799 13.8129 48.9386 16.1326 49.4393C18.4523 49.9401 20.8671 49.7615 23.0879 48.9251C25.3088 48.0887 27.2414 46.6299 28.6545 44.7233C30.0675 42.8168 30.9011 40.5434 31.0553 38.1753H33.7378C33.5277 42.0128 31.8564 45.6242 29.067 48.2681C26.2776 50.9119 22.5819 52.3875 18.7387 52.3919ZM49.0291 48.2781C48.3962 48.736 47.6073 48.9239 46.8358 48.8003C46.0644 48.6768 45.3736 48.2519 44.9153 47.6192L37.1546 36.8997C37.08 36.7968 36.9821 36.713 36.869 36.6552C36.7558 36.5973 36.6305 36.5671 36.5035 36.567H22.489C21.708 36.5663 20.9592 36.2558 20.4068 35.7036C19.8545 35.1515 19.5437 34.4027 19.5428 33.6217V15.8119C19.5379 15.4219 19.6105 15.0349 19.7564 14.6732C19.9022 14.3115 20.1185 13.9823 20.3925 13.7048C20.6665 13.4273 20.993 13.207 21.3528 13.0567C21.7127 12.9063 22.0988 12.8289 22.4888 12.8289C22.8788 12.8289 23.2649 12.9063 23.6248 13.0567C23.9846 13.207 24.311 13.4273 24.5851 13.7048C24.8591 13.9823 25.0753 14.3115 25.2212 14.6732C25.3671 15.0349 25.4397 15.4219 25.4348 15.8119V20.5722C25.4347 20.6778 25.4555 20.7824 25.4959 20.88C25.5363 20.9776 25.5955 21.0663 25.6702 21.1409C25.7449 21.2156 25.8335 21.2748 25.9311 21.3152C26.0287 21.3556 26.1333 21.3764 26.2389 21.3763H35.8698C36.3488 21.3839 36.8056 21.5795 37.1416 21.9209C37.4776 22.2623 37.666 22.7221 37.666 23.2012C37.666 23.6802 37.4776 24.14 37.1416 24.4814C36.8056 24.8228 36.3488 25.0184 35.8698 25.026H26.2389C26.0256 25.026 25.8211 25.1108 25.6703 25.2616C25.5195 25.4124 25.4348 25.6169 25.4348 25.8301V29.8737C25.4347 29.9793 25.4555 30.0839 25.4959 30.1814C25.5363 30.279 25.5955 30.3677 25.6702 30.4424C25.7449 30.5171 25.8335 30.5763 25.9311 30.6167C26.0287 30.6571 26.1333 30.6778 26.2389 30.6778H38.4181C38.8838 30.6784 39.3427 30.7892 39.7573 31.0009C40.172 31.2127 40.5308 31.5195 40.8043 31.8963L49.6881 44.1647C50.1456 44.798 50.3332 45.5869 50.2096 46.3584C50.0861 47.1298 49.6615 47.8207 49.0291 48.2794V48.2781Z" fill="#EB7124"/>
</svg>
