<svg width="54" height="54" viewBox="0 0 54 54" fill="none" xmlns="http://www.w3.org/2000/svg">
<path d="M50.4497 31.0896C50.0631 29.9229 46.5946 19.633 44.0706 17.6228C42.3825 16.2803 37.1405 13.3654 32.2676 12.4783C32.48 11.2838 33.0834 7.14134 33.0834 6.07918C33.0834 3.14692 31.8636 1.22546 29.8142 0.912902C24.6653 -0.97722 22.0456 0.320878 19.8299 2.50179C17.8179 4.4842 17.7996 3.05899 16.9203 3.65362C15.6779 4.50248 17.4731 8.52389 19.0899 9.96825C18.9709 11.3457 19.2479 12.7285 19.8882 13.954C16.451 15.1023 13.504 16.6494 12.104 18.0781C9.52607 20.7178 4.70021 27.9623 4.49649 28.2696C4.05943 28.9269 4.62534 29.4127 5.17383 30.0117C4.01155 31.8949 3.48047 34.5816 3.48047 36.5875C3.48047 40.9807 12.4766 45.2468 15.1999 48.7632C15.6039 49.2856 16.0357 49.8315 16.5398 50.2938V53.1294C16.5398 53.3603 16.6315 53.5817 16.7948 53.745C16.9581 53.9083 17.1795 54 17.4104 54C17.6413 54 17.8628 53.9083 18.0261 53.745C18.1893 53.5817 18.2811 53.3603 18.2811 53.1294V51.2723C18.5536 51.3394 18.8374 51.3881 19.1517 51.3881C20.4524 51.3881 22.6342 50.8231 22.6342 47.035C22.6342 44.8706 15.6648 38.4028 11.5955 36.1871L11.8515 35.6412C12.7683 36.0277 13.1244 34.9029 15.5752 33.2522C16.1297 35.2233 16.5398 37.1386 16.5398 38.3288C16.5398 38.5597 16.6315 38.7811 16.7948 38.9444C16.9581 39.1077 17.1795 39.1994 17.4104 39.1994C17.6413 39.1994 17.8628 39.1077 18.0261 38.9444C18.1893 38.7811 18.2811 38.5597 18.2811 38.3288C18.2811 36.6598 17.6551 34.0253 16.8942 31.5527C16.8878 31.5286 16.8802 31.5047 16.8715 31.4813C16.1132 29.0271 15.2278 26.7417 14.6976 25.7344C14.5848 25.5396 14.401 25.396 14.1848 25.3337C13.9685 25.2713 13.7365 25.2951 13.5374 25.3999C13.3382 25.5048 13.1874 25.6827 13.1164 25.8962C13.0454 26.1098 13.0598 26.3426 13.1566 26.5458C13.6441 27.473 14.3772 29.3805 15.0362 31.4535L12.131 33.7754C9.44075 31.9872 7.21718 29.6731 6.31696 28.6797C7.51058 26.9132 11.2821 21.4108 13.3472 19.2961C15.7214 16.8749 23.4987 13.9513 29.5992 13.9513C34.5547 13.9513 41.1845 17.5531 42.9867 18.9853C44.5094 20.1981 47.1405 26.773 48.5953 31.0373C47.8953 31.4578 46.1619 32.278 42.4774 33.0223C42.6385 30.6212 42.7421 27.9701 42.6585 25.2425C42.6505 25.0118 42.5517 24.7937 42.3835 24.6357C42.2154 24.4776 41.9916 24.3925 41.7609 24.3988C41.5302 24.4061 41.3118 24.5046 41.1536 24.6727C40.9955 24.8408 40.9104 25.0648 40.9173 25.2956C41.0626 29.9769 40.643 34.4928 40.3357 37.7907C39.8142 43.4019 40.1685 40.1336 40.0466 53.1294C40.0466 53.3603 40.1384 53.5817 40.3016 53.745C40.4649 53.9083 40.6863 54 40.9173 54C41.1482 54 41.3696 53.9083 41.5329 53.745C41.6961 53.5817 41.7879 53.3603 41.7879 53.1294V46.2567C48.4081 40.9816 48.7529 40.3512 48.7529 34.8463C48.7529 33.6945 47.0116 33.6936 47.0116 34.8463C47.0116 39.4023 46.9986 39.8445 41.7879 44.0288V41.8113C41.7879 40.5245 42.0787 38.1172 42.3459 34.821C44.2813 34.4493 51.067 32.9449 50.4497 31.0896ZM10.3802 34.6783C10.287 35.1658 8.84438 36.8365 10.0963 37.385C14.1029 39.142 20.6796 45.7883 20.8929 47.035C20.8929 49.6469 19.7167 49.6469 19.1517 49.6469C17.514 49.6469 16.7627 47.5504 15.1207 46.0181C13.5666 44.5668 5.22171 39.4258 5.22171 36.5875C5.22171 35.0213 5.60914 32.8769 6.43362 31.3159C7.44703 32.3171 8.80868 33.5482 10.3802 34.6783ZM18.3725 5.34263C21.5964 5.06316 21.6356 -0.332089 29.2849 2.57405C29.5774 2.68897 31.3413 2.60017 31.3413 6.07918C31.3413 8.52824 30.9016 8.84428 30.8833 8.85559C28.8687 10.0962 25.462 9.83679 24.1691 9.68094C23.8252 8.83035 23.0773 7.85699 21.7635 7.85699C21.1471 7.85699 20.5081 8.18608 20.0519 8.48732C19.3458 7.74468 18.6328 6.39347 18.3725 5.34263ZM21.6025 13.4264C20.7414 11.9663 20.7649 10.623 20.8302 10.071C22.9023 8.55088 22.1214 11.1122 23.3568 11.3273C25.4959 11.7008 28.6093 11.6921 30.7684 10.8406C30.6979 11.3151 30.6204 11.8044 30.5403 12.2502C27.7708 12.0456 24.2762 12.675 21.6025 13.4264ZM42.5122 12.6933C43.4133 11.0086 45.1798 9.65134 44.0123 8.87388C42.8483 8.09554 42.3068 10.2042 41.0635 11.7269C40.4184 12.6933 41.8863 13.6336 42.5122 12.6933Z" fill="#EB7124"/>
<path d="M11.4627 12.6924C11.5261 12.7875 11.6077 12.8692 11.7027 12.9328C11.7978 12.9964 11.9044 13.0406 12.0165 13.063C12.1286 13.0854 12.2441 13.0855 12.3563 13.0633C12.4684 13.0411 12.5751 12.997 12.6702 12.9335C12.7654 12.8701 12.847 12.7885 12.9107 12.6935C12.9742 12.5984 13.0185 12.4918 13.0409 12.3797C13.0633 12.2676 13.0634 12.1521 13.0412 12.04C13.0189 11.9278 12.9748 11.8211 12.9114 11.726L11.1701 9.1141C11.042 8.92199 10.8428 8.78865 10.6163 8.74343C10.3899 8.6982 10.1547 8.74479 9.96259 8.87294C9.77048 9.00109 9.63715 9.20031 9.59192 9.42677C9.54669 9.65323 9.59328 9.88838 9.72143 10.0805L11.4627 12.6924ZM46.7569 15.4366C48.3283 13.5717 50.3865 12.6114 49.3687 11.5936C48.351 10.5759 47.3863 12.6375 45.5258 14.2055C44.71 15.0213 45.9507 16.2428 46.7569 15.4366ZM7.21839 16.3072C8.02111 17.1099 9.2748 15.9006 8.44945 15.0761L5.83758 12.4643C5.75675 12.3834 5.66079 12.3193 5.55518 12.2756C5.44956 12.2318 5.33637 12.2093 5.22205 12.2093C5.10774 12.2093 4.99454 12.2318 4.88893 12.2756C4.78332 12.3193 4.68736 12.3834 4.60652 12.4643C4.52569 12.5451 4.46157 12.6411 4.41782 12.7467C4.37408 12.8523 4.35156 12.9655 4.35156 13.0798C4.35156 13.3107 4.44327 13.5321 4.60652 13.6953L7.21839 16.3072ZM25.8619 35.9711C25.7811 35.8902 25.6852 35.826 25.5796 35.7822C25.4739 35.7383 25.3607 35.7158 25.2464 35.7158C25.132 35.7158 25.0188 35.7383 24.9132 35.7822C24.8076 35.826 24.7116 35.8902 24.6308 35.9711L22.019 38.5829C21.8557 38.7462 21.764 38.9676 21.764 39.1985C21.764 39.4293 21.8557 39.6508 22.019 39.814C22.1822 39.9773 22.4036 40.069 22.6345 40.069C22.8654 40.069 23.0868 39.9773 23.25 39.814L25.8619 37.2021C25.9428 37.1214 26.007 37.0254 26.0508 36.9198C26.0946 36.8142 26.1172 36.7009 26.1172 36.5866C26.1172 36.4723 26.0946 36.359 26.0508 36.2534C26.007 36.1478 25.9428 36.0519 25.8619 35.9711ZM29.2103 41.0311L25.7278 42.7724C25.5212 42.8756 25.364 43.0567 25.2908 43.2758C25.2177 43.4949 25.2346 43.7341 25.3378 43.9408C25.441 44.1474 25.6221 44.3046 25.8412 44.3778C26.0603 44.4509 26.2995 44.434 26.5062 44.3308L29.9887 42.5895C30.091 42.5384 30.1822 42.4677 30.2572 42.3813C30.3322 42.2949 30.3894 42.1946 30.4257 42.0861C30.4619 41.9776 30.4764 41.8631 30.4683 41.749C30.4603 41.6349 30.4298 41.5235 30.3787 41.4212C30.3276 41.3188 30.2568 41.2276 30.1705 41.1526C30.0841 41.0776 29.9838 41.0204 29.8753 40.9842C29.6562 40.911 29.417 40.9279 29.2103 41.0311ZM29.8102 48.8014L26.3277 47.9308C26.2168 47.9026 26.1014 47.8966 25.9881 47.9132C25.8749 47.9299 25.7661 47.9688 25.6679 48.0277C25.5698 48.0866 25.4844 48.1644 25.4165 48.2566C25.3486 48.3488 25.2997 48.4534 25.2725 48.5646C25.2446 48.6756 25.2389 48.791 25.2557 48.9041C25.2725 49.0173 25.3114 49.1261 25.3703 49.2242C25.4291 49.3223 25.5068 49.4078 25.5988 49.4758C25.6908 49.5439 25.7953 49.5931 25.9063 49.6207L29.3888 50.4913C29.6129 50.5472 29.85 50.5118 30.048 50.3928C30.2459 50.2739 30.3886 50.0812 30.4444 49.8571C30.5003 49.633 30.4649 49.3959 30.3459 49.1979C30.227 48.9999 30.0343 48.8573 29.8102 48.8014Z" fill="#EB7124"/>
</svg>
