<svg width="54" height="54" viewBox="0 0 54 54" fill="none" xmlns="http://www.w3.org/2000/svg">
<g clip-path="url(#clip0_5616_16131)">
<path d="M53.2841 45.0372H50.2094C49.7683 45.0372 49.3352 44.9188 48.9555 44.6942C48.5757 44.4697 48.2633 44.1473 48.0507 43.7607L44.6426 37.5684C43.2742 35.0806 40.5057 35.7363 39.9769 35.6389V26.8238C39.9769 26.8195 39.9745 26.8159 39.9744 26.8116L39.9769 19.3377C39.9769 17.2139 38.2439 15.4853 36.1079 15.4853H17.889V7.3933C17.889 4.56283 15.5909 2.36328 12.8594 2.36328C12.855 2.36328 12.8514 2.3656 12.8471 2.36571H6.31998C5.45261 2.36571 4.74618 3.07298 4.74618 3.94246V4.98692C4.74618 5.85641 5.45261 6.56368 6.31998 6.56368H12.2284V26.2226C5.47771 26.549 0.0820312 32.1073 0.0820312 38.9131C0.0820312 45.928 5.80983 51.6349 12.8503 51.6349C19.8949 51.6349 25.6259 45.9281 25.6259 38.9131C25.6259 38.2267 25.5558 37.5578 25.4501 36.9006H38.7128V42.7413C36.534 43.0502 34.848 44.9021 34.848 47.1561C34.848 49.6253 36.8646 51.6345 39.3436 51.6345C41.8218 51.6345 43.8385 49.6253 43.8385 47.1561C43.8385 44.9021 42.1525 43.0503 39.9745 42.7413V36.9005H41.3783C42.2769 36.9005 43.1041 37.3892 43.5371 38.1766L46.9452 44.3689C47.2666 44.9534 47.7391 45.4408 48.3134 45.7803C48.8876 46.1198 49.5425 46.2989 50.2095 46.2988H53.2842C53.6324 46.2988 53.915 46.0163 53.915 45.668C53.915 45.3198 53.6323 45.0372 53.2841 45.0372ZM18.3639 27.4546H38.7129V32.796H24.0462C22.7629 30.476 20.7687 28.6069 18.3639 27.4546ZM17.889 19.9685H38.7129V26.1929H17.889V19.9685ZM36.108 16.7469C37.3134 16.7469 38.3501 17.5687 38.6372 18.7068H17.889V16.7469H36.108ZM16.6272 7.3933V26.1928H13.4902V3.67763C15.2521 3.97505 16.6272 5.49992 16.6272 7.3933ZM12.226 5.30196H6.31998C6.14501 5.30196 6.00779 5.16358 6.00779 4.98692V3.94257C6.00779 3.76602 6.14501 3.62754 6.31998 3.62754H12.226V5.30196ZM12.8503 50.3731C6.5056 50.3731 1.34375 45.2322 1.34375 38.9129C1.34375 32.5937 6.5056 27.4528 12.8503 27.4528H12.8514C12.8542 27.4528 12.8565 27.4544 12.8593 27.4544H12.8828C19.2165 27.4721 24.3641 32.6045 24.3641 38.9128C24.3642 45.2322 19.1991 50.3731 12.8503 50.3731ZM25.1812 35.6389C25.0361 35.0981 24.8664 34.5677 24.6541 34.0576H38.7128V35.6389H25.1812ZM42.5768 47.156C42.5768 48.9298 41.1261 50.3727 39.3436 50.3727C37.5604 50.3727 36.1096 48.9298 36.1096 47.156C36.1096 45.5969 37.2308 44.2957 38.7127 44.0028V47.156C38.7127 47.5042 38.9953 47.7868 39.3435 47.7868C39.6918 47.7868 39.9743 47.5042 39.9743 47.156V44.0028C41.4558 44.2958 42.5768 45.5971 42.5768 47.156Z" fill="#EB7124"/>
<path d="M20.0863 31.7132C20.0792 31.7062 20.0696 31.7039 20.0624 31.6973C18.2126 29.8645 15.6656 28.7291 12.8566 28.7276C12.8547 28.7276 12.853 28.7266 12.8511 28.7266C12.8492 28.7266 12.8476 28.7276 12.8457 28.7276C10.0349 28.7291 7.48605 29.8657 5.63602 31.7008C5.63022 31.7063 5.62242 31.708 5.61683 31.7137C5.61113 31.7193 5.60945 31.7271 5.60407 31.7329C3.76205 33.5762 2.62109 36.1152 2.62109 38.9151C2.62109 41.7198 3.76543 44.2629 5.61293 46.107C5.6143 46.1083 5.61461 46.1102 5.61598 46.1116C5.61683 46.1125 5.61809 46.1128 5.61894 46.1136C7.4715 47.9594 10.0297 49.1028 12.851 49.1028C15.6719 49.1028 18.2297 47.9598 20.0822 46.1147C20.0833 46.1135 20.0849 46.1132 20.0861 46.112C20.0879 46.1102 20.0883 46.1077 20.0901 46.1059C21.9371 44.262 23.081 41.7193 23.081 38.9152C23.081 36.1173 21.9416 33.5803 20.102 31.7374C20.0955 31.7299 20.0934 31.7203 20.0863 31.7132ZM19.6176 44.7553L15.592 40.7506C15.8379 40.3861 16.0077 39.9756 16.0911 39.5439H21.7874C21.6473 41.5305 20.855 43.337 19.6176 44.7553ZM3.91488 39.5439H9.61684C9.70029 39.9764 9.87042 40.3876 10.117 40.7527L6.08564 44.7563C4.84775 43.3379 4.05505 41.531 3.91488 39.5439ZM6.08722 33.072L10.1162 37.0804C9.87097 37.4434 9.70134 37.8521 9.61747 38.2821H3.91509C4.0561 36.2958 4.84923 34.4898 6.08722 33.072ZM12.8628 40.9422C12.8587 40.9421 12.8554 40.9398 12.8512 40.9398C12.8477 40.9398 12.8447 40.9418 12.8412 40.9418C11.7227 40.935 10.8155 40.03 10.8151 38.9165C10.8151 38.9153 10.8158 38.9142 10.8158 38.9128C10.8158 38.9122 10.8155 38.9117 10.8155 38.9111C10.8168 38.3544 11.0444 37.8497 11.412 37.4836C11.4128 37.4829 11.4139 37.4826 11.4147 37.4818C11.4151 37.4814 11.4152 37.4808 11.4156 37.4804C11.7738 37.1255 12.2645 36.906 12.806 36.8932C12.8217 36.8944 12.8352 36.9024 12.8514 36.9024H12.8604C12.876 36.9024 12.889 36.8946 12.9043 36.8935C14.0051 36.9209 14.8934 37.815 14.8934 38.9157C14.8932 40.0307 13.983 40.9371 12.8628 40.9422ZM14.6997 36.1906C14.3385 35.947 13.9254 35.7758 13.4821 35.6901V30.0208C15.4795 30.1602 17.2959 30.9496 18.7215 32.1827L14.6997 36.1906ZM12.2203 35.6907C11.7875 35.774 11.3759 35.9434 11.0099 36.189L6.98202 32.1817C8.40743 30.9492 10.2234 30.1601 12.2204 30.0208L12.2203 35.6907ZM11.0107 41.6431C11.3765 41.8884 11.7878 42.0577 12.2202 42.141V47.8092C10.2222 47.6698 8.40542 46.88 6.9797 45.6464L11.0107 41.6431ZM13.4819 42.1416C13.9248 42.056 14.3375 41.8854 14.6984 41.6421L18.7231 45.6459C17.2973 46.8797 15.4803 47.6698 13.4819 47.8092V42.1416ZM16.0906 38.2821C16.0067 37.8527 15.8373 37.4446 15.5925 37.082L19.6157 33.0727C20.8534 34.4903 21.6463 36.2962 21.7873 38.2821H16.0906Z" fill="#EB7124"/>
</g>
<defs>
<clipPath id="clip0_5616_16131">
<rect width="54" height="54" fill="white"/>
</clipPath>
</defs>
</svg>
