<svg width="54" height="54" viewBox="0 0 54 54" fill="none" xmlns="http://www.w3.org/2000/svg">
<g clip-path="url(#clip0_5616_16092)">
<path d="M27 0C12.1012 0 0 12.1012 0 27C0 41.8988 12.1012 54 27 54C41.8988 54 54 41.8988 54 27C54 12.1012 41.8988 0 27 0ZM27 51.6578C13.4024 51.6578 2.34217 40.5976 2.34217 27C2.34217 13.4024 13.4024 2.34217 27 2.34217C40.5976 2.34217 51.6578 13.4024 51.6578 27C51.6578 40.5976 40.5976 51.6578 27 51.6578Z" fill="#EB7124"/>
<path d="M41.0544 21.146H32.8569V12.9484C32.8569 12.2978 32.3364 11.7773 31.6858 11.7773H22.3171C21.6665 11.7773 21.146 12.2978 21.146 12.9484V21.146H12.9484C12.2978 21.146 11.7773 21.6665 11.7773 22.3171V31.6858C11.7773 32.3364 12.2978 32.8569 12.9484 32.8569H21.146V41.0544C21.146 41.7051 21.6665 42.2255 22.3171 42.2255H31.6858C32.3364 42.2255 32.8569 41.7051 32.8569 41.0544V32.8569H41.0544C41.7051 32.8569 42.2255 32.3364 42.2255 31.6858V22.3171C42.1605 21.6665 41.64 21.146 41.0544 21.146ZM39.9484 30.5147H31.6858C31.0352 30.5147 30.5147 31.0352 30.5147 31.6858V39.8834H23.4882V31.6858C23.4882 31.0352 22.9677 30.5147 22.3171 30.5147H14.1195V23.4882H22.3171C22.9677 23.4882 23.4882 22.9677 23.4882 22.3171V14.1195H30.5798V22.3171C30.5798 22.9677 31.1002 23.4882 31.7508 23.4882H39.9484V30.5147Z" fill="#EB7124"/>
</g>
<defs>
<clipPath id="clip0_5616_16092">
<rect width="54" height="54" fill="white"/>
</clipPath>
</defs>
</svg>
