<svg width="54" height="54" viewBox="0 0 54 54" fill="none" xmlns="http://www.w3.org/2000/svg">
<g clip-path="url(#clip0_5616_16120)">
<path d="M17.0992 32.3988H21.5991V36.8987C21.5991 37.1374 21.6939 37.3663 21.8627 37.5351C22.0315 37.7039 22.2604 37.7987 22.4991 37.7987H31.4988C31.7375 37.7987 31.9665 37.7039 32.1352 37.5351C32.304 37.3663 32.3988 37.1374 32.3988 36.8987V32.3988H36.8987C37.1374 32.3988 37.3663 32.304 37.5351 32.1352C37.7039 31.9665 37.7987 31.7375 37.7987 31.4988V22.4991C37.7987 22.2604 37.7039 22.0315 37.5351 21.8627C37.3663 21.6939 37.1374 21.5991 36.8987 21.5991H32.3988V17.0992C32.3988 16.8605 32.304 16.6316 32.1352 16.4628C31.9665 16.294 31.7375 16.1992 31.4988 16.1992H22.4991C22.2604 16.1992 22.0315 16.294 21.8627 16.4628C21.6939 16.6316 21.5991 16.8605 21.5991 17.0992V21.5991H17.0992C16.8605 21.5991 16.6316 21.6939 16.4628 21.8627C16.294 22.0315 16.1992 22.2604 16.1992 22.4991V31.4988C16.1992 31.7375 16.294 31.9665 16.4628 32.1352C16.6316 32.304 16.8605 32.3988 17.0992 32.3988ZM17.9992 23.399H22.4991C22.7378 23.399 22.9667 23.3042 23.1354 23.1354C23.3042 22.9667 23.399 22.7378 23.399 22.4991V17.9992H30.5989V22.4991C30.5989 22.7378 30.6937 22.9667 30.8625 23.1354C31.0312 23.3042 31.2602 23.399 31.4988 23.399H35.9987V30.5989H31.4988C31.2602 30.5989 31.0312 30.6937 30.8625 30.8625C30.6937 31.0312 30.5989 31.2602 30.5989 31.4988V35.9987H23.399V31.4988C23.399 31.2602 23.3042 31.0312 23.1354 30.8625C22.9667 30.6937 22.7378 30.5989 22.4991 30.5989H17.9992V23.399Z" fill="#EB7124"/>
<path d="M9.90234 26.9989C9.90234 36.4279 17.5729 44.0984 27.0019 44.0984C36.431 44.0984 44.1015 36.4279 44.1015 26.9989C44.1015 17.5698 36.431 9.89927 27.0019 9.89927C17.5729 9.89927 9.90234 17.5698 9.90234 26.9989ZM27.0019 11.6992C35.4383 11.6992 42.3016 18.5625 42.3016 26.9989C42.3016 35.4353 35.4383 42.2985 27.0019 42.2985C18.5655 42.2985 11.7023 35.4353 11.7023 26.9989C11.7023 18.5625 18.5655 11.6992 27.0019 11.6992ZM29.8045 2.85964L29.5984 4.647C34.7933 5.25291 39.6153 7.64833 43.2366 11.422L44.5353 10.1756C40.6241 6.09959 35.4156 3.51284 29.8045 2.85964ZM27.8677 4.5156L27.9361 2.71744C27.3136 2.69314 26.6903 2.69314 26.0678 2.71744L26.1362 4.5156C26.7131 4.494 27.2907 4.494 27.8677 4.5156Z" fill="#EB7124"/>
<path d="M4.49998 26.9979C4.49998 15.5591 13.0561 5.94918 24.4021 4.64601L24.196 2.85866C11.9419 4.26622 2.70002 14.6439 2.70002 26.9979C2.70002 39.3519 11.9419 49.7295 24.1969 51.1371L24.403 49.3497C13.0561 48.0466 4.49998 38.4366 4.49998 26.9979ZM26.1337 49.4811L26.0653 51.2793C26.6878 51.3046 27.3111 51.3046 27.9336 51.2793L27.8652 49.4811C27.291 49.5027 26.7078 49.5027 26.1337 49.4811ZM51.1702 22.0345C50.8453 21.4927 49.9516 21.4927 49.6267 22.0345L46.9268 26.5344C46.845 26.671 46.8009 26.8269 46.799 26.9862C46.7971 27.1454 46.8374 27.3023 46.9159 27.4409C46.9944 27.5795 47.1082 27.6948 47.2458 27.7751C47.3833 27.8553 47.5397 27.8977 47.6989 27.8979H49.4566C49.0192 38.9343 40.6422 48.0808 29.5959 49.3497L29.802 51.1371C41.7582 49.7637 50.8417 39.8514 51.2781 27.8979H53.0988C53.2583 27.8984 53.4151 27.8564 53.553 27.7763C53.691 27.6962 53.805 27.5807 53.8836 27.4419C53.9621 27.3031 54.0023 27.1458 53.9999 26.9863C53.9975 26.8268 53.9527 26.6708 53.8701 26.5344L51.1702 22.0345ZM49.2883 26.0979L50.3989 24.2466L51.5094 26.0979H49.2883ZM8.33929 48.6297C6.24954 48.052 5.94444 47.7478 5.36756 45.6571C5.31459 45.4678 5.20113 45.3009 5.04448 45.1821C4.88783 45.0632 4.69661 44.9989 4.49998 44.9989C4.30335 44.9989 4.11212 45.0632 3.95548 45.1821C3.79883 45.3009 3.68537 45.4678 3.6324 45.6571C3.05551 47.7469 2.75042 48.052 0.660672 48.6297C0.470778 48.6821 0.303314 48.7954 0.183971 48.9521C0.0646289 49.1088 0 49.3003 0 49.4973C0 49.6943 0.0646289 49.8859 0.183971 50.0426C0.303314 50.1993 0.470778 50.3125 0.660672 50.3649C2.75042 50.9427 3.05551 51.2469 3.6324 53.3375C3.68537 53.5269 3.79883 53.6937 3.95548 53.8126C4.11212 53.9314 4.30335 53.9957 4.49998 53.9957C4.69661 53.9957 4.88783 53.9314 5.04448 53.8126C5.20113 53.6937 5.31459 53.5269 5.36756 53.3375C5.94444 51.2478 6.24954 50.9427 8.33929 50.3649C8.52918 50.3125 8.69664 50.1993 8.81599 50.0426C8.93533 49.8859 8.99996 49.6943 8.99996 49.4973C8.99996 49.3003 8.93533 49.1088 8.81599 48.9521C8.69664 48.7954 8.52918 48.6821 8.33929 48.6297ZM4.49998 50.6655C4.20805 50.1895 3.80778 49.7893 3.33181 49.4973C3.80778 49.2054 4.20805 48.8051 4.49998 48.3292C4.80597 48.8196 5.17766 49.1904 5.66815 49.4973C5.19218 49.7893 4.79191 50.1895 4.49998 50.6655ZM53.3382 3.63084C51.2484 3.05305 50.9434 2.74886 50.3665 0.658209C50.3135 0.46885 50.2 0.302019 50.0434 0.183175C49.8867 0.0643306 49.6955 0 49.4989 0C49.3023 0 49.111 0.0643306 48.9544 0.183175C48.7977 0.302019 48.6843 0.46885 48.6313 0.658209C48.0544 2.74796 47.7493 3.05305 45.6596 3.63084C45.4697 3.68322 45.3022 3.79645 45.1829 3.95317C45.0635 4.10989 44.9989 4.30143 44.9989 4.49842C44.9989 4.6954 45.0635 4.88695 45.1829 5.04366C45.3022 5.20038 45.4697 5.31362 45.6596 5.366C47.7493 5.94378 48.0544 6.24797 48.6313 8.33862C48.6843 8.52798 48.7977 8.69481 48.9544 8.81366C49.111 8.9325 49.3023 8.99683 49.4989 8.99683C49.6955 8.99683 49.8867 8.9325 50.0434 8.81366C50.2 8.69481 50.3135 8.52798 50.3665 8.33862C50.9434 6.24887 51.2484 5.94378 53.3382 5.366C53.5281 5.31362 53.6956 5.20038 53.8149 5.04366C53.9342 4.88695 53.9989 4.6954 53.9989 4.49842C53.9989 4.30143 53.9342 4.10989 53.8149 3.95317C53.6956 3.79645 53.5281 3.68322 53.3382 3.63084ZM49.4989 5.66659C49.207 5.19061 48.8067 4.79035 48.3307 4.49842C48.8067 4.20648 49.207 3.80622 49.4989 3.33024C49.8049 3.82073 50.1766 4.19152 50.6671 4.49842C50.1911 4.79035 49.7908 5.19061 49.4989 5.66659Z" fill="#EB7124"/>
</g>
<defs>
<clipPath id="clip0_5616_16120">
<rect width="54" height="54" fill="white"/>
</clipPath>
</defs>
</svg>
