<svg width="54" height="54" viewBox="0 0 54 54" fill="none" xmlns="http://www.w3.org/2000/svg">
<g clip-path="url(#clip0_5616_16105)">
<path d="M37.0581 13.1451C36.8818 13.1463 36.71 13.09 36.5687 12.9848C36.4828 12.9199 36.4105 12.8388 36.356 12.7461C36.3014 12.6533 36.2657 12.5507 36.2508 12.4442C36.2359 12.3376 36.2422 12.2291 36.2692 12.125C36.2962 12.0208 36.3435 11.923 36.4083 11.8371C37.0581 10.968 37.4294 9.89631 37.5138 8.63899C37.5867 7.44789 37.3665 6.25707 36.8724 5.17082C35.2185 1.517 31.9107 0.681601 27.0248 2.68994C26.8139 2.77432 26.5776 2.77432 26.3751 2.67306C26.2823 2.63087 23.9702 1.63514 22.3247 3.4747C21.9112 3.93882 21.6158 4.58013 21.4724 5.33115C21.1855 6.84162 21.3458 9.01872 21.8943 11.1621C21.9209 11.2662 21.9267 11.3746 21.9114 11.481C21.8961 11.5874 21.86 11.6898 21.8052 11.7823C21.7503 11.8747 21.6778 11.9555 21.5918 12.0199C21.5057 12.0844 21.4078 12.1312 21.3036 12.1578C21.1995 12.1844 21.0911 12.1902 20.9847 12.1749C20.8783 12.1596 20.7759 12.1235 20.6834 12.0687C20.591 12.0138 20.5102 11.9413 20.4458 11.8552C20.3813 11.7692 20.3345 11.6713 20.3079 11.5671C19.7003 9.20436 19.5316 6.75724 19.8607 5.02737C20.0547 3.98945 20.4851 3.0781 21.1011 2.39459C22.8985 0.377819 25.3794 0.588779 26.7126 1.06133C34.1637 -1.86679 37.2015 1.94736 38.366 4.50419C38.9736 5.84589 39.2436 7.31417 39.1508 8.75713C39.0495 10.3098 38.5517 11.719 37.7163 12.8244C37.5475 13.0354 37.3028 13.1451 37.0581 13.1451Z" fill="#EB7124"/>
<path d="M28.8306 22.09H28.7209C27.6998 22.0731 26.6788 21.8115 25.6831 21.3136C23.7254 20.3348 22.333 18.5121 21.8014 16.2759C21.2867 16.065 20.8394 15.6346 20.5272 15.0439C20.1559 14.3351 19.9872 13.4322 20.0462 12.504C20.08 11.9892 20.1812 11.5082 20.3416 11.0863C20.6622 10.1581 21.2192 9.47459 21.8942 9.15394C21.9871 8.8164 22.1896 8.51262 22.4765 8.30166C22.8478 8.02319 23.3203 7.93037 23.776 8.04007C24.7802 8.25947 25.8096 8.24259 26.8138 7.981C29.3284 7.34812 31.6152 7.33125 33.6236 7.92193C34.0202 8.04007 34.4337 8.09914 34.8978 8.10758H34.9062C35.3788 8.10758 35.8513 8.3101 36.1804 8.66451C36.5095 9.01048 36.6783 9.48303 36.6445 9.95558L36.6276 10.1581C37.2015 10.5547 37.6402 11.2551 37.8512 12.1496C37.9693 12.6474 38.0115 13.1706 37.9778 13.7107C37.9187 14.6389 37.6234 15.508 37.1593 16.1662C36.7711 16.7063 36.2817 17.0691 35.7585 17.2126C34.9737 19.2294 33.4464 20.8073 31.514 21.5752C30.6701 21.9128 29.7588 22.09 28.8306 22.09ZM23.4638 9.63492L23.4553 9.82057C23.43 10.2172 23.1262 10.5294 22.7296 10.58C22.4765 10.6053 22.1052 10.9766 21.8773 11.6348C21.7677 11.9302 21.7001 12.2593 21.6748 12.6137C21.6326 13.2381 21.7423 13.8457 21.9702 14.276C22.1305 14.5798 22.333 14.7739 22.5187 14.7823C22.8984 14.8077 23.2359 15.0861 23.3034 15.4658C23.6494 17.4573 24.7548 19.0184 26.4172 19.8454C27.1935 20.2335 27.9783 20.436 28.7462 20.4529C29.4888 20.4782 30.2229 20.3264 30.9064 20.0479C32.5435 19.3897 33.8092 17.9889 34.383 16.2C34.5012 15.8287 34.864 15.6009 35.2437 15.6346C35.4125 15.6346 35.6319 15.4827 35.8344 15.2043C36.1213 14.7992 36.307 14.217 36.3492 13.5925C36.3745 13.2212 36.3492 12.8584 36.2648 12.5208C36.1045 11.8542 35.8007 11.4998 35.5728 11.4407C35.3895 11.3922 35.2287 11.2816 35.1179 11.1277C35.007 10.9738 34.9531 10.7862 34.9653 10.5969L35.0159 9.84588C34.9822 9.76994 34.9484 9.74462 34.8978 9.74462C34.2733 9.73618 33.6995 9.6518 33.1595 9.49147C31.438 8.98517 29.4381 9.01048 27.2273 9.56742C25.9784 9.87964 24.7211 9.90495 23.4638 9.63492ZM39.1254 54.0039H15.2279C14.9916 54.0039 14.7722 53.9027 14.6203 53.7339C14.5443 53.6467 14.4871 53.5447 14.4523 53.4343C14.4174 53.324 14.4057 53.2077 14.4178 53.0926L14.6963 50.637C14.7469 50.1898 15.1435 49.8522 15.5992 49.9198C16.0464 49.9704 16.3671 50.3754 16.3165 50.8227L16.1393 52.3669H38.2647L37.9947 46.2659C37.9778 45.8103 38.3238 45.4305 38.7794 45.4137C39.2689 45.3883 39.6148 45.7428 39.6317 46.1984L39.9355 53.1601C39.9439 53.3795 39.8595 53.5989 39.7076 53.7592C39.6322 53.8373 39.5417 53.8993 39.4416 53.9413C39.3416 53.9834 39.234 54.0047 39.1254 54.0039ZM15.7342 49.5738C15.7005 49.5738 15.6751 49.5738 15.6414 49.5653C15.4257 49.5411 15.2284 49.4326 15.0924 49.2635C14.9565 49.0943 14.8929 48.8783 14.9157 48.6624L16.1561 37.6166L10.5109 34.7138C10.3231 34.615 10.1811 34.4471 10.1149 34.2455C10.0488 34.0439 10.0637 33.8245 10.1564 33.6337C13.6499 26.3851 17.5653 23.7523 20.2319 22.8157C21.0335 22.5288 21.8267 22.3431 22.5777 22.2503C22.679 22.2334 22.7971 22.2165 22.9153 22.2081L22.9997 22.1997C23.8857 22.1237 24.4848 22.1659 24.5101 22.1744C24.7548 22.1912 24.9827 22.3178 25.1177 22.5203C25.894 23.6342 26.8138 24.2671 27.8433 24.3852C29.8263 24.6299 31.7249 23.0013 31.7418 22.9844C31.8937 22.8663 32.0625 22.7988 32.2481 22.7819C32.6949 22.7557 33.1426 22.7501 33.5898 22.765C42.3404 23.2123 44.2559 34.5366 44.3319 35.0176C44.4078 35.4648 44.104 35.8867 43.6568 35.9542C43.2096 36.0217 42.7877 35.7264 42.7201 35.2792C42.7033 35.1779 40.9312 24.7818 33.5139 24.4021C33.2354 24.3937 32.9316 24.3937 32.5941 24.4021C31.9275 24.9168 29.9107 26.2838 27.6492 26.0054C26.2484 25.8366 25.0333 25.0856 24.0207 23.7861C23.8013 23.7776 23.5144 23.7945 23.1684 23.8198L23.1178 23.8283C23.0165 23.8367 22.9153 23.8536 22.8056 23.8705C22.1389 23.9549 21.4639 24.1152 20.7719 24.3599C18.4851 25.1615 15.1351 27.4315 11.9791 33.6337L12.131 33.7096L17.405 36.4183C17.7088 36.5702 17.886 36.8993 17.8438 37.2369L16.5359 48.8396C16.5021 49.2616 16.1477 49.5738 15.7342 49.5738Z" fill="#EB7124"/>
<path d="M27.7009 41.0282C27.3802 41.0282 27.0849 40.8425 26.9499 40.5303L24.95 35.8892C24.9071 35.7907 24.8842 35.6846 24.8827 35.5772C24.8811 35.4697 24.9009 35.363 24.941 35.2633C24.981 35.1636 25.0405 35.0729 25.1159 34.9963C25.1913 34.9198 25.2812 34.859 25.3803 34.8175C25.4788 34.7746 25.5849 34.7518 25.6924 34.7502C25.7998 34.7487 25.9065 34.7685 26.0062 34.8085C26.1059 34.8486 26.1967 34.908 26.2732 34.9835C26.3497 35.0589 26.4105 35.1488 26.452 35.2479L28.4519 39.889C28.4948 39.9875 28.5177 40.0936 28.5192 40.201C28.5207 40.3085 28.5009 40.4151 28.4609 40.5148C28.4208 40.6146 28.3614 40.7053 28.286 40.7818C28.2105 40.8584 28.1207 40.9192 28.0215 40.9607C27.9203 41.0113 27.8106 41.0282 27.7009 41.0282ZM30.5109 40.9353C30.1902 40.9353 29.8949 40.7497 29.7598 40.4459L27.3043 34.7753C27.2189 34.5759 27.2153 34.351 27.2942 34.1489C27.3731 33.9469 27.5283 33.7839 27.7262 33.6952C27.9256 33.6098 28.1506 33.6062 28.3526 33.6851C28.5546 33.7641 28.7176 33.9192 28.8063 34.1171L31.2619 39.7877C31.3473 39.9871 31.3509 40.2121 31.272 40.4141C31.193 40.6162 31.0379 40.7791 30.84 40.8678C30.7303 40.91 30.6206 40.9353 30.5109 40.9353ZM24.4184 33.4336C24.0977 33.4336 23.8023 33.248 23.6673 32.9358L19.7688 23.9151C19.7229 23.813 19.6992 23.7022 19.6992 23.5903C19.6992 23.4783 19.7229 23.3675 19.7688 23.2654C19.8616 23.0544 20.0304 22.8941 20.2414 22.8181C21.1443 22.4975 22.0809 22.2865 23.026 22.1937C23.3804 22.1684 23.718 22.354 23.853 22.6831L27.5237 31.1637C27.6091 31.3631 27.6127 31.5881 27.5337 31.7901C27.4548 31.9921 27.2997 32.1551 27.1018 32.2438C26.9022 32.3281 26.6777 32.3311 26.476 32.2523C26.2742 32.1735 26.1112 32.0191 26.0216 31.8219L22.5957 23.9067C22.2666 23.9573 21.9459 24.0248 21.6168 24.1092L25.1525 32.2944C25.1954 32.393 25.2183 32.499 25.2198 32.6065C25.2213 32.7139 25.2015 32.8206 25.1615 32.9203C25.1214 33.02 25.062 33.1108 24.9865 33.1873C24.9111 33.2638 24.8212 33.3246 24.7221 33.3661C24.6377 33.4083 24.528 33.4336 24.4184 33.4336Z" fill="#EB7124"/>
<path d="M24.8824 36.7685C24.7873 36.7681 24.693 36.751 24.6039 36.7179C24.4007 36.6421 24.2345 36.491 24.1398 36.296L22.7643 33.3847C22.6723 33.1888 22.6614 32.9644 22.7341 32.7605C22.8069 32.5566 22.9572 32.3897 23.1525 32.2962L27.1523 30.406C27.3482 30.3139 27.5726 30.3031 27.7765 30.3758C27.9805 30.4485 28.1474 30.5989 28.2408 30.7941L29.6163 33.7054C29.7091 33.8995 29.7176 34.1273 29.6501 34.3298C29.5743 34.533 29.4232 34.6992 29.2281 34.7939L25.2283 36.6841C25.1222 36.7416 25.003 36.7707 24.8824 36.7685ZM24.5955 33.4353L25.2705 34.8614L27.7852 33.6716L27.1101 32.2455L24.5955 33.4353ZM37.6328 47.1646H26.7472C26.6348 47.1645 26.5235 47.1412 26.4204 47.0962C26.3174 47.0512 26.2247 46.9854 26.1481 46.903C26.0718 46.8205 26.0129 46.7234 25.9752 46.6175C25.9375 46.5116 25.9217 46.3992 25.9287 46.287L26.3253 40.1185C26.3422 39.8991 26.4435 39.6882 26.6122 39.5447C26.781 39.4013 27.0004 39.3338 27.2198 39.3507C32.6372 39.8654 38.2741 37.0723 43.1261 34.4226C43.3709 34.2876 43.6662 34.2876 43.9109 34.4226C44.1556 34.5577 44.316 34.8108 44.3328 35.0893L44.6619 40.4898C44.6788 44.0761 41.3878 47.1646 37.6328 47.1646ZM27.6248 45.5275H37.6328C40.4596 45.5275 43.0333 43.1564 43.0333 40.5573L42.7802 36.4816C38.2234 38.9119 33.0845 41.2408 27.9033 41.0468L27.6248 45.5275ZM12.5033 53.5018C11.6847 53.5018 10.9 53.1896 10.2924 52.6073C9.9954 52.3248 9.75743 51.9862 9.5923 51.611C9.42717 51.2359 9.33816 50.8316 9.33043 50.4218C9.29668 49.0717 9.63421 47.9662 10.3008 47.1899C9.98862 45.2913 8.90851 37.6967 11.0519 34.0345C11.2797 33.6463 11.786 33.5113 12.1742 33.7391C12.5623 33.967 12.6973 34.4648 12.4695 34.8614C10.3684 38.4562 11.9716 47.2321 11.9885 47.3165C12.0392 47.6034 11.9379 47.8987 11.7185 48.0844C11.1953 48.5316 10.9422 49.3079 10.9675 50.3796C10.9759 50.7762 11.1447 51.1475 11.4316 51.4175C11.8366 51.8057 12.402 51.9492 12.9421 51.7973C13.5918 51.6201 14.0559 50.945 14.0559 50.2024V49.9408C14.0559 49.5948 14.2753 49.2826 14.6044 49.1729C14.7394 49.1223 14.8744 49.1139 15.0095 49.1392L14.9926 49.1054C14.8069 48.6919 14.9841 48.211 15.3976 48.0253C15.8111 47.8397 16.2921 48.0169 16.4777 48.4303L17.1612 49.9324C17.406 50.3543 17.3469 50.9619 16.9756 51.3838C16.6128 51.8226 15.8955 51.966 15.3639 51.6876C14.9757 52.5145 14.2584 53.1474 13.3724 53.3921C13.0855 53.4596 12.7902 53.5018 12.5033 53.5018Z" fill="#EB7124"/>
<path d="M24.5872 46.9854C21.7434 46.9854 20.4524 45.8294 19.8617 44.7324C19.0432 43.205 19.4904 41.222 20.8827 40.201C23.4227 38.3445 27.2959 40.3275 27.4647 40.4119C27.8613 40.6229 28.0216 41.1123 27.8106 41.5173C27.5997 41.9224 27.1102 42.0743 26.7052 41.8633C25.836 41.4161 23.2792 40.4794 21.8447 41.5258C21.1021 42.0658 20.8574 43.1375 21.3046 43.956C22.1654 45.5593 24.68 45.4918 26.6377 45.1543C27.0849 45.0783 27.5068 45.3737 27.5828 45.8209C27.6587 46.2681 27.3634 46.6901 26.9162 46.766C26.047 46.9179 25.2707 46.9854 24.5872 46.9854Z" fill="#EB7124"/>
</g>
<defs>
<clipPath id="clip0_5616_16105">
<rect width="54" height="54" fill="white"/>
</clipPath>
</defs>
</svg>
