<svg width="22" height="21" viewBox="0 0 22 21" fill="none" xmlns="http://www.w3.org/2000/svg">
<path d="M12.5 14.2607V12.9668C13.3626 12.4785 14.0991 11.6891 14.7095 10.5986C15.3198 9.50814 15.625 8.36068 15.625 7.15625C15.625 6.17969 15.6006 5.26416 15.5518 4.40967C15.5029 3.55518 15.332 2.81055 15.0391 2.17578C14.7461 1.54102 14.2822 1.04053 13.6475 0.674316C13.0127 0.308105 12.1094 0.125 10.9375 0.125C9.76562 0.125 8.8623 0.308105 8.22754 0.674316C7.59277 1.04053 7.12891 1.54102 6.83594 2.17578C6.54297 2.81055 6.37207 3.55518 6.32324 4.40967C6.27441 5.26416 6.25 6.17969 6.25 7.15625C6.25 8.36068 6.55518 9.50814 7.16553 10.5986C7.77588 11.6891 8.51237 12.4785 9.375 12.9668V14.2607C8.05664 14.3584 6.82373 14.5903 5.67627 14.9565C4.52881 15.3228 3.53597 15.7785 2.69775 16.3237C1.85954 16.869 1.20036 17.4956 0.720215 18.2036C0.240072 18.9116 0 19.6562 0 20.4375H21.875C21.875 19.6562 21.6349 18.9116 21.1548 18.2036C20.6746 17.4956 20.0155 16.869 19.1772 16.3237C18.339 15.7785 17.3462 15.3228 16.1987 14.9565C15.0513 14.5903 13.8184 14.3584 12.5 14.2607Z" fill="#EB7124"/>
</svg>
