<svg width="25" height="23" viewBox="0 0 25 23" fill="none" xmlns="http://www.w3.org/2000/svg">
<path d="M10.4131 0.5C11.8449 0.5 13.1936 0.718424 14.459 1.15527C15.7245 1.59212 16.8309 2.18652 17.7782 2.93848C18.7255 3.69043 19.4703 4.57487 20.0127 5.5918C20.555 6.60872 20.8262 7.6901 20.8262 8.83594C20.8262 9.99609 20.555 11.0811 20.0127 12.0908C19.4703 13.1006 18.7255 13.985 17.7782 14.7441C16.8309 15.5033 15.7245 16.1012 14.459 16.5381C13.1936 16.9749 11.8449 17.1934 10.4131 17.1934C10.1383 17.1934 9.86353 17.1862 9.58874 17.1719C9.31394 17.1576 9.04639 17.1289 8.78606 17.0859C8.23648 17.6445 7.66159 18.0921 7.06139 18.4287C6.46119 18.7653 5.84653 19.0303 5.2174 19.2236C4.58827 19.417 3.95553 19.5495 3.31918 19.6211C2.68282 19.6927 2.03923 19.7357 1.38841 19.75V19.2129C2.08262 18.8691 2.67559 18.4072 3.16732 17.8271C3.65905 17.2471 3.90491 16.6061 3.90491 15.9043C3.90491 15.804 3.9013 15.7074 3.89407 15.6143C3.88684 15.5212 3.87599 15.4245 3.86153 15.3242C3.26856 14.9518 2.73344 14.5257 2.25617 14.0459C1.77891 13.5661 1.37395 13.0505 1.04131 12.499C0.70867 11.9476 0.451958 11.3639 0.271175 10.748C0.0903916 10.1322 0 9.49479 0 8.83594C0 7.6901 0.271175 6.60872 0.813524 5.5918C1.35587 4.57487 2.1007 3.69043 3.048 2.93848C3.99531 2.18652 5.1017 1.59212 6.36718 1.15527C7.63266 0.718424 8.9813 0.5 10.4131 0.5ZM21.6072 19.2129C21.6072 19.8145 21.788 20.3623 22.1495 20.8564C22.5111 21.3506 22.9956 21.7409 23.603 22.0273V22.5C22.4894 22.4714 21.4156 22.321 20.3815 22.0488C19.3474 21.7767 18.3459 21.168 17.3769 20.2227C17.1455 20.2513 16.9141 20.2728 16.6827 20.2871C16.4513 20.3014 16.2126 20.3086 15.9668 20.3086C14.9255 20.3086 13.9384 20.1761 13.0055 19.9111C12.0727 19.6462 11.223 19.2845 10.4565 18.8262C11.2519 18.8262 12.0257 18.7617 12.7777 18.6328C13.5298 18.5039 14.2602 18.3213 14.9688 18.085C15.6775 17.8486 16.3536 17.5586 16.9972 17.2148C17.6408 16.8711 18.2446 16.4701 18.8087 16.0117C19.3727 15.5677 19.8789 15.0771 20.3273 14.54C20.7756 14.0029 21.1589 13.4408 21.477 12.8535C21.8097 12.2233 22.0592 11.5716 22.2255 10.8984C22.3918 10.2253 22.475 9.53776 22.475 8.83594C22.475 8.73568 22.4713 8.62825 22.4641 8.51367C22.4569 8.39909 22.4533 8.2845 22.4533 8.16992C23.2342 8.81445 23.8525 9.56283 24.3081 10.415C24.7637 11.2673 24.9915 12.1803 24.9915 13.1543C24.9915 14.2715 24.6877 15.3135 24.0803 16.2803C23.4729 17.2471 22.663 18.0599 21.6506 18.7188C21.6361 18.7904 21.6253 18.8691 21.618 18.9551C21.6108 19.041 21.6072 19.127 21.6072 19.2129Z" fill="#EB7124"/>
</svg>
