<svg width="24" height="25" viewBox="0 0 24 25" fill="none" xmlns="http://www.w3.org/2000/svg">
<path d="M7.8125 9.375H10.9375V12.5H7.8125V9.375ZM12.5 9.375H15.625V12.5H12.5V9.375ZM17.1875 9.375H20.3125V12.5H17.1875V9.375ZM3.125 18.75H6.25V21.875H3.125V18.75ZM7.8125 18.75H10.9375V21.875H7.8125V18.75ZM12.5 18.75H15.625V21.875H12.5V18.75ZM7.8125 14.0625H10.9375V17.1875H7.8125V14.0625ZM12.5 14.0625H15.625V17.1875H12.5V14.0625ZM17.1875 14.0625H20.3125V17.1875H17.1875V14.0625ZM3.125 14.0625H6.25V17.1875H3.125V14.0625ZM20.3125 0V1.5625H17.1875V0H6.25V1.5625H3.125V0H0V25H23.4375V0H20.3125ZM21.875 23.4375H1.5625V6.25H21.875V23.4375Z" fill="#EB7124"/>
</svg>
