<svg width="62" height="62" viewBox="0 0 62 62" fill="none" xmlns="http://www.w3.org/2000/svg">
<rect width="62" height="62" rx="31" fill="#EB7124"/>
<path d="M45.6182 19.5387L31.1387 11.8231C31.0331 11.7667 30.9151 11.7376 30.7954 11.7383C30.6757 11.739 30.5581 11.7696 30.4532 11.8273L16.3741 19.5426C16.2608 19.6048 16.1663 19.6963 16.1005 19.8075C16.0346 19.9187 15.9999 20.0456 16 20.1749V30.2534C16.0084 38.5383 20.9169 46.0332 28.5078 49.3523L30.4619 50.2039C30.5524 50.2434 30.65 50.2638 30.7486 50.2639C30.8473 50.2641 30.945 50.2439 31.0355 50.2048L33.2376 49.2538C40.9693 46.0067 45.9992 38.4392 46 30.0536V20.1751C46 20.0444 45.9645 19.9161 45.8973 19.804C45.83 19.6919 45.7336 19.6002 45.6182 19.5387ZM44.5583 30.0537C44.5566 37.8613 39.8722 44.9062 32.6732 47.9276L32.6684 47.93L30.7508 48.758L29.0846 48.0309C22.0187 44.9416 17.4495 37.9655 17.4413 30.2536V20.6019L30.8043 13.2782L44.5582 20.6071L44.5583 30.0537Z" fill="white" stroke="white"/>
<path d="M25.4862 29.786C25.4247 29.7139 25.3496 29.6547 25.2652 29.6117C25.1809 29.5687 25.0889 29.5428 24.9945 29.5354C24.9001 29.5279 24.8051 29.5392 24.7151 29.5684C24.625 29.5977 24.5416 29.6444 24.4696 29.7059C24.3976 29.7674 24.3384 29.8424 24.2954 29.9267C24.2524 30.0111 24.2265 30.103 24.219 30.1974C24.2116 30.2918 24.2228 30.3867 24.2521 30.4767C24.2814 30.5667 24.3281 30.6501 24.3896 30.7221L28.1974 35.1811C28.3196 35.3243 28.4929 35.4139 28.6802 35.431C28.8676 35.4481 29.0543 35.3912 29.2003 35.2725L38.0688 28.0574C38.2171 27.9368 38.3114 27.7621 38.3309 27.5719C38.3505 27.3817 38.2937 27.1916 38.173 27.0433C38.0523 26.895 37.8777 26.8007 37.6875 26.7811C37.4973 26.7616 37.3071 26.8184 37.1588 26.9391L28.8366 33.7093L25.4862 29.786Z" fill="white"/>
</svg>
