<svg width="647" height="612" viewBox="0 0 647 612" fill="none" xmlns="http://www.w3.org/2000/svg">
<path d="M337.539 243.141C334.379 243.141 332.273 245.247 332.273 248.407V316.866C332.273 320.026 330.167 322.132 327.007 322.132H137.427C134.267 322.132 132.161 320.025 132.161 316.866V248.407C132.161 245.247 130.054 243.141 126.895 243.141C123.736 243.141 121.629 245.247 121.629 248.407V316.866C121.629 325.819 128.475 332.664 137.427 332.664H327.007C335.96 332.664 342.806 325.819 342.806 316.866V248.407C342.806 245.247 340.699 243.141 337.539 243.141Z" fill="#00104C"/>
<path d="M332.272 169.418H132.16C123.207 169.418 116.361 176.264 116.361 185.216V218.919C116.361 226.291 121.627 232.611 128.474 234.191L211.152 252.622V269.473C211.152 272.633 213.258 274.739 216.418 274.739H248.014C251.174 274.739 253.28 272.633 253.28 269.473V252.622L335.958 234.191C342.804 232.611 348.07 226.291 348.07 218.919V185.216C348.07 176.264 341.224 169.418 332.272 169.418ZM242.748 264.207H221.684V243.143H242.748V264.207ZM337.538 218.919C337.538 221.552 335.958 223.658 333.325 224.185L253.28 242.09V237.877C253.28 234.717 251.173 232.611 248.014 232.611H216.418C213.258 232.611 211.152 234.718 211.152 237.877V242.09L131.107 224.185C128.474 223.658 126.894 221.552 126.894 218.919V185.216C126.894 182.056 129 179.95 132.16 179.95H332.272C335.432 179.95 337.538 182.057 337.538 185.216V218.919ZM258.546 132.555H205.885C196.933 132.555 190.087 139.401 190.087 148.353V153.619C190.087 156.779 192.194 158.885 195.353 158.885C198.512 158.885 200.619 156.778 200.619 153.619V148.353C200.619 145.193 202.725 143.087 205.885 143.087H258.546C261.706 143.087 263.812 145.194 263.812 148.353V153.619C263.812 156.779 265.919 158.885 269.078 158.885C272.238 158.885 274.344 156.778 274.344 153.619V148.353C274.345 139.401 267.499 132.555 258.546 132.555Z" fill="#00104C"/>
<mask id="path-3-outside-1_3899_30689" maskUnits="userSpaceOnUse" x="0" y="0" width="464" height="464" fill="black">
<rect fill="white" width="464" height="464"/>
<path d="M455.174 232.087C455.174 355.294 355.294 455.174 232.087 455.174C108.879 455.174 9 355.294 9 232.087C9 108.879 108.879 9 232.087 9C355.294 9 455.174 108.879 455.174 232.087ZM47.7796 232.087C47.7796 333.877 130.297 416.394 232.087 416.394C333.877 416.394 416.394 333.877 416.394 232.087C416.394 130.297 333.877 47.7796 232.087 47.7796C130.297 47.7796 47.7796 130.297 47.7796 232.087Z"/>
</mask>
<path d="M455.174 232.087C455.174 355.294 355.294 455.174 232.087 455.174C108.879 455.174 9 355.294 9 232.087C9 108.879 108.879 9 232.087 9C355.294 9 455.174 108.879 455.174 232.087ZM47.7796 232.087C47.7796 333.877 130.297 416.394 232.087 416.394C333.877 416.394 416.394 333.877 416.394 232.087C416.394 130.297 333.877 47.7796 232.087 47.7796C130.297 47.7796 47.7796 130.297 47.7796 232.087Z" fill="#EB7124"/>
<path d="M455.174 232.087C455.174 355.294 355.294 455.174 232.087 455.174C108.879 455.174 9 355.294 9 232.087C9 108.879 108.879 9 232.087 9C355.294 9 455.174 108.879 455.174 232.087ZM47.7796 232.087C47.7796 333.877 130.297 416.394 232.087 416.394C333.877 416.394 416.394 333.877 416.394 232.087C416.394 130.297 333.877 47.7796 232.087 47.7796C130.297 47.7796 47.7796 130.297 47.7796 232.087Z" stroke="#00104C" stroke-width="16.1853" mask="url(#path-3-outside-1_3899_30689)"/>
<path d="M423.445 362.598L628.744 548.716C641.855 560.602 642.848 580.866 630.962 593.977C619.076 607.088 598.812 608.08 585.701 596.194L380.402 410.077L423.445 362.598Z" fill="#EB7124" stroke="#00104C" stroke-width="8.09263"/>
</svg>
