<svg width="54" height="54" viewBox="0 0 54 54" fill="none" xmlns="http://www.w3.org/2000/svg">
<path d="M43.5471 15.3534L53.5654 7.11178C54.0736 6.69368 54.1467 5.94279 53.7286 5.43454C53.3105 4.9264 52.5594 4.85331 52.0514 5.27141L41.3416 14.0819C36.9351 11.7796 32.0097 10.5691 26.9999 10.5691C21.4639 10.5691 16.0304 12.0472 11.2869 14.8435C6.68347 17.5572 2.83584 21.4364 0.160115 26.0616C0.0552268 26.243 0 26.4488 0 26.6584C0 26.8679 0.0552268 27.0737 0.160115 27.2551C2.83597 31.8803 6.68347 35.7595 11.2869 38.4733C11.3658 38.5199 11.4456 38.565 11.5249 38.6109L0.434574 47.7344C-0.0735621 48.1525 -0.146654 48.9034 0.271447 49.4117C0.383208 49.5478 0.523795 49.6573 0.683054 49.7325C0.842313 49.8076 1.01627 49.8464 1.19236 49.8461C1.46834 49.8463 1.73576 49.7504 1.94869 49.5748L13.8191 39.8095C17.922 41.7376 22.4259 42.7476 27.0002 42.7476C32.5362 42.7476 37.9696 41.2697 42.7131 38.4733C47.3165 35.7595 51.1642 31.8803 53.8399 27.2551C53.9448 27.0737 54 26.8679 54 26.6584C54 26.4488 53.9448 26.243 53.8399 26.0616C51.3273 21.7187 47.7816 18.0336 43.5471 15.3534ZM13.502 36.9843C13.1632 36.8032 12.8283 36.6152 12.4972 36.4204C8.44591 34.0321 5.02861 30.6663 2.57784 26.6584C5.02861 22.6504 8.44591 19.2845 12.4972 16.8963C16.8743 14.3161 21.8893 12.9523 26.9999 12.9523C31.2826 12.9523 35.4979 13.9106 39.3271 15.7392L34.4396 19.76C32.5842 17.7605 29.9363 16.5059 27.0001 16.5059C21.402 16.5059 16.8476 21.0604 16.8476 26.6584C16.8476 28.8888 17.5724 30.9522 18.7962 32.6291L13.502 36.9843ZM33.9706 23.2316C34.497 24.2972 34.7704 25.4699 34.7694 26.6584C34.7694 30.9424 31.2841 34.4277 27.0001 34.4277C25.2329 34.4277 23.6025 33.8335 22.2958 32.836L33.9706 23.2316ZM20.6398 31.1124C19.7532 29.8502 19.2306 28.3146 19.2306 26.6584C19.2306 22.3742 22.7159 18.8889 27.0001 18.8889C29.1965 18.8889 31.1813 19.8066 32.5957 21.2768L20.6398 31.1124ZM41.5028 36.4204C37.1257 39.0007 32.1107 40.3645 27.0001 40.3645C23.161 40.3645 19.3761 39.5948 15.8749 38.1181L20.4192 34.3796C22.1929 35.8935 24.4907 36.8106 27.0001 36.8106C32.5981 36.8106 37.1524 32.2562 37.1524 26.6582C37.1538 24.9165 36.7042 23.204 35.8472 21.6876L41.5996 16.9554C45.6081 19.3401 48.991 22.6826 51.422 26.6582C48.9713 30.6663 45.554 34.0322 41.5028 36.4204Z" fill="#EB7124"/>
</svg>
