<svg width="54" height="54" viewBox="0 0 54 54" fill="none" xmlns="http://www.w3.org/2000/svg">
<path d="M43.9586 43.2333C40.2497 39.1986 37.0064 35.5641 34.1881 32.2803C38.9053 25.8822 41.0714 21.7348 41.0032 19.2343C40.8546 13.7996 39.0326 8.6425 35.7345 4.31988C35.7202 4.30018 35.705 4.28114 35.689 4.26282C33.4326 1.55355 30.1177 0 26.5909 0C23.0642 0 19.7492 1.55365 17.4928 4.26303C17.4768 4.28137 17.4616 4.30041 17.4473 4.32009C14.1491 8.64281 12.3273 13.7999 12.1788 19.2344C12.1044 21.9551 14.7853 26.5579 18.8119 32.0333C18.3646 32.5775 17.9482 33.0851 17.5578 33.5612C14.661 37.093 13.0653 39.0386 9.22165 43.2333C9.09466 43.3719 9.01759 43.5489 9.00266 43.7363C8.98774 43.9237 9.03582 44.1107 9.13928 44.2677L15.3046 53.6206C15.3815 53.7372 15.4861 53.8329 15.6091 53.8991C15.7321 53.9653 15.8695 54 16.0092 54C16.1377 54 16.2645 53.9706 16.38 53.9141C16.4954 53.8576 16.5964 53.7755 16.6753 53.674C17.5752 52.5162 19.1463 50.6734 21.1357 48.3404C22.7922 46.3975 24.6568 44.2105 26.5962 41.8763C28.3652 44.0078 30.2013 46.1763 32.0459 48.3398C34.0354 50.6731 35.6068 52.5162 36.5066 53.674C36.5889 53.7799 36.6952 53.8646 36.8168 53.9212C36.9384 53.9778 37.0717 54.0046 37.2057 53.9993C37.3396 53.9941 37.4705 53.9571 37.5873 53.8912C37.7041 53.8253 37.8035 53.7326 37.8773 53.6206L44.0418 44.2689C44.1454 44.1117 44.1935 43.9244 44.1784 43.7367C44.1634 43.5491 44.086 43.3719 43.9586 43.2333ZM36.0776 7.86055C38.0943 11.3238 39.2053 15.2192 39.3163 19.2803C39.3543 20.6697 38.2889 23.8229 33.0631 30.9614C30.8886 28.3963 28.9856 26.0535 27.3334 23.9083C30.7843 19.211 33.2536 15.2413 34.6729 12.1087C35.403 10.4975 35.8704 9.08673 36.0776 7.86055ZM26.2683 22.5065C24.7107 20.4268 23.404 18.542 22.327 16.8269C21.7531 15.913 21.2466 15.0489 20.8034 14.2297C22.4952 13.0577 24.5284 12.4159 26.591 12.4159C28.4692 12.4159 30.2856 12.9297 31.8789 13.9035C30.6123 16.2041 28.8026 19.0309 26.2683 22.5065ZM18.8596 5.25971C20.7926 2.98781 23.6031 1.68749 26.5909 1.68749C29.5775 1.68749 32.3868 2.98655 34.3197 5.25665C34.7485 6.41195 34.5918 8.53007 32.6644 12.4067C30.8286 11.3077 28.7446 10.7286 26.5908 10.7286C24.2624 10.7286 21.9657 11.4293 20.0316 12.7138C18.5117 9.50238 18.1398 7.08251 18.8596 5.25971ZM19.8515 47.2453C18.3053 49.0586 17.0102 50.5779 16.075 51.7229L10.91 43.8875C14.4684 39.9886 16.0606 38.0473 18.8625 34.6312C19.1748 34.2504 19.5034 33.8497 19.8511 33.4265C21.5653 35.6952 23.4795 38.0922 25.5022 40.5519C23.4966 42.97 21.5627 45.2383 19.8515 47.2453ZM37.1069 51.7229C36.1718 50.5778 34.8763 49.0583 33.33 47.2448C29.6916 42.9774 24.7085 37.133 20.7123 31.7651C14.9818 24.0677 13.8261 20.7272 13.8656 19.2803C13.9722 15.38 15.001 11.6329 16.8689 8.27431C17.154 10.8003 18.4738 13.8637 20.8979 17.7243C24.7856 23.9156 31.5842 32.2397 42.2705 43.8898L37.1069 51.7229Z" fill="#EB7124"/>
</svg>
