<svg width="54" height="54" viewBox="0 0 54 54" fill="none" xmlns="http://www.w3.org/2000/svg">
<path fill-rule="evenodd" clip-rule="evenodd" d="M15.7269 11.8422V9.19756C15.7269 9.12539 15.7126 9.05392 15.6849 8.98724C15.6572 8.92056 15.6167 8.85997 15.5655 8.80894C15.5143 8.75791 15.4536 8.71742 15.3867 8.6898C15.3199 8.66218 15.2482 8.64797 15.1759 8.64797H9.25991C9.11468 8.64784 8.97529 8.70495 8.87209 8.80686C8.76889 8.90876 8.71023 9.04721 8.70889 9.19205L8.6518 14.6288C8.45881 14.7801 8.26999 14.9366 8.08556 15.0981C7.12354 13.8604 6.06337 12.7678 4.76639 12.0324C3.164 11.2598 1.54515 13.3633 0.673159 14.8112C0.209693 15.6346 -0.0426859 16.449 0.00593964 16.969C0.0419293 17.3538 0.211949 17.6341 0.480462 17.8044C1.86093 18.6805 3.06201 19.861 4.14486 21.245C3.79744 22.4016 3.61161 23.6004 3.59261 24.8076C1.09522 34.6108 12.804 46.0815 22.2252 46.6866C34.9226 40.7148 36.3581 22.7257 23.8327 17.8363C24.4544 15.3225 27.8397 15.4404 30.6771 15.6158C31.1503 15.6584 31.5724 15.4613 31.9118 15.0596C32.9485 13.7625 32.9815 11.0538 32.3635 9.57791C32.0319 8.79201 31.4901 8.28079 30.7983 8.19178C25.7746 7.54879 21.4296 8.46882 17.7151 11.7709C17.0515 11.7521 16.3874 11.7759 15.7269 11.8422ZM51.7702 43.2556C51.9263 42.9963 51.8235 42.6323 51.5526 42.496L41.3436 37.0581C40.9175 36.8128 40.3787 37.2807 40.5682 37.7364L41.2175 39.4621L33.1523 35.7292C32.5472 35.4593 32.06 36.2879 32.6061 36.6789L45.2582 45.4408C45.6804 45.7462 46.2797 45.2954 46.0913 44.8043L45.6267 43.5083L49.6471 45.8232C49.7097 45.8596 49.7789 45.8832 49.8507 45.8927C49.9225 45.9023 49.9955 45.8975 50.0654 45.8788C50.1354 45.8601 50.201 45.8278 50.2584 45.7838C50.3158 45.7397 50.3639 45.6847 50.3999 45.622L51.7702 43.2556ZM12.7473 21.2548C12.1975 22.3429 12.1849 23.4061 12.8791 24.3941C14.3638 24.0424 15.1046 25.4053 15.6576 26.5234C15.9395 27.04 16.2425 27.5104 16.9612 27.6996C17.2552 27.7775 17.4311 28.0777 17.3536 28.3711C17.2761 28.6646 16.9744 28.8405 16.6804 28.7625C15.7685 28.5228 15.2734 28.0117 14.8872 27.3895C14.5104 26.8599 14.1986 25.7173 13.5044 25.4714C14.1536 26.9169 14.0281 28.7346 13.2543 30.1079C12.9431 30.6323 12.4839 31.0499 12.1928 31.5886C11.812 32.2942 11.6045 33.0483 11.6991 33.853C11.7161 33.9978 11.6747 34.1433 11.5842 34.2577C11.4936 34.3721 11.3612 34.446 11.2161 34.4631C9.95014 34.548 10.8237 31.6434 11.2226 31.0677C11.9158 29.9465 12.6486 29.4934 12.7825 28.0305C13.1907 25.0006 10.3248 24.6792 11.5389 21.2901C8.95371 21.4997 5.43914 22.4911 4.67252 25.034C2.71678 32.3821 9.52311 40.0864 15.7723 43.569C15.6518 42.8918 15.8116 42.2435 16.1284 41.6519C15.0724 41.8315 14.2427 41.0705 13.9599 40.1328C13.8111 39.7206 13.7234 39.2622 13.4786 38.9105C13.0798 38.3064 13.9533 37.6978 14.384 38.2839C14.682 38.7125 14.816 39.2589 14.9972 39.7612C15.111 40.0777 15.2366 40.3845 15.5737 40.5328C15.8468 40.6449 16.1669 40.5209 16.4602 40.5229C16.5008 40.0844 16.4467 39.6623 16.3221 39.2126C16.2833 39.0722 16.3019 38.9221 16.3739 38.7953C16.4459 38.6686 16.5654 38.5755 16.7062 38.5365C16.8471 38.498 16.9975 38.5167 17.1246 38.5886C17.2517 38.6605 17.3451 38.7797 17.3842 38.9202C17.6024 39.7061 17.6467 40.4305 17.4579 41.2296C17.0754 42.4505 16.4241 42.9327 17.1714 44.2843C18.7314 45.0075 20.2424 45.4583 21.5768 45.5627C19.8145 36.9742 26.2398 21.6295 12.7473 21.2548ZM30.7924 35.0896C32.6174 28.7151 30.1331 21.1154 23.4741 18.8762C22.6064 20.8138 24.6843 23.445 21.4023 24.6734C24.2609 30.855 21.407 38.4801 22.6482 45.2882C26.4927 43.0963 29.0039 39.9492 30.3039 36.5692C30.174 36.0943 29.8886 35.7085 29.6185 35.3193C28.5351 33.8909 28.5727 32.894 29.036 31.2347C29.1586 30.6719 29.197 29.976 29.1108 29.4045C29.0892 29.2603 29.1258 29.1135 29.2126 28.9962C29.2994 28.8789 29.4293 28.8008 29.5739 28.7791C29.7183 28.7577 29.8654 28.7942 29.9829 28.8808C30.1004 28.9673 30.1787 29.0968 30.2007 29.2408C30.3056 29.9365 30.2621 30.783 30.113 31.4678C29.9731 32.1108 29.7343 32.6615 29.8427 33.3321C29.9574 34.0212 30.4347 34.5216 30.7924 35.0896ZM50.531 43.1973L49.7208 44.5966L44.8778 41.8079C44.4546 41.5452 43.9 42.0073 44.0834 42.4697L44.4747 43.5601L38.4714 39.4028L41.9744 41.0241C42.1772 41.1176 42.417 41.0802 42.581 40.9285C42.7451 40.7768 42.8008 40.5416 42.7222 40.3326L42.1134 38.7146L50.531 43.1973ZM53.9999 26.5618C54.0058 26.2592 53.7337 25.9954 53.4306 26.0122L41.8639 26.3947C41.3685 26.4002 41.14 27.0621 41.5322 27.3686L42.9596 28.5393L34.1038 29.3285C33.4443 29.3961 33.438 30.3572 34.1071 30.4244L49.4563 31.7018C49.9759 31.7558 50.2679 31.066 49.8586 30.7356L48.8067 29.8453H53.449C53.5951 29.8452 53.7353 29.7873 53.8386 29.6843C53.9419 29.5812 54 29.4414 54 29.2957V26.5618H53.9999ZM52.8979 27.1301V28.7459H47.3056C46.8031 28.7355 46.5595 29.398 46.9491 29.7143L47.8347 30.4639L40.5518 29.8572L44.3981 29.5142C44.6208 29.4944 44.8096 29.3427 44.8756 29.1295C44.9416 28.9162 44.8718 28.6843 44.699 28.5425L43.3607 27.4455L52.8979 27.1301ZM48.4468 10.4835C48.3007 10.2181 47.9326 10.1251 47.6785 10.2912L37.8533 16.3907C37.4268 16.6426 37.5609 17.3298 38.0542 17.3998L39.8772 17.702L32.6035 22.8024C32.0659 23.1899 32.5433 24.0253 33.1553 23.7489L47.0887 17.2008C47.5656 16.9879 47.4728 16.2458 46.9525 16.1632L45.5952 15.917L49.6156 13.6009C49.6783 13.5649 49.7333 13.5169 49.7773 13.4596C49.8214 13.4023 49.8538 13.337 49.8725 13.2672C49.8912 13.1975 49.896 13.1248 49.8865 13.0532C49.8771 12.9816 49.8535 12.9126 49.8173 12.8501L48.4468 10.4835ZM29.3308 9.15019C25.1325 8.85671 21.4603 9.83943 18.2913 12.7325C11.1188 12.7907 6.1208 16.7582 4.93235 22.6299C9.03381 19.0431 17.575 19.2745 20.8036 23.7137C22.2866 23.3205 22.3768 22.4408 22.1971 21.1108C22.1049 20.0764 22.0473 18.9915 22.6936 18.0319C23.0635 14.8354 26.2343 14.3865 29.3443 14.4375C28.2862 12.864 28.1925 10.6389 29.3308 9.15019ZM47.7772 11.5245L48.5873 12.9238L43.7443 15.7125C43.3046 15.9532 43.4246 16.6515 43.9211 16.7293L45.064 16.9371L38.4527 20.0446L41.6119 17.8285C41.7014 17.7659 41.7702 17.6781 41.8094 17.5763C41.8487 17.4745 41.8566 17.3633 41.8322 17.257C41.8078 17.1507 41.7523 17.0541 41.6727 16.9793C41.5931 16.9046 41.4931 16.8551 41.3852 16.8371L39.676 16.5547L47.7772 11.5245ZM7.28521 15.8631C6.39709 14.7045 5.42718 13.6724 4.22169 12.9887C3.96683 12.8811 3.70001 13.0651 3.46354 13.2063C2.52499 13.8455 1.12342 15.68 1.11169 16.903C2.39513 17.723 3.53744 18.787 4.5755 20.0269C5.20221 18.4968 6.11662 17.0777 7.28521 15.8631ZM30.7938 9.31729C29.0604 10.398 29.3373 13.2831 30.8904 14.5055C31.9358 13.7641 31.965 9.90267 30.7938 9.31729ZM9.76207 13.8494C10.3597 13.4744 10.9867 13.148 11.6368 12.8733V9.74715H9.80517L9.76207 13.8494ZM12.7388 9.74704V12.4631C13.3558 12.2633 13.986 12.1065 14.6247 11.9938V9.74704H12.7388Z" fill="#EB7124"/>
</svg>
