<svg width="54" height="54" viewBox="0 0 54 54" fill="none" xmlns="http://www.w3.org/2000/svg">
<path d="M23.4684 50.9977C17.8991 50.9907 13.3858 46.4509 13.379 40.8486H15.3969C15.3934 44.5672 17.9015 47.8132 21.4849 48.7268C25.0684 49.6407 28.8111 47.9891 30.5688 44.7179L33.4572 39.3897C33.8569 38.6484 34.2946 37.9285 34.7686 37.233L39.8634 29.7733C41.6799 27.1092 42.6509 23.9122 42.6509 20.5503C42.6509 12.1521 36.5469 5.32669 29.0303 5.32669C21.5134 5.32669 15.3968 12.1521 15.3968 20.5503H13.3789C13.3789 11.0355 20.3913 3.29688 29.0174 3.29688C37.6442 3.29688 44.6559 11.0355 44.6559 20.5503C44.6559 24.331 43.5717 27.9084 41.5158 30.9151L36.4208 38.3746C35.9878 39.0132 35.5879 39.6739 35.2227 40.354L32.3344 45.6822C31.4692 47.2891 30.1888 48.6312 28.6283 49.5667C27.0677 50.5023 25.285 50.9967 23.4684 50.9977Z" fill="#EB7124"/>
<path d="M21.4476 22.5087H19.4297V20.5546C19.4297 14.4017 23.7303 9.39062 29.0146 9.39062C34.2991 9.39062 38.5994 14.4017 38.5994 20.5546H36.5816C36.5816 15.5183 33.189 11.4204 29.0146 11.4204C24.8404 11.4204 21.4476 15.5183 21.4476 20.5546V22.5087Z" fill="#EB7124"/>
<path d="M21.4498 39.8373C19.2209 39.8373 17.4141 38.0195 17.4141 35.7777V34.7628H19.4319V35.7777C19.4319 36.8985 20.3353 37.8075 21.4498 37.8075C22.5647 37.8075 23.4677 36.8985 23.4677 35.7777V32.733C23.4677 30.4747 25.3471 28.6609 27.5791 28.6733C28.7141 28.6733 29.7231 28.2803 30.4419 27.5568C31.1608 26.8337 31.6529 25.5527 31.5268 24.2459C31.4007 22.9392 30.7449 21.5054 29.6601 20.4271C27.4909 18.2451 24.3002 17.8898 22.5598 19.6536C21.0842 21.1378 21.0842 23.7509 22.5598 25.8699L20.9078 27.0369C18.8771 24.1061 18.9653 20.4019 21.1344 18.2199C23.6696 15.6697 28.1339 16.0252 31.0854 18.9935C32.4978 20.4148 33.3677 22.2161 33.5318 24.0681C33.6957 25.9204 33.1156 27.7471 31.8671 29.0033C30.6187 30.259 29.2438 30.703 27.5919 30.703H27.491C26.3816 30.71 25.4854 31.6168 25.4854 32.7328V35.7776C25.4854 38.0195 23.6789 39.8372 21.4497 39.8372L21.4498 39.8373Z" fill="#EB7124"/>
<path d="M5 4.43521L6.42663 3L50 46.8313L48.5734 48.2665L5 4.43521Z" fill="#EB7124"/>
</svg>
