<svg width="54" height="54" viewBox="0 0 54 54" fill="none" xmlns="http://www.w3.org/2000/svg">
<path d="M48.395 49.0848L44.5041 47.8192L39.4906 43.6889C39.269 43.5068 39.0957 43.272 38.9863 43.0055C38.8769 42.7391 38.8348 42.4494 38.8639 42.1625L41.5517 15.2775C41.6085 14.7868 41.1281 14.2738 40.572 14.4331C39.0954 14.8119 37.8602 14.4496 37.8351 14.442C37.6364 14.3799 37.4215 14.4 37.2376 14.4978C37.0536 14.5956 36.9157 14.7632 36.8542 14.9636C36.7927 15.164 36.8126 15.3808 36.9095 15.5664C37.0065 15.752 37.1725 15.8912 37.3712 15.9532C37.4156 15.9673 38.1341 16.1879 39.1793 16.1879C39.4018 16.1879 39.6397 16.177 39.8883 16.1529L37.3037 42.0038C37.2483 42.5509 37.3285 43.1033 37.5371 43.6113C37.7457 44.1194 38.0761 44.5672 38.4987 44.9144L43.6268 49.1392C43.7025 49.2015 43.789 49.249 43.882 49.2793L47.9137 50.5906C48.1007 50.6511 48.2639 50.77 48.3795 50.9302C48.4951 51.0904 48.5572 51.2836 48.5568 51.4817C48.5568 51.998 48.1406 52.418 47.629 52.418H30.0073L29.9967 52.4181C29.4444 52.4264 28.9244 52.1659 28.5672 51.7059C28.2082 51.2435 28.0826 50.6679 28.2249 50.1178L29.3478 45.5592C29.3772 45.4397 29.3786 45.315 29.3519 45.195C29.3171 45.039 25.8979 29.4271 27.6876 15.3988C27.6973 15.3228 27.696 15.2458 27.6837 15.1701L25.3318 0.663485C25.262 0.23233 24.8589 -0.0604498 24.4316 0.0106359C24.2264 0.0445003 24.0429 0.159219 23.9216 0.329556C23.8002 0.499893 23.7509 0.711896 23.7844 0.91893L26.1179 15.3118C24.4306 28.7541 27.3986 43.5352 27.7822 45.3558L26.7055 49.7271C26.4409 50.75 26.6695 51.8267 27.3328 52.6812C27.9849 53.5212 28.9448 54.0001 29.9726 54C29.9856 54 29.9988 54 30.0117 53.9998H47.6292C49.0055 53.9998 50.125 52.8701 50.125 51.4815C50.1261 50.9485 49.959 50.4289 49.648 49.998C49.337 49.5671 48.8982 49.2473 48.395 49.0848ZM40.9201 12.2734C41.0229 12.2788 41.1257 12.2636 41.2228 12.2288C41.3198 12.194 41.409 12.1403 41.4855 12.0707C41.5619 12.0011 41.624 11.9169 41.6682 11.8231C41.7124 11.7293 41.7379 11.6276 41.7431 11.5239L42.2853 0.831602C42.2959 0.622093 42.2236 0.416912 42.0843 0.261192C41.945 0.105472 41.7501 0.0119684 41.5424 0.00124924C41.1107 -0.0200554 40.7415 0.314596 40.7194 0.750813L40.1772 11.4431C40.1666 11.6526 40.2389 11.8578 40.3782 12.0135C40.5175 12.1692 40.7124 12.2627 40.9201 12.2734ZM5.57069 25.2857L5.57131 25.2965C5.66905 27.6558 7.57087 29.4997 9.91538 29.4997H14.1499C16.1998 29.4997 17.9904 28.0304 18.4077 26.0062L20.2315 17.1524C20.502 15.9402 20.6688 14.7067 20.7302 13.4657L21.3521 0.830547C21.3572 0.726794 21.342 0.623043 21.3074 0.525216C21.2728 0.42739 21.2194 0.337404 21.1503 0.260396C21.0812 0.183389 20.9977 0.120868 20.9047 0.0764035C20.8116 0.031939 20.7108 0.00640153 20.608 0.00124922C20.5051 -0.0039031 20.4023 0.0114306 20.3054 0.0463749C20.2084 0.0813192 20.1192 0.13519 20.0429 0.204911C19.9666 0.274632 19.9046 0.358838 19.8605 0.452721C19.8165 0.546604 19.7912 0.648326 19.7861 0.752079L19.1641 13.3875C19.1446 13.7806 19.1134 14.173 19.0708 14.5642C17.6517 14.8909 16.4868 14.549 16.4625 14.5418C16.2639 14.4797 16.049 14.4998 15.865 14.5976C15.6811 14.6954 15.5432 14.8629 15.4817 15.0633C15.4201 15.2638 15.44 15.4806 15.537 15.6662C15.6339 15.8518 15.8 15.9909 15.9986 16.053C16.043 16.067 16.7616 16.2877 17.8068 16.2877C18.1191 16.2877 18.4613 16.2672 18.8228 16.2164C18.7847 16.4152 18.2554 18.971 18.2554 18.971H6.89435L5.56588 0.7332C5.55834 0.629594 5.53065 0.5285 5.48439 0.435693C5.43813 0.342886 5.3742 0.260184 5.29625 0.192311C5.2183 0.124438 5.12787 0.072724 5.03011 0.0401221C4.93235 0.00752014 4.82918 -0.00533057 4.7265 0.00230393C4.51915 0.0176838 4.32634 0.115538 4.1905 0.274343C4.05465 0.433148 3.98688 0.639895 4.00211 0.849109L5.38285 19.8044L5.56943 25.2652C5.56974 25.2721 5.57037 25.2789 5.57069 25.2857ZM14.1499 27.9176H9.91538C8.64157 27.9176 7.57202 27.0663 7.24087 25.8852L17.1893 24.1463L16.8726 25.684C16.6058 26.9783 15.4608 27.9176 14.1499 27.9176ZM17.9295 20.5527L17.5323 22.4809L7.1054 24.3034L6.97724 20.5528L17.9295 20.5527Z" fill="#EB7124"/>
<path d="M32.9468 49.3732C33.3797 49.3732 33.7307 49.0191 33.7307 48.5822C33.7307 48.1452 33.3797 47.7912 32.9468 47.7912C32.8457 47.7911 32.7489 47.7505 32.6775 47.6785C32.606 47.6064 32.5659 47.5087 32.5657 47.4067C32.5657 46.9698 32.2147 46.6157 31.7818 46.6157C31.3488 46.6157 30.9978 46.9698 30.9978 47.4067C30.9978 48.4911 31.8721 49.3732 32.9468 49.3732ZM20.5704 52.4142H13.0576V47.2596C16.3855 46.8664 18.9768 44.0056 18.9768 40.5439V36.822C18.9768 35.8002 18.1528 34.9688 17.1399 34.9688H16.0183C15.5853 34.9688 15.2343 35.3228 15.2343 35.7598C15.2343 36.1967 15.5853 36.5508 16.0183 36.5508H17.1399C17.2112 36.5509 17.2796 36.5795 17.33 36.6303C17.3804 36.6812 17.4088 36.7501 17.4089 36.822V40.5439C17.4089 43.4009 15.1051 45.7254 12.2736 45.7254C9.44211 45.7254 7.13837 43.4009 7.13837 40.5439V36.822C7.13845 36.7501 7.16682 36.6811 7.21724 36.6303C7.26767 36.5794 7.33603 36.5508 7.40733 36.5508H12.3475C12.7805 36.5508 13.1315 36.1967 13.1315 35.7598C13.1315 35.3228 12.7805 34.9688 12.3475 34.9688H7.40722C6.39443 34.9688 5.57031 35.8002 5.57031 36.822V40.5439C5.57031 44.0056 8.16172 46.8664 11.4895 47.2596V52.4142H8.58653C8.15357 52.4142 7.80255 52.7682 7.80255 53.2052C7.80255 53.6421 8.15357 53.9962 8.58653 53.9962H20.5704C21.0034 53.9962 21.3544 53.6421 21.3544 53.2052C21.3544 52.7682 21.0034 52.4142 20.5704 52.4142Z" fill="#EB7124"/>
</svg>
