<svg width="54" height="54" viewBox="0 0 54 54" fill="none" xmlns="http://www.w3.org/2000/svg">
<path d="M34.2019 9.83748H30.5885V6.16679C30.5885 5.96388 30.5092 5.76928 30.3679 5.6258C30.2267 5.48232 30.0351 5.40172 29.8354 5.40172H24.3224C24.1226 5.40172 23.9311 5.48232 23.7899 5.6258C23.6486 5.76928 23.5693 5.96388 23.5693 6.16679V9.83737H19.956C19.7563 9.83737 19.5647 9.91797 19.4235 10.0615C19.2823 10.2049 19.2029 10.3995 19.2029 10.6024V16.2031C19.2029 16.406 19.2823 16.6006 19.4235 16.7441C19.5647 16.8875 19.7563 16.9681 19.956 16.9681H23.5693V20.6387C23.5693 20.8416 23.6486 21.0362 23.7899 21.1797C23.9311 21.3232 24.1226 21.4038 24.3224 21.4038H29.8354C30.0351 21.4038 30.2267 21.3232 30.3679 21.1797C30.5092 21.0362 30.5885 20.8416 30.5885 20.6387V16.9681H34.2019C34.4016 16.9681 34.5932 16.8875 34.7344 16.7441C34.8756 16.6006 34.955 16.406 34.955 16.2031V10.6024C34.9549 10.3995 34.8756 10.205 34.7344 10.0615C34.5931 9.91807 34.4016 9.83748 34.2019 9.83748ZM33.4487 15.438H29.8354C29.6357 15.438 29.4441 15.5186 29.3029 15.6621C29.1616 15.8056 29.0823 16.0002 29.0823 16.2031V19.8737H25.0755V16.2031C25.0755 16.0002 24.9962 15.8056 24.8549 15.6621C24.7137 15.5186 24.5221 15.438 24.3224 15.438H20.7092V11.3675H24.3224C24.5221 11.3675 24.7137 11.2869 24.8549 11.1434C24.9962 10.9999 25.0755 10.8053 25.0755 10.6024V6.93185H29.0823V10.6024C29.0823 10.8053 29.1616 10.9999 29.3029 11.1434C29.4441 11.2869 29.6357 11.3675 29.8354 11.3675H33.4487V15.438ZM47.9485 11.9611C47.1684 11.1687 46.1279 10.7323 45.0185 10.7323C43.9092 10.7323 42.8686 11.1687 42.0886 11.9611L40.2656 13.813C40.2697 13.6763 40.2724 13.5395 40.2724 13.4028C40.2723 6.01246 34.3538 0 27.0789 0C19.804 0 13.8855 6.01246 13.8855 13.4028C13.8855 20.7932 19.804 26.8056 27.0789 26.8056C27.2135 26.8056 27.3482 26.8028 27.4827 26.7986L20.32 34.075C20.2501 34.146 20.1946 34.2303 20.1567 34.3232C20.1189 34.416 20.0994 34.5155 20.0994 34.6159C20.0994 34.7164 20.1189 34.8159 20.1567 34.9087C20.1946 35.0015 20.2501 35.0859 20.32 35.1569L20.7777 35.6218L5.22059 51.426C5.15066 51.497 5.09518 51.5813 5.05733 51.6741C5.01948 51.7669 5 51.8664 5 51.9669C5 52.0673 5.01948 52.1668 5.05733 52.2596C5.09518 52.3524 5.15066 52.4368 5.22059 52.5078C6.17285 53.4752 7.90803 54.0001 9.76758 54C11.8869 53.9998 14.1676 53.3177 15.6311 51.8308L20.8471 46.5322C21.1188 46.2563 21.1284 45.9972 21.1907 44.3115C21.2075 43.8545 21.2261 43.3509 21.2498 43.0245L24.6573 39.563L25.115 40.028C25.2562 40.1714 25.4477 40.252 25.6474 40.252C25.8471 40.252 26.0387 40.1714 26.1799 40.028L47.9482 17.9141C48.7283 17.1217 49.1577 16.0647 49.1577 14.9375C49.1577 13.8104 48.7284 12.7534 47.9485 11.9611ZM27.0789 25.2755C20.6346 25.2755 15.3917 19.9495 15.3917 13.4028C15.3917 6.85611 20.6346 1.53014 27.0789 1.53014C33.5232 1.53014 38.7661 6.85611 38.7661 13.4028C38.7661 14.1163 38.7029 14.8292 38.5793 15.526L29.169 25.0856C28.4792 25.2118 27.7798 25.2754 27.0789 25.2755ZM19.9946 42.136C19.8787 42.2537 19.8038 42.4065 19.7812 42.5714C19.7354 42.9057 19.7113 43.5607 19.6856 44.2541C19.6694 44.6906 19.6466 45.3102 19.6203 45.6145L14.5661 50.749C12.614 52.7319 8.74334 52.8227 6.91176 51.8716L21.8427 36.7036L23.5923 38.481L19.9946 42.136ZM25.6474 38.405L21.9176 34.616L23.6918 32.8136L27.4217 36.6027L25.6474 38.405ZM46.8833 16.8322L28.4868 35.5207L24.7569 31.7317L43.1534 13.043C43.6489 12.5397 44.3113 12.2624 45.0184 12.2624C45.7255 12.2624 46.3879 12.5397 46.8833 13.043C47.3788 13.5463 47.6517 14.2191 47.6517 14.9375C47.6517 15.6559 47.3788 16.3288 46.8833 16.8322ZM45.4284 14.521C45.4984 14.592 45.5538 14.6764 45.5917 14.7692C45.6296 14.862 45.649 14.9615 45.649 15.062C45.649 15.1624 45.6296 15.2619 45.5917 15.3547C45.5538 15.4476 45.4984 15.5319 45.4284 15.6029L37.8685 23.2829C37.7215 23.4323 37.5287 23.507 37.336 23.507C37.1433 23.507 36.9505 23.4322 36.8035 23.2829C36.7336 23.2119 36.6781 23.1275 36.6403 23.0347C36.6024 22.9419 36.5829 22.8424 36.5829 22.742C36.5829 22.6415 36.6024 22.542 36.6403 22.4492C36.6781 22.3564 36.7336 22.272 36.8035 22.201L44.3635 14.521C44.4334 14.45 44.5165 14.3936 44.6078 14.3552C44.6992 14.3167 44.7971 14.2969 44.896 14.2969C44.9949 14.2969 45.0928 14.3167 45.1841 14.3552C45.2755 14.3936 45.3585 14.45 45.4284 14.521Z" fill="#EB7124"/>
</svg>
