<svg width="54" height="54" viewBox="0 0 54 54" fill="none" xmlns="http://www.w3.org/2000/svg">
<path d="M53.0987 19.9995C53.096 18.701 52.6256 17.447 51.7735 16.4672C50.9214 15.4873 49.7448 14.8473 48.4593 14.6645C48.0316 11.9004 46.633 9.37917 44.5144 7.55305C42.3959 5.72692 39.696 4.7154 36.8991 4.69993C36.6696 4.69993 36.4284 4.72693 36.1935 4.74043C35.7754 3.99863 35.1873 3.36657 34.4776 2.89617C33.7678 2.42577 32.9565 2.13044 32.1105 2.03443C31.2644 1.93842 30.4076 2.04447 29.6105 2.34387C28.8133 2.64328 28.0986 3.12749 27.5249 3.75676C25.9277 2.6143 24.0132 2.00004 22.0495 2C20.5449 2.00752 19.0636 2.37183 17.7272 3.06303C16.3908 3.75422 15.2375 4.75258 14.3618 5.9761C13.3564 5.62523 12.2822 5.51771 11.2272 5.66236C10.1722 5.80702 9.16652 6.19972 8.29266 6.80826C7.41881 7.41679 6.70167 8.22383 6.20007 9.16316C5.69847 10.1025 5.42671 11.1474 5.40708 12.212C4.13012 12.6412 3.06479 13.5411 2.42806 14.7282C1.79132 15.9154 1.63108 17.3007 1.97996 18.6019C0.687418 20.466 -0.00352048 22.681 1.34891e-05 24.9494C-0.0016391 26.6889 0.40049 28.405 1.17474 29.9626C1.949 31.5203 3.07424 32.877 4.46189 33.9259C5.84954 34.9748 7.46172 35.6872 9.1715 36.0072C10.8813 36.3272 12.642 36.2459 14.315 35.7698C14.8944 37.0159 15.7664 38.1035 16.8567 38.9398C17.9471 39.7762 19.2235 40.3365 20.5771 40.5731C21.9307 40.8098 23.3215 40.7156 24.6309 40.2988C25.9403 39.8819 27.1296 39.1547 28.0973 38.1791C29.2043 38.5553 30.3553 38.7839 31.5217 38.8604C31.6882 42.2263 32.9824 44.244 38.4146 46.0548C41.9416 47.2301 42.883 49.6169 43.1296 50.9354C43.2108 51.3491 43.4337 51.7215 43.76 51.9886C44.0862 52.2557 44.4953 52.4007 44.917 52.3987H47.6628C47.9083 52.3991 48.1513 52.3493 48.3768 52.2524C48.6024 52.1554 48.8057 52.0133 48.9743 51.8349C49.1429 51.6564 49.2732 51.4453 49.3572 51.2147C49.4412 50.984 49.4771 50.7385 49.4627 50.4935C49.3287 48.3335 48.7302 43.3323 46.1229 40.1572C47.6055 39.347 48.8942 38.224 49.8995 36.8661C50.9048 35.5081 51.6027 33.9478 51.9449 32.2932C53.1392 30.9028 53.8528 29.164 53.9796 27.3354C54.1064 25.5068 53.6396 23.6862 52.6487 22.1442C52.9429 21.4673 53.0961 20.7376 53.0987 19.9995ZM50.4653 31.2601L50.4446 31.2817C49.8113 31.9776 49.04 32.5341 48.18 32.9159C47.3199 33.2977 46.3898 33.4963 45.4489 33.4992C43.891 33.5047 42.3816 32.9575 41.1893 31.9548C41.7771 31.2837 42.1517 30.4526 42.2652 29.5676C42.3787 28.6826 42.2259 27.7839 41.8264 26.9861C41.7733 26.8804 41.6998 26.7863 41.6102 26.709C41.5206 26.6317 41.4167 26.5729 41.3044 26.5358C41.1921 26.4987 41.0736 26.484 40.9556 26.4927C40.8376 26.5014 40.7225 26.5333 40.6169 26.5865C40.5112 26.6397 40.4171 26.7131 40.3398 26.8027C40.2625 26.8923 40.2037 26.9962 40.1666 27.1085C40.1295 27.2208 40.1148 27.3393 40.1236 27.4573C40.1323 27.5753 40.1641 27.6904 40.2173 27.796C40.4045 28.1695 40.5008 28.5817 40.499 28.9993C40.4995 29.608 40.2944 30.1991 39.9168 30.6766C39.5392 31.154 39.0114 31.4899 38.4189 31.6296C37.8264 31.7694 37.2041 31.7048 36.653 31.4464C36.1018 31.1881 35.6541 30.751 35.3826 30.2062C35.3294 30.1005 35.256 30.0064 35.1664 29.9291C35.0768 29.8518 34.9729 29.793 34.8606 29.7559C34.7483 29.7188 34.6297 29.7042 34.5118 29.7129C34.3938 29.7216 34.2787 29.7534 34.173 29.8066C34.0674 29.8598 33.9732 29.9332 33.896 30.0228C33.8187 30.1124 33.7598 30.2163 33.7227 30.3286C33.6856 30.4409 33.671 30.5595 33.6797 30.6774C33.6884 30.7954 33.7203 30.9105 33.7735 31.0162C34.2946 32.0671 35.2075 32.8713 36.3158 33.2558C37.424 33.6402 38.6389 33.5741 39.6989 33.0717C40.2593 33.5878 40.8891 34.0231 41.57 34.365C42.7724 34.9847 44.1063 35.3063 45.459 35.3027C46.8118 35.2991 48.1439 34.9704 49.3431 34.3443C48.6486 35.7386 47.6325 36.9478 46.3786 37.872C45.1247 38.7961 43.6689 39.4089 42.1315 39.6595C41.8958 39.6974 41.6848 39.8273 41.5449 40.0207C41.405 40.2141 41.3476 40.4552 41.3855 40.6909C41.4233 40.9266 41.5532 41.1376 41.7466 41.2776C41.94 41.4175 42.1811 41.4748 42.4168 41.437C43.0918 41.3263 43.7569 41.1553 44.4022 40.9267C46.9581 43.6131 47.5359 48.5423 47.6628 50.6024H44.899C44.6416 49.2281 43.549 45.8676 38.9834 44.3457C34.3422 42.7987 33.4513 41.3938 33.3208 38.864H33.3694C34.3874 38.7939 35.394 38.6079 36.3699 38.3096C36.5981 38.2395 36.7891 38.0817 36.9009 37.8708C37.0127 37.6599 37.0362 37.4132 36.9661 37.1851C36.8961 36.9569 36.7382 36.7659 36.5273 36.654C36.3165 36.5422 36.0698 36.5188 35.8416 36.5888C34.9911 36.8489 34.1136 37.01 33.2254 37.0694C31.5046 37.2036 29.776 36.9432 28.1711 36.308C27.9976 36.242 27.8081 36.2307 27.628 36.2754C27.4478 36.3201 27.2856 36.4188 27.1631 36.5582C26.389 37.4573 25.3914 38.1363 24.271 38.5266C23.1506 38.9169 21.947 39.0047 20.7818 38.7813C19.6166 38.5578 18.531 38.0309 17.6345 37.2538C16.738 36.4766 16.0624 35.4768 15.6758 34.3551V34.3497C15.3514 33.4195 15.2357 32.4293 15.3371 31.4493C15.4386 30.4694 15.7545 29.5239 16.2626 28.6798C16.3856 28.4753 16.4224 28.2302 16.3647 27.9986C16.3071 27.7669 16.1598 27.5676 15.9553 27.4446C15.7507 27.3216 15.5056 27.2848 15.274 27.3424C15.0423 27.4001 14.8431 27.5474 14.72 27.7519C14.3212 28.4164 14.0151 29.1322 13.8102 29.8795C13.4309 29.9299 13.0453 29.8979 12.6795 29.7857C12.3137 29.6735 11.9765 29.4837 11.6907 29.2293C11.405 28.9749 11.1775 28.6619 11.0237 28.3116C10.87 27.9613 10.7936 27.5819 10.7997 27.1994V27.1634C10.7994 27.0461 10.7758 26.9301 10.7302 26.8221C10.6846 26.714 10.618 26.6161 10.5343 26.5341C10.4505 26.452 10.3513 26.3874 10.2424 26.344C10.1335 26.3006 10.017 26.2794 9.89976 26.2814C9.65928 26.2856 9.43012 26.3843 9.26174 26.556C9.09336 26.7278 8.99927 26.9588 8.99978 27.1994C9.00121 28.3924 9.47577 29.5361 10.3193 30.3797C11.1629 31.2233 12.3067 31.6978 13.4997 31.6992H13.5303C13.5222 31.8504 13.4997 31.9998 13.4997 32.1492C13.5016 32.7962 13.5774 33.4409 13.7256 34.0707C12.3241 34.45 10.8541 34.5015 9.42958 34.2212C8.00502 33.9409 6.66415 33.3363 5.51091 32.4542C4.35768 31.5722 3.42307 30.4364 2.77953 29.1349C2.13599 27.8335 1.8008 26.4013 1.79997 24.9494C1.79727 23.4115 2.17442 21.8967 2.89794 20.5395C3.31146 21.0979 3.82917 21.571 4.4225 21.9327C4.52385 21.9935 4.63617 22.0337 4.75308 22.0511C4.86998 22.0685 4.98916 22.0627 5.10382 22.0341C5.21848 22.0054 5.32637 21.9544 5.42133 21.8841C5.51629 21.8137 5.59646 21.7253 5.65727 21.624C5.71808 21.5227 5.75833 21.4103 5.77572 21.2934C5.79312 21.1765 5.78732 21.0573 5.75865 20.9427C5.72999 20.828 5.67902 20.7201 5.60866 20.6252C5.5383 20.5302 5.44992 20.45 5.34858 20.3892C4.67223 19.9848 4.14729 19.3696 3.8543 18.638C3.56132 17.9065 3.51647 17.099 3.72666 16.3395C3.93684 15.58 4.39044 14.9104 5.01784 14.4336C5.64524 13.9567 6.41178 13.6989 7.19983 13.6997C7.75982 13.6976 8.31241 13.8276 8.81278 14.079C9.31316 14.3305 9.74722 14.6963 10.0798 15.1469C10.223 15.3378 10.4362 15.4641 10.6725 15.4978C10.9088 15.5316 11.1488 15.4701 11.3397 15.3269C11.5307 15.1836 11.6569 14.9704 11.6907 14.7342C11.7244 14.4979 11.6629 14.2578 11.5197 14.0669C11.0228 13.3948 10.3751 12.8486 9.62875 12.4723C8.88241 12.0959 8.0582 11.8998 7.22233 11.8997C7.33575 10.6708 7.90371 9.52837 8.81505 8.69609C9.72639 7.86382 10.9155 7.40159 12.1497 7.39986C12.5844 7.40256 13.0173 7.46286 13.4367 7.57986C13.2198 8.05325 13.0425 8.54283 12.9057 9.04592C12.8758 9.16033 12.8687 9.2795 12.8849 9.39664C12.901 9.51378 12.9401 9.62659 12.9998 9.72863C13.0596 9.83067 13.1389 9.91994 13.2331 9.99134C13.3274 10.0627 13.4348 10.1149 13.5492 10.1448C13.7802 10.2052 14.0258 10.1713 14.2319 10.0506C14.3339 9.99088 14.4232 9.91162 14.4946 9.81736C14.566 9.72311 14.6181 9.61571 14.648 9.50131C14.8262 8.81553 15.098 8.15854 15.458 7.54836C16.1411 6.40897 17.1067 5.46524 18.2615 4.80855C19.4163 4.15186 20.721 3.80444 22.0495 3.79995C23.6644 3.79901 25.238 4.31112 26.543 5.26242C26.2501 5.93691 26.099 6.66449 26.0993 7.39986C26.0993 7.63855 26.1942 7.86746 26.3629 8.03624C26.5317 8.20502 26.7606 8.29984 26.9993 8.29984C27.238 8.29984 27.4669 8.20502 27.6357 8.03624C27.8045 7.86746 27.8993 7.63855 27.8993 7.39986C27.8993 6.44511 28.2786 5.52946 28.9537 4.85434C29.6288 4.17923 30.5445 3.79995 31.4992 3.79995C32.454 3.79995 33.3696 4.17923 34.0447 4.85434C34.7198 5.52946 35.0991 6.44511 35.0991 7.39986C35.0991 7.63855 35.1939 7.86746 35.3627 8.03624C35.5315 8.20502 35.7604 8.29984 35.9991 8.29984C36.2378 8.29984 36.4667 8.20502 36.6355 8.03624C36.8043 7.86746 36.8991 7.63855 36.8991 7.39986C36.8975 7.09812 36.8704 6.79705 36.8181 6.49989H36.8991C41.7049 6.52508 45.8088 9.9792 46.6521 14.7113C45.8572 14.864 45.1073 15.1951 44.4589 15.6797C44.2679 15.8229 44.1417 16.0361 44.1079 16.2724C44.0742 16.5086 44.1357 16.7487 44.2789 16.9396C44.4221 17.1306 44.6353 17.2568 44.8716 17.2906C45.1079 17.3243 45.3479 17.2628 45.5388 17.1196C46.2002 16.623 47.0123 16.3692 47.8387 16.4009C48.6652 16.4326 49.4555 16.7479 50.0768 17.2938C50.6981 17.8397 51.1124 18.5829 51.2502 19.3983C51.388 20.2138 51.2408 21.0519 50.8334 21.7716C50.4596 22.4228 49.8938 22.9426 49.2135 23.2602C49.1064 23.3103 49.0102 23.381 48.9305 23.4683C48.8507 23.5555 48.7889 23.6577 48.7487 23.7688C48.7084 23.88 48.6904 23.9979 48.6957 24.116C48.701 24.2342 48.7296 24.35 48.7797 24.4571C48.8298 24.5642 48.9005 24.6604 48.9878 24.7401C49.075 24.8199 49.1772 24.8816 49.2883 24.9219C49.3995 24.9622 49.5175 24.9802 49.6356 24.9749C49.7537 24.9696 49.8696 24.941 49.9766 24.8909C50.5462 24.6191 51.064 24.25 51.5066 23.8001C52.0982 25.0055 52.3147 26.3606 52.1282 27.6903C51.9416 29.02 51.3605 30.2632 50.4599 31.2592L50.4653 31.2601Z" fill="#EB7124"/>
<path d="M32.3997 19.1015H28.7998V11.0017C28.7998 10.8109 28.7393 10.6251 28.6269 10.4711C28.5144 10.317 28.356 10.2026 28.1743 10.1445C27.9927 10.0863 27.7973 10.0873 27.6163 10.1474C27.4353 10.2075 27.278 10.3235 27.1673 10.4788L18.1675 23.0785C18.0714 23.213 18.0143 23.3715 18.0023 23.5364C17.9904 23.7013 18.0241 23.8663 18.0998 24.0133C18.1755 24.1603 18.2902 24.2836 18.4314 24.3697C18.5726 24.4558 18.7347 24.5013 18.9001 24.5013H22.5V32.6011C22.4999 32.7918 22.5605 32.9776 22.6729 33.1317C22.7853 33.2858 22.9438 33.4001 23.1254 33.4583C23.3071 33.5165 23.5025 33.5155 23.6835 33.4554C23.8645 33.3953 24.0217 33.2792 24.1325 33.124L33.1323 20.5243C33.2284 20.3897 33.2855 20.2313 33.2974 20.0664C33.3094 19.9015 33.2756 19.7365 33.2 19.5895C33.1243 19.4425 33.0095 19.3191 32.8684 19.2331C32.7272 19.147 32.5651 19.1014 32.3997 19.1015ZM24.2999 29.7923V23.6013C24.2999 23.3627 24.2051 23.1337 24.0363 22.965C23.8676 22.7962 23.6386 22.7014 23.3999 22.7014H20.6487L26.9999 13.8105V20.0014C26.9999 20.2401 27.0947 20.469 27.2635 20.6378C27.4322 20.8066 27.6611 20.9014 27.8998 20.9014H30.6511L24.2999 29.7923Z" fill="#EB7124"/>
</svg>
