<svg width="54" height="54" viewBox="0 0 54 54" fill="none" xmlns="http://www.w3.org/2000/svg">
<g clip-path="url(#clip0_7150_42207)">
<mask id="mask0_7150_42207" style="mask-type:luminance" maskUnits="userSpaceOnUse" x="0" y="0" width="54" height="54">
<path d="M54 0H0V54H54V0Z" fill="white"/>
</mask>
<g mask="url(#mask0_7150_42207)">
<mask id="mask1_7150_42207" style="mask-type:luminance" maskUnits="userSpaceOnUse" x="0" y="0" width="54" height="54">
<path d="M0 0.000160217H53.9998V54H0V0.000160217Z" fill="white"/>
</mask>
<g mask="url(#mask1_7150_42207)">
<path d="M43.8731 27.3105C44.0939 27.2834 44.3173 27.2698 44.5456 27.2698C47.5441 27.2698 49.9738 29.6994 49.9738 32.6968C49.9738 35.6952 47.5441 38.125 44.5456 38.125C44.1655 38.125 43.7954 38.0867 43.4375 38.0114" stroke="#EB7124" stroke-width="1.3" stroke-miterlimit="10" stroke-linecap="round" stroke-linejoin="round"/>
<path d="M10.7434 38.0114C10.379 38.0876 10.0076 38.1256 9.63528 38.125C6.63671 38.125 4.20703 35.6953 4.20703 32.6967C4.20703 29.6994 6.63671 27.2698 9.63528 27.2698C9.86362 27.2698 10.0869 27.2834 10.3079 27.3105" stroke="#EB7124" stroke-width="1.3" stroke-miterlimit="10" stroke-linecap="round" stroke-linejoin="round"/>
<path d="M31.8661 42.7031C29.3477 40.1847 25.2645 40.1847 22.7461 42.7031" stroke="#EB7124" stroke-width="1.3" stroke-miterlimit="10" stroke-linecap="round" stroke-linejoin="round"/>
<path d="M43.8711 31.6176C43.8711 31.6176 46.1896 30.9595 47.0123 32.8516" stroke="#EB7124" stroke-width="1.3" stroke-miterlimit="10" stroke-linecap="round" stroke-linejoin="round"/>
<path d="M10.7427 31.6176C10.7427 31.6176 8.42422 30.9595 7.60156 32.8516" stroke="#EB7124" stroke-width="1.3" stroke-miterlimit="10" stroke-linecap="round" stroke-linejoin="round"/>
<path d="M43.873 27.3125C24.2616 27.2878 17.7425 19.2671 17.7425 19.2671C17.7425 22.5988 14.4108 26.1143 10.7422 27.3125" stroke="#EB7124" stroke-width="1.3" stroke-miterlimit="10" stroke-linecap="round" stroke-linejoin="round"/>
<path d="M16.5312 12.2812C19.4279 9.79747 23.1924 8.29686 27.3074 8.29686C28.3834 8.29686 29.4359 8.39927 30.454 8.59544C32.0904 8.90958 33.6694 9.47088 35.1369 10.2601" stroke="#EB7124" stroke-width="1.3" stroke-miterlimit="10" stroke-linecap="round" stroke-linejoin="round"/>
<path d="M41.2141 45.1504C38.8065 48.8608 34.954 51.5471 30.4536 52.4124C29.4166 52.6116 28.3629 52.7116 27.307 52.7109C18.1583 52.7109 10.7422 45.2948 10.7422 36.1462V24.8653C10.7422 21.09 12.0051 17.6096 14.1314 14.8235" stroke="#EB7124" stroke-width="1.3" stroke-miterlimit="10" stroke-linecap="round" stroke-linejoin="round"/>
<path d="M42.9018 19.2661C43.5299 21.0147 43.8729 22.9001 43.8729 24.8647V36.1455C43.8729 38.3758 43.4321 40.5032 42.6328 42.4453" stroke="#EB7124" stroke-width="1.3" stroke-miterlimit="10" stroke-linecap="round" stroke-linejoin="round"/>
<path d="M18.7266 35.7812L22.9075 34.4947L20.0934 31.6807" stroke="#EB7124" stroke-width="1.3" stroke-miterlimit="10" stroke-linecap="round" stroke-linejoin="round"/>
<path d="M35.7747 35.7812L31.5938 34.4947L34.408 31.6807" stroke="#EB7124" stroke-width="1.3" stroke-miterlimit="10" stroke-linecap="round" stroke-linejoin="round"/>
<path d="M39.2097 1.89212L33.4732 13.6761C33.1005 14.4418 33.6581 15.3335 34.5097 15.3335H38.1862L35.4715 22.5379C35.0643 23.6186 36.3445 24.5454 37.244 23.821L49.5616 13.9015C50.4316 13.2009 49.9362 11.7958 48.8192 11.7958H44.7792L49.5789 3.33324C50.1641 2.30134 49.4188 1.02179 48.2325 1.02179H40.6014C40.3111 1.02181 40.0268 1.10342 39.7807 1.25731C39.5346 1.41121 39.3368 1.63118 39.2097 1.89212Z" stroke="#EB7124" stroke-width="1.3" stroke-miterlimit="10" stroke-linecap="round" stroke-linejoin="round"/>
<path d="M5.10938 3.78977L9.55951 10.3828L5.37853 11.3476L8.59469 16.1719" stroke="#EB7124" stroke-width="1.3" stroke-miterlimit="10" stroke-linecap="round" stroke-linejoin="round"/>
<path d="M14.8576 1.75698L16.4904 5.49394L13.2578 5.63959L14.9856 9.65625" stroke="#EB7124" stroke-width="1.3" stroke-miterlimit="10" stroke-linecap="round" stroke-linejoin="round"/>
</g>
</g>
</g>
<defs>
<clipPath id="clip0_7150_42207">
<rect width="54" height="54" fill="white"/>
</clipPath>
</defs>
</svg>
