<svg width="40" height="40" viewBox="0 0 40 40" fill="none" xmlns="http://www.w3.org/2000/svg">
<rect width="40" height="40" rx="20" fill="url(#paint0_linear_2566_4304)"/>
<path d="M7.31641 18.5921C7.83387 19.2675 8.79389 19.3789 9.45278 18.8718L20 10.4448L30.5471 18.8729C31.1954 19.3716 32.1571 19.2765 32.6835 18.5939C33.1953 17.9305 33.0752 16.9737 32.4045 16.4576L20.9291 7.3154C20.6613 7.10933 20.3392 7 20 7C19.6601 7 19.3394 7.10862 19.0709 7.3154L7.59611 16.4565C6.92123 16.9748 6.80723 17.9335 7.31641 18.5921ZM29.1914 8.52344H27.668C27.2473 8.52344 26.9062 8.86448 26.9062 9.28516V10.1068L29.9531 12.5449V9.28516C29.9531 8.86448 29.612 8.52344 29.1914 8.52344Z" fill="white"/>
<path d="M29.9531 29.1408V20.2594C29.8431 20.1953 29.7189 20.1583 29.6177 20.0803L20 12.3984L10.4062 20.0603C10.2953 20.1456 10.1653 20.1854 10.0469 20.2544V29.1408C10.0469 29.5615 10.3879 29.9025 10.8086 29.9025H13.0285C12.6181 28.9678 12.3828 27.94 12.3828 26.8557C12.3828 22.6558 15.8001 19.1877 20 19.1877C24.1999 19.1877 27.668 22.6558 27.668 26.8557C27.668 27.94 27.4327 28.9678 27.0223 29.9025H29.1914C29.612 29.9025 29.9531 29.5615 29.9531 29.1408Z" fill="white"/>
<path d="M26.1445 26.8555C26.1445 23.4899 23.3655 20.7109 20 20.7109C16.6345 20.7109 13.9062 23.4899 13.9062 26.8555C13.9062 30.221 16.6345 33 20 33C23.3655 33 26.1445 30.221 26.1445 26.8555Z" fill="white"/>
<path d="M20.5989 24.2414C20.7472 24.2411 20.8941 24.2702 21.0311 24.3271C21.1681 24.384 21.2925 24.4677 21.3971 24.5732L22.039 25.2176C22.0948 25.2736 22.1705 25.3051 22.2494 25.3051C22.3283 25.3051 22.404 25.2736 22.4598 25.2176L22.9129 24.7626C22.9687 24.7066 23 24.6306 23 24.5514C23 24.4722 22.9687 24.3963 22.9129 24.3402L22.271 23.6958C21.3482 22.7687 19.8517 22.7679 18.9281 23.6944C18.7083 23.915 18.5339 24.1769 18.415 24.4652C18.2961 24.7535 18.235 25.0625 18.2352 25.3746V26.7216H17.3086C17.2681 26.7216 17.2279 26.7296 17.1905 26.7452C17.1531 26.7607 17.119 26.7836 17.0904 26.8123C17.0617 26.8411 17.039 26.8753 17.0235 26.9129C17.008 26.9505 17 26.9908 17 27.0315V27.6519C17 27.6926 17.008 27.7329 17.0235 27.7705C17.039 27.8081 17.0617 27.8422 17.0904 27.871C17.119 27.8998 17.1531 27.9226 17.1905 27.9382C17.2279 27.9537 17.2681 27.9618 17.3086 27.9617H18.2352V28.8918C18.2352 29.4915 17.8112 29.9918 17.2477 30.107C17.1055 30.1361 17 30.2558 17 30.4015V31.0733C17 31.1126 17.0077 31.1514 17.0226 31.1877C17.0376 31.2239 17.0595 31.2568 17.0872 31.2846C17.1148 31.3123 17.1476 31.3343 17.1837 31.3494C17.2198 31.3644 17.2585 31.3721 17.2976 31.3721H22.5694C22.6484 31.3721 22.724 31.3406 22.7798 31.2846C22.8356 31.2286 22.867 31.1526 22.867 31.0733V30.4307C22.867 30.3515 22.8356 30.2755 22.7798 30.2195C22.724 30.1634 22.6484 30.132 22.5694 30.132H19.1369C19.3554 29.7555 19.4705 29.3276 19.4704 28.8918V27.9617H21.0255C21.1044 27.9617 21.1801 27.9303 21.2359 27.8742C21.2917 27.8182 21.323 27.7422 21.323 27.663V27.0204C21.323 26.9811 21.3154 26.9423 21.3004 26.906C21.2854 26.8698 21.2635 26.8369 21.2359 26.8091C21.2083 26.7814 21.1755 26.7594 21.1394 26.7444C21.1033 26.7293 21.0646 26.7216 21.0255 26.7216H19.4703V25.3746C19.4712 24.7491 19.9759 24.2422 20.5989 24.2414Z" fill="url(#paint1_linear_2566_4304)"/>
<defs>
<linearGradient id="paint0_linear_2566_4304" x1="0" y1="20" x2="40" y2="20" gradientUnits="userSpaceOnUse">
<stop stop-color="#FF6E00"/>
<stop offset="1" stop-color="#FC4B00"/>
</linearGradient>
<linearGradient id="paint1_linear_2566_4304" x1="20" y1="23" x2="20" y2="31.3721" gradientUnits="userSpaceOnUse">
<stop stop-color="#FF6E00"/>
<stop offset="1" stop-color="#FC4B00"/>
</linearGradient>
</defs>
</svg>
