<svg width="48" height="48" viewBox="0 0 48 48" fill="none" xmlns="http://www.w3.org/2000/svg">
<path d="M32 42V38C32 35.8783 31.1571 33.8434 29.6569 32.3431C28.1566 30.8429 26.1217 30 24 30H12C9.87827 30 7.84344 30.8429 6.34315 32.3431C4.84285 33.8434 4 35.8783 4 38V42" stroke="#00114D" stroke-width="4" stroke-linecap="round" stroke-linejoin="round"/>
<path d="M18 22C22.4183 22 26 18.4183 26 14C26 9.58172 22.4183 6 18 6C13.5817 6 10 9.58172 10 14C10 18.4183 13.5817 22 18 22Z" stroke="#00114D" stroke-width="4" stroke-linecap="round" stroke-linejoin="round"/>
<path d="M44 41.9978V37.9978C43.9987 36.2253 43.4087 34.5034 42.3227 33.1024C41.2368 31.7015 39.7163 30.7009 38 30.2578" stroke="#00114D" stroke-width="4" stroke-linecap="round" stroke-linejoin="round"/>
<path d="M32 6.25781C33.7208 6.69841 35.2461 7.69921 36.3353 9.10243C37.4245 10.5057 38.0157 12.2315 38.0157 14.0078C38.0157 15.7842 37.4245 17.51 36.3353 18.9132C35.2461 20.3164 33.7208 21.3172 32 21.7578" stroke="#00114D" stroke-width="4" stroke-linecap="round" stroke-linejoin="round"/>
</svg>
