<svg width="48" height="48" viewBox="0 0 48 48" fill="none" xmlns="http://www.w3.org/2000/svg">
<path fill-rule="evenodd" clip-rule="evenodd" d="M24.1755 4C18.7357 4 14.3182 8.41747 14.3182 13.8573C14.3182 19.2971 18.7357 23.7146 24.1755 23.7146C29.6167 23.7146 34.0328 19.2971 34.0328 13.8573C34.0328 8.41747 29.6167 4 24.1755 4ZM24.1755 6.81637C28.0621 6.81637 31.2164 9.9707 31.2164 13.8573C31.2164 17.7439 28.0621 20.8982 24.1755 20.8982C20.2903 20.8982 17.1346 17.7439 17.1346 13.8573C17.1346 9.9707 20.2903 6.81637 24.1755 6.81637ZM7.2773 40.6128H23.0236C23.3971 40.6128 23.7553 40.7611 24.0193 41.0252C24.2834 41.2893 24.4318 41.6475 24.4318 42.0209C24.4318 42.3944 24.2834 42.7526 24.0193 43.0167C23.7553 43.2808 23.3971 43.4291 23.0236 43.4291H5.86912C5.49565 43.4291 5.13747 43.2808 4.87338 43.0167C4.6093 42.7526 4.46094 42.3944 4.46094 42.0209V39.2046C4.46094 35.8433 5.79619 32.6197 8.17296 30.243C10.5497 27.8662 13.7733 26.5309 17.1346 26.5309H23.0236C23.3971 26.5309 23.7553 26.6793 24.0193 26.9434C24.2834 27.2075 24.4318 27.5656 24.4318 27.9391C24.4318 28.3126 24.2834 28.6708 24.0193 28.9349C23.7553 29.1989 23.3971 29.3473 23.0236 29.3473H17.1346C14.5203 29.3473 12.013 30.3858 10.1644 32.2344C8.31584 34.083 7.2773 36.5903 7.2773 39.2046V40.6128ZM35.7663 41.4746L32.3965 43.7572C32.1847 43.9007 31.9379 43.9839 31.6824 43.9977C31.427 44.0114 31.1726 43.9554 30.9466 43.8355C30.7206 43.7157 30.5316 43.5365 30.3997 43.3173C30.2679 43.0981 30.1983 42.8471 30.1983 42.5913V33.1071C30.1982 32.8214 30.285 32.5425 30.4472 32.3073C30.6094 32.0721 30.8393 31.8918 31.1064 31.7903C31.3735 31.6889 31.6651 31.671 31.9426 31.7392C32.22 31.8074 32.4702 31.9584 32.6598 32.1721C33.0491 32.6124 33.5275 32.9649 34.0632 33.2063C34.599 33.4478 35.18 33.5727 35.7677 33.5727C36.3553 33.5727 36.9363 33.4478 37.4721 33.2063C38.0079 32.9649 38.4863 32.6124 38.8755 32.1721C39.0652 31.9584 39.3153 31.8074 39.5927 31.7392C39.8702 31.671 40.1618 31.6889 40.4289 31.7903C40.696 31.8918 40.9259 32.0721 41.0881 32.3073C41.2503 32.5425 41.3371 32.8214 41.337 33.1071V42.5913C41.3374 42.847 41.268 43.0981 41.1363 43.3174C41.0047 43.5367 40.8157 43.7159 40.5898 43.8358C40.3639 43.9557 40.1095 44.0118 39.8541 43.9979C39.5987 43.9841 39.3519 43.9009 39.1403 43.7572L35.7663 41.4746ZM33.0147 35.8221V39.9368L34.9777 38.6089C35.2105 38.451 35.4854 38.3665 35.7667 38.3662C36.0481 38.366 36.3231 38.45 36.5563 38.6075L38.5207 39.9382V35.8221C37.6772 36.1868 36.7449 36.3882 35.7677 36.3882C34.7904 36.3882 33.8596 36.1868 33.0147 35.8221Z" fill="#00114D"/>
<path fill-rule="evenodd" clip-rule="evenodd" d="M35.766 22.4453C33.918 22.4464 32.146 23.181 30.8393 24.4878C29.5326 25.7945 28.798 27.5664 28.7969 29.4144C28.7976 31.2626 29.5321 33.035 30.8388 34.342C32.1456 35.649 33.9178 36.3838 35.766 36.3849C37.6144 36.3842 39.387 35.6495 40.694 34.3425C42.0011 33.0354 42.7357 31.2629 42.7365 29.4144C42.7354 27.5662 42.0006 25.794 40.6935 24.4873C39.3865 23.1805 37.6142 22.4461 35.766 22.4453ZM35.766 25.2617C36.8543 25.2817 37.8913 25.7281 38.6538 26.5049C39.4164 27.2816 39.8436 28.3266 39.8436 29.4151C39.8436 30.5036 39.4164 31.5486 38.6538 32.3254C37.8913 33.1021 36.8543 33.5485 35.766 33.5686C34.6777 33.5485 33.6407 33.1021 32.8781 32.3254C32.1155 31.5486 31.6883 30.5036 31.6883 29.4151C31.6883 28.3266 32.1155 27.2816 32.8781 26.5049C33.6407 25.7281 34.6777 25.2817 35.766 25.2617Z" fill="#00114D"/>
</svg>
