<svg width="48" height="48" viewBox="0 0 48 48" fill="none" xmlns="http://www.w3.org/2000/svg">
<path d="M24.3382 35.6784C33.3616 35.6784 40.6765 28.3631 40.6765 19.3392C40.6765 10.3153 33.3616 3 24.3382 3C15.3149 3 8 10.3153 8 19.3392C8 28.3631 15.3149 35.6784 24.3382 35.6784Z" stroke="#00114D" stroke-width="3" stroke-miterlimit="10"/>
<path d="M12.5781 30.6729V39.7693C14.4993 39.7693 16.2811 39.1784 17.7522 38.1685M36.1052 30.6729V39.7693C34.184 39.7693 32.4022 39.1784 30.9312 38.1685M17.8064 34.3133V44.9978C20.368 44.9978 22.6816 43.9473 24.3417 42.2537C26.0017 43.9473 28.3153 44.9978 30.877 44.9978V34.3128M29.2355 20.9245L33.5604 16.3388L27.3662 15.1711L24.3417 9.64062L21.3171 15.1711L15.123 16.3388L19.4479 20.9245L18.6442 27.1767L24.3417 24.4804L30.0391 27.1767L29.2355 20.9245Z" stroke="#00114D" stroke-width="3" stroke-miterlimit="10"/>
</svg>
