<svg width="20" height="20" viewBox="0 0 20 20" fill="none" xmlns="http://www.w3.org/2000/svg">
<path d="M16.6693 10.8311C16.6693 14.9978 13.7526 17.0811 10.2859 18.2894C10.1044 18.351 9.90722 18.348 9.7276 18.2811C6.2526 17.0811 3.33594 14.9978 3.33594 10.8311V4.99777C3.33594 4.77676 3.42374 4.5648 3.58002 4.40851C3.7363 4.25223 3.94826 4.16444 4.16927 4.16444C5.83594 4.16444 7.91927 3.16444 9.36927 1.89777C9.54582 1.74694 9.7704 1.66406 10.0026 1.66406C10.2348 1.66406 10.4594 1.74694 10.6359 1.89777C12.0943 3.17277 14.1693 4.16444 15.8359 4.16444C16.057 4.16444 16.2689 4.25223 16.4252 4.40851C16.5815 4.5648 16.6693 4.77676 16.6693 4.99777V10.8311Z" stroke="#21C45D" stroke-width="1.66667" stroke-linecap="round" stroke-linejoin="round"/>
</svg>
