<svg width="56" height="56" viewBox="0 0 56 56" fill="none" xmlns="http://www.w3.org/2000/svg">
<rect width="56" height="56" rx="12" fill="#EB7024" fill-opacity="0.1"/>
<path d="M47.0166 28.2066C46.5337 26.9924 47.7475 30.0826 44.139 20.8802C43.8388 20.0958 43.1536 19.5568 42.3967 19.4408C42.1031 19.3931 35.656 19.4136 35.7213 19.4136V18.0697C35.7213 16.378 34.4097 15 32.7914 15H15.3296C13.7112 15 12.3997 16.378 12.3997 18.0697V18.4108H9.65252C9.56675 18.4105 9.48176 18.4279 9.40246 18.4621C9.32316 18.4962 9.25111 18.5465 9.19046 18.6099C9.12981 18.6733 9.08176 18.7486 9.04907 18.8315C9.01638 18.9144 8.99971 19.0032 9 19.0929C9 19.4681 9.29362 19.7751 9.65252 19.7751H12.3997V21.2826H10.5399C10.181 21.2826 9.88741 21.5895 9.88741 21.9647C9.88741 22.3399 10.181 22.6469 10.5399 22.6469H12.3997V24.3318H11.4731C11.3873 24.3315 11.3023 24.3489 11.223 24.3831C11.1437 24.4173 11.0717 24.4675 11.011 24.5309C10.9504 24.5943 10.9023 24.6696 10.8697 24.7525C10.837 24.8354 10.8203 24.9243 10.8206 25.0139C10.8206 25.3891 11.1142 25.6961 11.4731 25.6961H12.3997V27.4697H10.0962C10.0105 27.4694 9.92547 27.4868 9.84617 27.521C9.76686 27.5551 9.69481 27.6054 9.63416 27.6688C9.57351 27.7322 9.52546 27.8075 9.49277 27.8904C9.46009 27.9733 9.44341 28.0621 9.44371 28.1518C9.44371 28.527 9.73732 28.834 10.0962 28.834H12.3997V35.0825C12.3997 36.4264 13.4503 37.5246 14.7358 37.5246H16.713C17.0197 39.4483 18.625 40.9149 20.5499 40.9149C22.4749 40.9149 24.0736 39.4482 24.3869 37.5246H34.4751C34.7883 39.4483 36.387 40.9149 38.312 40.9149C40.2436 40.9149 41.8422 39.4482 42.1554 37.5246H44.7199C46.0119 37.5246 47.0625 36.4264 47.0625 35.0825V28.4656C47.0623 28.3771 47.0427 28.2885 47.0166 28.2066ZM38.873 20.7779H42.0573C42.4358 20.7779 42.7882 21.0235 42.9252 21.3918L44.9285 26.4808H40.1976C39.4668 26.4808 38.873 25.86 38.873 25.096V20.7779ZM13.7047 28.8342H14.2985C14.3843 28.8345 14.4693 28.8171 14.5486 28.7829C14.6279 28.7488 14.7 28.6985 14.7606 28.6351C14.8213 28.5717 14.8693 28.4964 14.902 28.4135C14.9347 28.3306 14.9514 28.2418 14.9511 28.1521C14.9511 27.7701 14.6639 27.4699 14.2985 27.4699H13.7047V25.6964H15.6753C15.7611 25.6967 15.8461 25.6792 15.9254 25.6451C16.0047 25.6109 16.0767 25.5607 16.1374 25.4973C16.198 25.4338 16.2461 25.3585 16.2788 25.2756C16.3115 25.1927 16.3281 25.1039 16.3279 25.0142C16.3279 24.6323 16.0407 24.3321 15.6753 24.3321H13.7047V22.6471H14.7488C15.1077 22.6471 15.4013 22.3402 15.4013 21.965C15.4013 21.5898 15.1077 21.2829 14.7488 21.2829H13.7047V19.7753H13.8548C13.9406 19.7756 14.0256 19.7582 14.1049 19.724C14.1842 19.6899 14.2562 19.6396 14.3169 19.5762C14.3775 19.5128 14.4256 19.4375 14.4583 19.3546C14.491 19.2717 14.5077 19.1829 14.5074 19.0932C14.5074 18.7112 14.2202 18.411 13.8548 18.411H13.7047V18.07C13.7047 17.1286 14.429 16.3645 15.3296 16.3645H32.7914C33.6854 16.3645 34.4163 17.1286 34.4163 18.07V30.0896H13.7047V28.8342ZM45.7573 35.0828C45.7573 35.6763 45.294 36.1606 44.7197 36.1606H42.1552C41.842 34.2369 40.2368 32.7702 38.3118 32.7702C36.3868 32.7702 34.7882 34.2369 34.4749 36.1606H24.3868C24.0736 34.2369 22.4749 32.7702 20.5499 32.7702C18.6249 32.7702 17.0261 34.2369 16.7129 36.1606H14.7357C14.168 36.1606 13.7047 35.6763 13.7047 35.0828V31.4537H35.0688C35.4277 31.4537 35.7213 31.1468 35.7213 30.7716V20.7779H37.5679V25.096C37.5679 26.6104 38.7491 27.8451 40.1977 27.8451H45.4637L45.7573 28.6023V35.0828Z" fill="#EB7124" stroke="#EB7124" stroke-width="0.543867"/>
<path d="M31.1756 21.9986L29.3093 20.3683V18.4582C29.3093 18.0762 29.0157 17.7761 28.6568 17.7761C28.2979 17.7761 28.0043 18.0762 28.0043 18.4582V19.2291L26.5165 17.933C26.3974 17.8277 26.2459 17.771 26.0899 17.7735C25.934 17.776 25.7841 17.8375 25.6682 17.9466L21.3224 21.9917L21.2962 22.0122C21.0287 22.2647 21.0026 22.6944 21.244 22.9741C21.4855 23.2537 21.8966 23.281 22.1641 23.0354L22.3338 22.8717V28.3495C22.3338 28.7246 22.6274 29.0316 22.9863 29.0316H29.4659C29.8248 29.0316 30.112 28.7246 30.1185 28.3495L30.1445 22.8785L30.3403 23.0491C30.4559 23.1494 30.6011 23.2048 30.7514 23.206C30.9407 23.206 31.1299 23.1241 31.2604 22.9603C31.4887 22.6739 31.4496 22.2442 31.1756 21.9986ZM28.8133 27.6673H27.8998V25.0683C27.9001 24.9787 27.8834 24.8898 27.8507 24.8069C27.818 24.724 27.77 24.6487 27.7093 24.5853C27.6487 24.5219 27.5766 24.4716 27.4973 24.4375C27.418 24.4033 27.333 24.3859 27.2473 24.3862H25.2375C24.8786 24.3862 24.5849 24.6931 24.5849 25.0683V27.6673H23.6387V21.6575L26.1118 19.3587L28.846 21.7463L28.8133 27.6673Z" fill="#EB7124" stroke="#EB7124" stroke-width="0.543867"/>
</svg>
