<svg width="262" height="38" viewBox="0 0 262 38" fill="none" xmlns="http://www.w3.org/2000/svg">
<rect width="261.25" height="38" rx="19" fill="#00114D" fill-opacity="0.1"/>
<rect x="0.5" y="0.5" width="260.25" height="37" rx="18.5" stroke="#00114D" stroke-opacity="0.2"/>
<path d="M24.6793 12.5325C24.7085 12.4735 24.7537 12.4238 24.8096 12.3891C24.8656 12.3543 24.9301 12.3359 24.996 12.3359C25.0619 12.3359 25.1264 12.3543 25.1824 12.3891C25.2383 12.4238 25.2834 12.4735 25.3127 12.5325L26.8527 15.6519C26.9541 15.8572 27.1039 16.0348 27.2891 16.1695C27.4743 16.3042 27.6894 16.3919 27.916 16.4252L31.36 16.9292C31.4252 16.9387 31.4866 16.9662 31.537 17.0087C31.5874 17.0512 31.6249 17.1069 31.6453 17.1696C31.6657 17.2323 31.6682 17.2995 31.6524 17.3635C31.6366 17.4275 31.6032 17.4858 31.556 17.5319L29.0653 19.9572C28.9011 20.1173 28.7782 20.3149 28.7072 20.533C28.6363 20.7511 28.6194 20.9831 28.658 21.2092L29.246 24.6359C29.2575 24.7011 29.2505 24.7682 29.2257 24.8297C29.2008 24.8911 29.1593 24.9443 29.1057 24.9832C29.0521 25.0221 28.9886 25.0452 28.9226 25.0498C28.8565 25.0544 28.7905 25.0403 28.732 25.0092L25.6533 23.3905C25.4505 23.284 25.2248 23.2284 24.9957 23.2284C24.7665 23.2284 24.5408 23.284 24.338 23.3905L21.26 25.0092C21.2015 25.0401 21.1356 25.0541 21.0696 25.0494C21.0037 25.0447 20.9403 25.0216 20.8869 24.9827C20.8334 24.9438 20.7919 24.8907 20.7671 24.8293C20.7423 24.768 20.7352 24.701 20.7467 24.6359L21.334 21.2099C21.3728 20.9837 21.356 20.7515 21.285 20.5332C21.2141 20.315 21.0911 20.1173 20.9267 19.9572L18.436 17.5325C18.3884 17.4866 18.3547 17.4281 18.3386 17.3639C18.3226 17.2997 18.3249 17.2323 18.3454 17.1693C18.3658 17.1064 18.4035 17.0504 18.4542 17.0079C18.5048 16.9653 18.5665 16.9378 18.632 16.9285L22.0753 16.4252C22.3022 16.3922 22.5176 16.3046 22.703 16.1699C22.8885 16.0351 23.0385 15.8574 23.14 15.6519L24.6793 12.5325Z" fill="#EB7024" stroke="#EB7024" stroke-width="1.33333" stroke-linecap="round" stroke-linejoin="round"/>
<path d="M44.6793 12.5325C44.7085 12.4735 44.7537 12.4238 44.8096 12.3891C44.8656 12.3543 44.9301 12.3359 44.996 12.3359C45.0619 12.3359 45.1264 12.3543 45.1824 12.3891C45.2383 12.4238 45.2834 12.4735 45.3127 12.5325L46.8527 15.6519C46.9541 15.8572 47.1039 16.0348 47.2891 16.1695C47.4743 16.3042 47.6894 16.3919 47.916 16.4252L51.36 16.9292C51.4252 16.9387 51.4866 16.9662 51.537 17.0087C51.5874 17.0512 51.6249 17.1069 51.6453 17.1696C51.6657 17.2323 51.6682 17.2995 51.6524 17.3635C51.6366 17.4275 51.6032 17.4858 51.556 17.5319L49.0653 19.9572C48.9011 20.1173 48.7782 20.3149 48.7072 20.533C48.6363 20.7511 48.6194 20.9831 48.658 21.2092L49.246 24.6359C49.2575 24.7011 49.2505 24.7682 49.2257 24.8297C49.2008 24.8911 49.1593 24.9443 49.1057 24.9832C49.0521 25.0221 48.9886 25.0452 48.9226 25.0498C48.8565 25.0544 48.7905 25.0403 48.732 25.0092L45.6533 23.3905C45.4505 23.284 45.2248 23.2284 44.9957 23.2284C44.7665 23.2284 44.5408 23.284 44.338 23.3905L41.26 25.0092C41.2015 25.0401 41.1356 25.0541 41.0696 25.0494C41.0037 25.0447 40.9403 25.0216 40.8869 24.9827C40.8334 24.9438 40.7919 24.8907 40.7671 24.8293C40.7423 24.768 40.7352 24.701 40.7467 24.6359L41.334 21.2099C41.3728 20.9837 41.356 20.7515 41.285 20.5332C41.2141 20.315 41.0911 20.1173 40.9267 19.9572L38.436 17.5325C38.3884 17.4866 38.3547 17.4281 38.3386 17.3639C38.3226 17.2997 38.3249 17.2323 38.3454 17.1693C38.3658 17.1064 38.4035 17.0504 38.4542 17.0079C38.5048 16.9653 38.5665 16.9378 38.632 16.9285L42.0753 16.4252C42.3022 16.3922 42.5176 16.3046 42.703 16.1699C42.8885 16.0351 43.0385 15.8574 43.14 15.6519L44.6793 12.5325Z" fill="#EB7024" stroke="#EB7024" stroke-width="1.33333" stroke-linecap="round" stroke-linejoin="round"/>
<path d="M64.6793 12.5325C64.7085 12.4735 64.7537 12.4238 64.8096 12.3891C64.8656 12.3543 64.9301 12.3359 64.996 12.3359C65.0619 12.3359 65.1264 12.3543 65.1824 12.3891C65.2383 12.4238 65.2834 12.4735 65.3127 12.5325L66.8527 15.6519C66.9541 15.8572 67.1039 16.0348 67.2891 16.1695C67.4743 16.3042 67.6894 16.3919 67.916 16.4252L71.36 16.9292C71.4252 16.9387 71.4866 16.9662 71.537 17.0087C71.5874 17.0512 71.6249 17.1069 71.6453 17.1696C71.6657 17.2323 71.6682 17.2995 71.6524 17.3635C71.6366 17.4275 71.6032 17.4858 71.556 17.5319L69.0653 19.9572C68.9011 20.1173 68.7782 20.3149 68.7072 20.533C68.6363 20.7511 68.6194 20.9831 68.658 21.2092L69.246 24.6359C69.2575 24.7011 69.2505 24.7682 69.2257 24.8297C69.2008 24.8911 69.1593 24.9443 69.1057 24.9832C69.0521 25.0221 68.9886 25.0452 68.9226 25.0498C68.8565 25.0544 68.7905 25.0403 68.732 25.0092L65.6533 23.3905C65.4505 23.284 65.2248 23.2284 64.9957 23.2284C64.7665 23.2284 64.5408 23.284 64.338 23.3905L61.26 25.0092C61.2015 25.0401 61.1356 25.0541 61.0696 25.0494C61.0037 25.0447 60.9403 25.0216 60.8869 24.9827C60.8334 24.9438 60.7919 24.8907 60.7671 24.8293C60.7423 24.768 60.7352 24.701 60.7467 24.6359L61.334 21.2099C61.3728 20.9837 61.356 20.7515 61.285 20.5332C61.2141 20.315 61.0911 20.1173 60.9267 19.9572L58.436 17.5325C58.3884 17.4866 58.3547 17.4281 58.3386 17.3639C58.3226 17.2997 58.3249 17.2323 58.3454 17.1693C58.3658 17.1064 58.4035 17.0504 58.4542 17.0079C58.5048 16.9653 58.5665 16.9378 58.632 16.9285L62.0753 16.4252C62.3022 16.3922 62.5176 16.3046 62.703 16.1699C62.8885 16.0351 63.0385 15.8574 63.14 15.6519L64.6793 12.5325Z" fill="#EB7024" stroke="#EB7024" stroke-width="1.33333" stroke-linecap="round" stroke-linejoin="round"/>
<path d="M84.6793 12.5325C84.7085 12.4735 84.7537 12.4238 84.8096 12.3891C84.8656 12.3543 84.9301 12.3359 84.996 12.3359C85.0619 12.3359 85.1264 12.3543 85.1824 12.3891C85.2383 12.4238 85.2834 12.4735 85.3127 12.5325L86.8527 15.6519C86.9541 15.8572 87.1039 16.0348 87.2891 16.1695C87.4743 16.3042 87.6894 16.3919 87.916 16.4252L91.36 16.9292C91.4252 16.9387 91.4866 16.9662 91.537 17.0087C91.5874 17.0512 91.6249 17.1069 91.6453 17.1696C91.6657 17.2323 91.6682 17.2995 91.6524 17.3635C91.6366 17.4275 91.6032 17.4858 91.556 17.5319L89.0653 19.9572C88.9011 20.1173 88.7782 20.3149 88.7072 20.533C88.6363 20.7511 88.6194 20.9831 88.658 21.2092L89.246 24.6359C89.2575 24.7011 89.2505 24.7682 89.2257 24.8297C89.2008 24.8911 89.1593 24.9443 89.1057 24.9832C89.0521 25.0221 88.9886 25.0452 88.9226 25.0498C88.8565 25.0544 88.7905 25.0403 88.732 25.0092L85.6533 23.3905C85.4505 23.284 85.2248 23.2284 84.9957 23.2284C84.7665 23.2284 84.5408 23.284 84.338 23.3905L81.26 25.0092C81.2015 25.0401 81.1356 25.0541 81.0696 25.0494C81.0037 25.0447 80.9403 25.0216 80.8869 24.9827C80.8334 24.9438 80.7919 24.8907 80.7671 24.8293C80.7423 24.768 80.7352 24.701 80.7467 24.6359L81.334 21.2099C81.3728 20.9837 81.356 20.7515 81.285 20.5332C81.2141 20.315 81.0911 20.1173 80.9267 19.9572L78.436 17.5325C78.3884 17.4866 78.3547 17.4281 78.3386 17.3639C78.3226 17.2997 78.3249 17.2323 78.3454 17.1693C78.3658 17.1064 78.4035 17.0504 78.4542 17.0079C78.5048 16.9653 78.5665 16.9378 78.632 16.9285L82.0753 16.4252C82.3022 16.3922 82.5176 16.3046 82.703 16.1699C82.8885 16.0351 83.0385 15.8574 83.14 15.6519L84.6793 12.5325Z" fill="#EB7024" stroke="#EB7024" stroke-width="1.33333" stroke-linecap="round" stroke-linejoin="round"/>
<path d="M104.679 12.5325C104.709 12.4735 104.754 12.4238 104.81 12.3891C104.866 12.3543 104.93 12.3359 104.996 12.3359C105.062 12.3359 105.126 12.3543 105.182 12.3891C105.238 12.4238 105.283 12.4735 105.313 12.5325L106.853 15.6519C106.954 15.8572 107.104 16.0348 107.289 16.1695C107.474 16.3042 107.689 16.3919 107.916 16.4252L111.36 16.9292C111.425 16.9387 111.487 16.9662 111.537 17.0087C111.587 17.0512 111.625 17.1069 111.645 17.1696C111.666 17.2323 111.668 17.2995 111.652 17.3635C111.637 17.4275 111.603 17.4858 111.556 17.5319L109.065 19.9572C108.901 20.1173 108.778 20.3149 108.707 20.533C108.636 20.7511 108.619 20.9831 108.658 21.2092L109.246 24.6359C109.258 24.7011 109.25 24.7682 109.226 24.8297C109.201 24.8911 109.159 24.9443 109.106 24.9832C109.052 25.0221 108.989 25.0452 108.923 25.0498C108.856 25.0544 108.79 25.0403 108.732 25.0092L105.653 23.3905C105.45 23.284 105.225 23.2284 104.996 23.2284C104.767 23.2284 104.541 23.284 104.338 23.3905L101.26 25.0092C101.202 25.0401 101.136 25.0541 101.07 25.0494C101.004 25.0447 100.94 25.0216 100.887 24.9827C100.833 24.9438 100.792 24.8907 100.767 24.8293C100.742 24.768 100.735 24.701 100.747 24.6359L101.334 21.2099C101.373 20.9837 101.356 20.7515 101.285 20.5332C101.214 20.315 101.091 20.1173 100.927 19.9572L98.436 17.5325C98.3884 17.4866 98.3547 17.4281 98.3386 17.3639C98.3226 17.2997 98.3249 17.2323 98.3454 17.1693C98.3658 17.1064 98.4035 17.0504 98.4542 17.0079C98.5048 16.9653 98.5665 16.9378 98.632 16.9285L102.075 16.4252C102.302 16.3922 102.518 16.3046 102.703 16.1699C102.889 16.0351 103.038 15.8574 103.14 15.6519L104.679 12.5325Z" fill="#EB7024" stroke="#EB7024" stroke-width="1.33333" stroke-linecap="round" stroke-linejoin="round"/>
<path d="M122.06 24.7744V23.25C122.702 23.6829 123.354 23.8994 124.015 23.8994C124.68 23.8994 125.215 23.7308 125.621 23.3936C126.027 23.0518 126.229 22.5983 126.229 22.0332C126.229 21.4772 126.022 21.0443 125.607 20.7344C125.197 20.4245 124.607 20.2695 123.837 20.2695C123.573 20.2695 123.037 20.2969 122.23 20.3516L122.579 15.1973H127.405V16.5508H123.898L123.734 19.0049C124.049 18.9867 124.334 18.9775 124.589 18.9775C125.628 18.9775 126.43 19.2441 126.995 19.7773C127.565 20.3105 127.85 21.0397 127.85 21.9648C127.85 22.9355 127.524 23.7148 126.872 24.3027C126.225 24.8861 125.334 25.1777 124.199 25.1777C123.242 25.1777 122.529 25.0433 122.06 24.7744ZM130.468 25.1504C130.194 25.1504 129.962 25.0615 129.771 24.8838C129.579 24.7015 129.483 24.485 129.483 24.2344C129.483 23.9792 129.579 23.7604 129.771 23.5781C129.962 23.3958 130.194 23.3047 130.468 23.3047C130.746 23.3047 130.98 23.3958 131.172 23.5781C131.368 23.7604 131.466 23.9792 131.466 24.2344C131.466 24.485 131.368 24.7015 131.172 24.8838C130.98 25.0615 130.746 25.1504 130.468 25.1504ZM135.937 25.1641C134.916 25.1641 134.118 24.7471 133.544 23.9131C132.974 23.0791 132.689 21.8737 132.689 20.2969C132.689 18.5651 132.988 17.2549 133.585 16.3662C134.182 15.4775 135.043 15.0332 136.169 15.0332C138.325 15.0332 139.402 16.708 139.402 20.0576C139.402 21.7165 139.097 22.9834 138.486 23.8584C137.88 24.7288 137.03 25.1641 135.937 25.1641ZM136.094 16.2979C134.904 16.2979 134.31 17.6081 134.31 20.2285C134.31 22.6803 134.893 23.9062 136.06 23.9062C137.208 23.9062 137.782 22.6598 137.782 20.167C137.782 17.5876 137.219 16.2979 136.094 16.2979ZM152.65 24.3301C151.63 24.8861 150.493 25.1641 149.239 25.1641C147.79 25.1641 146.617 24.7129 145.719 23.8105C144.821 22.9082 144.372 21.7142 144.372 20.2285C144.372 18.7109 144.862 17.4668 145.842 16.4961C146.826 15.5208 148.075 15.0332 149.588 15.0332C150.677 15.0332 151.593 15.1927 152.336 15.5117V17.1865C151.584 16.6852 150.688 16.4346 149.649 16.4346C148.606 16.4346 147.749 16.7786 147.079 17.4668C146.414 18.1549 146.081 19.0459 146.081 20.1396C146.081 21.2653 146.368 22.1517 146.942 22.7988C147.517 23.4414 148.296 23.7627 149.28 23.7627C149.955 23.7627 150.538 23.6328 151.03 23.373V21.042H148.966V19.6748H152.65V24.3301ZM157.688 25.1641C156.608 25.1641 155.745 24.8382 155.098 24.1865C154.455 23.5303 154.134 22.6621 154.134 21.582C154.134 20.4062 154.469 19.488 155.139 18.8271C155.813 18.1663 156.72 17.8359 157.859 17.8359C158.953 17.8359 159.805 18.1572 160.416 18.7998C161.027 19.4424 161.332 20.3333 161.332 21.4727C161.332 22.5892 161.002 23.4847 160.341 24.1592C159.685 24.8291 158.8 25.1641 157.688 25.1641ZM157.764 19.1006C157.144 19.1006 156.654 19.3171 156.294 19.75C155.934 20.1829 155.754 20.7799 155.754 21.541C155.754 22.2747 155.936 22.8535 156.301 23.2773C156.665 23.6966 157.153 23.9062 157.764 23.9062C158.388 23.9062 158.867 23.6989 159.199 23.2842C159.536 22.8695 159.705 22.2793 159.705 21.5137C159.705 20.7435 159.536 20.1488 159.199 19.7295C158.867 19.3102 158.388 19.1006 157.764 19.1006ZM166.056 25.1641C164.976 25.1641 164.112 24.8382 163.465 24.1865C162.822 23.5303 162.501 22.6621 162.501 21.582C162.501 20.4062 162.836 19.488 163.506 18.8271C164.18 18.1663 165.087 17.8359 166.227 17.8359C167.32 17.8359 168.173 18.1572 168.783 18.7998C169.394 19.4424 169.699 20.3333 169.699 21.4727C169.699 22.5892 169.369 23.4847 168.708 24.1592C168.052 24.8291 167.168 25.1641 166.056 25.1641ZM166.131 19.1006C165.511 19.1006 165.021 19.3171 164.661 19.75C164.301 20.1829 164.121 20.7799 164.121 21.541C164.121 22.2747 164.303 22.8535 164.668 23.2773C165.033 23.6966 165.52 23.9062 166.131 23.9062C166.755 23.9062 167.234 23.6989 167.566 23.2842C167.904 22.8695 168.072 22.2793 168.072 21.5137C168.072 20.7435 167.904 20.1488 167.566 19.7295C167.234 19.3102 166.755 19.1006 166.131 19.1006ZM177.69 24.4395C177.69 27.0098 176.398 28.2949 173.814 28.2949C172.903 28.2949 172.108 28.1423 171.429 27.8369V26.3877C172.194 26.8252 172.921 27.0439 173.609 27.0439C175.273 27.0439 176.104 26.2259 176.104 24.5898V23.8242H176.077C175.553 24.7174 174.765 25.1641 173.712 25.1641C172.86 25.1641 172.172 24.8542 171.647 24.2344C171.128 23.61 170.868 22.7738 170.868 21.7256C170.868 20.5361 171.148 19.5905 171.709 18.8887C172.27 18.1868 173.04 17.8359 174.02 17.8359C174.945 17.8359 175.631 18.2142 176.077 18.9707H176.104V18H177.69V24.4395ZM176.118 21.7939V20.8848C176.118 20.3926 175.954 19.9733 175.626 19.627C175.302 19.276 174.897 19.1006 174.409 19.1006C173.808 19.1006 173.336 19.3239 172.994 19.7705C172.657 20.2126 172.488 20.8324 172.488 21.6299C172.488 22.318 172.65 22.8695 172.974 23.2842C173.302 23.6943 173.735 23.8994 174.272 23.8994C174.819 23.8994 175.264 23.7035 175.605 23.3115C175.947 22.915 176.118 22.4092 176.118 21.7939ZM181.348 25H179.755V14.6367H181.348V25ZM189.346 21.9307H184.574C184.592 22.5778 184.791 23.0768 185.169 23.4277C185.552 23.7786 186.076 23.9541 186.741 23.9541C187.489 23.9541 188.174 23.7308 188.799 23.2842V24.5625C188.161 24.9635 187.318 25.1641 186.27 25.1641C185.24 25.1641 184.431 24.8473 183.843 24.2139C183.259 23.5758 182.968 22.6803 182.968 21.5273C182.968 20.4382 183.289 19.5518 183.932 18.8682C184.579 18.18 185.381 17.8359 186.338 17.8359C187.295 17.8359 188.035 18.1436 188.56 18.7588C189.084 19.374 189.346 20.2285 189.346 21.3223V21.9307ZM187.814 20.8096C187.81 20.2399 187.675 19.7979 187.411 19.4834C187.147 19.1644 186.782 19.0049 186.317 19.0049C185.862 19.0049 185.474 19.1712 185.155 19.5039C184.841 19.8366 184.647 20.2718 184.574 20.8096H187.814ZM202.464 25H200.563L198.998 22.375C198.857 22.1335 198.718 21.9284 198.581 21.7598C198.449 21.5866 198.312 21.4453 198.171 21.3359C198.034 21.2266 197.884 21.1468 197.72 21.0967C197.556 21.0465 197.371 21.0215 197.166 21.0215H196.51V25H194.89V15.1973H198.116C198.576 15.1973 199 15.252 199.388 15.3613C199.775 15.4707 200.112 15.637 200.399 15.8604C200.687 16.0791 200.91 16.3548 201.069 16.6875C201.233 17.0156 201.315 17.4007 201.315 17.8428C201.315 18.1891 201.263 18.5081 201.158 18.7998C201.058 19.0869 200.912 19.3444 200.721 19.5723C200.534 19.7956 200.306 19.987 200.037 20.1465C199.773 20.306 199.474 20.429 199.142 20.5156V20.543C199.319 20.6432 199.474 20.7549 199.606 20.8779C199.739 20.9964 199.864 21.1195 199.982 21.2471C200.101 21.3747 200.217 21.5205 200.331 21.6846C200.45 21.8441 200.579 22.0309 200.721 22.2451L202.464 25ZM196.51 16.5166V19.7021H197.863C198.114 19.7021 198.344 19.6634 198.554 19.5859C198.768 19.5085 198.952 19.3968 199.107 19.251C199.262 19.1051 199.383 18.9274 199.47 18.7178C199.556 18.5081 199.6 18.2734 199.6 18.0137C199.6 17.5443 199.451 17.1774 199.155 16.9131C198.859 16.6488 198.433 16.5166 197.877 16.5166H196.51ZM208.992 21.9307H204.221C204.239 22.5778 204.437 23.0768 204.815 23.4277C205.198 23.7786 205.722 23.9541 206.388 23.9541C207.135 23.9541 207.821 23.7308 208.445 23.2842V24.5625C207.807 24.9635 206.964 25.1641 205.916 25.1641C204.886 25.1641 204.077 24.8473 203.489 24.2139C202.906 23.5758 202.614 22.6803 202.614 21.5273C202.614 20.4382 202.936 19.5518 203.578 18.8682C204.225 18.18 205.027 17.8359 205.984 17.8359C206.941 17.8359 207.682 18.1436 208.206 18.7588C208.73 19.374 208.992 20.2285 208.992 21.3223V21.9307ZM207.461 20.8096C207.456 20.2399 207.322 19.7979 207.058 19.4834C206.793 19.1644 206.429 19.0049 205.964 19.0049C205.508 19.0049 205.121 19.1712 204.802 19.5039C204.487 19.8366 204.294 20.2718 204.221 20.8096H207.461ZM216.532 18L213.825 25H212.109L209.532 18H211.255L212.807 22.8945C212.925 23.2546 212.998 23.569 213.025 23.8379H213.046C213.087 23.5007 213.151 23.1953 213.237 22.9219L214.864 18H216.532ZM218.412 16.5303C218.152 16.5303 217.929 16.446 217.742 16.2773C217.56 16.1087 217.469 15.8945 217.469 15.6348C217.469 15.375 217.56 15.1585 217.742 14.9854C217.929 14.8122 218.152 14.7256 218.412 14.7256C218.681 14.7256 218.909 14.8122 219.096 14.9854C219.283 15.1585 219.376 15.375 219.376 15.6348C219.376 15.8809 219.283 16.0928 219.096 16.2705C218.909 16.4437 218.681 16.5303 218.412 16.5303ZM219.198 25H217.612V18H219.198V25ZM227.203 21.9307H222.432C222.45 22.5778 222.648 23.0768 223.026 23.4277C223.409 23.7786 223.933 23.9541 224.599 23.9541C225.346 23.9541 226.032 23.7308 226.656 23.2842V24.5625C226.018 24.9635 225.175 25.1641 224.127 25.1641C223.097 25.1641 222.288 24.8473 221.7 24.2139C221.117 23.5758 220.825 22.6803 220.825 21.5273C220.825 20.4382 221.146 19.5518 221.789 18.8682C222.436 18.18 223.238 17.8359 224.195 17.8359C225.152 17.8359 225.893 18.1436 226.417 18.7588C226.941 19.374 227.203 20.2285 227.203 21.3223V21.9307ZM225.672 20.8096C225.667 20.2399 225.533 19.7979 225.269 19.4834C225.004 19.1644 224.64 19.0049 224.175 19.0049C223.719 19.0049 223.332 19.1712 223.013 19.5039C222.698 19.8366 222.505 20.2718 222.432 20.8096H225.672ZM238.127 18L236.062 25H234.401L233.13 20.2559C233.08 20.0736 233.048 19.8685 233.034 19.6406H233.007C232.998 19.7956 232.957 19.9961 232.884 20.2422L231.503 25H229.876L227.818 18H229.459L230.73 23.0449C230.771 23.1953 230.799 23.3958 230.812 23.6465H230.86C230.874 23.4551 230.91 23.25 230.97 23.0312L232.385 18H233.875L235.133 23.0654C235.174 23.2249 235.203 23.4255 235.222 23.667H235.27C235.279 23.4984 235.313 23.2979 235.372 23.0654L236.616 18H238.127ZM238.872 24.7812V23.3115C239.465 23.7627 240.118 23.9883 240.834 23.9883C241.791 23.9883 242.27 23.7057 242.27 23.1406C242.27 22.9811 242.229 22.8467 242.146 22.7373C242.064 22.6234 241.953 22.5231 241.812 22.4365C241.675 22.3499 241.511 22.2725 241.319 22.2041C241.132 22.1357 240.923 22.0583 240.69 21.9717C240.403 21.8577 240.144 21.737 239.911 21.6094C239.683 21.4818 239.492 21.3382 239.337 21.1787C239.187 21.0146 239.073 20.8301 238.995 20.625C238.918 20.4199 238.879 20.1807 238.879 19.9072C238.879 19.57 238.959 19.2738 239.118 19.0186C239.278 18.7588 239.492 18.5423 239.761 18.3691C240.03 18.1914 240.335 18.0592 240.677 17.9727C241.019 17.8815 241.372 17.8359 241.736 17.8359C242.383 17.8359 242.962 17.9339 243.473 18.1299V19.5176C242.98 19.1803 242.415 19.0117 241.777 19.0117C241.577 19.0117 241.395 19.0322 241.23 19.0732C241.071 19.1143 240.934 19.1712 240.82 19.2441C240.706 19.3171 240.618 19.4059 240.554 19.5107C240.49 19.611 240.458 19.7227 240.458 19.8457C240.458 19.9961 240.49 20.1237 240.554 20.2285C240.618 20.3333 240.711 20.4268 240.834 20.5088C240.962 20.5863 241.112 20.6592 241.285 20.7275C241.463 20.7913 241.666 20.862 241.894 20.9395C242.194 21.0625 242.463 21.1878 242.7 21.3154C242.942 21.443 243.147 21.5889 243.315 21.7529C243.484 21.9124 243.614 22.0993 243.705 22.3135C243.796 22.5231 243.842 22.7738 243.842 23.0654C243.842 23.4209 243.76 23.7308 243.596 23.9951C243.432 24.2594 243.213 24.4782 242.939 24.6514C242.666 24.8245 242.349 24.9521 241.989 25.0342C241.634 25.1208 241.258 25.1641 240.861 25.1641C240.096 25.1641 239.433 25.0365 238.872 24.7812Z" fill="#00114D"/>
</svg>
