<svg width="48" height="48" viewBox="0 0 48 48" fill="none" xmlns="http://www.w3.org/2000/svg">
<path d="M32.4701 26.9273C34.0599 23.9518 34.5277 20.5042 33.7882 17.2127C33.0487 13.9212 31.1513 11.0049 28.4416 8.99532C25.7319 6.98575 22.3903 6.01666 19.0259 6.26465C15.6615 6.51264 12.4981 7.96121 10.1124 10.3464C7.73019 12.733 6.28422 15.8956 6.03768 19.2586C5.79114 22.6216 6.76042 25.9613 8.76906 28.6698C10.7777 31.3783 13.6922 33.2754 16.9819 34.0159C20.2716 34.7563 23.7178 34.2908 26.6932 32.7042L35.0488 41.0598C35.8169 41.8161 36.8528 42.2381 37.9307 42.2339C39.0086 42.2298 40.0412 41.7997 40.8034 41.0376C41.5656 40.2754 41.9957 39.2428 42 38.1649C42.0042 37.087 41.5822 36.0511 40.826 35.283L32.4701 26.9273ZM11.3064 29.0453C10.1485 27.8978 9.22863 26.5328 8.59967 25.0289C7.97071 23.5249 7.64503 21.9115 7.64134 20.2813C7.63765 18.6511 7.95602 17.0362 8.57816 15.5294C9.20031 14.0226 10.114 12.6535 11.2667 11.5008C12.4194 10.3481 13.7885 9.43439 15.2953 8.81225C16.8021 8.1901 18.417 7.87173 20.0472 7.87542C21.6774 7.87912 23.2908 8.20479 24.7948 8.83375C26.2988 9.46272 27.6637 10.3826 28.8112 11.5405C29.9691 12.688 30.889 14.0529 31.5179 15.5569C32.1469 17.0609 32.4726 18.6743 32.4763 20.3045C32.4799 21.9347 32.1616 23.5496 31.5394 25.0564C30.9173 26.5632 30.0036 27.9323 28.8509 29.085C27.6982 30.2377 26.3291 31.1514 24.8223 31.7735C23.3155 32.3957 21.7006 32.714 20.0704 32.7103C18.4402 32.7066 16.8268 32.381 15.3228 31.752C13.8188 31.1231 12.4539 30.2032 11.3064 29.0453ZM39.6317 39.8658C39.1819 40.3145 38.5726 40.5665 37.9373 40.5665C37.3019 40.5665 36.6926 40.3145 36.2428 39.8658L28.168 31.7908C29.4803 30.8601 30.626 29.7144 31.5568 28.4021L39.6317 36.4769C40.0788 36.9275 40.3297 37.5366 40.3297 38.1713C40.3297 38.8061 40.0788 39.4152 39.6317 39.8658H39.6317ZM26.833 14.0055C23.7159 14.2399 21.7472 13.435 20.8165 11.5443C20.7468 11.4028 20.639 11.2836 20.5051 11.2003C20.3712 11.1169 20.2166 11.0727 20.0589 11.0727C19.9011 11.0727 19.7466 11.1169 19.6127 11.2003C19.4788 11.2836 19.3709 11.4028 19.3013 11.5443C18.3707 13.435 16.4028 14.2403 13.2852 14.0055C13.0749 13.9896 12.8663 14.053 12.7004 14.1831C12.5344 14.3132 12.4231 14.5007 12.3883 14.7086C11.8382 18.0087 12.3527 21.2156 13.8762 23.982C15.2412 26.461 17.3177 28.4008 19.7227 29.4434C19.8287 29.4894 19.9431 29.5132 20.0586 29.5132C20.1742 29.5132 20.2885 29.4894 20.3945 29.4434C22.7995 28.4007 24.8758 26.461 26.2411 23.982C27.7646 21.2156 28.279 18.0089 27.7289 14.7086C27.6945 14.5006 27.5835 14.313 27.4176 14.1829C27.2518 14.0527 27.0432 13.9894 26.833 14.0055ZM20.0589 27.7404C16.5182 26.0306 13.2688 21.6681 13.9498 15.7294C16.7194 15.795 18.7672 15.0375 20.0589 13.4716C21.2993 14.9754 23.2355 15.7334 25.8408 15.7333C25.9487 15.7333 26.0578 15.732 26.168 15.7294C26.8489 21.6681 23.5996 26.03 20.0589 27.7402V27.7404ZM23.6539 18.6941L20.3279 22.9341C20.2567 23.025 20.1677 23.1003 20.0663 23.1553C19.9648 23.2104 19.8532 23.2441 19.7382 23.2543C19.7133 23.2565 19.6884 23.2576 19.6636 23.2576C19.4562 23.2577 19.2561 23.1813 19.1014 23.0433L16.5659 20.7802C16.4028 20.63 16.3053 20.4217 16.2944 20.2002C16.2836 19.9788 16.3603 19.762 16.508 19.5966C16.6556 19.4312 16.8624 19.3305 17.0837 19.3163C17.3049 19.3021 17.5229 19.3755 17.6905 19.5206L19.5546 21.1845L22.3253 17.6523C22.4638 17.477 22.6661 17.3637 22.888 17.3374C23.1098 17.311 23.3331 17.3736 23.5089 17.5115C23.6847 17.6494 23.7987 17.8513 23.8258 18.0731C23.853 18.2948 23.7912 18.5183 23.6539 18.6946V18.6941Z" fill="#00114D" stroke="#00114D"/>
</svg>
