<svg width="56" height="56" viewBox="0 0 56 56" fill="none" xmlns="http://www.w3.org/2000/svg">
<rect width="56" height="56" rx="12" fill="#EB7024" fill-opacity="0.1"/>
<path d="M32 40V29.3333C32 28.9797 31.8595 28.6406 31.6095 28.3905C31.3594 28.1405 31.0203 28 30.6667 28H25.3333C24.9797 28 24.6406 28.1405 24.3905 28.3905C24.1405 28.6406 24 28.9797 24 29.3333V40" stroke="#EB7124" stroke-width="2.66667" stroke-linecap="round" stroke-linejoin="round"/>
<path d="M16 25.33C15.9999 24.9421 16.0844 24.5589 16.2477 24.207C16.411 23.8551 16.6491 23.5431 16.9453 23.2927L26.2787 15.294C26.76 14.8872 27.3698 14.6641 28 14.6641C28.6302 14.6641 29.24 14.8872 29.7213 15.294L39.0547 23.2927C39.3509 23.5431 39.589 23.8551 39.7523 24.207C39.9156 24.5589 40.0001 24.9421 40 25.33V37.33C40 38.0373 39.719 38.7156 39.219 39.2157C38.7189 39.7158 38.0406 39.9967 37.3333 39.9967H18.6667C17.9594 39.9967 17.2811 39.7158 16.781 39.2157C16.281 38.7156 16 38.0373 16 37.33V25.33Z" stroke="#EB7124" stroke-width="2.66667" stroke-linecap="round" stroke-linejoin="round"/>
</svg>
