<svg width="49" height="48" viewBox="0 0 49 48" fill="none" xmlns="http://www.w3.org/2000/svg">
<path d="M9.42188 36.867H39.566M24.4939 31.1437V18.875M34.8865 36.867H14.1014L16.9644 31.1437H32.0234L34.8865 36.867Z" stroke="#00114D" stroke-width="3" stroke-miterlimit="10" stroke-linecap="round" stroke-linejoin="round"/>
<path d="M24.4959 18.8717C26.0771 18.8717 27.359 17.5905 27.359 16.0101C27.359 14.4296 26.0771 13.1484 24.4959 13.1484C22.9147 13.1484 21.6328 14.4296 21.6328 16.0101C21.6328 17.5905 22.9147 18.8717 24.4959 18.8717Z" stroke="#00114D" stroke-width="3" stroke-miterlimit="10" stroke-linecap="round" stroke-linejoin="round"/>
<path d="M27.2027 16.9922L35.6526 24.2903H47.5M1.5 24.2903H13.3474L21.7973 16.9922" stroke="#00114D" stroke-width="3" stroke-miterlimit="10" stroke-linecap="round" stroke-linejoin="round"/>
<path d="M40.6875 16.8438C38.1116 16.8438 36.0234 18.9308 36.0234 21.5054V24.2182H45.3514V21.5054C45.3515 18.9308 43.2633 16.8438 40.6875 16.8438Z" stroke="#00114D" stroke-width="3" stroke-miterlimit="10" stroke-linecap="round" stroke-linejoin="round"/>
<path d="M40.7088 16.8679C42.33 16.8679 43.6443 15.5543 43.6443 13.9339C43.6443 12.3136 42.33 11 40.7088 11C39.0877 11 37.7734 12.3136 37.7734 13.9339C37.7734 15.5543 39.0877 16.8679 40.7088 16.8679Z" stroke="#00114D" stroke-width="3" stroke-miterlimit="10" stroke-linecap="round" stroke-linejoin="round"/>
<path d="M8.30466 16.8438C10.8806 16.8438 12.9687 18.9308 12.9687 21.5054V24.2182H3.64062V21.5054C3.64062 18.9308 5.72885 16.8438 8.30466 16.8438Z" stroke="#00114D" stroke-width="3" stroke-miterlimit="10" stroke-linecap="round" stroke-linejoin="round"/>
<path d="M8.31822 16.8679C9.93941 16.8679 11.2536 15.5543 11.2536 13.9339C11.2536 12.3136 9.93941 11 8.31822 11C6.69704 11 5.38281 12.3136 5.38281 13.9339C5.38281 15.5543 6.69704 16.8679 8.31822 16.8679Z" stroke="#00114D" stroke-width="3" stroke-miterlimit="10" stroke-linecap="round" stroke-linejoin="round"/>
</svg>
