<svg width="56" height="56" viewBox="0 0 56 56" fill="none" xmlns="http://www.w3.org/2000/svg">
<rect width="56" height="56" rx="12" fill="#EB7024" fill-opacity="0.1"/>
<path d="M40.3748 35.8854C39.0049 35.8728 35.9066 35.8907 35.9061 35.8907C35.696 35.892 35.4946 35.9776 35.3439 36.1295C35.1933 36.2813 35.1052 36.4878 35.0981 36.7055L35.095 36.8031C35.0793 37.2595 35.4485 37.6633 35.8824 37.6763C36.095 37.683 37.0392 37.7359 37.6592 37.7705L36.6667 38.7945C34.4044 41.1283 29.6493 42.9809 24.9374 42.0058C24.465 41.9079 23.9983 41.7829 23.5394 41.6314L23.384 41.5791C20.672 40.6469 18.4262 39.019 16.7089 36.7404C14.5938 33.9329 13.5838 30.7169 13.7073 27.1809C13.712 27.0444 13.7184 26.908 13.7266 26.7717C13.7498 26.377 13.5133 26.0256 13.138 25.8967C13.099 25.8835 13.0593 25.8728 13.0191 25.8647C12.9058 25.847 12.7902 25.8534 12.6793 25.8833C12.5685 25.9133 12.4646 25.9662 12.374 26.0389C12.2832 26.1118 12.2079 26.2035 12.1528 26.3081C12.0978 26.4126 12.0643 26.5279 12.0543 26.6466C12.0337 26.8969 12.0191 27.1483 12.0101 27.4005C11.8368 32.3675 13.9109 37.1349 17.5583 40.154C19.3261 41.6175 21.1747 42.6871 23.0527 43.3327C23.6177 43.5271 24.1938 43.6848 24.7778 43.8048C30.1764 44.4178 33.5334 43.6257 37.1661 40.8831C37.7329 40.4553 38.2374 39.9455 38.7251 39.4508L38.4682 40.6293C38.3753 41.0696 38.6283 41.5126 39.0567 41.6599C39.0832 41.669 39.1102 41.6767 39.1467 41.6855C39.5882 41.7771 40.018 41.4864 40.1251 41.0226L41.0749 36.8117C41.1789 36.3524 40.8327 35.8872 40.3748 35.8854ZM15.4023 20.077C15.4739 20.1016 15.5488 20.1144 15.6252 20.1152C16.9951 20.1272 20.0934 20.1093 20.0942 20.1093C20.3042 20.1078 20.5055 20.0222 20.6561 19.8703C20.8067 19.7185 20.8948 19.5122 20.9021 19.2946L20.9055 19.1972C20.9209 18.7413 20.5523 18.3373 20.1178 18.324C19.905 18.317 18.9608 18.2644 18.3415 18.2292L19.3338 17.2052C21.5961 14.8715 26.3512 13.0191 31.0629 13.9943C31.5373 14.0925 32.0076 14.2187 32.4606 14.3692L32.6184 14.4223C35.3285 15.354 37.574 16.9819 39.2914 19.2599C41.4057 22.066 42.4154 25.2823 42.2927 28.8189C42.2878 28.9555 42.2812 29.0921 42.2731 29.2286C42.2505 29.6227 42.487 29.9742 42.862 30.1031C42.8978 30.1154 42.9349 30.1255 42.9807 30.1348C43.0939 30.1533 43.2096 30.1475 43.3206 30.1177C43.4315 30.0879 43.5354 30.0348 43.6257 29.9616C43.7166 29.8885 43.792 29.7966 43.8472 29.6919C43.9023 29.5872 43.936 29.4718 43.9462 29.3529C43.9668 29.1029 43.9809 28.8515 43.9899 28.599C44.1632 23.6323 42.0891 18.8646 38.442 15.8455C36.6742 14.382 34.8256 13.3127 32.9486 12.6674C32.3832 12.4729 31.8066 12.3152 31.2222 12.1953C25.8241 11.5823 22.4663 12.3741 18.8339 15.117C18.2671 15.5448 17.7624 16.0545 17.2749 16.549L17.5315 15.371C17.6249 14.9307 17.3717 14.4874 16.9426 14.3401C16.9131 14.3301 16.8832 14.3215 16.853 14.3145C16.4116 14.2235 15.9817 14.5144 15.8749 14.9777L14.9248 19.1884C14.8822 19.3716 14.9076 19.5647 14.9961 19.7294C15.0846 19.8941 15.2296 20.0182 15.4023 20.077Z" fill="#EB7124" stroke="#EB7124"/>
<path d="M21.5757 33.7262L22.3712 35.645C23.6007 35.2358 25.6039 34.658 26.2056 34.658C27.0781 34.658 27.7277 34.8745 28.4794 35.1244C29.2863 35.3941 30.2015 35.6991 31.4112 35.6991C32.6366 35.6991 34.6158 34.7402 35 34.5487L34.0682 32.6861C33.3175 33.0609 31.9537 33.6169 31.4112 33.6169C30.5388 33.6169 29.8891 33.4003 29.1374 33.1504C28.3306 32.8808 27.4154 32.5757 26.2056 32.5757C25.9672 32.5757 25.658 32.6143 25.3134 32.6788C25.8954 31.4826 26.2056 30.0364 26.2056 28.4112H29.329V26.329H25.8162C25.7725 26.2176 25.7288 26.1041 25.6861 25.999C25.4175 25.342 25.1645 24.7205 25.1645 23.2056C25.1645 21.7803 25.7069 20.0822 28.2879 20.0822C30.6033 20.0822 31.4331 22.4008 31.4654 22.4935L33.4394 21.8345C33.3873 21.6783 32.1182 18 28.2879 18C24.4492 18 23.0822 20.6892 23.0822 23.2056C23.0822 24.7579 23.3259 25.6523 23.5799 26.329H21V28.4112H24.1234C24.1234 30.9797 23.1947 32.9172 21.5757 33.7262Z" fill="#EB7124"/>
</svg>
