<svg width="64" height="64" viewBox="0 0 64 64" fill="none" xmlns="http://www.w3.org/2000/svg">
<rect width="64" height="64" rx="32" fill="url(#paint0_linear_11026_45097)"/>
<path d="M40.0026 18.6641H24.0026C22.5298 18.6641 21.3359 19.858 21.3359 21.3307V42.6641C21.3359 44.1368 22.5298 45.3307 24.0026 45.3307H40.0026C41.4754 45.3307 42.6693 44.1368 42.6693 42.6641V21.3307C42.6693 19.858 41.4754 18.6641 40.0026 18.6641Z" stroke="white" stroke-width="2.66667" stroke-linecap="round" stroke-linejoin="round"/>
<path d="M26.6641 24H37.3307" stroke="white" stroke-width="2.66667" stroke-linecap="round" stroke-linejoin="round"/>
<path d="M37.3359 34.6641V39.9974" stroke="white" stroke-width="2.66667" stroke-linecap="round" stroke-linejoin="round"/>
<path d="M37.3359 29.3359H37.3493" stroke="white" stroke-width="2.66667" stroke-linecap="round" stroke-linejoin="round"/>
<path d="M32 29.3359H32.0133" stroke="white" stroke-width="2.66667" stroke-linecap="round" stroke-linejoin="round"/>
<path d="M26.6641 29.3359H26.6774" stroke="white" stroke-width="2.66667" stroke-linecap="round" stroke-linejoin="round"/>
<path d="M32 34.6641H32.0133" stroke="white" stroke-width="2.66667" stroke-linecap="round" stroke-linejoin="round"/>
<path d="M26.6641 34.6641H26.6774" stroke="white" stroke-width="2.66667" stroke-linecap="round" stroke-linejoin="round"/>
<path d="M32 40H32.0133" stroke="white" stroke-width="2.66667" stroke-linecap="round" stroke-linejoin="round"/>
<path d="M26.6641 40H26.6774" stroke="white" stroke-width="2.66667" stroke-linecap="round" stroke-linejoin="round"/>
<defs>
<linearGradient id="paint0_linear_11026_45097" x1="10.5" y1="10.5" x2="54.5" y2="54.5" gradientUnits="userSpaceOnUse">
<stop stop-color="#FF8131"/>
<stop offset="1" stop-color="#EB7124"/>
</linearGradient>
</defs>
</svg>
