<svg width="64" height="64" viewBox="0 0 64 64" fill="none" xmlns="http://www.w3.org/2000/svg">
<rect width="64" height="64" rx="32" fill="url(#paint0_linear_11026_45109)"/>
<path d="M37.3307 44V41.3333C37.3307 39.9188 36.7688 38.5623 35.7686 37.5621C34.7684 36.5619 33.4119 36 31.9974 36H23.9974C22.5829 36 21.2264 36.5619 20.2262 37.5621C19.226 38.5623 18.6641 39.9188 18.6641 41.3333V44" stroke="white" stroke-width="2.66667" stroke-linecap="round" stroke-linejoin="round"/>
<path d="M27.9974 30.6667C30.9429 30.6667 33.3307 28.2789 33.3307 25.3333C33.3307 22.3878 30.9429 20 27.9974 20C25.0519 20 22.6641 22.3878 22.6641 25.3333C22.6641 28.2789 25.0519 30.6667 27.9974 30.6667Z" stroke="white" stroke-width="2.66667" stroke-linecap="round" stroke-linejoin="round"/>
<path d="M37.3359 30.6667L40.0026 33.3333L45.3359 28" stroke="white" stroke-width="2.66667" stroke-linecap="round" stroke-linejoin="round"/>
<defs>
<linearGradient id="paint0_linear_11026_45109" x1="10.5" y1="10.5" x2="54.5" y2="54.5" gradientUnits="userSpaceOnUse">
<stop stop-color="#FF8131"/>
<stop offset="1" stop-color="#EB7124"/>
</linearGradient>
</defs>
</svg>
