<svg width="48" height="48" viewBox="0 0 48 48" fill="none" xmlns="http://www.w3.org/2000/svg">
<path fill-rule="evenodd" clip-rule="evenodd" d="M8.85562 23.8545C8.8293 23.8792 8.80811 23.9088 8.79328 23.9417C8.77845 23.9746 8.77028 24.0101 8.76922 24.0461V30.1384C8.76922 31.2018 9.64429 32.0769 10.7077 32.0769H13.108C13.2664 32.0769 13.385 31.9584 13.385 31.8V24.0461C13.3835 23.9731 13.3539 23.9035 13.3023 23.8519C13.2506 23.8003 13.181 23.7706 13.108 23.7692H9.04614C8.97386 23.7714 8.90536 23.802 8.85562 23.8545ZM6 24.0461C6.00436 23.2396 6.3267 22.4673 6.89702 21.897C7.46734 21.3267 8.2396 21.0044 9.04614 21H13.108C13.9156 21.0012 14.6897 21.3225 15.2607 21.8935C15.8317 22.4645 16.153 23.2386 16.1542 24.0461V31.8C16.1551 32.2002 16.0769 32.5967 15.9241 32.9667C15.7713 33.3367 15.547 33.6728 15.2639 33.9559C14.9809 34.2389 14.6447 34.4632 14.2748 34.616C13.9048 34.7688 13.5083 34.847 13.108 34.8461H10.7077C8.11568 34.8461 6 32.7304 6 30.1384V24.0461Z" fill="#00114D" stroke="#00114D"/>
<path fill-rule="evenodd" clip-rule="evenodd" d="M24.0033 8.99578C22.4877 8.99447 20.9866 9.29204 19.5861 9.87145C18.1855 10.4509 16.913 11.3008 15.8412 12.3725C14.7695 13.4442 13.9196 14.7168 13.3402 16.1173C12.7608 17.5179 12.4632 19.0189 12.4645 20.5346V22.3988C12.4645 22.766 12.3187 23.1182 12.059 23.3779C11.7993 23.6375 11.4471 23.7834 11.0799 23.7834C10.7127 23.7834 10.3605 23.6375 10.1009 23.3779C9.84119 23.1182 9.69531 22.766 9.69531 22.3988V20.5346C9.69531 12.6257 16.0944 6.22656 24.0033 6.22656C31.9122 6.22656 38.3113 12.6257 38.3113 20.5346V22.3811C38.3113 22.7483 38.1654 23.1005 37.9058 23.3602C37.6461 23.6198 37.2939 23.7657 36.9267 23.7657C36.5595 23.7657 36.2073 23.6198 35.9476 23.3602C35.688 23.1005 35.5421 22.7483 35.5421 22.3811V20.5346C35.5421 14.1543 30.3836 8.99578 24.0033 8.99578ZM37.0142 32.0999C37.1926 32.1357 37.3622 32.2062 37.5133 32.3075C37.6644 32.4088 37.794 32.5388 37.8948 32.6903C37.9957 32.8417 38.0656 33.0115 38.1008 33.19C38.136 33.3685 38.1356 33.5521 38.0998 33.7305C37.1228 38.5921 32.836 42.2453 27.6952 42.2453H25.8498C25.4826 42.2453 25.1304 42.0994 24.8708 41.8397C24.6111 41.58 24.4652 41.2279 24.4652 40.8606C24.4652 40.4934 24.6111 40.1412 24.8708 39.8816C25.1304 39.6219 25.4826 39.476 25.8498 39.476H27.6952C29.5062 39.4761 31.2614 38.8495 32.663 37.7027C34.0646 36.5559 35.0263 34.9595 35.3848 33.1844C35.4572 32.8246 35.6695 32.5082 35.9751 32.3049C36.2806 32.1016 36.6544 32.0278 37.0142 32.0999Z" fill="#00114D" stroke="#00114D"/>
<path fill-rule="evenodd" clip-rule="evenodd" d="M34.6994 23.8545C34.673 23.8792 34.6519 23.9088 34.637 23.9417C34.6222 23.9746 34.614 24.0101 34.613 24.0461V31.8C34.613 31.9495 34.7415 32.0769 34.8899 32.0769H37.1983C38.3171 32.0769 39.2287 31.1641 39.2287 30.0454V24.0461C39.2273 23.9731 39.1977 23.9035 39.146 23.8519C39.0944 23.8003 39.0248 23.7706 38.9518 23.7692H34.8899C34.8176 23.7714 34.7491 23.802 34.6994 23.8545ZM31.8438 24.0461C31.8481 23.2396 32.1704 22.4673 32.7408 21.897C33.3111 21.3267 34.0834 21.0044 34.8899 21H38.9518C39.7593 21.0012 40.5334 21.3225 41.1044 21.8935C41.6754 22.4645 41.9968 23.2386 41.9979 24.0461V30.0454C41.997 31.3181 41.4911 32.5386 40.5912 33.4386C39.6914 34.3387 38.4711 34.8449 37.1983 34.8461H34.8899C34.0824 34.8449 33.3082 34.5236 32.7372 33.9526C32.1662 33.3816 31.8449 32.6075 31.8438 31.8V24.0461Z" fill="#00114D" stroke="#00114D"/>
</svg>
