<svg width="20" height="20" viewBox="0 0 20 20" fill="none" xmlns="http://www.w3.org/2000/svg">
<path d="M18.1876 9.16844V10C18.1876 11.1372 17.9744 12.2033 17.548 13.1983C17.1215 14.1933 16.5316 15.0604 15.7783 15.7996C15.0391 16.5387 14.172 17.1215 13.177 17.548C12.1819 17.9744 11.123 18.1876 10 18.1876C8.86283 18.1876 7.79673 17.9744 6.80171 17.548C5.80668 17.1215 4.93959 16.5316 4.20043 15.7783C3.46127 15.0391 2.87846 14.172 2.45203 13.177C2.02559 12.1819 1.81237 11.123 1.81237 10C1.81237 8.86283 2.02559 7.80028 2.45203 6.81237C2.87846 5.82445 3.46837 4.9538 4.22175 4.20043C4.96091 3.46127 5.828 2.87847 6.82303 2.45203C7.81805 2.02559 8.87704 1.81237 10 1.81237C10.6112 1.81237 11.1976 1.87633 11.7591 2.00426C12.3205 2.1322 12.8429 2.30277 13.3262 2.51599C13.5537 2.62971 13.7846 2.64037 14.0192 2.54797C14.2537 2.45558 14.4208 2.29566 14.5203 2.06823C14.634 1.8408 14.6446 1.60981 14.5522 1.37527C14.4598 1.14072 14.2999 0.973703 14.0725 0.874201C13.4755 0.589907 12.8323 0.373135 12.1429 0.223881C11.4534 0.0746269 10.7392 0 10 0C9.3177 0 8.64961 0.0639668 7.99574 0.191898C7.34186 0.334044 6.71286 0.529495 6.10874 0.778252C5.50462 1.02701 4.93959 1.33618 4.41365 1.70576C3.87349 2.06112 3.37598 2.46624 2.92111 2.92111C2.46624 3.37598 2.06112 3.86638 1.70576 4.39232C1.35039 4.93248 1.04478 5.50107 0.788913 6.09808C0.533049 6.6951 0.334044 7.32054 0.191898 7.97441C0.0639659 8.62829 0 9.30348 0 10C0 10.6823 0.0639659 11.3504 0.191898 12.0043C0.334044 12.6581 0.529495 13.2871 0.778252 13.8913C1.02701 14.4954 1.33618 15.0604 1.70576 15.5864C2.06112 16.1265 2.46624 16.624 2.92111 17.0789C3.37598 17.5338 3.86638 17.9389 4.39232 18.2942C4.93248 18.6638 5.50107 18.973 6.09808 19.2217C6.6951 19.4705 7.32054 19.666 7.97441 19.8081C8.62829 19.936 9.30348 20 10 20C10.6823 20 11.3504 19.936 12.0043 19.8081C12.6581 19.666 13.2871 19.4705 13.8913 19.2217C14.4954 18.973 15.0604 18.6638 15.5864 18.2942C16.1265 17.9389 16.624 17.5338 17.0789 17.0789C17.5338 16.624 17.9389 16.1336 18.2942 15.6077C18.6496 15.0675 18.9552 14.4989 19.2111 13.9019C19.467 13.3049 19.666 12.6795 19.8081 12.0256C19.936 11.3717 20 10.6965 20 10V9.16844C20 8.91258 19.9112 8.69581 19.7335 8.51812C19.5558 8.34044 19.3461 8.2516 19.1045 8.2516C18.8486 8.2516 18.6318 8.34044 18.4542 8.51812C18.2765 8.69581 18.1876 8.91258 18.1876 9.16844ZM18.4648 2.08955L10 10.5544L7.91045 8.46482C7.73987 8.28003 7.52665 8.18763 7.27079 8.18763C7.01493 8.18763 6.80171 8.28003 6.63113 8.46482C6.44634 8.63539 6.35394 8.84861 6.35394 9.10448C6.35394 9.36034 6.44634 9.57356 6.63113 9.74414L9.36034 12.4733C9.53092 12.6581 9.74414 12.7505 10 12.7505C10.2559 12.7505 10.4691 12.6581 10.6397 12.4733L19.7441 3.36887C19.9147 3.19829 20 2.98507 20 2.72921C20 2.47335 19.9147 2.26013 19.7441 2.08955C19.5593 1.90476 19.3426 1.81237 19.0938 1.81237C18.8451 1.81237 18.6354 1.90476 18.4648 2.08955Z" fill="#21C45D"/>
</svg>
