<svg width="183" height="43" viewBox="0 0 183 43" fill="none" xmlns="http://www.w3.org/2000/svg">
<path d="M147.357 0C147.234 0.0350459 147.129 0.0700919 147.006 0.105138C146.445 0.262845 145.955 0.560735 145.604 1.01633C145.411 1.24413 145.464 1.43688 145.727 1.57707C145.902 1.64716 146.095 1.69973 146.13 1.96257C146.06 1.9801 145.972 2.01514 145.919 2.01514C145.446 1.9801 145.026 2.08523 144.605 2.27799C144.395 2.3656 144.149 2.47074 143.922 2.54083C143.676 2.62845 143.641 2.73358 143.834 2.92634C143.922 3.03147 144.044 3.10157 144.167 3.18918C144.237 3.24175 144.29 3.25927 144.36 3.31184C143.957 3.69735 143.553 3.78496 143.168 3.52212C143.185 3.46955 143.203 3.41698 143.22 3.34689C143.291 3.01395 143.168 2.89129 142.852 2.94386C142.747 2.96138 142.642 2.96138 142.484 2.96138C142.537 2.83872 142.537 2.75111 142.554 2.75111C142.835 2.55835 143.098 2.3656 143.466 2.34808C143.974 2.33055 144.377 2.03266 144.78 1.73477C144.868 1.66468 144.903 1.5245 144.938 1.40184C144.991 1.2967 144.973 1.17404 145.026 1.0689C145.604 0.315413 146.428 0.0350459 147.357 0Z" fill="#EB7124"/>
<path d="M141.595 3.02644C141.122 3.1491 140.648 3.27176 140.175 3.41195C140.088 3.44699 139.912 3.55213 139.93 3.58718C139.965 3.70984 140.035 3.88507 140.14 3.93764C140.385 4.02525 140.648 4.04277 140.929 4.11287C140.771 4.39323 140.491 4.60351 140.175 4.76122C140.017 4.83131 139.877 4.91892 139.895 5.11167C139.912 5.33947 140 5.49718 140.228 5.60232C141.051 5.9703 141.963 5.7425 142.506 5.00654C142.576 4.91892 142.629 4.81378 142.716 4.69112C142.874 5.00654 143.014 5.30443 143.155 5.58479C143.312 5.90021 143.417 5.93525 143.733 5.79507C143.821 5.7425 143.926 5.70746 143.996 5.63736C144.101 5.54975 144.136 5.44461 144.066 5.2869C143.978 5.07663 143.908 4.81378 143.821 4.56846C144.013 4.49837 144.171 4.42828 144.311 4.35819C144.469 4.27057 144.592 4.14791 144.785 3.9902C144.82 4.14791 144.82 4.27057 144.855 4.37571C144.89 4.46332 144.925 4.58599 144.977 4.60351C145.047 4.62103 145.188 4.55094 145.24 4.49837C145.328 4.41076 145.38 4.28809 145.451 4.14791C145.608 4.34066 145.608 4.51589 145.626 4.70865C145.661 5.33947 145.556 5.91773 145.188 6.44342C145.118 6.53103 145.118 6.6537 145.065 6.79388C145.626 6.82893 146.502 5.93525 146.66 5.19929C146.87 4.39323 146.66 3.63974 146.292 2.93883C146.327 2.9213 146.344 2.90378 146.362 2.90378C146.73 3.06149 147.028 2.9213 147.378 2.74607C147.624 2.64094 147.922 2.62341 148.202 2.62341C148.535 2.62341 148.623 2.83369 148.482 3.11406C148.377 3.34185 148.185 3.48204 147.957 3.6047C147.758 3.70984 147.694 3.86754 147.764 4.07782C147.764 4.09534 147.781 4.09534 147.781 4.11287C147.957 4.60351 148.027 4.65608 148.465 4.32314C148.745 4.11287 148.991 3.86754 149.201 3.58718C149.657 2.9914 149.131 1.94002 148.412 1.86993C148.132 1.83488 147.852 1.8524 147.554 1.8524C147.484 1.8524 147.431 1.8524 147.343 1.79983C147.413 1.76479 147.484 1.71222 147.554 1.6947C148.255 1.48442 148.921 1.50194 149.569 1.8524C149.797 1.97506 149.92 2.16782 149.99 2.43066C150.147 3.07901 150.007 3.65727 149.552 4.16543C149.201 4.53342 148.815 4.81378 148.377 5.04158C148.185 5.1292 148.114 5.25186 148.097 5.46213C148.027 6.47847 147.571 7.28452 146.782 7.91535C146.222 8.38847 145.591 8.72141 144.942 9.05434C144.452 9.31719 143.926 9.54498 143.417 9.82535C142.646 10.2459 141.875 10.7015 141.209 11.3148C141.192 11.2973 141.174 11.2798 141.139 11.2447C141.227 11.1571 141.314 11.052 141.402 10.9643C142.208 10.1933 143.137 9.52746 144.066 8.89664C144.522 8.58122 144.977 8.26581 145.398 7.96792C145.521 7.8803 145.748 7.75764 145.626 7.59994C145.521 7.40718 145.31 7.58241 145.17 7.63498C144.364 7.95039 143.575 8.26581 142.751 8.59874C142.471 8.70388 142.208 8.84407 141.945 8.96673C140.666 9.58003 139.912 10.6489 139.386 11.9106C138.615 13.8732 138.721 15.8007 139.579 17.6932C139.632 17.7983 139.649 17.9034 139.719 18.0086C139.755 18.0611 139.842 18.0962 139.912 18.0962C139.947 18.0962 139.982 18.0086 140.017 17.956V17.921C139.947 16.8521 140.385 15.9058 140.824 14.9946C141.034 14.5566 141.297 14.171 141.595 13.768C141.577 13.8381 141.56 13.9082 141.525 13.9783C141.122 14.9771 140.859 15.9934 140.859 17.1149C140.859 18.4817 141.314 19.6908 142.191 20.7597C142.401 21.005 142.611 21.2503 142.822 21.4956C142.874 21.5482 142.909 21.6008 142.962 21.6183C143.032 21.6358 143.137 21.6358 143.172 21.6008C143.207 21.5657 143.207 21.4431 143.172 21.3905C142.874 21.0576 142.769 20.637 142.629 20.2515C142.278 19.2177 142.156 18.1838 142.278 17.1149C142.366 16.3614 142.646 15.6605 143.014 15.0121C143.382 14.3288 143.838 13.6979 144.381 13.1372C144.732 12.7867 145.047 12.4188 145.398 12.0683C145.468 11.9807 145.573 11.8931 145.696 11.8405C145.45 12.2085 145.188 12.6115 144.925 12.997C144.346 13.9082 143.996 14.9245 143.838 15.9934C143.733 16.7119 143.821 17.4128 143.996 18.1137C144.066 18.3766 144.154 18.6219 144.224 18.8847C144.241 18.9548 144.276 19.0074 144.311 19.06C144.346 19.095 144.416 19.1125 144.452 19.095C144.504 19.06 144.539 19.0074 144.539 18.9548C144.539 18.8497 144.504 18.7445 144.469 18.6394C144.311 18.0261 144.364 17.4303 144.504 16.8345C144.679 16.0986 144.977 15.4152 145.363 14.7844C146.046 13.6454 146.923 12.6816 147.922 11.8405C149.131 10.8242 149.972 9.59755 150.445 8.1081C150.48 7.98544 150.516 7.86278 150.533 7.74012C150.568 7.63498 150.603 7.52984 150.708 7.42471C150.691 7.63498 150.691 7.84526 150.656 8.05553C150.533 9.0193 150.305 9.94801 149.955 10.8592C149.902 10.9819 149.814 11.1045 149.762 11.2447C149.727 11.3323 149.744 11.4375 149.744 11.5251C149.85 11.5076 149.972 11.5426 150.06 11.4725C150.218 11.3849 150.34 11.2447 150.48 11.1221C151.304 10.3861 151.988 9.54498 152.408 8.52865C153.285 6.39085 153.144 4.30562 151.9 2.34305C151.409 1.57203 150.743 0.958731 149.955 0.468088C149.867 0.415519 149.779 0.36295 149.709 0.257812C149.779 0.275335 149.867 0.257812 149.92 0.310381C150.41 0.555703 150.884 0.801024 151.357 1.08139C151.97 1.43185 152.531 1.8524 153.022 2.34305C154.056 3.35938 154.704 4.55094 155.072 5.91773C155.318 6.82893 155.423 7.79269 155.318 8.72141C155.16 10.351 154.617 11.823 153.407 12.9795C153.232 13.1547 153.232 13.2073 153.372 13.4176C153.723 13.9608 154.284 14.2587 154.897 14.4164C155.773 14.6442 156.65 14.6617 157.561 14.6266C158.525 14.5741 159.454 14.4164 160.383 14.136C160.453 14.1185 160.505 14.1185 160.558 14.1185C160.575 14.1535 160.575 14.171 160.575 14.1886C160.225 14.3288 159.857 14.4689 159.506 14.5916C158.034 15.0822 156.544 15.3276 154.985 15.0998C153.986 14.9771 153.092 14.6091 152.321 13.9257C152.11 13.733 151.585 13.6979 151.357 13.8556C151.252 13.9257 151.252 14.0309 151.304 14.1185C151.602 14.6091 151.935 15.0647 152.478 15.3276C152.759 15.4677 153.057 15.5729 153.337 15.678C153.442 15.7306 153.565 15.7656 153.688 15.8533C153.355 15.9058 153.039 15.8182 152.724 15.7481C151.742 15.5028 150.866 15.0297 150.112 14.3463C149.867 14.136 149.657 14.136 149.376 14.2587C148.465 14.6792 147.641 15.1874 146.958 15.9233C146.257 16.6768 145.783 17.5179 145.661 18.5518C145.556 19.4805 145.783 20.3041 146.309 21.0926C146.449 21.3029 146.607 21.5132 146.765 21.7234C146.8 21.776 146.835 21.8286 146.87 21.8286C146.94 21.8461 147.028 21.8461 147.115 21.8461C147.115 21.776 147.151 21.6884 147.115 21.6358C146.625 20.8823 146.677 20.0412 146.818 19.2352C146.94 18.4642 147.396 17.8333 147.992 17.22C147.887 17.5004 147.781 17.7107 147.711 17.9034C147.396 18.7445 147.466 19.5506 147.904 20.3391C148.535 21.4431 149.481 22.1265 150.708 22.4419C150.778 22.4594 150.866 22.4769 150.936 22.4769C151.217 22.4769 151.269 22.3718 151.164 22.1265C151.094 21.8987 151.041 21.6534 150.971 21.4256C150.813 20.7947 150.638 20.1814 150.48 19.5506C150.463 19.498 150.48 19.463 150.463 19.3929C150.936 19.7434 151.795 21.9688 151.935 23.1428C151.444 23.4757 150.884 23.283 150.305 23.318C150.358 23.4407 150.375 23.5283 150.41 23.6334C151.129 24.9126 151.637 26.2794 151.935 27.7163C152.023 28.1894 152.093 28.6625 152.145 29.1357C152.18 29.4686 152.198 29.7665 152.408 30.0469C152.461 30.0994 152.461 30.187 152.478 30.2922C151.427 30.5725 150.971 31.2735 150.954 32.3073C150.568 32.4825 150.445 32.4125 150.428 32.027C150.41 31.7816 150.445 31.5363 150.463 31.291C150.463 31.1683 150.428 31.0457 150.41 30.8704C150.288 30.958 150.2 30.9931 150.147 31.0632C149.885 31.4136 149.657 31.7816 149.622 32.2197C149.604 32.43 149.517 32.5001 149.324 32.4825H149.131C145.696 32.4825 142.243 32.5001 138.808 32.5001H136.915C136.845 32.5001 136.758 32.4825 136.688 32.43C136.758 32.3949 136.81 32.3599 136.88 32.3599C137.879 32.1146 138.896 31.8692 139.877 31.5889C140.158 31.5188 140.228 31.4312 140.263 31.1333C140.35 30.4148 140.981 29.8366 141.717 29.8015H142.191C142.436 29.784 142.541 29.7314 142.611 29.4686C142.716 29.013 142.822 28.5574 142.927 28.1193C142.997 27.7864 143.084 27.471 143.155 27.1556C143.225 26.8577 143.295 26.5773 143.347 26.2794C143.417 25.7362 143.505 25.1755 143.575 24.6323C143.61 24.4045 143.488 24.2818 143.295 24.1767C142.822 23.8963 142.366 23.6159 141.928 23.3005C140.508 22.2667 139.387 20.9875 138.721 19.3403C138.09 17.7633 137.932 16.1161 138.16 14.4339C138.335 13.2599 138.721 12.191 139.334 11.1746C140.245 9.70269 141.507 8.63379 143.049 7.86278C143.19 7.79269 143.417 7.77517 143.4 7.56489C143.382 7.33709 143.155 7.35461 142.979 7.28452C142.226 7.05672 141.472 6.95159 140.683 7.10929C140.158 7.21443 139.702 7.10929 139.386 6.61865C139.211 6.37333 139.176 6.09296 139.229 5.79507C139.299 5.39204 139.299 5.02406 139.229 4.60351C139.176 4.30562 139.229 3.97268 139.264 3.67479C139.281 3.58718 139.351 3.44699 139.439 3.41195C140.105 3.16663 140.789 3.00892 141.49 2.93883C141.595 2.9914 141.595 3.00892 141.595 3.02644ZM146.66 31.5188H148.868C149.148 31.5188 149.254 31.4487 149.271 31.2034C149.289 30.9405 149.429 30.7653 149.569 30.5901C150.007 30.0819 150.586 29.8015 151.252 29.7139C151.357 29.6964 151.479 29.6964 151.602 29.6614C151.795 29.5913 151.83 29.5036 151.795 29.3109C151.76 29.2058 151.725 29.1006 151.707 28.9604C151.444 27.4535 150.726 26.1392 149.85 24.9126C149.762 24.79 149.657 24.7374 149.499 24.7549C148.815 24.825 148.114 24.9126 147.431 24.9652C147.256 24.9827 147.133 25.0353 147.08 25.193C147.045 25.2631 147.028 25.3332 147.01 25.4033C146.485 26.8402 145.889 28.242 145.153 29.5737C144.89 30.0644 144.557 30.5375 144.259 31.0281C144.101 31.2735 144.171 31.4487 144.469 31.4662C144.557 31.4837 144.662 31.4662 144.732 31.4662C145.363 31.5188 146.029 31.5188 146.66 31.5188ZM139.807 5.95278C139.702 6.26819 139.807 6.46094 140.017 6.61865C140.228 6.77636 140.508 6.8114 140.754 6.68874C140.806 6.67122 140.824 6.49599 140.806 6.47847C140.526 6.21562 140.21 6.02287 139.807 5.95278Z" fill="#EB7124"/>
<path d="M26.6921 12.1433H24.0106C23.9931 12.1083 23.9931 12.0732 23.9931 12.0557C24.0457 12.0032 24.0807 11.9506 24.1333 11.9331C24.2034 11.9155 24.3086 11.9155 24.3962 11.9155H29.1808C29.321 11.9155 29.4963 11.8454 29.6014 12.1083C29.1633 12.1959 28.7427 12.1433 28.322 12.1609C27.9189 12.1784 27.4983 12.1609 27.0426 12.1609C24.4663 19.0299 21.89 25.8638 19.3137 32.7153H18.4549C17.2631 29.4385 16.0713 26.1617 14.8796 22.8849L14.8095 22.8674C14.3538 23.9363 13.9682 25.0227 13.5476 26.1267C13.1095 27.2131 12.7064 28.317 12.2857 29.4035C11.8651 30.4899 11.4445 31.5938 11.0063 32.6978H9.72693C7.22071 25.8638 4.73202 19.0123 2.24333 12.1258H0C0.105156 12.0032 0.140208 11.9331 0.192786 11.9155C0.297942 11.8805 0.420624 11.898 0.543306 11.898H22.4333C22.591 11.898 22.7663 11.8454 22.924 12.0207C22.6436 12.231 22.3807 12.1083 22.1178 12.1258C21.8725 12.1433 21.6096 12.1258 21.3467 12.1258H20.4704C20.4003 12.266 20.3477 12.3887 20.2951 12.5288C19.5415 14.544 18.8054 16.5766 18.0343 18.5918C17.9466 18.8196 17.9291 19.0299 18.0167 19.2577C18.9456 21.8511 19.892 24.462 20.8034 27.0729C20.8384 27.143 20.8735 27.2481 20.9085 27.3358C21.1364 27.0904 26.6395 12.5288 26.6921 12.1433ZM7.20319 12.1609C9.02589 17.2425 10.8486 22.2716 12.6713 27.3358C12.794 27.2131 12.8641 27.0904 12.8991 26.9502C13.4424 25.5309 13.9682 24.129 14.5115 22.7097C14.5992 22.4644 14.5992 22.2541 14.5115 22.0088C13.3373 18.8546 12.1981 15.6655 11.0414 12.5113C10.9888 12.3887 10.9538 12.2835 10.9012 12.1609C10.9362 12.1609 7.20319 12.1609 7.20319 12.1609ZM20.19 12.1609H15.5105C16.2817 14.2987 17.0178 16.3839 17.7714 18.4867H17.8415C18.6301 16.3839 19.4013 14.2811 20.19 12.1609Z" fill="#01004C"/>
<path d="M106.477 12.0952C105.951 12.1828 105.425 12.0952 104.882 12.1478C104.794 12.4456 104.777 31.791 104.865 32.2291C105.127 32.2291 105.425 32.2115 105.706 32.2291C105.969 32.2466 106.232 32.159 106.512 32.3167C106.442 32.3693 106.424 32.4218 106.389 32.4218C106.302 32.4393 106.197 32.4393 106.126 32.4393H99.2913C99.1686 32.4393 99.0109 32.5094 98.9057 32.3167C99.081 32.1239 99.2913 32.2466 99.5016 32.2291C99.7119 32.2115 99.9397 32.2291 100.15 32.2291H100.746C100.781 32.194 100.799 32.1765 100.799 32.1765C100.799 32.1765 100.816 32.159 100.816 32.1415C100.816 32.0363 100.834 31.9312 100.834 31.826C100.834 25.5178 100.834 19.227 100.763 12.9188C100.711 13.0589 100.658 13.2167 100.606 13.3568C98.6078 19.6826 96.6098 25.9909 94.6118 32.3167C94.5768 32.3868 94.5593 32.4919 94.5242 32.562C94.4891 32.6146 94.4541 32.6671 94.4015 32.6671C94.3489 32.6671 94.2788 32.6146 94.2613 32.5795C94.2087 32.4919 94.1912 32.3868 94.1562 32.2816C92.5963 27.568 91.0541 22.8718 89.4942 18.1406C88.9509 16.4934 88.4076 14.8638 87.8643 13.1991C87.8293 13.1115 87.7942 13.0064 87.7767 12.9188C87.7416 12.9188 87.7241 12.9012 87.7241 12.9012C87.7066 12.9012 87.7066 12.9188 87.7066 12.9363C87.7066 12.9538 87.6891 12.9538 87.6891 12.9713V31.8961C87.6891 31.9662 87.7066 32.0538 87.7241 32.1765C87.8818 32.1765 88.0396 32.194 88.1798 32.194H89.2664C89.3716 32.194 89.4942 32.159 89.5994 32.3693C89.4942 32.3868 89.3891 32.4218 89.2664 32.4218C87.3561 32.4919 85.954 32.4393 85.6911 32.2992C85.7963 32.2641 85.8839 32.2115 85.9365 32.2115C86.287 32.194 86.6726 32.2115 87.0231 32.2115H87.4262V12.1653C86.8128 12.0777 86.1993 12.2003 85.6035 12.0952C85.6035 12.0601 85.5859 12.0251 85.5859 12.0251C85.6385 11.99 85.6911 11.955 85.7612 11.9375C85.8138 11.92 85.8664 11.9375 85.9189 11.9375H91.2468C91.3169 11.9375 91.3695 11.955 91.4571 11.955C93.052 16.7037 94.6469 21.4524 96.2593 26.1836H96.3469C97.8541 21.4349 99.3614 16.7037 100.886 11.955H106.459C106.494 11.955 106.53 11.99 106.547 12.0251C106.494 12.0251 106.494 12.0601 106.477 12.0952Z" fill="#01004C"/>
<path d="M75.5017 23.0587C75.5543 22.8659 75.5893 22.6907 75.6769 22.5155C75.8697 22.0423 76.0275 21.5692 76.2904 21.1487C76.9038 20.1148 77.8677 19.6066 79.0419 19.5366C79.5327 19.5015 80.0584 19.5366 80.5316 19.6592C81.5482 19.9045 82.2141 20.5354 82.5647 21.4991C82.775 22.0949 82.8801 22.6907 82.8801 23.3215C82.8977 24.5131 82.8801 25.6696 82.8977 26.8612V32.1881C83.1781 32.3108 83.441 32.2232 83.7039 32.2582C83.9492 32.2933 84.1946 32.1881 84.475 32.3283C84.4224 32.3984 84.4049 32.4335 84.3523 32.451C84.2822 32.4685 84.1946 32.4685 84.1245 32.4685H78.4285C78.3234 32.4685 78.2182 32.4335 78.1131 32.3809C78.4636 32.1531 78.8842 32.3283 79.2698 32.2232C79.2873 32.1531 79.3048 32.0655 79.3048 31.9779C79.3048 28.9814 79.3048 25.985 79.2873 22.9886C79.2873 22.4979 79.2172 22.0423 79.1646 21.5517C79.1646 21.5166 79.1471 21.4816 79.1471 21.4466C78.9543 20.5354 78.4636 20.255 77.5522 20.5354C77.0615 20.6931 76.711 21.026 76.4306 21.4466C75.9924 22.0949 75.7821 22.8309 75.6594 23.5844C75.5543 24.3904 75.4491 25.2315 75.4316 26.0376C75.3965 27.9826 75.4141 29.9452 75.4141 31.8902C75.4141 31.9954 75.4316 32.1005 75.4316 32.2057C75.8172 32.3283 76.2202 32.1706 76.6584 32.3283C76.5708 32.3984 76.5007 32.451 76.4481 32.4685C76.378 32.486 76.2904 32.4685 76.2202 32.4685H70.6295C70.5068 32.4685 70.3666 32.4335 70.2439 32.4159V32.3283C70.314 32.2933 70.3841 32.2582 70.4542 32.2582C70.7697 32.2407 71.0851 32.2582 71.3831 32.2582H71.7862V12.1243C71.5058 12.1243 71.2429 12.1419 70.98 12.1243C70.7346 12.1068 70.4892 12.1944 70.1562 12.0192C70.3315 11.9491 70.3841 11.9141 70.4717 11.9141H75.2563C75.2914 11.9141 75.3264 11.9316 75.4141 11.9666C75.4316 12.6851 75.4141 13.421 75.4141 14.1395V23.0587H75.5017Z" fill="#01004C"/>
<path d="M158.81 19.7332C158.372 20.3641 157.758 20.7671 157.075 21.065C156.391 21.3804 155.673 21.6082 154.937 21.7659C154.849 21.8009 154.709 21.836 154.674 21.9236C154.621 22.0813 154.761 22.1514 154.884 22.204C155.234 22.2916 155.603 22.4142 155.971 22.4493C157.127 22.5369 158.161 22.1864 159.178 21.6783C159.721 21.3979 160.229 21.0475 160.65 20.6269C161.001 20.2589 161.281 19.8384 161.421 19.3302C161.544 18.8921 161.667 18.4541 161.789 18.0335C161.842 17.8758 161.912 17.7356 162 17.5078C162.07 17.8933 162.105 18.2087 162.192 18.5241C162.35 19.1725 162.683 19.7332 163.086 20.2764C164.015 21.5206 165.189 22.5194 166.574 23.2378C166.802 23.3605 167.065 23.4481 167.327 23.5357C167.415 23.5708 167.555 23.5357 167.66 23.4831C167.783 23.4131 167.713 23.2729 167.678 23.1677C167.345 22.0112 166.872 20.9423 166.293 19.8909C166.276 19.8734 166.293 19.8384 166.293 19.8033C166.469 19.7858 166.504 19.926 166.574 20.0136C167.012 20.6269 167.468 21.2227 167.836 21.871C168.326 22.6946 168.835 23.5007 169.431 24.2542C170.009 24.9726 170.272 25.7962 170.307 26.6898C170.342 27.4258 170.307 28.1618 170.289 28.8977C170.272 29.3533 170.307 29.3884 170.675 29.5987C170.745 29.6512 170.833 29.7038 170.938 29.7914C170.85 29.844 170.815 29.879 170.763 29.8966C170.184 30.0367 169.869 30.4573 169.711 30.983C169.606 31.3685 169.553 31.789 169.483 32.2271C169.413 32.2446 169.343 32.2622 169.255 32.2622C169.062 32.2797 168.957 32.1921 168.957 31.9993C168.975 31.6313 168.992 31.2458 169.01 30.8778C169.01 30.8428 169.045 30.8077 169.045 30.7727C169.027 30.7026 169.01 30.5624 168.957 30.5449C168.905 30.5099 168.765 30.5624 168.747 30.615C168.572 30.8954 168.397 31.1932 168.291 31.5087C168.221 31.7189 168.204 31.9643 168.151 32.2446C168.028 32.2622 167.871 32.2797 167.731 32.2797H153.955C153.85 32.2797 153.745 32.2622 153.64 32.2622C154.043 31.1056 154.218 29.9666 154.113 28.7576C154.008 27.566 153.482 26.4971 152.921 25.4457C152.956 25.4282 152.974 25.4107 152.991 25.3931C153.061 25.4632 153.149 25.4983 153.201 25.5859C153.482 25.9364 153.745 26.2693 154.008 26.6373C154.043 26.6898 154.06 26.7249 154.095 26.7599C154.165 26.795 154.253 26.83 154.306 26.8125C154.358 26.795 154.376 26.6898 154.376 26.6198C154.341 26.4445 154.271 26.2693 154.253 26.0941C154.008 24.0088 153.429 21.9937 152.746 20.0136C152.711 19.9085 152.676 19.8033 152.641 19.6281C152.763 19.6982 152.833 19.7157 152.868 19.7683C153.114 19.9961 153.377 20.2414 153.622 20.5042C153.832 20.7496 154.113 20.8547 154.446 20.8897C155.725 20.9949 156.952 20.8197 158.126 20.2764C158.319 20.0662 158.564 19.8734 158.81 19.7332ZM157.215 31.2984C157.495 31.3159 157.793 31.3159 158.074 31.3159C158.214 31.3159 158.354 31.351 158.494 31.351C158.792 31.3685 159.09 31.3685 159.388 31.3685C159.739 31.3685 159.826 31.2633 159.879 30.8954C159.879 30.8253 159.896 30.7727 159.914 30.7026C160.212 29.9666 160.685 29.441 161.526 29.4234C161.561 29.4234 161.596 29.4059 161.631 29.4059C161.842 29.3709 161.982 29.2657 162.087 29.073C162.455 28.302 162.858 27.5309 162.981 26.6373C163.051 26.1466 162.946 25.7261 162.613 25.3931C162.297 25.0777 161.982 24.7798 161.649 24.482C161.036 23.9212 160.457 23.343 160.054 22.607C159.984 22.4493 159.861 22.3967 159.704 22.4843C159.634 22.5194 159.563 22.5369 159.493 22.5544C158.056 23.0976 156.584 23.5708 155.094 23.9212C154.779 23.9913 154.744 24.0264 154.779 24.3242C154.884 25.3231 154.972 26.3394 155.112 27.3207C155.234 28.2319 155.164 29.0905 154.954 29.9666C154.884 30.247 154.831 30.5274 154.761 30.7902C154.691 31.1232 154.744 31.2108 155.112 31.2283H155.27C155.918 31.2984 156.566 31.2984 157.215 31.2984ZM165.049 23.2729C164.996 23.4831 165.119 23.5708 165.189 23.6759C165.4 24.0264 165.61 24.3768 165.803 24.7448C165.978 25.0953 166.066 25.4983 165.925 25.9013C165.662 26.6198 165.435 27.3557 165.172 28.0566C164.821 28.9854 164.418 29.9316 163.892 30.7902C163.7 31.0881 163.805 31.2458 164.155 31.2633C165.172 31.2809 166.171 31.2984 167.17 31.2984C167.485 31.2984 167.573 31.2283 167.625 30.8954C167.66 30.5799 167.801 30.3171 168.028 30.1243C168.239 29.9316 168.484 29.7739 168.729 29.6337C168.957 29.5286 169.22 29.476 169.466 29.3884C169.764 29.2832 169.781 29.2482 169.728 28.9328C169.711 28.8101 169.711 28.6699 169.693 28.5473C169.623 27.9165 169.571 27.3207 169.466 26.7074C169.343 26.0064 168.975 25.4632 168.326 25.1303C168.221 25.0602 168.116 25.0076 167.976 24.9376C167.029 24.4119 166.048 23.9563 165.172 23.2904C165.172 23.2904 165.137 23.2904 165.049 23.2729Z" fill="#EB7124"/>
<path d="M121.338 30.5584C121.531 30.6635 121.461 30.7686 121.408 30.8563C121.128 31.4345 120.725 31.8901 120.181 32.2055C119.708 32.4859 119.182 32.6786 118.639 32.6786C118.131 32.6962 117.588 32.6962 117.097 32.6086C115.905 32.3983 115.274 31.6273 115.222 30.4357C115.222 30.3306 115.222 30.2079 115.151 30.0852C115.099 30.2079 115.046 30.313 115.011 30.4357C114.696 31.2768 114.205 31.9777 113.364 32.3457C112.33 32.8364 111.261 32.8889 110.192 32.5034C108.982 32.0653 108.316 31.1541 108.176 29.8925C108.106 29.4369 108.123 28.9638 108.211 28.5082C108.404 27.4568 109.017 26.7208 109.946 26.2127C110.752 25.7571 111.629 25.5643 112.54 25.5118C113.259 25.4592 113.995 25.4767 114.713 25.4592H115.151C115.186 25.4066 115.222 25.3891 115.222 25.3716C115.257 24.1975 115.292 23.0235 115.011 21.867C114.906 21.4289 114.748 21.0259 114.485 20.6754C114.135 20.1848 113.662 19.9044 113.031 19.9044C112.26 19.9044 111.559 20.0796 110.875 20.395C110.805 20.4301 110.735 20.4651 110.665 20.5002C110.647 20.5177 110.63 20.5352 110.595 20.5878H111.173C112.207 20.6228 112.996 21.3588 113.083 22.3576C113.101 22.5328 113.083 22.7081 113.048 22.8483C112.891 23.8996 111.839 24.6356 110.7 24.5129C109.648 24.4078 108.965 23.5492 108.982 22.4803C109 21.867 109.245 21.3588 109.683 20.9207C110.314 20.2724 111.138 19.9219 111.997 19.7292C113.294 19.4488 114.591 19.4838 115.87 19.7993C117.623 20.2549 118.639 21.4815 118.779 23.2688C118.814 23.6718 118.832 24.0573 118.832 24.4604V30.8563C118.832 31.014 118.832 31.1717 118.849 31.3294C118.92 31.9252 119.375 32.223 119.936 31.9952C120.146 31.9076 120.392 31.785 120.567 31.6097C120.795 31.3819 120.988 31.1016 121.198 30.8387C121.215 30.7686 121.25 30.6635 121.338 30.5584ZM115.116 25.6519C114.853 25.6519 114.556 25.6344 114.258 25.6519C113.662 25.687 113.189 25.9498 112.82 26.4054C112.61 26.6683 112.435 26.9486 112.312 27.264C111.944 28.1052 111.927 28.9988 112.032 29.8925C112.084 30.278 112.19 30.6635 112.4 30.9789C112.68 31.417 113.066 31.5747 113.574 31.452C113.925 31.3819 114.205 31.1541 114.415 30.8738C114.678 30.5408 114.836 30.1553 114.924 29.7523C115.274 28.4206 115.186 27.0538 115.151 25.7045C115.186 25.7045 115.169 25.7045 115.116 25.6519Z" fill="#01004C"/>
<path d="M51.0949 30.6105C51.0598 30.7157 51.0247 30.8383 50.9897 30.9435C50.6041 31.7145 49.9557 32.2402 49.1319 32.503C48.2732 32.7834 47.3969 32.7834 46.5381 32.5556C45.469 32.2752 44.9257 31.5568 44.8556 30.4528C44.8556 30.3126 44.8556 30.1725 44.7855 29.9972C44.7504 30.0673 44.7154 30.1374 44.6803 30.2075C44.6102 30.3827 44.5577 30.558 44.47 30.6981C43.9442 31.8722 43.0154 32.4855 41.771 32.6432C41.2102 32.7133 40.6318 32.7133 40.071 32.5731C38.7215 32.2226 37.7926 31.0661 37.705 29.5942C37.5998 27.912 38.3534 26.6679 39.8957 25.9845C40.5968 25.6691 41.3504 25.4938 42.104 25.4763C42.8576 25.4237 43.5937 25.4413 44.3473 25.4237H44.803C44.803 24.8805 44.8205 24.3899 44.803 23.9168C44.7855 23.1633 44.7329 22.4273 44.5226 21.6913C44.3999 21.2883 44.2422 20.8853 43.9793 20.5348C43.6288 20.0967 43.2082 19.8865 42.6473 19.869C41.8061 19.8514 41.0349 20.0617 40.2988 20.4472C40.2287 20.4823 40.1762 20.5173 40.071 20.5874C40.3865 20.5874 40.6143 20.5699 40.8421 20.5874C41.6133 20.6575 42.2092 21.043 42.5071 21.779C42.8051 22.4974 42.6824 23.1808 42.1741 23.7766C41.6133 24.4424 40.5968 24.7053 39.7731 24.4074C38.7565 24.0569 38.2833 22.9004 38.6689 21.814C38.8617 21.2708 39.2297 20.8678 39.7029 20.5348C40.3514 20.0617 41.105 19.7989 41.8762 19.6762C42.9978 19.4834 44.1195 19.501 45.2236 19.7638C47.2216 20.2369 48.2732 21.4986 48.3608 23.5488C48.3783 23.8291 48.3783 24.127 48.3783 24.4074V31.3114C48.4484 31.9773 48.9567 32.2927 49.5701 31.9948C49.833 31.8722 50.0608 31.6794 50.2887 31.4867C50.4814 31.2939 50.6041 31.0486 50.7619 30.8383C50.832 30.7682 50.867 30.6806 50.9196 30.6105C51.0072 30.593 51.0423 30.593 51.0949 30.6105ZM44.7855 25.6515C44.47 25.6515 44.1896 25.634 43.9092 25.6515C43.3133 25.6866 42.8401 25.9494 42.4721 26.405C42.2793 26.6328 42.104 26.8957 41.9813 27.176C41.5081 28.2274 41.4906 29.3314 41.8061 30.4353C41.8762 30.6456 41.9638 30.8559 42.0865 31.0311C42.3319 31.3991 42.7174 31.5392 43.1556 31.4692C43.6112 31.3815 43.9267 31.1012 44.1546 30.7332C44.4525 30.2601 44.6102 29.7519 44.6979 29.2087C44.8906 28.0872 44.8381 26.9307 44.8381 25.7917C44.8381 25.7567 44.8205 25.7216 44.7855 25.6515Z" fill="#01004C"/>
<path d="M53.9608 12.0893H52.0154C51.9979 12.0893 51.9804 12.0542 51.9453 12.0017C52.0154 11.9666 52.103 11.914 52.1556 11.914C52.5061 11.8965 52.8216 11.914 53.1721 11.914H57.6062V32.2407H58.6928C59.0258 32.2582 59.3413 32.1881 59.6743 32.3633C59.6042 32.3984 59.5691 32.4334 59.499 32.451C59.4114 32.4685 59.3062 32.451 59.2361 32.451H52.401C52.2608 32.451 52.103 32.4159 51.9628 32.4159C51.9628 32.3809 51.9628 32.3458 51.9453 32.3108C52.0154 32.2932 52.1206 32.2407 52.1907 32.2407H53.9258C53.9608 32.2056 53.9783 32.1881 53.9783 32.1881C53.9783 32.1881 53.9959 32.1706 53.9959 32.1531C53.9959 32.083 54.0134 31.9954 54.0134 31.9253V12.2995C54.0134 12.247 53.9959 12.1944 53.9608 12.0893Z" fill="#01004C"/>
<path d="M35.6846 25.3788H28.2711C28.2535 25.4489 28.2185 25.4839 28.2185 25.5365C28.201 26.9383 28.236 28.3227 28.5515 29.707C28.6742 30.2502 28.8494 30.7759 29.1298 31.2665C29.6206 32.1076 30.3391 32.4581 31.3031 32.3529C32.7051 32.2128 33.7917 31.5469 34.5979 30.4254C34.9835 29.8997 35.2464 29.3215 35.4567 28.6906C35.4918 28.603 35.5268 28.4979 35.5619 28.3927C35.7722 28.4804 35.6846 28.6381 35.6495 28.7432C35.4392 29.4616 35.1062 30.145 34.633 30.7408C33.7567 31.8448 32.6175 32.4756 31.233 32.6333C30.0061 32.791 28.7968 32.6859 27.6752 32.1777C26.2556 31.5469 25.2566 30.4955 24.7308 29.0411C24.0122 27.061 23.9947 25.0634 24.7483 23.0833C25.537 20.9981 27.1143 19.8415 29.3051 19.5437C30.2164 19.421 31.1453 19.456 32.0216 19.7364C33.9144 20.3322 35.0186 21.699 35.4742 23.5739C35.5969 24.0471 35.6145 24.5377 35.667 25.0459C35.7196 25.151 35.7021 25.2386 35.6846 25.3788ZM28.2185 25.1685C29.4804 25.1685 30.6721 25.186 31.8989 25.151C31.9165 24.012 31.8639 22.9606 31.6886 21.8917C31.601 21.366 31.4783 20.8404 31.1979 20.3848C30.7247 19.5787 29.8659 19.4911 29.3051 20.2095C29.0948 20.4724 28.9195 20.8053 28.8144 21.1207C28.3412 22.4174 28.2535 23.7492 28.2185 25.1685Z" fill="#01004C"/>
<path d="M135.737 32.3133C135.667 32.3659 135.632 32.4184 135.562 32.4184C135.474 32.436 135.369 32.436 135.299 32.436H129.375C129.235 32.436 129.06 32.5061 128.937 32.2783C129.428 32.1381 129.901 32.2783 130.427 32.1906C130.164 31.6474 129.848 31.1393 129.568 30.6311C129.287 30.1229 128.972 29.5797 128.692 29.0715C128.394 28.5634 128.113 28.0377 127.78 27.477C126.588 29.0716 125.449 30.596 124.24 32.1731C124.415 32.1906 124.503 32.2082 124.59 32.2082H126.308C126.431 32.2082 126.536 32.2432 126.676 32.2607C126.588 32.4885 126.413 32.436 126.29 32.436H122.382C122.312 32.436 122.242 32.3834 122.172 32.3659V32.2783C122.26 32.2607 122.365 32.2257 122.452 32.2257H123.697C123.854 32.2257 123.96 32.1906 124.047 32.068C125.239 30.4734 126.413 28.9138 127.605 27.3193C127.605 27.3017 127.622 27.2842 127.64 27.2492C127.605 27.1791 127.57 27.0739 127.517 27.0038C126.255 24.7784 124.994 22.553 123.749 20.3276C123.627 20.1173 123.504 19.9947 123.241 20.0122C123.031 20.0297 122.803 20.0297 122.593 20.0122C122.505 20.0122 122.4 19.9771 122.295 19.9421C122.382 19.7318 122.522 19.7844 122.645 19.7844H128.902C129.042 19.7844 129.165 19.8019 129.305 19.8019C129.305 19.8369 129.322 19.872 129.322 19.8895C129.252 19.9246 129.182 19.9771 129.112 19.9771C128.814 19.9947 128.516 19.9771 128.218 19.9771H127.78C127.85 20.275 129.743 23.6219 130.076 24.0249C131.093 22.6932 132.074 21.379 133.091 20.0122C132.407 19.9771 131.794 19.9421 131.198 19.907C131.198 19.907 131.18 19.8545 131.163 19.8194C131.233 19.8019 131.32 19.7669 131.391 19.7669C132.775 19.6968 135.089 19.7493 135.369 19.8369C135.351 20.0122 135.211 19.9771 135.106 19.9771C134.65 19.9771 134.195 19.9947 133.757 19.9771C133.476 19.9596 133.301 20.0647 133.143 20.2925C132.232 21.5192 131.32 22.7282 130.409 23.9548C130.339 24.06 130.251 24.1826 130.164 24.3053C130.409 24.7259 130.654 25.1464 130.882 25.5494C132.074 27.6522 133.301 29.7374 134.493 31.8402C134.65 32.103 134.808 32.2082 135.106 32.1906C135.281 32.2082 135.509 32.1381 135.737 32.3133Z" fill="#01004C"/>
<path d="M66.0055 19.7837H67.3375C67.7581 19.7837 68.1787 19.7487 68.6169 19.8188C68.5468 20.029 68.4065 20.0115 68.2663 20.0115H66.023C66.0055 20.1342 65.9704 20.2218 65.9704 20.3445V30.2274C65.9704 30.5603 66.0055 30.8933 66.0756 31.2262C66.2158 31.857 66.6014 32.0498 67.2148 31.8395C67.5653 31.7169 67.8457 31.4891 68.1086 31.2262C68.4942 30.8232 68.7921 30.3501 69.02 29.8244C69.0725 29.7192 69.1251 29.6141 69.1777 29.4914C69.2127 29.4914 69.2478 29.509 69.2653 29.509C69.2653 29.5791 69.3179 29.6842 69.2828 29.7368C68.8096 31.0335 67.723 32.4003 65.7952 32.593C65.5148 32.6281 65.2168 32.6105 64.9364 32.6105C63.4817 32.5404 62.6405 31.7519 62.4652 30.315C62.4127 29.912 62.3951 29.4914 62.3951 29.0709V20.029C61.7817 19.994 61.2209 19.959 60.6601 19.9239C60.6425 19.9239 60.6425 19.8713 60.625 19.8363C60.9054 19.7136 61.2034 19.7837 61.4838 19.7662C61.7642 19.7487 62.0446 19.7662 62.3776 19.7662V17.0501C63.6219 16.9801 64.8137 16.8223 65.9003 16.2266C66.0405 16.542 65.9704 16.8223 65.9704 17.1027C65.988 17.4006 65.9704 17.6985 65.9704 17.9964V18.855L66.0055 19.7837Z" fill="#01004C"/>
<path d="M164.393 14.98C164.638 15.0501 164.883 15.1026 165.129 15.1902C165.795 15.418 166.461 15.6634 167.144 15.9087C167.285 15.9613 167.407 16.0314 167.53 15.9087C167.425 15.6108 166.566 14.8748 165.882 14.5244C165.234 14.1739 164.533 13.9636 163.797 13.8235V13.7534C163.902 13.7534 164.007 13.7358 164.112 13.7358C165.462 13.8585 166.741 14.2791 167.951 14.9274C168.985 15.4706 169.878 16.1715 170.772 16.9075C171.578 17.5734 172.507 18.0991 173.489 18.4495C174.295 18.7299 175.136 18.835 176.013 18.8525C177.38 18.8701 178.676 18.5371 179.903 17.9414C180.745 17.5208 181.165 16.8549 181.13 15.9262C181.113 15.5232 181.06 15.1026 180.99 14.6996C180.78 13.7884 180.149 13.3153 179.29 13.07C178.799 12.9298 178.291 12.9123 177.8 13.0174C177.485 13.0875 177.292 13.2277 177.117 13.508C176.433 14.7347 175.382 15.348 173.962 15.2428C173.629 15.2253 173.331 15.1377 173.051 14.9449C173.068 14.9099 173.068 14.8748 173.086 14.8748C173.576 14.8047 173.857 14.4718 174.137 14.1038C174.383 13.7534 174.61 13.4029 174.891 12.9648C174.751 13.473 174.681 13.9111 174.418 14.2966C174.383 14.3491 174.33 14.3842 174.312 14.4543C174.225 14.647 174.312 14.7872 174.523 14.7872C174.593 14.7872 174.681 14.7697 174.751 14.7347C175.417 14.5945 175.925 14.209 176.346 13.6833C176.398 13.6307 176.433 13.5781 176.451 13.5256C176.468 13.438 176.451 13.3153 176.398 13.2452C176.363 13.1926 176.223 13.1926 176.17 13.2102C175.96 13.2802 175.767 13.3679 175.557 13.4204C175.697 13.1926 175.942 13.07 176.153 12.9298C176.275 12.8597 176.486 12.8071 176.433 12.5968C176.381 12.4216 176.205 12.4041 176.048 12.4041C175.977 12.4041 175.907 12.3866 175.837 12.334C176.258 12.1938 176.678 12.1237 177.099 12.2639C177.344 12.3515 177.59 12.3691 177.853 12.334C178.869 12.2464 179.833 12.299 180.709 12.8947C181.27 13.2627 181.656 13.7534 181.849 14.4017C182.199 15.5758 182.024 16.6622 181.393 17.6785C180.955 18.3794 180.289 18.7825 179.553 19.1329C178.028 19.8514 176.416 20.0266 174.751 19.8163C173.156 19.606 171.666 19.0628 170.264 18.2918C170.106 18.2042 169.949 18.1166 169.791 18.029C169.773 18.029 169.756 18.029 169.721 18.0465C169.703 18.1166 169.651 18.1692 169.668 18.2392C169.913 19.9214 170.492 21.4635 171.684 22.7251C172.069 23.1457 172.227 23.6538 172.367 24.1971C172.7 25.4237 172.963 26.6853 173.103 27.9645C173.191 28.8231 173.191 29.6993 173.243 30.5579V30.8207C173.261 31.1011 173.331 31.2062 173.611 31.2062C174.681 31.2588 175.662 31.7144 176.696 31.9597C176.731 31.9597 176.766 31.9948 176.784 32.0123V32.0649C176.784 32.0824 176.766 32.0999 176.766 32.0999C175.224 32.0999 173.682 32.1174 172.157 32.1174C172.087 32.1174 172.034 32.0999 171.982 32.0824C172.157 30.8558 172.069 29.6467 171.911 28.4551C171.771 27.4038 171.561 26.4049 171.228 25.3886C171.21 25.3185 171.193 25.2484 171.175 25.1783C171.21 25.1608 171.228 25.1433 171.245 25.1258C171.316 25.2134 171.386 25.3185 171.438 25.4237C171.666 25.9143 171.911 26.44 172.139 26.9306C172.192 27.0358 172.227 27.1409 172.297 27.246C172.332 27.2986 172.402 27.3161 172.455 27.3161C172.507 27.2986 172.525 27.2285 172.542 27.1584C172.56 27.1409 172.542 27.1059 172.525 27.0883C172.262 26.2297 172.017 25.3711 171.736 24.53C171.543 24.0043 171.245 23.5487 170.79 23.1982C170.176 22.7076 169.843 22.0067 169.545 21.3058C169.247 20.6048 168.967 19.9039 168.687 19.1855C168.073 17.5909 166.987 16.4694 165.514 15.6634C165.164 15.4706 164.778 15.2779 164.428 15.0851C164.375 15.0501 164.393 15.015 164.393 14.98Z" fill="#EB7124"/>
<path d="M6.30469 39.8088V39.3182C6.40984 39.3007 6.515 39.2656 6.60263 39.2656H82.5253V39.7738C82.5019 39.7972 82.4844 39.8147 82.4727 39.8264C82.461 39.838 82.4493 39.8439 82.4377 39.8439C82.3851 39.8614 82.3325 39.8789 82.2799 39.8789H6.65521C6.5851 39.8789 6.49747 39.8789 6.42737 39.8614C6.39232 39.8614 6.37479 39.8439 6.30469 39.8088Z" fill="#EB7124"/>
<path d="M146.268 34.8754C146.058 34.8579 145.9 34.8404 145.76 34.8229C145.742 34.8229 145.742 34.8054 145.725 34.8054C145.935 34.7002 146.689 34.6652 147.302 34.7528V42.6206C147.512 42.6381 147.705 42.6732 147.88 42.6907V42.7608H146.338V41.762C146.321 41.7444 146.286 41.7444 146.268 41.7269C146.216 41.797 146.18 41.8496 146.145 41.9197C145.672 42.9185 144.813 43.0411 143.972 42.7257C143.481 42.533 143.113 42.2351 142.886 41.7795C142.377 40.7982 142.36 39.7819 142.903 38.8181C143.254 38.1698 143.85 37.7667 144.621 37.7317C145.269 37.6791 145.742 37.9595 146.058 38.5202C146.128 38.6429 146.18 38.748 146.286 38.9408V34.8754H146.268ZM146.321 40.5003C146.286 39.7994 146.251 39.3088 146.04 38.8181C145.918 38.5202 145.742 38.2749 145.479 38.0821C144.989 37.7317 144.393 37.8368 144.077 38.3625C143.92 38.6078 143.832 38.9057 143.762 39.1861C143.604 39.8169 143.639 40.4477 143.692 41.0611C143.744 41.4466 143.814 41.8321 144.042 42.165C144.393 42.7257 145.006 42.8309 145.532 42.4454C145.795 42.2351 145.988 41.9722 146.075 41.6744C146.18 41.2188 146.251 40.7807 146.321 40.5003Z" fill="#01004C"/>
<path d="M88.6249 38.8688V42.6537H89.1331C89.2733 42.6537 89.4311 42.6713 89.5713 42.7063C89.3084 42.8115 87.2053 42.829 86.6094 42.7764C86.9073 42.5661 87.2228 42.7589 87.5032 42.6362V34.8736C87.2228 34.856 86.9248 34.856 86.6444 34.8385C86.9073 34.6983 91.2888 34.6633 91.9548 34.7509C92.0249 35.0313 92.0424 36.5207 91.9548 37.0289C91.9022 36.8712 91.8847 36.8011 91.8847 36.731C91.8146 36.3805 91.762 36.0476 91.6218 35.7147C91.4115 35.224 91.0084 34.9261 90.4826 34.8911C89.8692 34.8385 89.2558 34.8736 88.6073 34.8736V38.6936C88.9754 38.7461 89.361 38.7286 89.729 38.6059C90.1496 38.4833 90.2898 38.1153 90.3599 37.6948C90.4826 38.0102 90.4826 39.5171 90.3775 39.9552C90.3424 39.815 90.3074 39.7449 90.3074 39.6748C90.2373 39.3244 90.0094 39.0791 89.6764 38.9564C89.4311 38.8337 89.028 38.8162 88.6249 38.8688Z" fill="#01004C"/>
<path d="M97.5636 42.6134C97.7915 42.6309 97.9667 42.666 98.1946 42.6835C97.8791 42.8062 96.3894 42.8237 95.9863 42.6835C96.1791 42.666 96.3368 42.6485 96.5471 42.6134V37.9698C96.3543 37.9523 96.1791 37.9348 95.9688 37.8997C96.1791 37.7596 96.8801 37.742 97.5636 37.8297V38.8285C97.5987 38.8285 97.6162 38.846 97.6337 38.846C97.6863 38.7408 97.7389 38.6357 97.809 38.5131C98.2471 37.707 99.3688 37.3916 100.157 37.8822C100.42 38.0399 100.578 38.2677 100.648 38.5656C100.701 38.8109 100.718 39.0738 100.736 39.3366C100.753 40.2829 100.736 41.2116 100.736 42.1753V42.5959C100.946 42.6309 101.139 42.6485 101.332 42.666V42.7361H99.176C99.176 42.7186 99.176 42.6835 99.1585 42.666C99.2461 42.6485 99.3513 42.6309 99.4389 42.6134C99.5265 42.5959 99.6142 42.5959 99.7193 42.5784C99.7193 42.4732 99.7368 42.3681 99.7368 42.263C99.7368 41.2116 99.7368 40.1427 99.7193 39.0913C99.7193 38.8285 99.6843 38.5481 99.6142 38.2853C99.5265 37.9348 99.3337 37.7946 98.9657 37.8297C98.5626 37.8647 98.2647 38.075 98.0543 38.3904C97.844 38.7058 97.7214 39.0563 97.6688 39.4418C97.511 40.5107 97.5987 41.5445 97.5636 42.6134Z" fill="#01004C"/>
<path d="M138.231 34.5547C139.142 37.2357 140.036 39.9167 140.947 42.6153C141.193 42.6328 141.438 42.6503 141.701 42.6678C141.456 42.7905 139.282 42.8431 138.651 42.7379C139.002 42.5452 139.37 42.7204 139.72 42.5977C139.475 41.8092 139.23 41.0207 138.984 40.2321H136.338C136.075 41.0031 135.812 41.7917 135.532 42.6328C135.935 42.6503 136.303 42.6503 136.653 42.6678C136.426 42.808 134.971 42.8431 134.375 42.7379C134.726 42.5627 135.041 42.7029 135.392 42.5977C136.303 39.9342 137.214 37.2532 138.108 34.5722C138.143 34.5722 138.196 34.5722 138.231 34.5547ZM137.758 36.307C137.722 36.307 137.705 36.307 137.687 36.2895C137.267 37.5336 136.846 38.7777 136.408 40.0394H138.932C138.529 38.7777 138.143 37.5511 137.758 36.307Z" fill="#01004C"/>
<path d="M109.55 42.6124C109.725 42.6299 109.9 42.6474 110.093 42.6649C109.865 42.7876 108.621 42.8226 107.885 42.735C108.06 42.5247 108.288 42.7 108.481 42.5773V37.9688C108.27 37.9512 108.095 37.9337 107.867 37.8987C108.095 37.776 108.849 37.741 109.48 37.8286V38.8449C109.515 38.8449 109.532 38.8449 109.55 38.8624C109.62 38.7398 109.672 38.6171 109.742 38.512C110.181 37.7234 111.355 37.4606 112.108 37.9512C112.406 38.1615 112.547 38.4594 112.599 38.8099C112.634 39.0377 112.634 39.283 112.652 39.5108V42.6299C112.862 42.6649 113.055 42.6824 113.283 42.7C113.002 42.8051 111.6 42.8402 111.039 42.7701C111.215 42.5948 111.425 42.735 111.618 42.6124C111.618 42.5598 111.653 42.4897 111.653 42.4196C111.653 41.2631 111.635 40.1241 111.618 38.9676C111.618 38.7398 111.565 38.4945 111.513 38.2842C111.425 37.9688 111.25 37.8812 110.917 37.8987C110.444 37.9337 110.128 38.1615 109.883 38.547C109.655 38.9325 109.532 39.3881 109.515 39.8437C109.48 40.7549 109.497 41.6486 109.497 42.5598C109.515 42.5598 109.532 42.5773 109.55 42.6124Z" fill="#01004C"/>
<path d="M103.244 38.2206C103.366 38.2557 103.436 38.2732 103.506 38.2907C103.822 38.4134 103.945 38.6938 103.857 39.0267C103.787 39.3246 103.506 39.5173 103.173 39.4823C102.858 39.4472 102.683 39.237 102.683 38.8865C102.683 38.5886 102.805 38.3433 103.033 38.2031C103.279 38.0454 103.542 37.9227 103.839 37.8351C104.313 37.6949 104.786 37.7125 105.259 37.8176C105.767 37.9403 106.1 38.2732 106.17 38.7989C106.223 39.0793 106.241 39.3596 106.241 39.6575V42.321C106.276 42.6364 106.486 42.7591 106.749 42.5839C106.889 42.5138 106.994 42.3561 107.099 42.2334C107.152 42.1808 107.187 42.1458 107.292 42.0406C107.152 42.5488 106.749 42.8642 106.223 42.8817C105.662 42.8993 105.399 42.689 105.171 42.0406C105.136 42.0932 105.101 42.1107 105.084 42.1633C104.663 43.0044 103.436 43.0044 102.876 42.6364C102.122 42.1458 102.104 40.9893 102.823 40.4461C103.138 40.2183 103.506 40.0956 103.892 40.0605C104.19 40.0255 104.488 40.008 104.786 39.9905H105.189C105.259 39.4472 105.242 38.9391 105.066 38.4309C104.926 38.0279 104.663 37.8351 104.243 37.8702C103.927 37.9227 103.577 37.9753 103.244 38.2206ZM105.277 40.1482H104.663C104.032 40.1657 103.612 40.4986 103.489 41.0769C103.419 41.3923 103.454 41.7077 103.489 42.0231C103.524 42.286 103.664 42.5488 103.98 42.6189C104.313 42.689 104.611 42.5839 104.803 42.321C104.961 42.0932 105.101 41.8128 105.154 41.5325C105.242 41.0944 105.224 40.6563 105.277 40.1482Z" fill="#01004C"/>
<path d="M127.712 42.0871C127.624 42.5778 127.221 42.8581 126.713 42.8932C126.17 42.9282 125.942 42.753 125.661 42.1046C125.644 42.1222 125.609 42.1222 125.591 42.1572C125.241 42.8581 124.417 43.0334 123.751 42.8406C123.26 42.7179 122.91 42.385 122.822 41.8593C122.717 41.2986 122.857 40.8079 123.33 40.4575C123.681 40.2297 124.049 40.107 124.452 40.072C124.838 40.0369 125.241 40.0194 125.679 40.0019C125.714 39.5112 125.749 38.9856 125.591 38.5124C125.451 38.0744 125.171 37.8816 124.715 37.8991C124.312 37.9167 124.049 38.0043 123.786 38.2496C123.856 38.2671 123.944 38.2846 123.996 38.3197C124.294 38.4423 124.434 38.7578 124.347 39.0556C124.259 39.3711 123.909 39.5463 123.576 39.4762C123.295 39.4061 123.12 39.1257 123.155 38.8278C123.19 38.5825 123.313 38.3547 123.523 38.2145C124.312 37.7064 125.153 37.6188 126.029 37.9692C126.467 38.1445 126.643 38.5475 126.678 39.0031C126.713 39.2659 126.713 39.5112 126.713 39.7741V42.1747C126.713 42.3675 126.678 42.5778 126.923 42.6654C127.151 42.7355 127.309 42.5953 127.466 42.4551C127.537 42.2974 127.624 42.1923 127.712 42.0871ZM125.679 40.1421H125.241C124.329 40.0895 123.909 40.7028 123.891 41.4563C123.874 41.6666 123.909 41.8944 123.961 42.1046C124.119 42.6829 124.68 42.8406 125.153 42.4551C125.381 42.2448 125.504 41.982 125.591 41.6841C125.714 41.1934 125.679 40.6853 125.679 40.1421Z" fill="#01004C"/>
<path d="M129.15 34.8552H128.344C128.554 34.6975 129.255 34.6624 130.096 34.7501C130.108 34.7617 130.119 34.7734 130.131 34.7851C130.131 34.8026 130.149 34.8026 130.166 34.8202C130.166 34.8552 130.184 34.8727 130.184 34.8902V35.0129C130.184 37.5362 130.184 40.0595 130.201 42.5828C130.201 42.6004 130.219 42.6179 130.236 42.6529C130.464 42.6704 130.727 42.688 130.972 42.7055V42.7756H128.361C128.624 42.5653 128.904 42.7405 129.167 42.6179V34.8552H129.15Z" fill="#01004C"/>
<path d="M167.071 41.2513C167.019 42.0224 166.353 42.6882 165.564 42.8459C163.97 43.1613 162.673 42.11 162.62 40.4979C162.603 40.0072 162.655 39.5166 162.848 39.061C163.216 38.2549 163.864 37.7993 164.741 37.7292C165.003 37.7117 165.284 37.7117 165.547 37.7643C166.563 37.9746 167.176 38.8332 167.106 39.9897C166.02 40.0423 164.916 39.9897 163.777 40.0247C163.742 40.7957 163.759 41.5492 164.145 42.2151C164.373 42.6006 164.758 42.7583 165.196 42.7408C165.985 42.6882 166.545 42.2852 166.896 41.5668C166.966 41.4616 167.001 41.3565 167.071 41.2513ZM165.95 39.8495C165.985 39.3589 165.932 38.9033 165.757 38.4652C165.634 38.1323 165.406 37.8869 165.021 37.8519C164.653 37.8344 164.355 37.9921 164.145 38.325C163.864 38.7981 163.777 39.3063 163.759 39.8495H165.95Z" fill="#01004C"/>
<path d="M118.091 38.5122C117.741 38.0216 117.25 37.8464 116.655 37.8639C116.129 37.8814 115.796 38.2143 115.603 38.6524C115.323 39.3358 115.288 40.0543 115.34 40.7902C115.375 41.1407 115.41 41.4911 115.533 41.8241C115.831 42.7528 116.742 43.0156 117.548 42.4549C117.881 42.2271 118.074 41.8942 118.232 41.5437C118.267 41.4561 118.302 41.351 118.424 41.2809C118.407 41.351 118.424 41.4386 118.389 41.5087C118.109 42.2446 117.671 42.8054 116.83 42.8755C115.919 42.9631 115.165 42.6827 114.639 41.9292C114.236 41.3334 114.149 40.6676 114.201 39.9666C114.219 39.7739 114.271 39.6162 114.306 39.441C114.762 37.8814 116.216 37.4959 117.373 37.8464C118.056 38.0566 118.459 38.6174 118.389 39.2307C118.354 39.5461 118.179 39.7388 117.899 39.7914C117.653 39.8265 117.426 39.7564 117.268 39.5636C117.11 39.3533 117.093 39.0905 117.233 38.8627C117.355 38.6524 117.583 38.5473 117.829 38.5823C117.899 38.5999 117.986 38.6174 118.039 38.6349C118.074 38.5473 118.074 38.5298 118.091 38.5122Z" fill="#01004C"/>
<path d="M168.646 37.9684C168.436 37.9509 168.261 37.9334 168.033 37.9159C168.261 37.7757 169.014 37.7581 169.628 37.8458V38.7044C169.663 38.7044 169.68 38.7044 169.698 38.7219C169.768 38.5642 169.856 38.4065 169.943 38.2488C170.224 37.8107 170.644 37.6355 171.135 37.7406C171.608 37.8282 171.923 38.2313 171.888 38.6693C171.853 39.0198 171.608 39.2826 171.257 39.2826C170.907 39.2826 170.662 39.0899 170.627 38.7745C170.574 38.424 170.767 38.1437 171.117 38.056C171.187 38.0385 171.257 38.0385 171.345 38.021C170.924 37.7757 170.469 37.8107 170.171 38.1612C169.996 38.3715 169.873 38.6168 169.803 38.8621C169.715 39.1775 169.645 39.5104 169.628 39.8609C169.593 40.7371 169.61 41.5957 169.61 42.4543C169.61 42.5069 169.628 42.5419 169.645 42.6295C169.838 42.6471 170.013 42.6646 170.259 42.6996C169.961 42.8223 168.699 42.8398 168.016 42.7697C168.191 42.577 168.419 42.7347 168.611 42.612L168.646 37.9684Z" fill="#01004C"/>
<path d="M158.46 42.4358C158.285 42.5935 158.145 42.7337 157.987 42.8914C157.864 42.611 157.847 41.7524 157.952 41.3143C158.004 41.4195 158.022 41.4896 158.039 41.5421C158.32 42.4708 159.459 43.014 160.352 42.6285C160.703 42.4884 160.878 42.243 160.913 41.8575C160.948 41.4895 160.738 41.2267 160.423 41.0865C160.125 40.9463 159.809 40.8762 159.511 40.7361C159.231 40.6309 158.916 40.5258 158.67 40.3681C158.092 40.0176 157.882 39.4043 158.057 38.756C158.232 38.1251 158.723 37.7396 159.389 37.7046C159.862 37.6871 160.282 37.8272 160.685 38.1076C160.843 37.9674 160.983 37.8448 161.141 37.7046C161.246 37.9499 161.264 38.7209 161.176 39.2466C161.123 39.1415 161.088 39.0714 161.071 39.0188C160.843 38.1777 159.985 37.6695 159.143 37.8798C158.968 37.9324 158.793 38.0375 158.653 38.1777C158.407 38.423 158.442 38.8085 158.705 39.0363C158.881 39.194 159.091 39.2992 159.301 39.3868C159.581 39.5095 159.879 39.5971 160.177 39.7197C160.335 39.7898 160.493 39.8424 160.65 39.9125C161.369 40.2629 161.649 40.7711 161.544 41.5071C161.456 42.1554 160.931 42.6986 160.247 42.8388C159.599 42.979 159.021 42.8388 158.46 42.4358Z" fill="#01004C"/>
<path d="M175.612 38.1315C175.77 37.9738 175.91 37.8511 176.05 37.7109C176.156 37.9563 176.191 38.6747 176.103 39.253C176.05 39.1478 176.015 39.0953 175.998 39.0427C175.77 38.2016 174.911 37.6934 174.07 37.9037C173.913 37.9387 173.755 38.0264 173.632 38.1315C173.352 38.3768 173.334 38.7974 173.632 39.0427C173.808 39.2004 174.018 39.3055 174.228 39.3931C174.508 39.5158 174.806 39.6034 175.104 39.7086C175.262 39.7786 175.42 39.8312 175.577 39.9013C176.296 40.2518 176.576 40.7599 176.471 41.4959C176.383 42.1442 175.858 42.6875 175.174 42.8276C174.543 42.9678 173.948 42.8276 173.404 42.4421C173.229 42.5823 173.072 42.74 172.844 42.9328V41.3732C172.861 41.3732 172.879 41.3557 172.914 41.3557C172.949 41.4258 172.966 41.4784 172.984 41.5485C173.264 42.4947 174.386 43.0204 175.279 42.6349C175.63 42.4947 175.823 42.2494 175.84 41.8639C175.875 41.4959 175.665 41.2331 175.35 41.0929C175.052 40.9527 174.736 40.8651 174.438 40.7424C174.158 40.6373 173.843 40.5321 173.597 40.3744C173.019 40.024 172.809 39.4282 172.984 38.7623C173.159 38.1315 173.65 37.746 174.316 37.7109C174.771 37.7109 175.192 37.8511 175.612 38.1315Z" fill="#01004C"/>
<path d="M151.585 41.4785C152.076 40.2869 152.514 39.1479 153.004 37.9213H152.023C152.286 37.7636 153.232 37.7461 153.898 37.8337C153.67 38.0265 153.407 37.8863 153.145 37.9739C152.479 39.5685 151.848 41.2507 151.129 42.8803C150.393 41.2507 149.78 39.6035 149.114 37.9564C148.921 37.9388 148.746 37.9213 148.57 37.8863C148.886 37.7636 150.708 37.7461 151.094 37.8512C150.814 37.9739 150.551 37.8688 150.323 37.9388C150.288 38.2543 151.304 41.0229 151.585 41.4785Z" fill="#01004C"/>
<path d="M156.243 42.6137C156.453 42.6312 156.629 42.6487 156.874 42.6838C156.611 42.8064 155.349 42.8415 154.648 42.7539C154.824 42.5436 155.051 42.7188 155.244 42.5962V37.9701C155.034 37.9526 154.859 37.9351 154.648 37.9C154.859 37.7774 155.525 37.7423 156.243 37.8299C156.243 38.3381 156.261 38.8813 156.261 39.3895V40.9841C156.243 41.5273 156.243 42.053 156.243 42.6137Z" fill="#01004C"/>
<path d="M92.9238 42.6664C93.099 42.6488 93.2742 42.6313 93.467 42.6138V37.9702C93.2567 37.9527 93.099 37.9352 92.9062 37.9176V37.83C93.1516 37.83 93.3969 37.8125 93.6422 37.8125H94.4483C94.4658 37.9877 94.4833 38.1279 94.4833 38.2856V42.6313C94.6936 42.6488 94.8863 42.6839 95.0616 42.7014V42.7715H92.9062C92.9238 42.7189 92.9238 42.7014 92.9238 42.6664Z" fill="#01004C"/>
<path d="M121.102 42.6101C121.348 42.6276 121.523 42.6451 121.698 42.6626C121.435 42.7853 119.981 42.8028 119.508 42.7327C119.701 42.575 119.893 42.6977 120.069 42.6101C120.139 42.3297 120.174 38.4571 120.104 37.9665C119.911 37.949 119.753 37.9314 119.508 37.8964C119.788 37.7737 120.612 37.7562 121.12 37.8438L121.102 42.6101Z" fill="#01004C"/>
<path d="M93.8905 35.9392C93.5401 35.9392 93.2422 35.6238 93.2422 35.2733C93.2422 34.9054 93.5576 34.625 93.9081 34.625C94.276 34.625 94.5389 34.9229 94.5389 35.2909C94.5389 35.6589 94.2585 35.9567 93.8905 35.9392Z" fill="#01004C"/>
<path d="M120.518 34.625C120.886 34.625 121.167 34.9054 121.167 35.2733C121.167 35.6413 120.886 35.9392 120.518 35.9392C120.15 35.9392 119.87 35.6413 119.852 35.2909C119.835 34.9404 120.133 34.625 120.518 34.625Z" fill="#01004C"/>
<path d="M155.665 34.6258C156.015 34.6258 156.313 34.9412 156.313 35.3092C156.296 35.6596 155.998 35.9575 155.647 35.9575C155.279 35.9575 155.016 35.6596 155.016 35.2741C154.999 34.8886 155.279 34.6083 155.665 34.6258Z" fill="#01004C"/>
</svg>
